<svg width="992" height="257" viewBox="0 0 992 257" fill="none" xmlns="http://www.w3.org/2000/svg">
<rect width="992" height="257" fill="white"/>
<path d="M5.04616 3.81818H3.29119L0.760653 5.44389V7.13423L3.14205 5.61293H3.2017V14H5.04616V3.81818ZM8.6894 14.1094C9.27604 14.1094 9.77817 13.6222 9.78315 13.0156C9.77817 12.419 9.27604 11.9318 8.6894 11.9318C8.08286 11.9318 7.59067 12.419 7.59565 13.0156C7.59067 13.6222 8.08286 14.1094 8.6894 14.1094Z" fill="#8799AF"/>
<path d="M24.5742 7.25355C24.261 4.99148 22.521 3.67898 20.2639 3.67898C17.6041 3.67898 15.6005 5.6179 15.6005 8.90909C15.6005 12.1953 17.5792 14.1392 20.2639 14.1392C22.685 14.1392 24.2908 12.5732 24.5742 10.6293L22.7149 10.6193C22.4812 11.8125 21.5068 12.4837 20.2887 12.4837C18.6381 12.4837 17.4549 11.2457 17.4549 8.90909C17.4549 6.61222 18.6282 5.33452 20.2937 5.33452C21.5316 5.33452 22.5011 6.03551 22.7149 7.25355H24.5742ZM35.8513 8.90909C35.8513 5.6179 33.8428 3.67898 31.1731 3.67898C28.4984 3.67898 26.4948 5.6179 26.4948 8.90909C26.4948 12.1953 28.4984 14.1392 31.1731 14.1392C33.8428 14.1392 35.8513 12.2003 35.8513 8.90909ZM33.9969 8.90909C33.9969 11.2259 32.8336 12.4837 31.1731 12.4837C29.5175 12.4837 28.3492 11.2259 28.3492 8.90909C28.3492 6.59233 29.5175 5.33452 31.1731 5.33452C32.8336 5.33452 33.9969 6.59233 33.9969 8.90909ZM46.4523 3.81818H44.6178V10.7585H44.5283L39.7357 3.81818H38.0851V14H39.9296V7.06463H40.0141L44.8117 14H46.4523V3.81818ZM48.9521 14H50.7965V9.67472H55.0274V8.12855H50.7965V5.36435H55.4748V3.81818H48.9521V14ZM57.1978 5.36435H58.9925V12.4538H57.1978V14H62.6317V12.4538H60.837V5.36435H62.6317V3.81818H57.1978V5.36435ZM69.1435 14.1392C70.4262 14.1392 71.331 13.6619 72.047 12.8068H72.1016L72.2359 14H73.5583V8.67045H69.3374V10.1122H71.7437C71.6989 11.5142 70.7096 12.4837 69.1535 12.4837C67.4532 12.4837 66.2799 11.206 66.2799 8.89915C66.2799 6.60724 67.5129 5.33452 69.1585 5.33452C70.3815 5.33452 71.2962 5.9858 71.6045 7.0696H73.4837C73.1755 5.06605 71.3857 3.67898 69.1336 3.67898C66.4738 3.67898 64.4255 5.63778 64.4255 8.91903C64.4255 12.1406 66.3396 14.1392 69.1435 14.1392ZM82.2564 3.81818V10.3161C82.2564 11.5938 81.3665 12.5085 79.9695 12.5085C78.5675 12.5085 77.6826 11.5938 77.6826 10.3161V3.81818H75.8381V10.4702C75.8381 12.6577 77.4787 14.1541 79.9695 14.1541C82.4503 14.1541 84.1009 12.6577 84.1009 10.4702V3.81818H82.2564ZM86.5957 14H88.4401V10.2713H90.3194L92.318 14H94.3762L92.1738 9.96307C93.3719 9.48082 94.0033 8.45668 94.0033 7.07457C94.0033 5.13068 92.7505 3.81818 90.4139 3.81818H86.5957V14ZM88.4401 8.74006V5.35938H90.1305C91.5076 5.35938 92.1241 5.99077 92.1241 7.07457C92.1241 8.15838 91.5076 8.74006 90.1404 8.74006H88.4401ZM96.1911 14H102.853V12.4538H98.0356V9.67472H102.47V8.12855H98.0356V5.36435H102.813V3.81818H96.1911V14Z" fill="#2B65CF"/>
<path d="M265.905 14H272.885V12.4588H268.45V12.3892L270.205 10.6044C272.184 8.70526 272.731 7.78054 272.731 6.6321C272.731 4.92685 271.344 3.67898 269.295 3.67898C267.277 3.67898 265.845 4.93182 265.845 6.86577H267.6C267.6 5.8267 268.256 5.17543 269.271 5.17543C270.24 5.17543 270.961 5.76705 270.961 6.72656C270.961 7.5767 270.444 8.18324 269.44 9.20241L265.905 12.6676V14ZM276.219 14.1094C276.805 14.1094 277.307 13.6222 277.312 13.0156C277.307 12.419 276.805 11.9318 276.219 11.9318C275.612 11.9318 275.12 12.419 275.125 13.0156C275.12 13.6222 275.612 14.1094 276.219 14.1094Z" fill="#8799AF"/>
<path d="M286.839 14C289.941 14 291.78 12.081 291.78 8.89915C291.78 5.72727 289.941 3.81818 286.908 3.81818H283.388V14H286.839ZM285.233 12.4041V5.41406H286.804C288.872 5.41406 289.951 6.56747 289.951 8.89915C289.951 11.2408 288.872 12.4041 286.749 12.4041H285.233ZM294.023 14H300.685V12.4538H295.867V9.67472H300.302V8.12855H295.867V5.36435H300.645V3.81818H294.023V14ZM303.017 14H304.861V10.5597H306.81C309.162 10.5597 310.424 9.14773 310.424 7.18892C310.424 5.24503 309.177 3.81818 306.835 3.81818H303.017V14ZM304.861 9.04332V5.35938H306.552C307.934 5.35938 308.545 6.10511 308.545 7.18892C308.545 8.27273 307.934 9.04332 306.562 9.04332H304.861ZM312.517 14H318.845V12.4538H314.361V3.81818H312.517V14ZM329.638 8.90909C329.638 5.6179 327.629 3.67898 324.959 3.67898C322.285 3.67898 320.281 5.6179 320.281 8.90909C320.281 12.1953 322.285 14.1392 324.959 14.1392C327.629 14.1392 329.638 12.2003 329.638 8.90909ZM327.783 8.90909C327.783 11.2259 326.62 12.4837 324.959 12.4837C323.304 12.4837 322.136 11.2259 322.136 8.90909C322.136 6.59233 323.304 5.33452 324.959 5.33452C326.62 5.33452 327.783 6.59233 327.783 8.90909ZM330.601 3.81818L334.305 10.2017V14H336.145V10.2017L339.848 3.81818H337.765L335.275 8.32244H335.175L332.684 3.81818H330.601Z" fill="#2B65CF"/>
<path d="M804.671 14.1392C806.849 14.1392 808.435 12.8913 808.43 11.1712C808.435 9.89844 807.639 8.98366 806.212 8.77983V8.70028C807.316 8.46165 808.057 7.64134 808.052 6.49787C808.057 4.94673 806.734 3.67898 804.701 3.67898C802.722 3.67898 801.191 4.85724 801.151 6.5625H802.926C802.956 5.70739 803.752 5.17543 804.691 5.17543C805.641 5.17543 806.272 5.75213 806.267 6.60724C806.272 7.49716 805.536 8.08878 804.482 8.08878H803.582V9.51065H804.482C805.77 9.51065 806.536 10.157 806.531 11.0767C806.536 11.9766 805.755 12.593 804.666 12.593C803.642 12.593 802.852 12.0611 802.807 11.2308H800.938C800.987 12.951 802.524 14.1392 804.671 14.1392ZM811.454 14.1094C812.041 14.1094 812.543 13.6222 812.548 13.0156C812.543 12.419 812.041 11.9318 811.454 11.9318C810.848 11.9318 810.355 12.419 810.36 13.0156C810.355 13.6222 810.848 14.1094 811.454 14.1094Z" fill="#8799AF"/>
<path d="M825.042 3.81818V10.3161C825.042 11.5938 824.152 12.5085 822.755 12.5085C821.353 12.5085 820.468 11.5938 820.468 10.3161V3.81818H818.624V10.4702C818.624 12.6577 820.264 14.1541 822.755 14.1541C825.236 14.1541 826.886 12.6577 826.886 10.4702V3.81818H825.042ZM837.748 3.81818H835.914V10.7585H835.824L831.032 3.81818H829.381V14H831.226V7.06463H831.31L836.108 14H837.748V3.81818ZM840.248 14H846.577V12.4538H842.093V3.81818H840.248V14ZM848.22 5.36435H850.015V12.4538H848.22V14H853.654V12.4538H851.86V5.36435H853.654V3.81818H848.22V5.36435ZM855.707 3.81818V14H857.477V6.99006H857.571L860.385 13.9702H861.707L864.521 7.00497H864.616V14H866.386V3.81818H864.129L861.106 11.196H860.987L857.964 3.81818H855.707ZM868.437 5.36435H870.232V12.4538H868.437V14H873.871V12.4538H872.076V5.36435H873.871V3.81818H868.437V5.36435ZM875.476 5.36435H878.623V14H880.452V5.36435H883.599V3.81818H875.476V5.36435ZM885.655 14H892.317V12.4538H887.5V9.67472H891.934V8.12855H887.5V5.36435H892.277V3.81818H885.655V14ZM898.099 14C901.202 14 903.041 12.081 903.041 8.89915C903.041 5.72727 901.202 3.81818 898.169 3.81818H894.649V14H898.099ZM896.494 12.4041V5.41406H898.065C900.133 5.41406 901.212 6.56747 901.212 8.89915C901.212 11.2408 900.133 12.4041 898.01 12.4041H896.494ZM914.78 6.61719H916.555C916.52 4.89702 915.053 3.67898 912.886 3.67898C910.748 3.67898 909.142 4.8821 909.147 6.68182C909.147 8.14347 910.186 8.98366 911.861 9.41619L913.02 9.71449C914.118 9.9929 914.844 10.3359 914.849 11.1264C914.844 11.9964 914.019 12.5781 912.816 12.5781C911.663 12.5781 910.768 12.0611 910.693 10.9922H908.878C908.953 13.0156 910.459 14.1541 912.831 14.1541C915.272 14.1541 916.689 12.9361 916.694 11.1413C916.689 9.37642 915.232 8.57102 913.701 8.2081L912.746 7.96946C911.911 7.7706 911.006 7.41761 911.016 6.56747C911.021 5.80185 911.707 5.24006 912.861 5.24006C913.959 5.24006 914.685 5.75213 914.78 6.61719ZM927.543 7.25355C927.23 4.99148 925.49 3.67898 923.233 3.67898C920.573 3.67898 918.57 5.6179 918.57 8.90909C918.57 12.1953 920.548 14.1392 923.233 14.1392C925.654 14.1392 927.26 12.5732 927.543 10.6293L925.684 10.6193C925.45 11.8125 924.476 12.4837 923.258 12.4837C921.607 12.4837 920.424 11.2457 920.424 8.90909C920.424 6.61222 921.597 5.33452 923.263 5.33452C924.501 5.33452 925.47 6.03551 925.684 7.25355H927.543ZM930.907 14L931.747 11.4893H935.575L936.42 14H938.389L934.8 3.81818H932.523L928.938 14H930.907ZM932.244 10.0078L933.621 5.90625H933.701L935.078 10.0078H932.244ZM940.22 14H946.549V12.4538H942.065V3.81818H940.22V14ZM948.64 14H955.302V12.4538H950.484V9.67472H954.919V8.12855H950.484V5.36435H955.262V3.81818H948.64V14Z" fill="#2B65CF"/>
<rect y="34" width="193" height="164" rx="3" fill="#F1F4F8"/>
<path d="M21 53.5C21.4945 53.5 21.9778 53.6466 22.3889 53.9213C22.8 54.196 23.1205 54.5865 23.3097 55.0433C23.4989 55.5001 23.5484 56.0028 23.452 56.4877C23.3555 56.9727 23.1174 57.4181 22.7678 57.7678C22.4181 58.1174 21.9727 58.3555 21.4877 58.452C21.0028 58.5484 20.5001 58.4989 20.0433 58.3097C19.5865 58.1205 19.196 57.8 18.9213 57.3889C18.6466 56.9778 18.5 56.4945 18.5 56C18.5007 55.3372 18.7644 54.7017 19.2331 54.2331C19.7017 53.7644 20.3372 53.5007 21 53.5ZM21 52.25C20.2583 52.25 19.5333 52.4699 18.9166 52.882C18.2999 53.294 17.8193 53.8797 17.5355 54.5649C17.2516 55.2502 17.1774 56.0042 17.3221 56.7316C17.4668 57.459 17.8239 58.1272 18.3484 58.6517C18.8728 59.1761 19.541 59.5333 20.2684 59.6779C20.9958 59.8226 21.7498 59.7484 22.4351 59.4645C23.1203 59.1807 23.706 58.7001 24.118 58.0834C24.5301 57.4667 24.75 56.7417 24.75 56C24.75 55.0054 24.3549 54.0516 23.6517 53.3483C22.9484 52.6451 21.9946 52.25 21 52.25Z" fill="#8799AF"/>
<path d="M44.9432 54.1477C44.5455 51.6591 42.5966 50.2045 40.1364 50.2045C37.125 50.2045 34.9034 52.4602 34.9034 56.1818C34.9034 59.9034 37.1136 62.1591 40.1364 62.1591C42.6932 62.1591 44.5625 60.5568 44.9432 58.2557L43.1705 58.25C42.8693 59.7386 41.6193 60.5568 40.1477 60.5568C38.1534 60.5568 36.6477 59.0284 36.6477 56.1818C36.6477 53.358 38.1477 51.8068 40.1534 51.8068C41.6364 51.8068 42.8807 52.642 43.1705 54.1477H44.9432ZM50.573 62.1761C52.4764 62.1761 53.823 61.2386 54.2094 59.8182L52.6014 59.5284C52.2946 60.3523 51.556 60.7727 50.5901 60.7727C49.1355 60.7727 48.1583 59.8295 48.1128 58.1477H54.3174V57.5455C54.3174 54.392 52.431 53.1591 50.4537 53.1591C48.0219 53.1591 46.4196 55.0114 46.4196 57.6932C46.4196 60.4034 47.9992 62.1761 50.573 62.1761ZM48.1185 56.875C48.1867 55.6364 49.0844 54.5625 50.4651 54.5625C51.7833 54.5625 52.6469 55.5398 52.6526 56.875H48.1185ZM56.1063 62H57.8052V56.6705C57.8052 55.5284 58.6858 54.7045 59.8904 54.7045C60.2427 54.7045 60.6404 54.767 60.7768 54.8068V53.1818C60.6063 53.1591 60.2711 53.142 60.0552 53.142C59.0324 53.142 58.1574 53.7216 57.8393 54.6591H57.7483V53.2727H56.1063V62ZM66.7404 53.2727H64.9506V51.1818H63.2518V53.2727H61.9734V54.6364H63.2518V59.7898C63.2461 61.375 64.4563 62.142 65.7972 62.1136C66.337 62.108 66.7006 62.0057 66.8995 61.9318L66.5927 60.5284C66.479 60.5511 66.2688 60.6023 65.9961 60.6023C65.445 60.6023 64.9506 60.4205 64.9506 59.4375V54.6364H66.7404V53.2727ZM68.5237 62H70.2225V53.2727H68.5237V62ZM69.3816 51.9261C69.9669 51.9261 70.4555 51.4716 70.4555 50.9148C70.4555 50.358 69.9669 49.8977 69.3816 49.8977C68.7907 49.8977 68.3078 50.358 68.3078 50.9148C68.3078 51.4716 68.7907 51.9261 69.3816 51.9261ZM76.5655 53.2727H74.6848V52.4886C74.6848 51.7159 75.003 51.2955 75.8325 51.2955C76.1848 51.2955 76.4348 51.375 76.5939 51.4261L76.9916 50.0511C76.753 49.9602 76.2586 49.8182 75.5711 49.8182C74.1905 49.8182 72.9802 50.625 72.9802 52.2614V53.2727H71.6336V54.6364H72.9802V62H74.6848V54.6364H76.5655V53.2727ZM78.2223 62H79.9212V53.2727H78.2223V62ZM79.0802 51.9261C79.6655 51.9261 80.1541 51.4716 80.1541 50.9148C80.1541 50.358 79.6655 49.8977 79.0802 49.8977C78.4893 49.8977 78.0064 50.358 78.0064 50.9148C78.0064 51.4716 78.4893 51.9261 79.0802 51.9261ZM85.7868 62.1761C87.8493 62.1761 89.1845 60.9375 89.372 59.2386H87.7186C87.5027 60.1818 86.7698 60.7386 85.7982 60.7386C84.3607 60.7386 83.4345 59.5398 83.4345 57.6364C83.4345 55.767 84.3777 54.5909 85.7982 54.5909C86.8777 54.5909 87.5368 55.2727 87.7186 56.0909H89.372C89.1902 54.3295 87.7527 53.1591 85.7698 53.1591C83.3095 53.1591 81.7186 55.0114 81.7186 57.6761C81.7186 60.3068 83.2527 62.1761 85.7868 62.1761ZM94.3598 62.1705C95.9507 62.1705 96.5757 61.1989 96.8826 60.642H97.0246V62H98.6837V53.2727H96.9848V54.6875H96.8826C96.5757 54.1477 95.9962 53.1591 94.3712 53.1591C92.2632 53.1591 90.7121 54.8239 90.7121 57.6534C90.7121 60.4773 92.2405 62.1705 94.3598 62.1705ZM94.7348 60.7216C93.2178 60.7216 92.428 59.3864 92.428 57.6364C92.428 55.9034 93.2007 54.6023 94.7348 54.6023C96.2178 54.6023 97.0132 55.8125 97.0132 57.6364C97.0132 59.4716 96.2007 60.7216 94.7348 60.7216ZM105.086 53.2727H103.297V51.1818H101.598V53.2727H100.319V54.6364H101.598V59.7898C101.592 61.375 102.802 62.142 104.143 62.1136C104.683 62.108 105.047 62.0057 105.245 61.9318L104.939 60.5284C104.825 60.5511 104.615 60.6023 104.342 60.6023C103.791 60.6023 103.297 60.4205 103.297 59.4375V54.6364H105.086V53.2727ZM110.537 62.1761C112.441 62.1761 113.787 61.2386 114.174 59.8182L112.566 59.5284C112.259 60.3523 111.52 60.7727 110.554 60.7727C109.1 60.7727 108.122 59.8295 108.077 58.1477H114.281V57.5455C114.281 54.392 112.395 53.1591 110.418 53.1591C107.986 53.1591 106.384 55.0114 106.384 57.6932C106.384 60.4034 107.963 62.1761 110.537 62.1761ZM108.083 56.875C108.151 55.6364 109.049 54.5625 110.429 54.5625C111.747 54.5625 112.611 55.5398 112.617 56.875H108.083Z" fill="#394D66"/>
<path d="M21 83.5C21.4945 83.5 21.9778 83.6466 22.3889 83.9213C22.8 84.196 23.1205 84.5865 23.3097 85.0433C23.4989 85.5001 23.5484 86.0028 23.452 86.4877C23.3555 86.9727 23.1174 87.4181 22.7678 87.7678C22.4181 88.1174 21.9727 88.3555 21.4877 88.452C21.0028 88.5484 20.5001 88.4989 20.0433 88.3097C19.5865 88.1205 19.196 87.8 18.9213 87.3889C18.6466 86.9778 18.5 86.4945 18.5 86C18.5007 85.3372 18.7644 84.7017 19.2331 84.2331C19.7017 83.7644 20.3372 83.5007 21 83.5ZM21 82.25C20.2583 82.25 19.5333 82.4699 18.9166 82.882C18.2999 83.294 17.8193 83.8797 17.5355 84.5649C17.2516 85.2502 17.1774 86.0042 17.3221 86.7316C17.4668 87.459 17.8239 88.1272 18.3484 88.6517C18.8728 89.1761 19.541 89.5333 20.2684 89.6779C20.9958 89.8226 21.7498 89.7484 22.4351 89.4645C23.1203 89.1807 23.706 88.7001 24.118 88.0834C24.5301 87.4667 24.75 86.7417 24.75 86C24.75 85.0054 24.3549 84.0516 23.6517 83.3483C22.9484 82.6451 21.9946 82.25 21 82.25Z" fill="#8799AF"/>
<path d="M40.1932 92.1591C41.6932 92.1591 42.7273 91.6023 43.5795 90.608H43.6364L43.7955 92H45.1477V86.0455H40.4602V87.4943H43.4261C43.3636 89.2955 42.0966 90.5568 40.1932 90.5568C38.1477 90.5568 36.6477 89.0057 36.6477 86.1761C36.6477 83.3523 38.2045 81.8068 40.1761 81.8068C41.7159 81.8068 42.858 82.6534 43.267 84.0398H45.0682C44.6761 81.7727 42.6761 80.2045 40.1591 80.2045C37.1534 80.2045 34.9034 82.4716 34.9034 86.1875C34.9034 89.8693 37.0455 92.1591 40.1932 92.1591ZM47.1398 92H48.8387V83.2727H47.1398V92ZM47.9978 81.9261C48.583 81.9261 49.0716 81.4716 49.0716 80.9148C49.0716 80.358 48.583 79.8977 47.9978 79.8977C47.4068 79.8977 46.9239 80.358 46.9239 80.9148C46.9239 81.4716 47.4068 81.9261 47.9978 81.9261ZM55.102 83.2727H53.3123V81.1818H51.6134V83.2727H50.335V84.6364H51.6134V89.7898C51.6077 91.375 52.8179 92.142 54.1589 92.1136C54.6986 92.108 55.0623 92.0057 55.2611 91.9318L54.9543 90.5284C54.8407 90.5511 54.6304 90.6023 54.3577 90.6023C53.8066 90.6023 53.3123 90.4205 53.3123 89.4375V84.6364H55.102V83.2727Z" fill="#394D66"/>
<path d="M21 113.5C21.4945 113.5 21.9778 113.647 22.3889 113.921C22.8 114.196 23.1205 114.586 23.3097 115.043C23.4989 115.5 23.5484 116.003 23.452 116.488C23.3555 116.973 23.1174 117.418 22.7678 117.768C22.4181 118.117 21.9727 118.356 21.4877 118.452C21.0028 118.548 20.5001 118.499 20.0433 118.31C19.5865 118.12 19.196 117.8 18.9213 117.389C18.6466 116.978 18.5 116.494 18.5 116C18.5007 115.337 18.7644 114.702 19.2331 114.233C19.7017 113.764 20.3372 113.501 21 113.5ZM21 112.25C20.2583 112.25 19.5333 112.47 18.9166 112.882C18.2999 113.294 17.8193 113.88 17.5355 114.565C17.2516 115.25 17.1774 116.004 17.3221 116.732C17.4668 117.459 17.8239 118.127 18.3484 118.652C18.8728 119.176 19.541 119.533 20.2684 119.678C20.9958 119.823 21.7498 119.748 22.4351 119.465C23.1203 119.181 23.706 118.7 24.118 118.083C24.5301 117.467 24.75 116.742 24.75 116C24.75 115.005 24.3549 114.052 23.6517 113.348C22.9484 112.645 21.9946 112.25 21 112.25Z" fill="#8799AF"/>
<path d="M44.9432 114.148C44.5455 111.659 42.5966 110.205 40.1364 110.205C37.125 110.205 34.9034 112.46 34.9034 116.182C34.9034 119.903 37.1136 122.159 40.1364 122.159C42.6932 122.159 44.5625 120.557 44.9432 118.256L43.1705 118.25C42.8693 119.739 41.6193 120.557 40.1477 120.557C38.1534 120.557 36.6477 119.028 36.6477 116.182C36.6477 113.358 38.1477 111.807 40.1534 111.807C41.6364 111.807 42.8807 112.642 43.1705 114.148H44.9432ZM48.5105 110.364H46.8117V122H48.5105V110.364ZM54.3762 122.176C56.8364 122.176 58.4444 120.375 58.4444 117.676C58.4444 114.96 56.8364 113.159 54.3762 113.159C51.916 113.159 50.308 114.96 50.308 117.676C50.308 120.375 51.916 122.176 54.3762 122.176ZM54.3819 120.75C52.7739 120.75 52.0239 119.347 52.0239 117.67C52.0239 116 52.7739 114.58 54.3819 114.58C55.9785 114.58 56.7285 116 56.7285 117.67C56.7285 119.347 55.9785 120.75 54.3819 120.75ZM65.7731 118.381C65.7788 119.864 64.6765 120.568 63.7219 120.568C62.6708 120.568 61.9435 119.807 61.9435 118.619V113.273H60.2447V118.824C60.2447 120.989 61.4322 122.114 63.1083 122.114C64.4208 122.114 65.3129 121.42 65.7163 120.489H65.8072V122H67.4776V113.273H65.7731V118.381ZM72.9313 122.17C74.5223 122.17 75.1473 121.199 75.4541 120.642H75.5961V122H77.2552V110.364H75.5563V114.688H75.4541C75.1473 114.148 74.5677 113.159 72.9427 113.159C70.8348 113.159 69.2836 114.824 69.2836 117.653C69.2836 120.477 70.812 122.17 72.9313 122.17ZM73.3063 120.722C71.7893 120.722 70.9995 119.386 70.9995 117.636C70.9995 115.903 71.7723 114.602 73.3063 114.602C74.7893 114.602 75.5848 115.812 75.5848 117.636C75.5848 119.472 74.7723 120.722 73.3063 120.722ZM83.8587 122H85.6143V117.909H88.0007C90.6996 117.909 92.0348 116.278 92.0348 114.131C92.0348 111.989 90.7109 110.364 88.0064 110.364H83.8587V122ZM85.6143 116.42V111.869H87.8189C89.5575 111.869 90.2677 112.812 90.2677 114.131C90.2677 115.449 89.5575 116.42 87.8416 116.42H85.6143ZM93.8607 122H95.5595V116.67C95.5595 115.528 96.4402 114.705 97.6448 114.705C97.997 114.705 98.3948 114.767 98.5311 114.807V113.182C98.3607 113.159 98.0254 113.142 97.8095 113.142C96.7868 113.142 95.9118 113.722 95.5936 114.659H95.5027V113.273H93.8607V122ZM103.269 122.176C105.729 122.176 107.337 120.375 107.337 117.676C107.337 114.96 105.729 113.159 103.269 113.159C100.809 113.159 99.2008 114.96 99.2008 117.676C99.2008 120.375 100.809 122.176 103.269 122.176ZM103.275 120.75C101.667 120.75 100.917 119.347 100.917 117.67C100.917 116 101.667 114.58 103.275 114.58C104.871 114.58 105.621 116 105.621 117.67C105.621 119.347 104.871 120.75 103.275 120.75ZM116.291 113.273H114.467L112.262 119.989H112.172L109.961 113.273H108.137L111.308 122H113.126L116.291 113.273ZM117.791 122H119.49V113.273H117.791V122ZM118.649 111.926C119.235 111.926 119.723 111.472 119.723 110.915C119.723 110.358 119.235 109.898 118.649 109.898C118.058 109.898 117.576 110.358 117.576 110.915C117.576 111.472 118.058 111.926 118.649 111.926ZM124.947 122.17C126.538 122.17 127.163 121.199 127.47 120.642H127.612V122H129.271V110.364H127.572V114.688H127.47C127.163 114.148 126.583 113.159 124.958 113.159C122.85 113.159 121.299 114.824 121.299 117.653C121.299 120.477 122.828 122.17 124.947 122.17ZM125.322 120.722C123.805 120.722 123.015 119.386 123.015 117.636C123.015 115.903 123.788 114.602 125.322 114.602C126.805 114.602 127.6 115.812 127.6 117.636C127.6 119.472 126.788 120.722 125.322 120.722ZM135.361 122.176C137.264 122.176 138.611 121.239 138.997 119.818L137.389 119.528C137.082 120.352 136.344 120.773 135.378 120.773C133.923 120.773 132.946 119.83 132.901 118.148H139.105V117.545C139.105 114.392 137.219 113.159 135.241 113.159C132.81 113.159 131.207 115.011 131.207 117.693C131.207 120.403 132.787 122.176 135.361 122.176ZM132.906 116.875C132.974 115.636 133.872 114.562 135.253 114.562C136.571 114.562 137.435 115.54 137.44 116.875H132.906ZM140.894 122H142.593V116.67C142.593 115.528 143.474 114.705 144.678 114.705C145.03 114.705 145.428 114.767 145.564 114.807V113.182C145.394 113.159 145.059 113.142 144.843 113.142C143.82 113.142 142.945 113.722 142.627 114.659H142.536V113.273H140.894V122Z" fill="#394D66"/>
<path d="M21 143.5C21.4945 143.5 21.9778 143.647 22.3889 143.921C22.8 144.196 23.1205 144.586 23.3097 145.043C23.4989 145.5 23.5484 146.003 23.452 146.488C23.3555 146.973 23.1174 147.418 22.7678 147.768C22.4181 148.117 21.9727 148.356 21.4877 148.452C21.0028 148.548 20.5001 148.499 20.0433 148.31C19.5865 148.12 19.196 147.8 18.9213 147.389C18.6466 146.978 18.5 146.494 18.5 146C18.5007 145.337 18.7644 144.702 19.2331 144.233C19.7017 143.764 20.3372 143.501 21 143.5ZM21 142.25C20.2583 142.25 19.5333 142.47 18.9166 142.882C18.2999 143.294 17.8193 143.88 17.5355 144.565C17.2516 145.25 17.1774 146.004 17.3221 146.732C17.4668 147.459 17.8239 148.127 18.3484 148.652C18.8728 149.176 19.541 149.533 20.2684 149.678C20.9958 149.823 21.7498 149.748 22.4351 149.465C23.1203 149.181 23.706 148.7 24.118 148.083C24.5301 147.467 24.75 146.742 24.75 146C24.75 145.005 24.3549 144.052 23.6517 143.348C22.9484 142.645 21.9946 142.25 21 142.25Z" fill="#8799AF"/>
<path d="M41.625 143.42H43.3182C43.267 141.557 41.6193 140.205 39.2557 140.205C36.9205 140.205 35.1307 141.54 35.1307 143.545C35.1307 145.165 36.2898 146.114 38.1591 146.619L39.5341 146.994C40.7784 147.324 41.7386 147.733 41.7386 148.767C41.7386 149.903 40.6534 150.653 39.1591 150.653C37.8068 150.653 36.6818 150.051 36.5795 148.784H34.8182C34.9318 150.892 36.5625 152.193 39.1705 152.193C41.9034 152.193 43.4773 150.756 43.4773 148.784C43.4773 146.688 41.608 145.875 40.1307 145.511L38.9943 145.216C38.0852 144.983 36.875 144.557 36.8807 143.443C36.8807 142.455 37.7841 141.722 39.2159 141.722C40.5511 141.722 41.5 142.347 41.625 143.42ZM50.8713 148.381C50.877 149.864 49.7747 150.568 48.8202 150.568C47.7691 150.568 47.0418 149.807 47.0418 148.619V143.273H45.3429V148.824C45.3429 150.989 46.5304 152.114 48.2066 152.114C49.5191 152.114 50.4111 151.42 50.8145 150.489H50.9054V152H52.5759V143.273H50.8713V148.381ZM54.8989 152H56.558V150.642H56.7C57.0069 151.199 57.6319 152.17 59.2228 152.17C61.3364 152.17 62.8705 150.477 62.8705 147.653C62.8705 144.824 61.3137 143.159 59.2057 143.159C57.5864 143.159 57.0012 144.148 56.7 144.688H56.5978V140.364H54.8989V152ZM56.5637 147.636C56.5637 145.812 57.3591 144.602 58.8421 144.602C60.3819 144.602 61.1546 145.903 61.1546 147.636C61.1546 149.386 60.3591 150.722 58.8421 150.722C57.3819 150.722 56.5637 149.472 56.5637 147.636ZM67.9492 152.17C69.5401 152.17 70.1651 151.199 70.4719 150.642H70.614V152H72.2731V140.364H70.5742V144.688H70.4719C70.1651 144.148 69.5856 143.159 67.9606 143.159C65.8526 143.159 64.3015 144.824 64.3015 147.653C64.3015 150.477 65.8299 152.17 67.9492 152.17ZM68.3242 150.722C66.8072 150.722 66.0174 149.386 66.0174 147.636C66.0174 145.903 66.7901 144.602 68.3242 144.602C69.8072 144.602 70.6026 145.812 70.6026 147.636C70.6026 149.472 69.7901 150.722 68.3242 150.722ZM78.2779 152.176C80.7382 152.176 82.3461 150.375 82.3461 147.676C82.3461 144.96 80.7382 143.159 78.2779 143.159C75.8177 143.159 74.2098 144.96 74.2098 147.676C74.2098 150.375 75.8177 152.176 78.2779 152.176ZM78.2836 150.75C76.6757 150.75 75.9257 149.347 75.9257 147.67C75.9257 146 76.6757 144.58 78.2836 144.58C79.8802 144.58 80.6302 146 80.6302 147.67C80.6302 149.347 79.8802 150.75 78.2836 150.75ZM84.1464 152H85.8453V146.619C85.8453 145.443 86.6691 144.625 87.6351 144.625C88.5782 144.625 89.2316 145.25 89.2316 146.199V152H90.9248V146.438C90.9248 145.386 91.5669 144.625 92.6748 144.625C93.5726 144.625 94.3112 145.125 94.3112 146.307V152H96.0101V146.148C96.0101 144.153 94.8964 143.159 93.3169 143.159C92.0612 143.159 91.118 143.761 90.6976 144.693H90.6066C90.226 143.739 89.4248 143.159 88.2601 143.159C87.1066 143.159 86.2487 143.733 85.8851 144.693H85.7771V143.273H84.1464V152ZM101.458 152.17C103.049 152.17 103.674 151.199 103.981 150.642H104.123V152H105.782V143.273H104.083V144.688H103.981C103.674 144.148 103.094 143.159 101.469 143.159C99.3615 143.159 97.8104 144.824 97.8104 147.653C97.8104 150.477 99.3388 152.17 101.458 152.17ZM101.833 150.722C100.316 150.722 99.5263 149.386 99.5263 147.636C99.5263 145.903 100.299 144.602 101.833 144.602C103.316 144.602 104.111 145.812 104.111 147.636C104.111 149.472 103.299 150.722 101.833 150.722ZM108.111 152H109.81V143.273H108.111V152ZM108.969 141.926C109.554 141.926 110.042 141.472 110.042 140.915C110.042 140.358 109.554 139.898 108.969 139.898C108.378 139.898 107.895 140.358 107.895 140.915C107.895 141.472 108.378 141.926 108.969 141.926ZM113.698 146.818C113.698 145.426 114.55 144.631 115.732 144.631C116.885 144.631 117.584 145.386 117.584 146.653V152H119.283V146.449C119.283 144.29 118.096 143.159 116.312 143.159C114.999 143.159 114.141 143.767 113.738 144.693H113.63V143.273H111.999V152H113.698V146.818Z" fill="#394D66"/>
<path d="M21 173.5C21.4945 173.5 21.9778 173.647 22.3889 173.921C22.8 174.196 23.1205 174.586 23.3097 175.043C23.4989 175.5 23.5484 176.003 23.452 176.488C23.3555 176.973 23.1174 177.418 22.7678 177.768C22.4181 178.117 21.9727 178.356 21.4877 178.452C21.0028 178.548 20.5001 178.499 20.0433 178.31C19.5865 178.12 19.196 177.8 18.9213 177.389C18.6466 176.978 18.5 176.494 18.5 176C18.5007 175.337 18.7644 174.702 19.2331 174.233C19.7017 173.764 20.3372 173.501 21 173.5ZM21 172.25C20.2583 172.25 19.5333 172.47 18.9166 172.882C18.2999 173.294 17.8193 173.88 17.5355 174.565C17.2516 175.25 17.1774 176.004 17.3221 176.732C17.4668 177.459 17.8239 178.127 18.3484 178.652C18.8728 179.176 19.541 179.533 20.2684 179.678C20.9958 179.823 21.7498 179.748 22.4351 179.465C23.1203 179.181 23.706 178.7 24.118 178.083C24.5301 177.467 24.75 176.742 24.75 176C24.75 175.005 24.3549 174.052 23.6517 173.348C22.9484 172.645 21.9946 172.25 21 172.25Z" fill="#8799AF"/>
<path d="M34.7045 171.875H36.767V180.489H34.7045V182H40.5795V180.489H38.5227V171.875H40.5795V170.364H34.7045V171.875ZM44.0262 176.818C44.0262 175.426 44.8784 174.631 46.0602 174.631C47.2137 174.631 47.9125 175.386 47.9125 176.653V182H49.6114V176.449C49.6114 174.29 48.4239 173.159 46.6398 173.159C45.3273 173.159 44.4693 173.767 44.0659 174.693H43.958V173.273H42.3273V182H44.0262V176.818ZM51.7938 185.273H53.4927V180.642H53.5949C53.9018 181.199 54.5268 182.17 56.1177 182.17C58.2313 182.17 59.7654 180.477 59.7654 177.653C59.7654 174.824 58.2086 173.159 56.1006 173.159C54.4813 173.159 53.8961 174.148 53.5949 174.688H53.4529V173.273H51.7938V185.273ZM53.4586 177.636C53.4586 175.812 54.254 174.602 55.737 174.602C57.2768 174.602 58.0495 175.903 58.0495 177.636C58.0495 179.386 57.254 180.722 55.737 180.722C54.2768 180.722 53.4586 179.472 53.4586 177.636ZM67.1012 178.381C67.1069 179.864 66.0046 180.568 65.0501 180.568C63.9989 180.568 63.2717 179.807 63.2717 178.619V173.273H61.5728V178.824C61.5728 180.989 62.7603 182.114 64.4364 182.114C65.7489 182.114 66.641 181.42 67.0444 180.489H67.1353V182H68.8057V173.273H67.1012V178.381ZM75.0663 173.273H73.2765V171.182H71.5776V173.273H70.2992V174.636H71.5776V179.79C71.572 181.375 72.7822 182.142 74.1231 182.114C74.6629 182.108 75.0265 182.006 75.2254 181.932L74.9186 180.528C74.8049 180.551 74.5947 180.602 74.322 180.602C73.7708 180.602 73.2765 180.42 73.2765 179.438V174.636H75.0663V173.273ZM81.1243 182H82.88V177.909H85.2663C87.9652 177.909 89.3004 176.278 89.3004 174.131C89.3004 171.989 87.9766 170.364 85.272 170.364H81.1243V182ZM82.88 176.42V171.869H85.0845C86.8231 171.869 87.5334 172.812 87.5334 174.131C87.5334 175.449 86.8231 176.42 85.1072 176.42H82.88ZM94.284 182.17C95.8749 182.17 96.4999 181.199 96.8067 180.642H96.9487V182H98.6078V173.273H96.909V174.688H96.8067C96.4999 174.148 95.9203 173.159 94.2953 173.159C92.1874 173.159 90.6362 174.824 90.6362 177.653C90.6362 180.477 92.1646 182.17 94.284 182.17ZM94.659 180.722C93.1419 180.722 92.3521 179.386 92.3521 177.636C92.3521 175.903 93.1249 174.602 94.659 174.602C96.1419 174.602 96.9374 175.812 96.9374 177.636C96.9374 179.472 96.1249 180.722 94.659 180.722ZM100.937 182H102.635V176.67C102.635 175.528 103.516 174.705 104.721 174.705C105.073 174.705 105.471 174.767 105.607 174.807V173.182C105.437 173.159 105.101 173.142 104.885 173.142C103.863 173.142 102.988 173.722 102.67 174.659H102.579V173.273H100.937V182ZM109.936 182.17C111.527 182.17 112.152 181.199 112.458 180.642H112.6V182H114.26V173.273H112.561V174.688H112.458C112.152 174.148 111.572 173.159 109.947 173.159C107.839 173.159 106.288 174.824 106.288 177.653C106.288 180.477 107.816 182.17 109.936 182.17ZM110.311 180.722C108.794 180.722 108.004 179.386 108.004 177.636C108.004 175.903 108.777 174.602 110.311 174.602C111.794 174.602 112.589 175.812 112.589 177.636C112.589 179.472 111.777 180.722 110.311 180.722ZM116.588 182H118.287V176.619C118.287 175.443 119.111 174.625 120.077 174.625C121.02 174.625 121.674 175.25 121.674 176.199V182H123.367V176.438C123.367 175.386 124.009 174.625 125.117 174.625C126.014 174.625 126.753 175.125 126.753 176.307V182H128.452V176.148C128.452 174.153 127.338 173.159 125.759 173.159C124.503 173.159 123.56 173.761 123.139 174.693H123.049C122.668 173.739 121.867 173.159 120.702 173.159C119.549 173.159 118.691 173.733 118.327 174.693H118.219V173.273H116.588V182ZM134.394 182.176C136.298 182.176 137.644 181.239 138.031 179.818L136.423 179.528C136.116 180.352 135.377 180.773 134.411 180.773C132.957 180.773 131.98 179.83 131.934 178.148H138.139V177.545C138.139 174.392 136.252 173.159 134.275 173.159C131.843 173.159 130.241 175.011 130.241 177.693C130.241 180.403 131.82 182.176 134.394 182.176ZM131.94 176.875C132.008 175.636 132.906 174.562 134.286 174.562C135.605 174.562 136.468 175.54 136.474 176.875H131.94ZM144.001 173.273H142.212V171.182H140.513V173.273H139.234V174.636H140.513V179.79C140.507 181.375 141.717 182.142 143.058 182.114C143.598 182.108 143.962 182.006 144.16 181.932L143.854 180.528C143.74 180.551 143.53 180.602 143.257 180.602C142.706 180.602 142.212 180.42 142.212 179.438V174.636H144.001V173.273ZM149.452 182.176C151.356 182.176 152.702 181.239 153.089 179.818L151.481 179.528C151.174 180.352 150.435 180.773 149.469 180.773C148.015 180.773 147.038 179.83 146.992 178.148H153.197V177.545C153.197 174.392 151.31 173.159 149.333 173.159C146.901 173.159 145.299 175.011 145.299 177.693C145.299 180.403 146.878 182.176 149.452 182.176ZM146.998 176.875C147.066 175.636 147.964 174.562 149.344 174.562C150.663 174.562 151.526 175.54 151.532 176.875H146.998ZM154.986 182H156.684V176.67C156.684 175.528 157.565 174.705 158.77 174.705C159.122 174.705 159.52 174.767 159.656 174.807V173.182C159.486 173.159 159.15 173.142 158.934 173.142C157.912 173.142 157.037 173.722 156.718 174.659H156.628V173.273H154.986V182ZM167.57 175.403C167.218 174.045 166.155 173.159 164.269 173.159C162.297 173.159 160.899 174.199 160.899 175.744C160.899 176.983 161.649 177.807 163.286 178.17L164.763 178.494C165.604 178.682 165.996 179.057 165.996 179.602C165.996 180.278 165.274 180.807 164.161 180.807C163.144 180.807 162.49 180.369 162.286 179.511L160.644 179.761C160.928 181.307 162.212 182.176 164.172 182.176C166.28 182.176 167.74 181.057 167.74 179.477C167.74 178.244 166.956 177.483 165.354 177.114L163.968 176.795C163.007 176.568 162.593 176.244 162.598 175.653C162.593 174.983 163.32 174.506 164.286 174.506C165.343 174.506 165.831 175.091 166.03 175.676L167.57 175.403Z" fill="#394D66"/>
<path d="M231 106L229.57 107.393L237.15 115H217V117H237.15L229.57 124.573L231 126L241 116L231 106Z" fill="#BFCCDA"/>
<rect x="265" y="34" width="432" height="164" rx="5" fill="#F1F4F8"/>
<rect x="281" y="94" width="100" height="44" rx="3" fill="white"/>
<path d="M293.705 111.875H297.33V122H299.08V111.875H302.71V110.364H293.705V111.875ZM306.964 122.176C308.867 122.176 310.214 121.239 310.6 119.818L308.992 119.528C308.685 120.352 307.947 120.773 306.981 120.773C305.526 120.773 304.549 119.83 304.503 118.148H310.708V117.545C310.708 114.392 308.822 113.159 306.844 113.159C304.413 113.159 302.81 115.011 302.81 117.693C302.81 120.403 304.39 122.176 306.964 122.176ZM304.509 116.875C304.577 115.636 305.475 114.562 306.856 114.562C308.174 114.562 309.038 115.54 309.043 116.875H304.509ZM312.497 122H314.196V116.67C314.196 115.528 315.076 114.705 316.281 114.705C316.633 114.705 317.031 114.767 317.167 114.807V113.182C316.997 113.159 316.662 113.142 316.446 113.142C315.423 113.142 314.548 113.722 314.23 114.659H314.139V113.273H312.497V122ZM318.542 122H320.24V116.67C320.24 115.528 321.121 114.705 322.326 114.705C322.678 114.705 323.076 114.767 323.212 114.807V113.182C323.042 113.159 322.706 113.142 322.49 113.142C321.468 113.142 320.593 113.722 320.274 114.659H320.184V113.273H318.542V122ZM327.541 122.17C329.132 122.17 329.757 121.199 330.063 120.642H330.205V122H331.865V113.273H330.166V114.688H330.063C329.757 114.148 329.177 113.159 327.552 113.159C325.444 113.159 323.893 114.824 323.893 117.653C323.893 120.477 325.421 122.17 327.541 122.17ZM327.916 120.722C326.399 120.722 325.609 119.386 325.609 117.636C325.609 115.903 326.382 114.602 327.916 114.602C329.399 114.602 330.194 115.812 330.194 117.636C330.194 119.472 329.382 120.722 327.916 120.722ZM338.347 113.273H336.466V112.489C336.466 111.716 336.784 111.295 337.614 111.295C337.966 111.295 338.216 111.375 338.375 111.426L338.773 110.051C338.534 109.96 338.04 109.818 337.352 109.818C335.972 109.818 334.761 110.625 334.761 112.261V113.273H333.415V114.636H334.761V122H336.466V114.636H338.347V113.273ZM343.336 122.176C345.796 122.176 347.404 120.375 347.404 117.676C347.404 114.96 345.796 113.159 343.336 113.159C340.876 113.159 339.268 114.96 339.268 117.676C339.268 120.375 340.876 122.176 343.336 122.176ZM343.342 120.75C341.734 120.75 340.984 119.347 340.984 117.67C340.984 116 341.734 114.58 343.342 114.58C344.938 114.58 345.688 116 345.688 117.67C345.688 119.347 344.938 120.75 343.342 120.75ZM349.204 122H350.903V116.67C350.903 115.528 351.784 114.705 352.989 114.705C353.341 114.705 353.739 114.767 353.875 114.807V113.182C353.704 113.159 353.369 113.142 353.153 113.142C352.131 113.142 351.256 113.722 350.937 114.659H350.846V113.273H349.204V122ZM355.249 122H356.948V116.619C356.948 115.443 357.772 114.625 358.738 114.625C359.681 114.625 360.334 115.25 360.334 116.199V122H362.027V116.438C362.027 115.386 362.669 114.625 363.777 114.625C364.675 114.625 365.414 115.125 365.414 116.307V122H367.113V116.148C367.113 114.153 365.999 113.159 364.419 113.159C363.164 113.159 362.221 113.761 361.8 114.693H361.709C361.329 113.739 360.527 113.159 359.363 113.159C358.209 113.159 357.351 113.733 356.988 114.693H356.88V113.273H355.249V122Z" fill="#394D66"/>
<path d="M427 106L425.57 107.393L433.15 115H413V117H433.15L425.57 124.573L427 126L437 116L427 106Z" fill="#BFCCDA"/>
<rect x="469" y="49" width="212" height="134" rx="3" fill="white"/>
<path d="M491.5 75L487 70.5L487.707 69.793L491.5 73.5855L498.293 66.793L499 67.5L491.5 75Z" fill="#8799AF"/>
<path d="M510.278 77H517.642V75.4886H512.034V71.9261H517.193V70.4205H512.034V66.875H517.574V65.3636H510.278V77ZM519.823 77H521.579V73.3807L522.954 71.8011L526.715 77H528.829L524.118 70.6023L528.812 65.3636H526.601L521.721 70.9205H521.579V65.3636H519.823V77ZM536.667 68.4205H538.361C538.309 66.5568 536.662 65.2045 534.298 65.2045C531.963 65.2045 530.173 66.5398 530.173 68.5455C530.173 70.1648 531.332 71.1136 533.201 71.6193L534.576 71.9943C535.821 72.3239 536.781 72.733 536.781 73.767C536.781 74.9034 535.696 75.6534 534.201 75.6534C532.849 75.6534 531.724 75.0511 531.622 73.7841H529.861C529.974 75.892 531.605 77.1932 534.213 77.1932C536.946 77.1932 538.52 75.7557 538.52 73.7841C538.52 71.6875 536.65 70.875 535.173 70.5114L534.037 70.2159C533.128 69.983 531.917 69.5568 531.923 68.4432C531.923 67.4545 532.826 66.7216 534.258 66.7216C535.594 66.7216 536.542 67.3466 536.667 68.4205Z" fill="#394D66"/>
<path d="M491.5 105L487 100.5L487.707 99.793L491.5 103.585L498.293 96.793L499 97.5L491.5 105Z" fill="#8799AF"/>
<path d="M514.045 107C517.591 107 519.642 104.801 519.642 101.165C519.642 97.5455 517.591 95.3636 514.165 95.3636H510.278V107H514.045ZM512.034 105.466V96.8977H514.057C516.602 96.8977 517.915 98.4205 517.915 101.165C517.915 103.92 516.602 105.466 513.949 105.466H512.034ZM525.269 107.176C527.729 107.176 529.337 105.375 529.337 102.676C529.337 99.9602 527.729 98.1591 525.269 98.1591C522.809 98.1591 521.201 99.9602 521.201 102.676C521.201 105.375 522.809 107.176 525.269 107.176ZM525.275 105.75C523.667 105.75 522.917 104.347 522.917 102.67C522.917 101 523.667 99.5795 525.275 99.5795C526.871 99.5795 527.621 101 527.621 102.67C527.621 104.347 526.871 105.75 525.275 105.75ZM534.814 107.176C536.876 107.176 538.211 105.938 538.399 104.239H536.746C536.53 105.182 535.797 105.739 534.825 105.739C533.388 105.739 532.461 104.54 532.461 102.636C532.461 100.767 533.405 99.5909 534.825 99.5909C535.905 99.5909 536.564 100.273 536.746 101.091H538.399C538.217 99.3295 536.78 98.1591 534.797 98.1591C532.336 98.1591 530.746 100.011 530.746 102.676C530.746 105.307 532.28 107.176 534.814 107.176ZM540.12 107H541.819V103.903L542.665 103.057L545.631 107H547.716L543.944 102.017L547.478 98.2727H545.444L541.966 101.966H541.819V95.3636H540.12V107ZM552.332 107.176C554.235 107.176 555.582 106.239 555.968 104.818L554.36 104.528C554.054 105.352 553.315 105.773 552.349 105.773C550.894 105.773 549.917 104.83 549.872 103.148H556.076V102.545C556.076 99.392 554.19 98.1591 552.213 98.1591C549.781 98.1591 548.179 100.011 548.179 102.693C548.179 105.403 549.758 107.176 552.332 107.176ZM549.877 101.875C549.946 100.636 550.843 99.5625 552.224 99.5625C553.542 99.5625 554.406 100.54 554.411 101.875H549.877ZM557.865 107H559.564V101.67C559.564 100.528 560.445 99.7045 561.649 99.7045C562.002 99.7045 562.399 99.767 562.536 99.8068V98.1818C562.365 98.1591 562.03 98.142 561.814 98.142C560.791 98.142 559.916 98.7216 559.598 99.6591H559.507V98.2727H557.865V107ZM563.91 107H565.609V98.2727H563.91V107ZM564.768 96.9261C565.353 96.9261 565.842 96.4716 565.842 95.9148C565.842 95.358 565.353 94.8977 564.768 94.8977C564.177 94.8977 563.694 95.358 563.694 95.9148C563.694 96.4716 564.177 96.9261 564.768 96.9261ZM567.616 107H574.622V105.523H569.917V105.443L574.463 99.5114V98.2727H567.77V99.75H572.344V99.8295L567.616 105.835V107ZM580.042 107.176C581.945 107.176 583.292 106.239 583.678 104.818L582.07 104.528C581.763 105.352 581.025 105.773 580.059 105.773C578.604 105.773 577.627 104.83 577.581 103.148H583.786V102.545C583.786 99.392 581.9 98.1591 579.922 98.1591C577.491 98.1591 575.888 100.011 575.888 102.693C575.888 105.403 577.468 107.176 580.042 107.176ZM577.587 101.875C577.655 100.636 578.553 99.5625 579.934 99.5625C581.252 99.5625 582.116 100.54 582.121 101.875H577.587ZM588.842 107.17C590.433 107.17 591.058 106.199 591.365 105.642H591.507V107H593.166V95.3636H591.467V99.6875H591.365C591.058 99.1477 590.478 98.1591 588.853 98.1591C586.745 98.1591 585.194 99.8239 585.194 102.653C585.194 105.477 586.723 107.17 588.842 107.17ZM589.217 105.722C587.7 105.722 586.91 104.386 586.91 102.636C586.91 100.903 587.683 99.6023 589.217 99.6023C590.7 99.6023 591.495 100.812 591.495 102.636C591.495 104.472 590.683 105.722 589.217 105.722ZM606.116 98.4205H607.809C607.758 96.5568 606.11 95.2045 603.747 95.2045C601.411 95.2045 599.622 96.5398 599.622 98.5455C599.622 100.165 600.781 101.114 602.65 101.619L604.025 101.994C605.269 102.324 606.23 102.733 606.23 103.767C606.23 104.903 605.144 105.653 603.65 105.653C602.298 105.653 601.173 105.051 601.07 103.784H599.309C599.423 105.892 601.053 107.193 603.661 107.193C606.394 107.193 607.968 105.756 607.968 103.784C607.968 101.688 606.099 100.875 604.622 100.511L603.485 100.216C602.576 99.983 601.366 99.5568 601.372 98.4432C601.372 97.4545 602.275 96.7216 603.707 96.7216C605.042 96.7216 605.991 97.3466 606.116 98.4205ZM613.595 107.176C615.499 107.176 616.845 106.239 617.232 104.818L615.624 104.528C615.317 105.352 614.578 105.773 613.612 105.773C612.158 105.773 611.18 104.83 611.135 103.148H617.339V102.545C617.339 99.392 615.453 98.1591 613.476 98.1591C611.044 98.1591 609.442 100.011 609.442 102.693C609.442 105.403 611.021 107.176 613.595 107.176ZM611.141 101.875C611.209 100.636 612.107 99.5625 613.487 99.5625C614.805 99.5625 615.669 100.54 615.675 101.875H611.141ZM619.128 107H620.827V101.67C620.827 100.528 621.708 99.7045 622.913 99.7045C623.265 99.7045 623.663 99.767 623.799 99.8068V98.1818C623.628 98.1591 623.293 98.142 623.077 98.142C622.055 98.142 621.18 98.7216 620.861 99.6591H620.77V98.2727H619.128V107ZM632.905 98.2727H631.081L628.876 104.989H628.785L626.575 98.2727H624.751L627.922 107H629.74L632.905 98.2727ZM634.405 107H636.104V98.2727H634.405V107ZM635.263 96.9261C635.848 96.9261 636.337 96.4716 636.337 95.9148C636.337 95.358 635.848 94.8977 635.263 94.8977C634.672 94.8977 634.189 95.358 634.189 95.9148C634.189 96.4716 634.672 96.9261 635.263 96.9261ZM641.97 107.176C644.032 107.176 645.367 105.938 645.555 104.239H643.902C643.686 105.182 642.953 105.739 641.981 105.739C640.544 105.739 639.617 104.54 639.617 102.636C639.617 100.767 640.561 99.5909 641.981 99.5909C643.061 99.5909 643.72 100.273 643.902 101.091H645.555C645.373 99.3295 643.936 98.1591 641.953 98.1591C639.492 98.1591 637.902 100.011 637.902 102.676C637.902 105.307 639.436 107.176 641.97 107.176ZM651.037 107.176C652.94 107.176 654.287 106.239 654.673 104.818L653.065 104.528C652.759 105.352 652.02 105.773 651.054 105.773C649.6 105.773 648.622 104.83 648.577 103.148H654.781V102.545C654.781 99.392 652.895 98.1591 650.918 98.1591C648.486 98.1591 646.884 100.011 646.884 102.693C646.884 105.403 648.463 107.176 651.037 107.176ZM648.582 101.875C648.651 100.636 649.548 99.5625 650.929 99.5625C652.247 99.5625 653.111 100.54 653.117 101.875H648.582ZM663.11 100.403C662.758 99.0455 661.695 98.1591 659.809 98.1591C657.837 98.1591 656.44 99.1989 656.44 100.744C656.44 101.983 657.19 102.807 658.826 103.17L660.303 103.494C661.144 103.682 661.536 104.057 661.536 104.602C661.536 105.278 660.815 105.807 659.701 105.807C658.684 105.807 658.031 105.369 657.826 104.511L656.184 104.761C656.468 106.307 657.752 107.176 659.712 107.176C661.82 107.176 663.281 106.057 663.281 104.477C663.281 103.244 662.496 102.483 660.894 102.114L659.508 101.795C658.548 101.568 658.133 101.244 658.138 100.653C658.133 99.983 658.86 99.5057 659.826 99.5057C660.883 99.5057 661.371 100.091 661.57 100.676L663.11 100.403Z" fill="#394D66"/>
<path d="M491.5 135L487 130.5L487.707 129.793L491.5 133.585L498.293 126.793L499 127.5L491.5 135Z" fill="#8799AF"/>
<path d="M510.278 137H512.034V132.909H514.42C517.119 132.909 518.455 131.278 518.455 129.131C518.455 126.989 517.131 125.364 514.426 125.364H510.278V137ZM512.034 131.42V126.869H514.239C515.977 126.869 516.688 127.812 516.688 129.131C516.688 130.449 515.977 131.42 514.261 131.42H512.034ZM520.28 137H521.979V131.67C521.979 130.528 522.86 129.705 524.065 129.705C524.417 129.705 524.815 129.767 524.951 129.807V128.182C524.78 128.159 524.445 128.142 524.229 128.142C523.207 128.142 522.332 128.722 522.013 129.659H521.922V128.273H520.28V137ZM526.325 137H528.024V128.273H526.325V137ZM527.183 126.926C527.768 126.926 528.257 126.472 528.257 125.915C528.257 125.358 527.768 124.898 527.183 124.898C526.592 124.898 526.109 125.358 526.109 125.915C526.109 126.472 526.592 126.926 527.183 126.926ZM537.679 128.273H535.855L533.651 134.989H533.56L531.35 128.273H529.526L532.696 137H534.515L537.679 128.273ZM542.134 137.17C543.725 137.17 544.35 136.199 544.657 135.642H544.799V137H546.458V128.273H544.759V129.688H544.657C544.35 129.148 543.771 128.159 542.146 128.159C540.038 128.159 538.487 129.824 538.487 132.653C538.487 135.477 540.015 137.17 542.134 137.17ZM542.509 135.722C540.992 135.722 540.203 134.386 540.203 132.636C540.203 130.903 540.975 129.602 542.509 129.602C543.992 129.602 544.788 130.812 544.788 132.636C544.788 134.472 543.975 135.722 542.509 135.722ZM552.463 137.176C554.526 137.176 555.861 135.938 556.048 134.239H554.395C554.179 135.182 553.446 135.739 552.475 135.739C551.037 135.739 550.111 134.54 550.111 132.636C550.111 130.767 551.054 129.591 552.475 129.591C553.554 129.591 554.213 130.273 554.395 131.091H556.048C555.867 129.33 554.429 128.159 552.446 128.159C549.986 128.159 548.395 130.011 548.395 132.676C548.395 135.307 549.929 137.176 552.463 137.176ZM558.843 140.273C560.246 140.273 561.133 139.54 561.638 138.165L565.246 128.29L563.411 128.273L561.201 135.045H561.11L558.9 128.273H557.082L560.275 137.114L560.065 137.693C559.633 138.852 559.025 138.949 558.093 138.693L557.684 140.085C557.888 140.176 558.332 140.273 558.843 140.273ZM571.026 137H578.054V135.489H572.782V125.364H571.026V137ZM583.092 137.17C584.683 137.17 585.308 136.199 585.615 135.642H585.757V137H587.416V128.273H585.717V129.688H585.615C585.308 129.148 584.728 128.159 583.103 128.159C580.995 128.159 579.444 129.824 579.444 132.653C579.444 135.477 580.973 137.17 583.092 137.17ZM583.467 135.722C581.95 135.722 581.16 134.386 581.16 132.636C581.16 130.903 581.933 129.602 583.467 129.602C584.95 129.602 585.745 130.812 585.745 132.636C585.745 134.472 584.933 135.722 583.467 135.722ZM589.745 137H591.443V133.903L592.29 133.057L595.256 137H597.341L593.568 132.017L597.103 128.273H595.068L591.591 131.966H591.443V125.364H589.745V137ZM601.957 137.176C603.86 137.176 605.207 136.239 605.593 134.818L603.985 134.528C603.678 135.352 602.94 135.773 601.974 135.773C600.519 135.773 599.542 134.83 599.497 133.148H605.701V132.545C605.701 129.392 603.815 128.159 601.837 128.159C599.406 128.159 597.803 130.011 597.803 132.693C597.803 135.403 599.383 137.176 601.957 137.176ZM599.502 131.875C599.57 130.636 600.468 129.562 601.849 129.562C603.167 129.562 604.031 130.54 604.036 131.875H599.502Z" fill="#394D66"/>
<path d="M491.5 165L487 160.5L487.707 159.793L491.5 163.585L498.293 156.793L499 157.5L491.5 165Z" fill="#8799AF"/>
<path d="M510.278 167H512.034V162.909H514.42C517.119 162.909 518.455 161.278 518.455 159.131C518.455 156.989 517.131 155.364 514.426 155.364H510.278V167ZM512.034 161.42V156.869H514.239C515.977 156.869 516.688 157.812 516.688 159.131C516.688 160.449 515.977 161.42 514.261 161.42H512.034ZM520.28 167H521.979V161.67C521.979 160.528 522.86 159.705 524.065 159.705C524.417 159.705 524.815 159.767 524.951 159.807V158.182C524.78 158.159 524.445 158.142 524.229 158.142C523.207 158.142 522.332 158.722 522.013 159.659H521.922V158.273H520.28V167ZM526.325 167H528.024V158.273H526.325V167ZM527.183 156.926C527.768 156.926 528.257 156.472 528.257 155.915C528.257 155.358 527.768 154.898 527.183 154.898C526.592 154.898 526.109 155.358 526.109 155.915C526.109 156.472 526.592 156.926 527.183 156.926ZM537.679 158.273H535.855L533.651 164.989H533.56L531.35 158.273H529.526L532.696 167H534.515L537.679 158.273ZM542.134 167.17C543.725 167.17 544.35 166.199 544.657 165.642H544.799V167H546.458V158.273H544.759V159.688H544.657C544.35 159.148 543.771 158.159 542.146 158.159C540.038 158.159 538.487 159.824 538.487 162.653C538.487 165.477 540.015 167.17 542.134 167.17ZM542.509 165.722C540.992 165.722 540.203 164.386 540.203 162.636C540.203 160.903 540.975 159.602 542.509 159.602C543.992 159.602 544.788 160.812 544.788 162.636C544.788 164.472 543.975 165.722 542.509 165.722ZM552.861 158.273H551.071V156.182H549.372V158.273H548.094V159.636H549.372V164.79C549.367 166.375 550.577 167.142 551.918 167.114C552.458 167.108 552.821 167.006 553.02 166.932L552.713 165.528C552.6 165.551 552.389 165.602 552.117 165.602C551.565 165.602 551.071 165.42 551.071 164.438V159.636H552.861V158.273ZM558.312 167.176C560.215 167.176 561.562 166.239 561.948 164.818L560.34 164.528C560.033 165.352 559.295 165.773 558.329 165.773C556.874 165.773 555.897 164.83 555.852 163.148H562.056V162.545C562.056 159.392 560.17 158.159 558.192 158.159C555.761 158.159 554.158 160.011 554.158 162.693C554.158 165.403 555.738 167.176 558.312 167.176ZM555.857 161.875C555.925 160.636 556.823 159.562 558.204 159.562C559.522 159.562 560.386 160.54 560.391 161.875H555.857ZM577.785 159.148C577.387 156.659 575.438 155.205 572.978 155.205C569.966 155.205 567.745 157.46 567.745 161.182C567.745 164.903 569.955 167.159 572.978 167.159C575.535 167.159 577.404 165.557 577.785 163.256L576.012 163.25C575.711 164.739 574.461 165.557 572.989 165.557C570.995 165.557 569.489 164.028 569.489 161.182C569.489 158.358 570.989 156.807 572.995 156.807C574.478 156.807 575.722 157.642 576.012 159.148H577.785ZM581.352 155.364H579.653V167H581.352V155.364ZM587.218 167.176C589.678 167.176 591.286 165.375 591.286 162.676C591.286 159.96 589.678 158.159 587.218 158.159C584.757 158.159 583.149 159.96 583.149 162.676C583.149 165.375 584.757 167.176 587.218 167.176ZM587.223 165.75C585.615 165.75 584.865 164.347 584.865 162.67C584.865 161 585.615 159.58 587.223 159.58C588.82 159.58 589.57 161 589.57 162.67C589.57 164.347 588.82 165.75 587.223 165.75ZM598.614 163.381C598.62 164.864 597.518 165.568 596.563 165.568C595.512 165.568 594.785 164.807 594.785 163.619V158.273H593.086V163.824C593.086 165.989 594.274 167.114 595.95 167.114C597.262 167.114 598.154 166.42 598.558 165.489H598.649V167H600.319V158.273H598.614V163.381ZM605.773 167.17C607.364 167.17 607.989 166.199 608.295 165.642H608.437V167H610.097V155.364H608.398V159.688H608.295C607.989 159.148 607.409 158.159 605.784 158.159C603.676 158.159 602.125 159.824 602.125 162.653C602.125 165.477 603.653 167.17 605.773 167.17ZM606.148 165.722C604.631 165.722 603.841 164.386 603.841 162.636C603.841 160.903 604.614 159.602 606.148 159.602C607.631 159.602 608.426 160.812 608.426 162.636C608.426 164.472 607.614 165.722 606.148 165.722Z" fill="#394D66"/>
<path d="M767.779 140.104L766.587 141.265L772.904 147.604H756.112V149.271H772.904L766.587 155.582L767.779 156.771L776.112 148.438L767.779 140.104Z" fill="#BFCCDA"/>
<path d="M771.112 148.438H746.112" stroke="#BFCCDA" stroke-width="1.66667" stroke-linecap="square" stroke-linejoin="round"/>
<path d="M767.779 172.104L766.587 173.265L772.904 179.604H756.112V181.271H772.904L766.587 187.582L767.779 188.771L776.112 180.438L767.779 172.104Z" fill="#BFCCDA"/>
<path d="M771.112 180.438H746.112" stroke="#BFCCDA" stroke-width="1.66667" stroke-linecap="square" stroke-linejoin="round"/>
<path d="M767.779 108.104L766.587 109.265L772.904 115.604H756.112V117.271H772.904L766.587 123.582L767.779 124.771L776.112 116.438L767.779 108.104Z" fill="#BFCCDA"/>
<path d="M771.112 116.438H746.112" stroke="#BFCCDA" stroke-width="1.66667" stroke-linecap="square" stroke-linejoin="round"/>
<path d="M746 116.438H721" stroke="#BFCCDA" stroke-width="1.66667" stroke-linecap="square" stroke-linejoin="round"/>
<path d="M767.779 43.2285L766.587 44.3893L772.904 50.7285H756.112V52.3952H772.904L766.587 58.706L767.779 59.8952L776.112 51.5618L767.779 43.2285Z" fill="#BFCCDA"/>
<path d="M771.112 51.5615H746.112" stroke="#BFCCDA" stroke-width="1.66667" stroke-linecap="square" stroke-linejoin="round"/>
<path d="M767.779 76.1045L766.587 77.2653L772.904 83.6045H756.112V85.2712H772.904L766.587 91.582L767.779 92.7712L776.112 84.4378L767.779 76.1045Z" fill="#BFCCDA"/>
<path d="M771.112 84.4375H746.112" stroke="#BFCCDA" stroke-width="1.66667" stroke-linecap="square" stroke-linejoin="round"/>
<path d="M745.888 51.5625L746.112 180.438" stroke="#BFCCDA" stroke-width="1.66667" stroke-linecap="square" stroke-linejoin="round"/>
<rect x="800.112" y="34" width="191" height="164" rx="3" fill="#F1F4F8"/>
<path d="M818.374 62L819.442 58.9205H823.987L825.05 62H826.913L822.726 50.3636H820.698L816.51 62H818.374ZM819.953 57.4432L821.669 52.4773H821.76L823.476 57.4432H819.953ZM828.361 65.2727H830.06V60.642H830.163C830.469 61.1989 831.094 62.1705 832.685 62.1705C834.799 62.1705 836.333 60.4773 836.333 57.6534C836.333 54.8239 834.776 53.1591 832.668 53.1591C831.049 53.1591 830.464 54.1477 830.163 54.6875H830.021V53.2727H828.361V65.2727ZM830.026 57.6364C830.026 55.8125 830.822 54.6023 832.305 54.6023C833.844 54.6023 834.617 55.9034 834.617 57.6364C834.617 59.3864 833.822 60.7216 832.305 60.7216C830.844 60.7216 830.026 59.4716 830.026 57.6364ZM838.14 65.2727H839.839V60.642H839.942C840.248 61.1989 840.873 62.1705 842.464 62.1705C844.578 62.1705 846.112 60.4773 846.112 57.6534C846.112 54.8239 844.555 53.1591 842.447 53.1591C840.828 53.1591 840.243 54.1477 839.942 54.6875H839.8V53.2727H838.14V65.2727ZM839.805 57.6364C839.805 55.8125 840.601 54.6023 842.084 54.6023C843.623 54.6023 844.396 55.9034 844.396 57.6364C844.396 59.3864 843.601 60.7216 842.084 60.7216C840.623 60.7216 839.805 59.4716 839.805 57.6364ZM849.618 50.3636H847.919V62H849.618V50.3636ZM851.808 62H853.507V53.2727H851.808V62ZM852.666 51.9261C853.251 51.9261 853.74 51.4716 853.74 50.9148C853.74 50.358 853.251 49.8977 852.666 49.8977C852.075 49.8977 851.592 50.358 851.592 50.9148C851.592 51.4716 852.075 51.9261 852.666 51.9261ZM859.372 62.1761C861.435 62.1761 862.77 60.9375 862.958 59.2386H861.304C861.088 60.1818 860.355 60.7386 859.384 60.7386C857.946 60.7386 857.02 59.5398 857.02 57.6364C857.02 55.767 857.963 54.5909 859.384 54.5909C860.463 54.5909 861.122 55.2727 861.304 56.0909H862.958C862.776 54.3295 861.338 53.1591 859.355 53.1591C856.895 53.1591 855.304 55.0114 855.304 57.6761C855.304 60.3068 856.838 62.1761 859.372 62.1761ZM867.945 62.1705C869.536 62.1705 870.161 61.1989 870.468 60.642H870.61V62H872.269V53.2727H870.57V54.6875H870.468C870.161 54.1477 869.582 53.1591 867.957 53.1591C865.849 53.1591 864.298 54.8239 864.298 57.6534C864.298 60.4773 865.826 62.1705 867.945 62.1705ZM868.32 60.7216C866.803 60.7216 866.014 59.3864 866.014 57.6364C866.014 55.9034 866.786 54.6023 868.32 54.6023C869.803 54.6023 870.599 55.8125 870.599 57.6364C870.599 59.4716 869.786 60.7216 868.32 60.7216ZM878.672 53.2727H876.882V51.1818H875.183V53.2727H873.905V54.6364H875.183V59.7898C875.178 61.375 876.388 62.142 877.729 62.1136C878.268 62.108 878.632 62.0057 878.831 61.9318L878.524 60.5284C878.41 60.5511 878.2 60.6023 877.928 60.6023C877.376 60.6023 876.882 60.4205 876.882 59.4375V54.6364H878.672V53.2727ZM880.455 62H882.154V53.2727H880.455V62ZM881.313 51.9261C881.898 51.9261 882.387 51.4716 882.387 50.9148C882.387 50.358 881.898 49.8977 881.313 49.8977C880.722 49.8977 880.239 50.358 880.239 50.9148C880.239 51.4716 880.722 51.9261 881.313 51.9261ZM888.02 62.1761C890.48 62.1761 892.088 60.375 892.088 57.6761C892.088 54.9602 890.48 53.1591 888.02 53.1591C885.559 53.1591 883.951 54.9602 883.951 57.6761C883.951 60.375 885.559 62.1761 888.02 62.1761ZM888.025 60.75C886.417 60.75 885.667 59.3466 885.667 57.6705C885.667 56 886.417 54.5795 888.025 54.5795C889.622 54.5795 890.372 56 890.372 57.6705C890.372 59.3466 889.622 60.75 888.025 60.75ZM895.587 56.8182C895.587 55.4261 896.439 54.6307 897.621 54.6307C898.774 54.6307 899.473 55.3864 899.473 56.6534V62H901.172V56.4489C901.172 54.2898 899.985 53.1591 898.201 53.1591C896.888 53.1591 896.03 53.767 895.627 54.6932H895.519V53.2727H893.888V62H895.587V56.8182ZM909.894 55.4034C909.542 54.0455 908.48 53.1591 906.593 53.1591C904.622 53.1591 903.224 54.1989 903.224 55.7443C903.224 56.983 903.974 57.8068 905.61 58.1705L907.088 58.4943C907.928 58.6818 908.321 59.0568 908.321 59.6023C908.321 60.2784 907.599 60.8068 906.485 60.8068C905.468 60.8068 904.815 60.3693 904.61 59.5114L902.968 59.7614C903.252 61.3068 904.536 62.1761 906.497 62.1761C908.605 62.1761 910.065 61.0568 910.065 59.4773C910.065 58.2443 909.281 57.483 907.678 57.1136L906.292 56.7955C905.332 56.5682 904.917 56.2443 904.923 55.6534C904.917 54.983 905.644 54.5057 906.61 54.5057C907.667 54.5057 908.156 55.0909 908.355 55.6761L909.894 55.4034Z" fill="#293B51"/>
<path d="M818.374 92L819.442 88.9205H823.987L825.05 92H826.913L822.726 80.3636H820.698L816.51 92H818.374ZM819.953 87.4432L821.669 82.4773H821.76L823.476 87.4432H819.953ZM828.44 92H830.138V83.2727H828.44V92ZM829.298 81.9261C829.883 81.9261 830.371 81.4716 830.371 80.9148C830.371 80.358 829.883 79.8977 829.298 79.8977C828.707 79.8977 828.224 80.358 828.224 80.9148C828.224 81.4716 828.707 81.9261 829.298 81.9261ZM832.328 92H834.027V86.6705C834.027 85.5284 834.908 84.7045 836.112 84.7045C836.464 84.7045 836.862 84.767 836.998 84.8068V83.1818C836.828 83.1591 836.493 83.142 836.277 83.142C835.254 83.142 834.379 83.7216 834.061 84.6591H833.97V83.2727H832.328V92ZM843.042 83.2727H841.161V82.4886C841.161 81.7159 841.479 81.2955 842.309 81.2955C842.661 81.2955 842.911 81.375 843.07 81.4261L843.468 80.0511C843.229 79.9602 842.735 79.8182 842.047 79.8182C840.667 79.8182 839.456 80.625 839.456 82.2614V83.2727H838.11V84.6364H839.456V92H841.161V84.6364H843.042V83.2727ZM846.397 80.3636H844.698V92H846.397V80.3636ZM852.263 92.1761C854.723 92.1761 856.331 90.375 856.331 87.6761C856.331 84.9602 854.723 83.1591 852.263 83.1591C849.803 83.1591 848.195 84.9602 848.195 87.6761C848.195 90.375 849.803 92.1761 852.263 92.1761ZM852.269 90.75C850.661 90.75 849.911 89.3466 849.911 87.6705C849.911 86 850.661 84.5795 852.269 84.5795C853.865 84.5795 854.615 86 854.615 87.6705C854.615 89.3466 853.865 90.75 852.269 90.75ZM859.758 92H861.485L863.258 85.6989H863.389L865.161 92H866.894L869.457 83.2727H867.701L866.002 89.6534H865.917L864.212 83.2727H862.457L860.741 89.6818H860.656L858.945 83.2727H857.19L859.758 92Z" fill="#293B51"/>
<path d="M817.391 122H821.851C824.555 122 825.777 120.653 825.777 118.869C825.777 117.068 824.516 116.051 823.362 115.989V115.875C824.43 115.602 825.323 114.875 825.323 113.42C825.323 111.699 824.129 110.364 821.652 110.364H817.391V122ZM819.146 120.494V116.767H821.743C823.152 116.767 824.033 117.676 824.033 118.784C824.033 119.761 823.368 120.494 821.68 120.494H819.146ZM819.146 115.398V111.858H821.544C822.936 111.858 823.601 112.591 823.601 113.557C823.601 114.682 822.68 115.398 821.499 115.398H819.146ZM827.19 111.875H829.252V120.489H827.19V122H833.065V120.489H831.008V111.875H833.065V110.364H827.19V111.875Z" fill="#293B51"/>
<path d="M817.391 152H824.754V150.489H819.146V146.926H824.305V145.42H819.146V141.875H824.686V140.364H817.391V152ZM826.361 141.875H829.986V152H831.736V141.875H835.367V140.364H826.361V141.875ZM837.261 152H844.29V150.489H839.017V140.364H837.261V152Z" fill="#293B51"/>
<path d="M827.055 174.148C826.658 171.659 824.709 170.205 822.249 170.205C819.237 170.205 817.016 172.46 817.016 176.182C817.016 179.903 819.226 182.159 822.249 182.159C824.805 182.159 826.675 180.557 827.055 178.256L825.283 178.25C824.982 179.739 823.732 180.557 822.26 180.557C820.266 180.557 818.76 179.028 818.76 176.182C818.76 173.358 820.26 171.807 822.266 171.807C823.749 171.807 824.993 172.642 825.283 174.148H827.055ZM832.6 182.176C835.06 182.176 836.668 180.375 836.668 177.676C836.668 174.96 835.06 173.159 832.6 173.159C830.14 173.159 828.532 174.96 828.532 177.676C828.532 180.375 830.14 182.176 832.6 182.176ZM832.606 180.75C830.998 180.75 830.248 179.347 830.248 177.67C830.248 176 830.998 174.58 832.606 174.58C834.202 174.58 834.952 176 834.952 177.67C834.952 179.347 834.202 180.75 832.606 180.75ZM838.469 182H840.167V176.619C840.167 175.443 840.991 174.625 841.957 174.625C842.9 174.625 843.554 175.25 843.554 176.199V182H845.247V176.438C845.247 175.386 845.889 174.625 846.997 174.625C847.895 174.625 848.633 175.125 848.633 176.307V182H850.332V176.148C850.332 174.153 849.219 173.159 847.639 173.159C846.383 173.159 845.44 173.761 845.02 174.693H844.929C844.548 173.739 843.747 173.159 842.582 173.159C841.429 173.159 840.571 173.733 840.207 174.693H840.099V173.273H838.469V182ZM852.513 185.273H854.212V180.642H854.314C854.621 181.199 855.246 182.17 856.837 182.17C858.951 182.17 860.485 180.477 860.485 177.653C860.485 174.824 858.928 173.159 856.82 173.159C855.201 173.159 854.615 174.148 854.314 174.688H854.172V173.273H852.513V185.273ZM854.178 177.636C854.178 175.812 854.973 174.602 856.456 174.602C857.996 174.602 858.769 175.903 858.769 177.636C858.769 179.386 857.973 180.722 856.456 180.722C854.996 180.722 854.178 179.472 854.178 177.636ZM863.991 170.364H862.292V182H863.991V170.364ZM866.181 182H867.879V173.273H866.181V182ZM867.039 171.926C867.624 171.926 868.112 171.472 868.112 170.915C868.112 170.358 867.624 169.898 867.039 169.898C866.448 169.898 865.965 170.358 865.965 170.915C865.965 171.472 866.448 171.926 867.039 171.926ZM873.336 182.17C874.927 182.17 875.552 181.199 875.859 180.642H876.001V182H877.66V173.273H875.961V174.688H875.859C875.552 174.148 874.972 173.159 873.347 173.159C871.239 173.159 869.688 174.824 869.688 177.653C869.688 180.477 871.217 182.17 873.336 182.17ZM873.711 180.722C872.194 180.722 871.404 179.386 871.404 177.636C871.404 175.903 872.177 174.602 873.711 174.602C875.194 174.602 875.989 175.812 875.989 177.636C875.989 179.472 875.177 180.722 873.711 180.722ZM881.687 176.818C881.687 175.426 882.54 174.631 883.722 174.631C884.875 174.631 885.574 175.386 885.574 176.653V182H887.273V176.449C887.273 174.29 886.085 173.159 884.301 173.159C882.989 173.159 882.131 173.767 881.727 174.693H881.619V173.273H879.989V182H881.687V176.818ZM893.131 182.176C895.194 182.176 896.529 180.938 896.716 179.239H895.063C894.847 180.182 894.114 180.739 893.143 180.739C891.705 180.739 890.779 179.54 890.779 177.636C890.779 175.767 891.722 174.591 893.143 174.591C894.222 174.591 894.881 175.273 895.063 176.091H896.716C896.535 174.33 895.097 173.159 893.114 173.159C890.654 173.159 889.063 175.011 889.063 177.676C889.063 180.307 890.597 182.176 893.131 182.176ZM902.199 182.176C904.102 182.176 905.449 181.239 905.835 179.818L904.227 179.528C903.92 180.352 903.182 180.773 902.216 180.773C900.761 180.773 899.784 179.83 899.738 178.148H905.943V177.545C905.943 174.392 904.057 173.159 902.079 173.159C899.647 173.159 898.045 175.011 898.045 177.693C898.045 180.403 899.625 182.176 902.199 182.176ZM899.744 176.875C899.812 175.636 900.71 174.562 902.091 174.562C903.409 174.562 904.272 175.54 904.278 176.875H899.744Z" fill="#293B51"/>
<path d="M446.057 247L96.0566 247" stroke="#BFCCDA" stroke-width="1.66667" stroke-linecap="square" stroke-linejoin="round"/>
<path d="M96.0566 247V223" stroke="#BFCCDA" stroke-width="1.66667" stroke-linecap="square" stroke-linejoin="round"/>
<path d="M895.169 247L545.169 247" stroke="#BFCCDA" stroke-width="1.66667" stroke-linecap="square" stroke-linejoin="round"/>
<path d="M895.169 247V223" stroke="#BFCCDA" stroke-width="1.66667" stroke-linecap="square" stroke-linejoin="round"/>
<rect width="300" height="24" transform="translate(345.613 233)" fill="white"/>
<path d="M384.943 254L386.699 249.057H393.755L395.511 254H397.727L391.318 236.545H389.136L382.727 254H384.943ZM387.363 247.182L390.159 239.307H390.295L393.091 247.182H387.363ZM402.04 236.545H400.029V254H402.04V236.545ZM407.592 236.545H405.58V254H407.592V236.545ZM425.988 248.648C425.988 251.102 424.113 252.227 422.613 252.227C420.942 252.227 419.749 251 419.749 249.091V240.909H417.738V249.227C417.738 252.568 419.51 254.17 421.965 254.17C423.942 254.17 425.238 253.114 425.851 251.784H425.988V254H427.999V240.909H425.988V248.648ZM433.55 246.125C433.55 243.841 434.965 242.545 436.891 242.545C438.758 242.545 439.891 243.764 439.891 245.818V254H441.903V245.682C441.903 242.341 440.121 240.739 437.471 240.739C435.493 240.739 434.266 241.625 433.653 242.955H433.482V240.909H431.539V254H433.55V246.125ZM450.377 254.273C452.9 254.273 453.752 252.705 454.195 251.989H454.434V254H456.377V236.545H454.366V242.989H454.195C453.752 242.307 452.968 240.739 450.411 240.739C447.104 240.739 444.82 243.364 444.82 247.489C444.82 251.648 447.104 254.273 450.377 254.273ZM450.65 252.466C448.127 252.466 446.832 250.25 446.832 247.455C446.832 244.693 448.093 242.545 450.65 242.545C453.104 242.545 454.4 244.523 454.4 247.455C454.4 250.42 453.07 252.466 450.65 252.466ZM465.685 254.273C468.344 254.273 470.287 252.943 470.901 250.966L468.958 250.42C468.446 251.784 467.262 252.466 465.685 252.466C463.324 252.466 461.696 250.94 461.602 248.136H471.105V247.284C471.105 242.409 468.208 240.739 465.48 240.739C461.935 240.739 459.583 243.534 459.583 247.557C459.583 251.58 461.901 254.273 465.685 254.273ZM461.602 246.398C461.739 244.361 463.179 242.545 465.48 242.545C467.662 242.545 469.06 244.182 469.06 246.398H461.602ZM474.021 254H476.032V245.716C476.032 243.943 477.43 242.648 479.339 242.648C479.876 242.648 480.43 242.75 480.566 242.784V240.739C480.336 240.722 479.808 240.705 479.51 240.705C477.941 240.705 476.578 241.591 476.1 242.886H475.964V240.909H474.021V254ZM495.515 236.545H493.401L489.038 239.443V241.591L493.299 238.761H493.401V254H495.515V236.545ZM505.845 254.239C509.169 254.239 511.607 251.784 511.607 248.443C511.607 245.06 509.254 242.58 506.05 242.58C504.874 242.58 503.732 242.997 503.016 243.568H502.914L503.527 238.42H510.823V236.545H501.754L500.698 245.136L502.675 245.375C503.399 244.855 504.635 244.48 505.709 244.489C507.933 244.506 509.561 246.193 509.561 248.477C509.561 250.719 507.993 252.364 505.845 252.364C504.056 252.364 502.632 251.213 502.47 249.636H500.425C500.553 252.295 502.845 254.239 505.845 254.239ZM521.488 254H523.5V245.818C523.5 243.901 524.898 242.545 526.466 242.545C527.991 242.545 529.057 243.543 529.057 245.034V254H531.102V245.477C531.102 243.79 532.159 242.545 534 242.545C535.432 242.545 536.659 243.304 536.659 245.239V254H538.67V245.239C538.67 242.162 537.017 240.739 534.682 240.739C532.807 240.739 531.434 241.599 530.761 242.955H530.625C529.977 241.557 528.835 240.739 527.113 240.739C525.409 240.739 524.148 241.557 523.602 242.955H523.432V240.909H521.488V254ZM542.204 254H544.215V240.909H542.204V254ZM543.227 238.727C544.011 238.727 544.658 238.114 544.658 237.364C544.658 236.614 544.011 236 543.227 236C542.442 236 541.795 236.614 541.795 237.364C541.795 238.114 542.442 238.727 543.227 238.727ZM549.766 246.125C549.766 243.841 551.181 242.545 553.107 242.545C554.974 242.545 556.107 243.764 556.107 245.818V254H558.119V245.682C558.119 242.341 556.338 240.739 553.687 240.739C551.71 240.739 550.482 241.625 549.869 242.955H549.698V240.909H547.755V254H549.766V246.125ZM569.9 248.648C569.9 251.102 568.025 252.227 566.525 252.227C564.855 252.227 563.662 251 563.662 249.091V240.909H561.65V249.227C561.65 252.568 563.423 254.17 565.877 254.17C567.855 254.17 569.15 253.114 569.764 251.784H569.9V254H571.912V240.909H569.9V248.648ZM581.145 240.909H578.349V237.773H576.338V240.909H574.361V242.614H576.338V250.795C576.338 253.08 578.179 254.17 579.883 254.17C580.633 254.17 581.111 254.034 581.383 253.932L580.974 252.125C580.804 252.159 580.531 252.227 580.088 252.227C579.202 252.227 578.349 251.955 578.349 250.25V242.614H581.145V240.909ZM589.374 254.273C592.033 254.273 593.977 252.943 594.59 250.966L592.647 250.42C592.136 251.784 590.951 252.466 589.374 252.466C587.013 252.466 585.386 250.94 585.292 248.136H594.795V247.284C594.795 242.409 591.897 240.739 589.17 240.739C585.624 240.739 583.272 243.534 583.272 247.557C583.272 251.58 585.59 254.273 589.374 254.273ZM585.292 246.398C585.428 244.361 586.869 242.545 589.17 242.545C591.352 242.545 592.749 244.182 592.749 246.398H585.292ZM606.983 243.841C606.352 241.983 604.938 240.739 602.347 240.739C599.585 240.739 597.54 242.307 597.54 244.523C597.54 246.33 598.614 247.54 601.017 248.102L603.199 248.614C604.52 248.92 605.142 249.551 605.142 250.455C605.142 251.58 603.949 252.5 602.074 252.5C600.429 252.5 599.398 251.793 599.04 250.386L597.131 250.864C597.6 253.088 599.432 254.273 602.108 254.273C605.151 254.273 607.222 252.611 607.222 250.352C607.222 248.528 606.08 247.378 603.744 246.807L601.801 246.33C600.25 245.946 599.551 245.426 599.551 244.42C599.551 243.295 600.744 242.477 602.347 242.477C604.102 242.477 604.827 243.449 605.176 244.352L606.983 243.841Z" fill="#0B3B94"/>
</svg>
