<svg width="851" height="364" viewBox="0 0 851 364" fill="none" xmlns="http://www.w3.org/2000/svg">
<rect width="850.75" height="364" fill="#F1F1F1"/>
<g clip-path="url(#clip0_300:567)">
<path d="M44.5 4.62695C45.1181 4.62695 45.7223 4.81023 46.2362 5.15361C46.7501 5.49699 47.1506 5.98505 47.3871 6.55607C47.6236 7.12709 47.6855 7.75542 47.565 8.36161C47.4444 8.9678 47.1467 9.52462 46.7097 9.96166C46.2727 10.3987 45.7158 10.6963 45.1097 10.8169C44.5035 10.9375 43.8751 10.8756 43.3041 10.6391C42.7331 10.4026 42.245 10.002 41.9017 9.48811C41.5583 8.97421 41.375 8.37002 41.375 7.75195C41.375 6.92315 41.7042 6.1283 42.2903 5.54224C42.8763 4.95619 43.6712 4.62695 44.5 4.62695ZM44.5 3.37695C43.6347 3.37695 42.7888 3.63354 42.0694 4.11427C41.3499 4.595 40.7892 5.27829 40.458 6.07771C40.1269 6.87714 40.0403 7.75681 40.2091 8.60547C40.3779 9.45414 40.7946 10.2337 41.4064 10.8455C42.0183 11.4574 42.7978 11.8741 43.6465 12.0429C44.4951 12.2117 45.3748 12.1251 46.1742 11.7939C46.9737 11.4628 47.6569 10.902 48.1377 10.1826C48.6184 9.46311 48.875 8.61725 48.875 7.75195C48.875 6.59163 48.4141 5.47883 47.5936 4.65836C46.7731 3.83789 45.6603 3.37695 44.5 3.37695Z" fill="#4E647F"/>
<path d="M50.75 20.877H49.5V17.752C49.5 17.3416 49.4192 16.9352 49.2621 16.5561C49.1051 16.1769 48.8749 15.8324 48.5847 15.5422C48.2945 15.2521 47.95 15.0219 47.5709 14.8648C47.1917 14.7078 46.7854 14.627 46.375 14.627H42.625C41.7962 14.627 41.0013 14.9562 40.4153 15.5422C39.8292 16.1283 39.5 16.9232 39.5 17.752V20.877H38.25V17.752C38.25 16.5916 38.7109 15.4788 39.5314 14.6584C40.3519 13.8379 41.4647 13.377 42.625 13.377H46.375C47.5353 13.377 48.6481 13.8379 49.4686 14.6584C50.2891 15.4788 50.75 16.5916 50.75 17.752V20.877Z" fill="#4E647F"/>
</g>
<path d="M60.2974 19.0635H68.9139V17.3696H63.0204V17.2737L65.622 14.5507C68.019 12.1281 68.7029 10.9711 68.7029 9.50737C68.7029 7.40438 66.9899 5.79359 64.5225 5.79359C62.0744 5.79359 60.2846 7.37882 60.2846 9.76944H62.1703C62.1639 8.36319 63.0715 7.44274 64.4842 7.44274C65.8137 7.44274 66.8237 8.26092 66.8237 9.5649C66.8237 10.7219 66.1333 11.5528 64.7271 13.0422L60.2974 17.6317V19.0635ZM75.849 19.2425C78.5209 19.2425 80.4832 17.6444 80.4768 15.4711C80.4832 13.8156 79.4797 12.6267 77.741 12.3582V12.2559C79.1089 11.9044 79.9974 10.8305 79.991 9.36035C79.9974 7.43635 78.4186 5.79359 75.9001 5.79359C73.4967 5.79359 71.5663 7.24458 71.5024 9.37313H73.4136C73.4584 8.17143 74.5898 7.44274 75.8746 7.44274C77.2105 7.44274 78.0862 8.25453 78.0798 9.46262C78.0862 10.7282 77.0699 11.5592 75.6189 11.5592H74.5131V13.17H75.6189C77.4342 13.17 78.4825 14.0905 78.4825 15.4072C78.4825 16.6792 77.3767 17.5422 75.8362 17.5422C74.4172 17.5422 73.3113 16.8135 73.2346 15.6501H71.2275C71.3106 17.7851 73.2027 19.2425 75.849 19.2425ZM87.2713 19.2425C89.9943 19.2425 91.9183 17.6956 91.9311 15.5734C91.9183 13.9243 90.7614 12.5372 89.2976 12.2751V12.1984C90.5696 11.8916 91.4325 10.6963 91.4453 9.28365C91.4325 7.28294 89.6683 5.79359 87.2713 5.79359C84.8487 5.79359 83.0845 7.28294 83.0973 9.28365C83.0845 10.6899 83.9475 11.8916 85.245 12.1984V12.2751C83.7557 12.5372 82.5987 13.9243 82.6115 15.5734C82.5987 17.6956 84.5227 19.2425 87.2713 19.2425ZM87.2713 17.6253C85.635 17.6253 84.5994 16.7559 84.6122 15.4456C84.5994 14.0841 85.7244 13.1125 87.2713 13.1125C88.7926 13.1125 89.9176 14.0841 89.9304 15.4456C89.9176 16.7559 88.8885 17.6253 87.2713 17.6253ZM87.2713 11.5336C85.9482 11.5336 85.0085 10.6963 85.0213 9.44984C85.0085 8.22257 85.9162 7.41078 87.2713 7.41078C88.6009 7.41078 89.5085 8.22257 89.5213 9.44984C89.5085 10.6963 88.5753 11.5336 87.2713 11.5336Z" fill="#4E647F"/>
<g clip-path="url(#clip1_300:567)">
<path d="M224.5 4.62695C225.118 4.62695 225.722 4.81023 226.236 5.15361C226.75 5.49699 227.151 5.98505 227.387 6.55607C227.624 7.12709 227.686 7.75542 227.565 8.36161C227.444 8.9678 227.147 9.52462 226.71 9.96166C226.273 10.3987 225.716 10.6963 225.11 10.8169C224.503 10.9375 223.875 10.8756 223.304 10.6391C222.733 10.4026 222.245 10.002 221.902 9.48811C221.558 8.97421 221.375 8.37002 221.375 7.75195C221.375 6.92315 221.704 6.1283 222.29 5.54224C222.876 4.95619 223.671 4.62695 224.5 4.62695ZM224.5 3.37695C223.635 3.37695 222.789 3.63354 222.069 4.11427C221.35 4.595 220.789 5.27829 220.458 6.07771C220.127 6.87714 220.04 7.75681 220.209 8.60547C220.378 9.45414 220.795 10.2337 221.406 10.8455C222.018 11.4574 222.798 11.8741 223.646 12.0429C224.495 12.2117 225.375 12.1251 226.174 11.7939C226.974 11.4628 227.657 10.902 228.138 10.1826C228.618 9.46311 228.875 8.61725 228.875 7.75195C228.875 6.59163 228.414 5.47883 227.594 4.65836C226.773 3.83789 225.66 3.37695 224.5 3.37695Z" fill="#4E647F"/>
<path d="M230.75 20.877H229.5V17.752C229.5 17.3416 229.419 16.9352 229.262 16.5561C229.105 16.1769 228.875 15.8324 228.585 15.5422C228.295 15.2521 227.95 15.0219 227.571 14.8648C227.192 14.7078 226.785 14.627 226.375 14.627H222.625C221.796 14.627 221.001 14.9562 220.415 15.5422C219.829 16.1283 219.5 16.9232 219.5 17.752V20.877H218.25V17.752C218.25 16.5916 218.711 15.4788 219.531 14.6584C220.352 13.8379 221.465 13.377 222.625 13.377H226.375C227.535 13.377 228.648 13.8379 229.469 14.6584C230.289 15.4788 230.75 16.5916 230.75 17.752V20.877Z" fill="#4E647F"/>
</g>
<path d="M245.697 5.97257H243.773L240.506 8.10751V9.99956L243.638 7.9541H243.715V19.0635H245.697V5.97257ZM253.75 19.2425C256.422 19.2425 258.385 17.6444 258.378 15.4711C258.385 13.8156 257.381 12.6267 255.642 12.3582V12.2559C257.01 11.9044 257.899 10.8305 257.892 9.36035C257.899 7.43635 256.32 5.79359 253.801 5.79359C251.398 5.79359 249.468 7.24458 249.404 9.37313H251.315C251.36 8.17143 252.491 7.44274 253.776 7.44274C255.112 7.44274 255.988 8.25453 255.981 9.46262C255.988 10.7282 254.971 11.5592 253.52 11.5592H252.414V13.17H253.52C255.336 13.17 256.384 14.0905 256.384 15.4072C256.384 16.6792 255.278 17.5422 253.738 17.5422C252.319 17.5422 251.213 16.8135 251.136 15.6501H249.129C249.212 17.7851 251.104 19.2425 253.75 19.2425ZM260.749 19.0635H269.366V17.3696H263.472V17.2737L266.074 14.5507C268.471 12.1281 269.155 10.9711 269.155 9.50737C269.155 7.40438 267.442 5.79359 264.975 5.79359C262.526 5.79359 260.737 7.37882 260.737 9.76944H262.622C262.616 8.36319 263.524 7.44274 264.936 7.44274C266.266 7.44274 267.276 8.26092 267.276 9.5649C267.276 10.7219 266.585 11.5528 265.179 13.0422L260.749 17.6317V19.0635Z" fill="#4E647F"/>
<g clip-path="url(#clip2_300:567)">
<path d="M411 4.62695C411.618 4.62695 412.222 4.81023 412.736 5.15361C413.25 5.49699 413.651 5.98505 413.887 6.55607C414.124 7.12709 414.186 7.75542 414.065 8.36161C413.944 8.9678 413.647 9.52462 413.21 9.96166C412.773 10.3987 412.216 10.6963 411.61 10.8169C411.003 10.9375 410.375 10.8756 409.804 10.6391C409.233 10.4026 408.745 10.002 408.402 9.48811C408.058 8.97421 407.875 8.37002 407.875 7.75195C407.875 6.92315 408.204 6.1283 408.79 5.54224C409.376 4.95619 410.171 4.62695 411 4.62695ZM411 3.37695C410.135 3.37695 409.289 3.63354 408.569 4.11427C407.85 4.595 407.289 5.27829 406.958 6.07771C406.627 6.87714 406.54 7.75681 406.709 8.60547C406.878 9.45414 407.295 10.2337 407.906 10.8455C408.518 11.4574 409.298 11.8741 410.146 12.0429C410.995 12.2117 411.875 12.1251 412.674 11.7939C413.474 11.4628 414.157 10.902 414.638 10.1826C415.118 9.46311 415.375 8.61725 415.375 7.75195C415.375 6.59163 414.914 5.47883 414.094 4.65836C413.273 3.83789 412.16 3.37695 411 3.37695Z" fill="#4E647F"/>
<path d="M417.25 20.877H416V17.752C416 17.3416 415.919 16.9352 415.762 16.5561C415.605 16.1769 415.375 15.8324 415.085 15.5422C414.795 15.2521 414.45 15.0219 414.071 14.8648C413.692 14.7078 413.285 14.627 412.875 14.627H409.125C408.296 14.627 407.501 14.9562 406.915 15.5422C406.329 16.1283 406 16.9232 406 17.752V20.877H404.75V17.752C404.75 16.5916 405.211 15.4788 406.031 14.6584C406.852 13.8379 407.965 13.377 409.125 13.377H412.875C414.035 13.377 415.148 13.8379 415.969 14.6584C416.789 15.4788 417.25 16.5916 417.25 17.752V20.877Z" fill="#4E647F"/>
</g>
<path d="M431.127 5.79359C428.378 5.76802 426.582 7.74316 426.582 10.2233C426.589 12.7226 428.398 14.5251 430.667 14.5251C432.054 14.5251 433.243 13.8476 433.914 12.7481H434.016C434.01 15.7588 432.878 17.5166 430.961 17.5166C429.708 17.5166 428.902 16.7496 428.647 15.6309H426.697C426.985 17.7467 428.621 19.2425 430.961 19.2425C434.003 19.2425 435.908 16.6281 435.908 12.045C435.902 7.26376 433.46 5.81277 431.127 5.79359ZM431.133 7.45552C432.648 7.45552 433.767 8.74032 433.767 10.1785C433.773 11.6359 432.591 12.9143 431.095 12.9143C429.593 12.9143 428.506 11.7126 428.5 10.1977C428.5 8.6764 429.631 7.45552 431.133 7.45552ZM438.262 19.0635H440.326L446.022 7.72399V5.97257H437.367V7.66646H443.976V7.76234L438.262 19.0635Z" fill="#4E647F"/>
<g clip-path="url(#clip3_300:567)">
<path d="M591 4.62695C591.618 4.62695 592.222 4.81023 592.736 5.15361C593.25 5.49699 593.651 5.98505 593.887 6.55607C594.124 7.12709 594.186 7.75542 594.065 8.36161C593.944 8.9678 593.647 9.52462 593.21 9.96166C592.773 10.3987 592.216 10.6963 591.61 10.8169C591.003 10.9375 590.375 10.8756 589.804 10.6391C589.233 10.4026 588.745 10.002 588.402 9.48811C588.058 8.97421 587.875 8.37002 587.875 7.75195C587.875 6.92315 588.204 6.1283 588.79 5.54224C589.376 4.95619 590.171 4.62695 591 4.62695ZM591 3.37695C590.135 3.37695 589.289 3.63354 588.569 4.11427C587.85 4.595 587.289 5.27829 586.958 6.07771C586.627 6.87714 586.54 7.75681 586.709 8.60547C586.878 9.45414 587.295 10.2337 587.906 10.8455C588.518 11.4574 589.298 11.8741 590.146 12.0429C590.995 12.2117 591.875 12.1251 592.674 11.7939C593.474 11.4628 594.157 10.902 594.638 10.1826C595.118 9.46311 595.375 8.61725 595.375 7.75195C595.375 6.59163 594.914 5.47883 594.094 4.65836C593.273 3.83789 592.16 3.37695 591 3.37695Z" fill="#4E647F"/>
<path d="M597.25 20.877H596V17.752C596 17.3416 595.919 16.9352 595.762 16.5561C595.605 16.1769 595.375 15.8324 595.085 15.5422C594.795 15.2521 594.45 15.0219 594.071 14.8648C593.692 14.7078 593.285 14.627 592.875 14.627H589.125C588.296 14.627 587.501 14.9562 586.915 15.5422C586.329 16.1283 586 16.9232 586 17.752V20.877H584.75V17.752C584.75 16.5916 585.211 15.4788 586.031 14.6584C586.852 13.8379 587.965 13.377 589.125 13.377H592.875C594.035 13.377 595.148 13.8379 595.969 14.6584C596.789 15.4788 597.25 16.5916 597.25 17.752V20.877Z" fill="#4E647F"/>
</g>
<path d="M611.127 5.79359C608.378 5.76802 606.582 7.74316 606.582 10.2233C606.589 12.7226 608.398 14.5251 610.667 14.5251C612.054 14.5251 613.243 13.8476 613.914 12.7481H614.016C614.01 15.7588 612.878 17.5166 610.961 17.5166C609.708 17.5166 608.902 16.7496 608.647 15.6309H606.697C606.985 17.7467 608.621 19.2425 610.961 19.2425C614.003 19.2425 615.908 16.6281 615.908 12.045C615.902 7.26376 613.46 5.81277 611.127 5.79359ZM611.133 7.45552C612.648 7.45552 613.767 8.74032 613.767 10.1785C613.773 11.6359 612.591 12.9143 611.095 12.9143C609.593 12.9143 608.506 11.7126 608.5 10.1977C608.5 8.6764 609.631 7.45552 611.133 7.45552ZM618.262 19.0635H620.326L626.022 7.72399V5.97257H617.367V7.66646H623.976V7.76234L618.262 19.0635Z" fill="#4E647F"/>
<g clip-path="url(#clip4_300:567)">
<path d="M771 4.62695C771.618 4.62695 772.222 4.81023 772.736 5.15361C773.25 5.49699 773.651 5.98505 773.887 6.55607C774.124 7.12709 774.186 7.75542 774.065 8.36161C773.944 8.9678 773.647 9.52462 773.21 9.96166C772.773 10.3987 772.216 10.6963 771.61 10.8169C771.003 10.9375 770.375 10.8756 769.804 10.6391C769.233 10.4026 768.745 10.002 768.402 9.48811C768.058 8.97421 767.875 8.37002 767.875 7.75195C767.875 6.92315 768.204 6.1283 768.79 5.54224C769.376 4.95619 770.171 4.62695 771 4.62695ZM771 3.37695C770.135 3.37695 769.289 3.63354 768.569 4.11427C767.85 4.595 767.289 5.27829 766.958 6.07771C766.627 6.87714 766.54 7.75681 766.709 8.60547C766.878 9.45414 767.295 10.2337 767.906 10.8455C768.518 11.4574 769.298 11.8741 770.146 12.0429C770.995 12.2117 771.875 12.1251 772.674 11.7939C773.474 11.4628 774.157 10.902 774.638 10.1826C775.118 9.46311 775.375 8.61725 775.375 7.75195C775.375 6.59163 774.914 5.47883 774.094 4.65836C773.273 3.83789 772.16 3.37695 771 3.37695Z" fill="#4E647F"/>
<path d="M777.25 20.877H776V17.752C776 17.3416 775.919 16.9352 775.762 16.5561C775.605 16.1769 775.375 15.8324 775.085 15.5422C774.795 15.2521 774.45 15.0219 774.071 14.8648C773.692 14.7078 773.285 14.627 772.875 14.627H769.125C768.296 14.627 767.501 14.9562 766.915 15.5422C766.329 16.1283 766 16.9232 766 17.752V20.877H764.75V17.752C764.75 16.5916 765.211 15.4788 766.031 14.6584C766.852 13.8379 767.965 13.377 769.125 13.377H772.875C774.035 13.377 775.148 13.8379 775.969 14.6584C776.789 15.4788 777.25 16.5916 777.25 17.752V20.877Z" fill="#4E647F"/>
</g>
<path d="M791.725 5.97257H789.801L786.535 8.10751V9.99956L789.667 7.9541H789.743V19.0635H791.725V5.97257ZM795.221 19.0635H803.838V17.3696H797.944V17.2737L800.546 14.5507C802.943 12.1281 803.627 10.9711 803.627 9.50737C803.627 7.40438 801.914 5.79359 799.446 5.79359C796.998 5.79359 795.208 7.37882 795.208 9.76944H797.094C797.088 8.36319 797.995 7.44274 799.408 7.44274C800.737 7.44274 801.747 8.26092 801.747 9.5649C801.747 10.7219 801.057 11.5528 799.651 13.0422L795.221 17.6317V19.0635Z" fill="#4E647F"/>
<rect y="49" width="130" height="315" rx="3" fill="white"/>
<path d="M47.1121 230.5H49.0873V225.898H51.7719C54.8081 225.898 56.3103 224.063 56.3103 221.647C56.3103 219.237 54.8209 217.409 51.7783 217.409H47.1121V230.5ZM49.0873 224.223V219.103H51.5674C53.5233 219.103 54.3223 220.164 54.3223 221.647C54.3223 223.13 53.5233 224.223 51.5929 224.223H49.0873ZM61.7728 230.692C63.5625 230.692 64.2656 229.599 64.6108 228.972H64.7706V230.5H66.6371V220.682H64.7259V222.273H64.6108C64.2656 221.666 63.6137 220.554 61.7855 220.554C59.4141 220.554 57.6691 222.427 57.6691 225.61C57.6691 228.787 59.3885 230.692 61.7728 230.692ZM62.1946 229.062C60.4879 229.062 59.5995 227.56 59.5995 225.591C59.5995 223.641 60.4688 222.178 62.1946 222.178C63.8629 222.178 64.7578 223.539 64.7578 225.591C64.7578 227.656 63.8438 229.062 62.1946 229.062ZM69.1129 230.5H71.0241V220.682H69.1129V230.5ZM70.0781 219.167C70.7365 219.167 71.2862 218.656 71.2862 218.029C71.2862 217.403 70.7365 216.885 70.0781 216.885C69.4133 216.885 68.87 217.403 68.87 218.029C68.87 218.656 69.4133 219.167 70.0781 219.167ZM77.0188 230.692C78.8085 230.692 79.5117 229.599 79.8568 228.972H80.0166V230.5H81.8831V217.409H79.9719V222.273H79.8568C79.5117 221.666 78.8597 220.554 77.0315 220.554C74.6601 220.554 72.9151 222.427 72.9151 225.61C72.9151 228.787 74.6345 230.692 77.0188 230.692ZM77.4406 229.062C75.734 229.062 74.8455 227.56 74.8455 225.591C74.8455 223.641 75.7148 222.178 77.4406 222.178C79.109 222.178 80.0038 223.539 80.0038 225.591C80.0038 227.656 79.0898 229.062 77.4406 229.062ZM33.1237 243.666C32.6763 240.866 30.4838 239.23 27.7161 239.23C24.3283 239.23 21.829 241.768 21.829 245.955C21.829 250.141 24.3155 252.679 27.7161 252.679C30.5925 252.679 32.6955 250.876 33.1237 248.288L31.1294 248.281C30.7906 249.956 29.3844 250.876 27.7289 250.876C25.4852 250.876 23.7914 249.157 23.7914 245.955C23.7914 242.778 25.4789 241.033 27.7352 241.033C29.4036 241.033 30.8034 241.972 31.1294 243.666H33.1237ZM38.7572 252.692C40.547 252.692 41.2501 251.599 41.5953 250.972H41.7551V252.5H43.6216V242.682H41.7103V244.273H41.5953C41.2501 243.666 40.5981 242.554 38.77 242.554C36.3986 242.554 34.6535 244.427 34.6535 247.61C34.6535 250.787 36.373 252.692 38.7572 252.692ZM39.1791 251.062C37.4724 251.062 36.5839 249.56 36.5839 247.591C36.5839 245.641 37.4532 244.178 39.1791 244.178C40.8474 244.178 41.7423 245.539 41.7423 247.591C41.7423 249.656 40.8282 251.062 39.1791 251.062ZM46.0974 252.5H48.0086V246.447C48.0086 245.124 48.9354 244.203 50.0221 244.203C51.0832 244.203 51.8183 244.906 51.8183 245.974V252.5H53.7231V246.242C53.7231 245.06 54.4454 244.203 55.6918 244.203C56.7018 244.203 57.5327 244.766 57.5327 246.095V252.5H59.444V245.916C59.444 243.673 58.1911 242.554 56.4141 242.554C55.0015 242.554 53.9404 243.232 53.4674 244.28H53.3651C52.9369 243.206 52.0356 242.554 50.7252 242.554C49.4276 242.554 48.4624 243.2 48.0533 244.28H47.9319V242.682H46.0974V252.5ZM61.7536 256.182H63.6648V250.972H63.7799C64.125 251.599 64.8281 252.692 66.6179 252.692C68.9958 252.692 70.7216 250.787 70.7216 247.61C70.7216 244.427 68.9702 242.554 66.5987 242.554C64.777 242.554 64.1186 243.666 63.7799 244.273H63.6201V242.682H61.7536V256.182ZM63.6264 247.591C63.6264 245.539 64.5213 244.178 66.1897 244.178C67.9219 244.178 68.7912 245.641 68.7912 247.591C68.7912 249.56 67.8963 251.062 66.1897 251.062C64.5469 251.062 63.6264 249.656 63.6264 247.591ZM76.2864 252.692C78.0761 252.692 78.7793 251.599 79.1244 250.972H79.2842V252.5H81.1507V242.682H79.2395V244.273H79.1244C78.7793 243.666 78.1273 242.554 76.2992 242.554C73.9277 242.554 72.1827 244.427 72.1827 247.61C72.1827 250.787 73.9021 252.692 76.2864 252.692ZM76.7083 251.062C75.0016 251.062 74.1131 249.56 74.1131 247.591C74.1131 245.641 74.9824 244.178 76.7083 244.178C78.3766 244.178 79.2715 245.539 79.2715 247.591C79.2715 249.656 78.3574 251.062 76.7083 251.062ZM83.6265 252.5H85.5378V242.682H83.6265V252.5ZM84.5917 241.167C85.2501 241.167 85.7998 240.656 85.7998 240.029C85.7998 239.403 85.2501 238.885 84.5917 238.885C83.927 238.885 83.3836 239.403 83.3836 240.029C83.3836 240.656 83.927 241.167 84.5917 241.167ZM91.9734 256.386C94.4727 256.386 96.4031 255.242 96.4031 252.717V242.682H94.5302V244.273H94.3896C94.0508 243.666 93.3733 242.554 91.5452 242.554C89.1737 242.554 87.4287 244.427 87.4287 247.553C87.4287 250.685 89.2121 252.353 91.5324 252.353C93.3349 252.353 94.0317 251.337 94.3768 250.71H94.4983V252.641C94.4983 254.181 93.4436 254.846 91.9926 254.846C90.401 254.846 89.781 254.047 89.4422 253.484L87.7994 254.162C88.3172 255.364 89.6275 256.386 91.9734 256.386ZM91.9542 250.768C90.2476 250.768 89.3591 249.457 89.3591 247.527C89.3591 245.641 90.2284 244.178 91.9542 244.178C93.6226 244.178 94.5175 245.539 94.5175 247.527C94.5175 249.553 93.6034 250.768 91.9542 250.768ZM100.626 246.67C100.626 245.104 101.584 244.21 102.914 244.21C104.211 244.21 104.998 245.06 104.998 246.485V252.5H106.909V246.255C106.909 243.826 105.573 242.554 103.566 242.554C102.089 242.554 101.124 243.238 100.67 244.28H100.549V242.682H98.7143V252.5H100.626V246.67Z" fill="#4E647F"/>
<path d="M75 180.505H55C54.4698 180.504 53.9614 180.293 53.5865 179.918C53.2115 179.543 53.0006 179.035 53 178.505V164.505C53.0005 163.975 53.2114 163.466 53.5864 163.091C53.9613 162.716 54.4697 162.505 55 162.505H75C75.5302 162.505 76.0386 162.716 76.4135 163.091C76.7885 163.466 76.9994 163.975 77 164.505V178.505C76.9993 179.035 76.7883 179.543 76.4134 179.918C76.0385 180.293 75.5302 180.504 75 180.505ZM55 164.505V178.505H75V164.505H55Z" fill="#397BF4"/>
<path d="M79 182.505H51V184.505H79V182.505Z" fill="#397BF4"/>
<rect x="153.5" y="263" width="195" height="2" transform="rotate(-90 153.5 263)" fill="#DBE2EB" fill-opacity="0.95"/>
<rect x="153.5" y="345" width="82" height="2" transform="rotate(-90 153.5 345)" fill="#DBE2EB" fill-opacity="0.95"/>
<rect x="130" y="205.5" width="25" height="2" fill="#394D66"/>
<rect x="155" y="205.5" width="25" height="2" fill="#394D66"/>
<rect x="155" y="123" width="25" height="2" fill="#DBE2EB" fill-opacity="0.95"/>
<rect x="155" y="68" width="25" height="2" fill="#DBE2EB" fill-opacity="0.95"/>
<rect x="155" y="343" width="25" height="2" fill="#DBE2EB" fill-opacity="0.95"/>
<rect x="155.5" y="288" width="25.6118" height="2" fill="#DBE2EB" fill-opacity="0.95"/>
<rect x="181" y="105" width="128" height="38" rx="2" stroke="#DBE2EB" stroke-opacity="0.95" stroke-width="2"/>
<rect x="181.75" y="270" width="128" height="38" rx="2" stroke="#DBE2EB" stroke-opacity="0.95" stroke-width="2"/>
<rect x="181" y="50" width="128" height="38" rx="2" stroke="#DBE2EB" stroke-opacity="0.95" stroke-width="2"/>
<rect x="181" y="325" width="128" height="38" rx="2" stroke="#DBE2EB" stroke-opacity="0.95" stroke-width="2"/>
<rect x="180" y="159" width="130" height="95" rx="3" fill="white"/>
<path d="M255 198.505H235C234.47 198.504 233.961 198.293 233.586 197.918C233.212 197.543 233.001 197.035 233 196.505V182.505C233.001 181.975 233.211 181.466 233.586 181.091C233.961 180.716 234.47 180.505 235 180.505H255C255.53 180.505 256.039 180.716 256.414 181.091C256.788 181.466 256.999 181.975 257 182.505V196.505C256.999 197.035 256.788 197.543 256.413 197.918C256.039 198.293 255.53 198.504 255 198.505ZM235 182.505V196.505H255V182.505H235Z" fill="#397BF4"/>
<path d="M259 200.505H231V202.505H259V200.505Z" fill="#397BF4"/>
<path d="M202.915 232.5L203.983 229.42H208.528L209.591 232.5H211.455L207.267 220.864H205.239L201.051 232.5H202.915ZM204.494 227.943L206.21 222.977H206.301L208.017 227.943H204.494ZM215.949 232.67C217.54 232.67 218.165 231.699 218.472 231.142H218.614V232.5H220.273V220.864H218.574V225.188H218.472C218.165 224.648 217.585 223.659 215.96 223.659C213.852 223.659 212.301 225.324 212.301 228.153C212.301 230.977 213.83 232.67 215.949 232.67ZM216.324 231.222C214.807 231.222 214.017 229.886 214.017 228.136C214.017 226.403 214.79 225.102 216.324 225.102C217.807 225.102 218.602 226.312 218.602 228.136C218.602 229.972 217.79 231.222 216.324 231.222ZM225.789 232.67C227.38 232.67 228.005 231.699 228.311 231.142H228.453V232.5H230.113V220.864H228.414V225.188H228.311C228.005 224.648 227.425 223.659 225.8 223.659C223.692 223.659 222.141 225.324 222.141 228.153C222.141 230.977 223.669 232.67 225.789 232.67ZM226.164 231.222C224.647 231.222 223.857 229.886 223.857 228.136C223.857 226.403 224.63 225.102 226.164 225.102C227.647 225.102 228.442 226.312 228.442 228.136C228.442 229.972 227.63 231.222 226.164 231.222ZM240.493 223.773H238.704V221.682H237.005V223.773H235.726V225.136H237.005V230.29C236.999 231.875 238.209 232.642 239.55 232.614C240.09 232.608 240.454 232.506 240.653 232.432L240.346 231.028C240.232 231.051 240.022 231.102 239.749 231.102C239.198 231.102 238.704 230.92 238.704 229.938V225.136H240.493V223.773ZM245.779 232.676C248.239 232.676 249.847 230.875 249.847 228.176C249.847 225.46 248.239 223.659 245.779 223.659C243.319 223.659 241.711 225.46 241.711 228.176C241.711 230.875 243.319 232.676 245.779 232.676ZM245.785 231.25C244.177 231.25 243.427 229.847 243.427 228.17C243.427 226.5 244.177 225.08 245.785 225.08C247.381 225.08 248.131 226.5 248.131 228.17C248.131 229.847 247.381 231.25 245.785 231.25ZM265.427 224.648C265.029 222.159 263.081 220.705 260.62 220.705C257.609 220.705 255.387 222.96 255.387 226.682C255.387 230.403 257.598 232.659 260.62 232.659C263.177 232.659 265.046 231.057 265.427 228.756L263.654 228.75C263.353 230.239 262.103 231.057 260.632 231.057C258.637 231.057 257.132 229.528 257.132 226.682C257.132 223.858 258.632 222.307 260.637 222.307C262.12 222.307 263.365 223.142 263.654 224.648H265.427ZM270.483 232.67C272.074 232.67 272.699 231.699 273.005 231.142H273.147V232.5H274.807V223.773H273.108V225.188H273.005C272.699 224.648 272.119 223.659 270.494 223.659C268.386 223.659 266.835 225.324 266.835 228.153C266.835 230.977 268.363 232.67 270.483 232.67ZM270.858 231.222C269.341 231.222 268.551 229.886 268.551 228.136C268.551 226.403 269.324 225.102 270.858 225.102C272.341 225.102 273.136 226.312 273.136 228.136C273.136 229.972 272.324 231.222 270.858 231.222ZM277.055 232.5H278.754V227.17C278.754 226.028 279.635 225.205 280.839 225.205C281.192 225.205 281.589 225.267 281.726 225.307V223.682C281.555 223.659 281.22 223.642 281.004 223.642C279.981 223.642 279.106 224.222 278.788 225.159H278.697V223.773H277.055V232.5ZM287.609 223.773H285.82V221.682H284.121V223.773H282.842V225.136H284.121V230.29C284.115 231.875 285.325 232.642 286.666 232.614C287.206 232.608 287.57 232.506 287.768 232.432L287.462 231.028C287.348 231.051 287.138 231.102 286.865 231.102C286.314 231.102 285.82 230.92 285.82 229.938V225.136H287.609V223.773Z" fill="#4E647F"/>
<rect x="310.015" y="205.5" width="25.7349" height="2" fill="#394D66"/>
<rect x="335.75" y="95.5" width="25" height="2" fill="#394D66"/>
<rect x="335.75" y="178" width="25" height="2" fill="#DBE2EB" fill-opacity="0.95"/>
<rect x="334.25" y="207.5" width="112" height="2" transform="rotate(-90 334.25 207.5)" fill="#394D66"/>
<rect x="335.75" y="233" width="25" height="2" fill="#DBE2EB" fill-opacity="0.95"/>
<rect x="335.75" y="288" width="25" height="2" fill="#DBE2EB" fill-opacity="0.95"/>
<rect x="335.75" y="343" width="25" height="2" fill="#DBE2EB" fill-opacity="0.95"/>
<rect x="334.25" y="345" width="137.5" height="2" transform="rotate(-90 334.25 345)" fill="#DBE2EB" fill-opacity="0.95"/>
<rect x="361.75" y="160" width="128" height="38" rx="2" stroke="#DBE2EB" stroke-opacity="0.95" stroke-width="2"/>
<rect x="361.75" y="215" width="128" height="38" rx="2" stroke="#DBE2EB" stroke-opacity="0.95" stroke-width="2"/>
<rect x="361.75" y="270" width="128" height="38" rx="2" stroke="#DBE2EB" stroke-opacity="0.95" stroke-width="2"/>
<rect x="361.75" y="325" width="128" height="38" rx="2" stroke="#DBE2EB" stroke-opacity="0.95" stroke-width="2"/>
<rect x="360.75" y="49" width="130" height="95" rx="3" fill="white"/>
<path d="M428.75 90.5V88.5H422.75V90.5H428.75Z" fill="#397BF4"/>
<path d="M434.75 94.5H416.75C416.22 94.4994 415.711 94.2885 415.336 93.9135C414.962 93.5386 414.751 93.0302 414.75 92.5V68.5C414.751 67.9697 414.961 67.4613 415.336 67.0864C415.711 66.7114 416.22 66.5005 416.75 66.5H434.75C435.28 66.5006 435.789 66.7115 436.164 67.0865C436.538 67.4614 436.749 67.9698 436.75 68.5V92.5C436.749 93.0302 436.538 93.5385 436.163 93.9134C435.789 94.2883 435.28 94.4993 434.75 94.5ZM416.75 68.5V92.5H434.75V68.5H416.75Z" fill="#397BF4"/>
<path d="M401.051 114.648C400.654 112.159 398.705 110.705 396.245 110.705C393.233 110.705 391.012 112.96 391.012 116.682C391.012 120.403 393.222 122.659 396.245 122.659C398.801 122.659 400.671 121.057 401.051 118.756L399.279 118.75C398.978 120.239 397.728 121.057 396.256 121.057C394.262 121.057 392.756 119.528 392.756 116.682C392.756 113.858 394.256 112.307 396.262 112.307C397.745 112.307 398.989 113.142 399.279 114.648H401.051ZM404.539 117.318C404.539 115.926 405.419 115.131 406.63 115.131C407.8 115.131 408.499 115.875 408.499 117.153V122.5H410.198V116.949C410.198 114.773 409.005 113.659 407.209 113.659C405.851 113.659 405.033 114.25 404.624 115.193H404.516V110.864H402.84V122.5H404.539V117.318ZM416.05 122.676C417.954 122.676 419.3 121.739 419.687 120.318L418.079 120.028C417.772 120.852 417.033 121.273 416.067 121.273C414.613 121.273 413.635 120.33 413.59 118.648H419.795V118.045C419.795 114.892 417.908 113.659 415.931 113.659C413.499 113.659 411.897 115.511 411.897 118.193C411.897 120.903 413.476 122.676 416.05 122.676ZM413.596 117.375C413.664 116.136 414.562 115.062 415.942 115.062C417.26 115.062 418.124 116.04 418.13 117.375H413.596ZM425.18 122.676C427.242 122.676 428.577 121.438 428.765 119.739H427.111C426.896 120.682 426.163 121.239 425.191 121.239C423.753 121.239 422.827 120.04 422.827 118.136C422.827 116.267 423.771 115.091 425.191 115.091C426.271 115.091 426.93 115.773 427.111 116.591H428.765C428.583 114.83 427.146 113.659 425.163 113.659C422.702 113.659 421.111 115.511 421.111 118.176C421.111 120.807 422.646 122.676 425.18 122.676ZM430.406 122.5H432.104V119.403L432.951 118.557L435.917 122.5H438.002L434.229 117.517L437.764 113.773H435.729L432.252 117.466H432.104V110.864H430.406V122.5ZM442.453 122.676C444.913 122.676 446.521 120.875 446.521 118.176C446.521 115.46 444.913 113.659 442.453 113.659C439.992 113.659 438.384 115.46 438.384 118.176C438.384 120.875 439.992 122.676 442.453 122.676ZM442.458 121.25C440.85 121.25 440.1 119.847 440.1 118.17C440.1 116.5 440.85 115.08 442.458 115.08C444.055 115.08 444.805 116.5 444.805 118.17C444.805 119.847 444.055 121.25 442.458 121.25ZM453.77 118.881C453.775 120.364 452.673 121.068 451.718 121.068C450.667 121.068 449.94 120.307 449.94 119.119V113.773H448.241V119.324C448.241 121.489 449.429 122.614 451.105 122.614C452.417 122.614 453.309 121.92 453.713 120.989H453.804V122.5H455.474V113.773H453.77V118.881ZM461.655 113.773H459.865V111.682H458.166V113.773H456.888V115.136H458.166V120.29C458.16 121.875 459.371 122.642 460.711 122.614C461.251 122.608 461.615 122.506 461.814 122.432L461.507 121.028C461.393 121.051 461.183 121.102 460.91 121.102C460.359 121.102 459.865 120.92 459.865 119.938V115.136H461.655V113.773Z" fill="#4E647F"/>
<rect x="490.75" y="95" width="25" height="2" fill="#394D66"/>
<rect x="515.75" y="260.5" width="25" height="2" fill="#394D66"/>
<rect x="515.75" y="68" width="25" height="2" fill="#DBE2EB" fill-opacity="0.95"/>
<rect x="515.75" y="123" width="25" height="2" fill="#DBE2EB" fill-opacity="0.95"/>
<rect x="514.25" y="262.5" width="167.5" height="2" transform="rotate(-90 514.25 262.5)" fill="#394D66"/>
<rect x="514.25" y="95" width="27" height="2" transform="rotate(-90 514.25 95)" fill="#DBE2EB" fill-opacity="0.95"/>
<rect x="541.75" y="50" width="128" height="38" rx="2" stroke="#DBE2EB" stroke-opacity="0.95" stroke-width="2"/>
<rect x="541.75" y="105" width="128" height="38" rx="2" stroke="#DBE2EB" stroke-opacity="0.95" stroke-width="2"/>
<rect x="540.75" y="159" width="130" height="205" rx="3" fill="white"/>
<path d="M573.424 199.5H575.179V195.409H577.566C580.265 195.409 581.6 193.778 581.6 191.631C581.6 189.489 580.276 187.864 577.571 187.864H573.424V199.5ZM575.179 193.92V189.369H577.384C579.122 189.369 579.833 190.312 579.833 191.631C579.833 192.949 579.122 193.92 577.407 193.92H575.179ZM586.503 199.67C588.094 199.67 588.719 198.699 589.026 198.142H589.168V199.5H590.827V190.773H589.128V192.188H589.026C588.719 191.648 588.14 190.659 586.515 190.659C584.407 190.659 582.856 192.324 582.856 195.153C582.856 197.977 584.384 199.67 586.503 199.67ZM586.878 198.222C585.361 198.222 584.571 196.886 584.571 195.136C584.571 193.403 585.344 192.102 586.878 192.102C588.361 192.102 589.157 193.312 589.157 195.136C589.157 196.972 588.344 198.222 586.878 198.222ZM594.15 202.773C595.553 202.773 596.439 202.04 596.945 200.665L600.553 190.79L598.718 190.773L596.508 197.545H596.417L594.207 190.773H592.388L595.582 199.614L595.371 200.193C594.939 201.352 594.332 201.449 593.4 201.193L592.991 202.585C593.195 202.676 593.638 202.773 594.15 202.773ZM601.978 199.5H603.677V194.119C603.677 192.943 604.501 192.125 605.467 192.125C606.41 192.125 607.063 192.75 607.063 193.699V199.5H608.756V193.938C608.756 192.886 609.398 192.125 610.506 192.125C611.404 192.125 612.143 192.625 612.143 193.807V199.5H613.842V193.648C613.842 191.653 612.728 190.659 611.148 190.659C609.893 190.659 608.95 191.261 608.529 192.193H608.438C608.058 191.239 607.256 190.659 606.092 190.659C604.938 190.659 604.08 191.233 603.717 192.193H603.609V190.773H601.978V199.5ZM619.704 199.676C621.607 199.676 622.954 198.739 623.34 197.318L621.732 197.028C621.426 197.852 620.687 198.273 619.721 198.273C618.266 198.273 617.289 197.33 617.244 195.648H623.448V195.045C623.448 191.892 621.562 190.659 619.585 190.659C617.153 190.659 615.551 192.511 615.551 195.193C615.551 197.903 617.13 199.676 619.704 199.676ZM617.249 194.375C617.318 193.136 618.215 192.062 619.596 192.062C620.914 192.062 621.778 193.04 621.784 194.375H617.249ZM626.856 194.318C626.856 192.926 627.708 192.131 628.89 192.131C630.044 192.131 630.742 192.886 630.742 194.153V199.5H632.441V193.949C632.441 191.79 631.254 190.659 629.47 190.659C628.157 190.659 627.299 191.267 626.896 192.193H626.788V190.773H625.157V199.5H626.856V194.318ZM638.618 190.773H636.828V188.682H635.129V190.773H633.851V192.136H635.129V197.29C635.123 198.875 636.334 199.642 637.674 199.614C638.214 199.608 638.578 199.506 638.777 199.432L638.47 198.028C638.356 198.051 638.146 198.102 637.873 198.102C637.322 198.102 636.828 197.92 636.828 196.938V192.136H638.618V190.773ZM572.543 219.5H574.299V215.097H576.685C576.725 215.097 576.759 215.097 576.799 215.097L579.162 219.5H581.162L578.583 214.79C580.009 214.261 580.719 213.074 580.719 211.511C580.719 209.369 579.389 207.864 576.691 207.864H572.543V219.5ZM574.299 213.585V209.369H576.503C578.236 209.369 578.952 210.193 578.952 211.511C578.952 212.824 578.236 213.585 576.526 213.585H574.299ZM586.195 219.676C588.098 219.676 589.445 218.739 589.831 217.318L588.223 217.028C587.917 217.852 587.178 218.273 586.212 218.273C584.757 218.273 583.78 217.33 583.735 215.648H589.939V215.045C589.939 211.892 588.053 210.659 586.076 210.659C583.644 210.659 582.042 212.511 582.042 215.193C582.042 217.903 583.621 219.676 586.195 219.676ZM583.74 214.375C583.809 213.136 584.706 212.062 586.087 212.062C587.405 212.062 588.269 213.04 588.275 214.375H583.74ZM595.324 219.676C597.387 219.676 598.722 218.438 598.91 216.739H597.256C597.04 217.682 596.307 218.239 595.336 218.239C593.898 218.239 592.972 217.04 592.972 215.136C592.972 213.267 593.915 212.091 595.336 212.091C596.415 212.091 597.074 212.773 597.256 213.591H598.91C598.728 211.83 597.29 210.659 595.307 210.659C592.847 210.659 591.256 212.511 591.256 215.176C591.256 217.807 592.79 219.676 595.324 219.676ZM604.312 219.676C606.215 219.676 607.562 218.739 607.948 217.318L606.34 217.028C606.033 217.852 605.295 218.273 604.329 218.273C602.874 218.273 601.897 217.33 601.851 215.648H608.056V215.045C608.056 211.892 606.17 210.659 604.192 210.659C601.761 210.659 600.158 212.511 600.158 215.193C600.158 217.903 601.738 219.676 604.312 219.676ZM601.857 214.375C601.925 213.136 602.823 212.062 604.204 212.062C605.522 212.062 606.386 213.04 606.391 214.375H601.857ZM609.765 219.5H611.464V210.773H609.765V219.5ZM610.623 209.426C611.208 209.426 611.697 208.972 611.697 208.415C611.697 207.858 611.208 207.398 610.623 207.398C610.032 207.398 609.549 207.858 609.549 208.415C609.549 208.972 610.032 209.426 610.623 209.426ZM621.039 210.773H619.215L617.011 217.489H616.92L614.71 210.773H612.886L616.056 219.5H617.874L621.039 210.773ZM625.909 219.676C627.812 219.676 629.159 218.739 629.545 217.318L627.937 217.028C627.63 217.852 626.892 218.273 625.926 218.273C624.471 218.273 623.494 217.33 623.448 215.648H629.653V215.045C629.653 211.892 627.767 210.659 625.789 210.659C623.358 210.659 621.755 212.511 621.755 215.193C621.755 217.903 623.335 219.676 625.909 219.676ZM623.454 214.375C623.522 213.136 624.42 212.062 625.801 212.062C627.119 212.062 627.983 213.04 627.988 214.375H623.454ZM634.629 219.67C636.22 219.67 636.845 218.699 637.152 218.142H637.294V219.5H638.953V207.864H637.254V212.188H637.152C636.845 211.648 636.265 210.659 634.64 210.659C632.532 210.659 630.981 212.324 630.981 215.153C630.981 217.977 632.51 219.67 634.629 219.67ZM635.004 218.222C633.487 218.222 632.697 216.886 632.697 215.136C632.697 213.403 633.47 212.102 635.004 212.102C636.487 212.102 637.282 213.312 637.282 215.136C637.282 216.972 636.47 218.222 635.004 218.222Z" fill="#4E647F"/>
<rect x="554.75" y="243.5" width="102" height="100" rx="3" fill="#F1F4F8"/>
<path fill-rule="evenodd" clip-rule="evenodd" d="M636.066 273.342H627.998C628.188 275.212 629.6 275.813 631.201 275.813C632.843 275.813 634.164 275.455 635.255 274.893V278.111C633.87 278.882 632.286 279.252 630.691 279.177C626.677 279.177 623.854 276.754 623.854 271.926C623.854 267.865 626.247 264.637 630.16 264.637C634.084 264.637 636.126 267.817 636.126 271.907C636.126 272.295 636.086 273.128 636.066 273.342ZM630.14 267.894C629.109 267.894 627.968 268.602 627.968 270.395H632.222C632.222 268.602 631.151 267.894 630.14 267.894ZM617.358 279.177C615.917 279.177 615.036 278.595 614.456 278.169L614.436 282.657L610.312 283.5V264.899H614.075L614.156 265.888C615.028 265.086 616.185 264.638 617.389 264.637C620.291 264.637 623.014 267.158 623.014 271.81C623.014 276.88 620.311 279.177 617.358 279.177ZM616.408 268.175C615.457 268.175 614.866 268.505 614.436 268.96L614.456 274.893C614.856 275.319 615.437 275.649 616.408 275.649C617.929 275.649 618.95 274.049 618.95 271.897C618.95 269.813 617.909 268.175 616.408 268.175ZM604.637 264.899H608.771V278.896H604.637V264.899ZM604.637 260.343L608.771 259.5V262.757L604.637 263.61V260.353V260.343ZM600.313 269.406V278.896H596.189V264.899H599.893L600.013 266.082C601.014 264.366 603.085 264.715 603.636 264.899V268.573C603.115 268.408 601.344 268.156 600.313 269.406ZM591.755 273.981C591.755 276.337 594.358 275.61 594.878 275.397V278.653C594.327 278.944 593.337 279.177 591.985 279.177C591.422 279.193 590.862 279.098 590.338 278.897C589.814 278.697 589.337 278.395 588.937 278.01C588.538 277.626 588.223 277.167 588.012 276.661C587.801 276.155 587.699 275.613 587.711 275.067L587.721 262.301L591.745 261.468V264.899H594.888V268.321H591.755V273.991V273.981ZM586.841 274.66C586.841 277.539 584.529 279.177 581.105 279.177C579.569 279.176 578.05 278.869 576.641 278.275V274.466C578.023 275.193 579.744 275.736 581.105 275.736C582.026 275.736 582.637 275.503 582.637 274.767C582.637 272.847 576.371 273.565 576.371 269.145C576.371 266.324 578.653 264.637 581.996 264.637C583.357 264.637 584.719 264.831 586.09 265.364V269.125C584.823 268.479 583.418 268.128 581.986 268.098C581.125 268.098 580.545 268.34 580.545 268.97C580.545 270.763 586.841 269.91 586.841 274.67V274.66Z" fill="#001531"/>
<path d="M563.622 296.715H566.094V303.5H567.532V296.715H570.004V295.5H563.622V296.715ZM571.51 303.5H572.959V300.57H574.436L576.006 303.5H577.623L575.893 300.328C576.834 299.949 577.33 299.145 577.33 298.059C577.33 296.531 576.346 295.5 574.51 295.5H571.51V303.5ZM572.959 299.367V296.711H574.287C575.369 296.711 575.854 297.207 575.854 298.059C575.854 298.91 575.369 299.367 574.295 299.367H572.959ZM579.967 303.5L580.627 301.527H583.634L584.299 303.5H585.845L583.025 295.5H581.236L578.42 303.5H579.967ZM581.017 300.363L582.099 297.141H582.162L583.244 300.363H581.017ZM593.748 295.5H592.307V300.953H592.237L588.471 295.5H587.174V303.5H588.623V298.051H588.69L592.459 303.5H593.748V295.5ZM599.95 297.699H601.345C601.317 296.348 600.165 295.391 598.462 295.391C596.782 295.391 595.52 296.336 595.524 297.75C595.524 298.898 596.341 299.559 597.657 299.898L598.567 300.133C599.431 300.352 600.001 300.621 600.005 301.242C600.001 301.926 599.352 302.383 598.407 302.383C597.501 302.383 596.798 301.977 596.739 301.137H595.313C595.372 302.727 596.556 303.621 598.419 303.621C600.337 303.621 601.45 302.664 601.454 301.254C601.45 299.867 600.306 299.234 599.102 298.949L598.352 298.762C597.696 298.605 596.985 298.328 596.993 297.66C596.997 297.059 597.536 296.617 598.442 296.617C599.306 296.617 599.876 297.02 599.95 297.699ZM603.919 303.5L604.58 301.527H607.587L608.251 303.5H609.798L606.978 295.5H605.189L602.373 303.5H603.919ZM604.97 300.363L606.052 297.141H606.115L607.197 300.363H604.97ZM617.599 298.199C617.353 296.422 615.985 295.391 614.212 295.391C612.122 295.391 610.548 296.914 610.548 299.5C610.548 302.082 612.103 303.609 614.212 303.609C616.114 303.609 617.376 302.379 617.599 300.852L616.138 300.844C615.954 301.781 615.189 302.309 614.232 302.309C612.935 302.309 612.005 301.336 612.005 299.5C612.005 297.695 612.927 296.691 614.235 296.691C615.208 296.691 615.97 297.242 616.138 298.199H617.599ZM618.849 296.715H621.322V303.5H622.759V296.715H625.232V295.5H618.849V296.715ZM626.386 296.715H627.796V302.285H626.386V303.5H630.656V302.285H629.245V296.715H630.656V295.5H626.386V296.715ZM639.307 299.5C639.307 296.914 637.728 295.391 635.631 295.391C633.529 295.391 631.955 296.914 631.955 299.5C631.955 302.082 633.529 303.609 635.631 303.609C637.728 303.609 639.307 302.086 639.307 299.5ZM637.85 299.5C637.85 301.32 636.935 302.309 635.631 302.309C634.33 302.309 633.412 301.32 633.412 299.5C633.412 297.68 634.33 296.691 635.631 296.691C636.935 296.691 637.85 297.68 637.85 299.5ZM647.526 295.5H646.084V300.953H646.014L642.249 295.5H640.952V303.5H642.401V298.051H642.467L646.237 303.5H647.526V295.5Z" fill="#4E647F"/>
<path d="M595.015 317.5H594.015L592.358 322.281H592.296L590.64 317.5H589.64L591.858 323.5H592.796L595.015 317.5ZM596.341 323.5H597.263V317.5H596.341V323.5ZM596.81 316.5C597.169 316.5 597.466 316.219 597.466 315.875C597.466 315.531 597.169 315.25 596.81 315.25C596.451 315.25 596.154 315.531 596.154 315.875C596.154 316.219 596.451 316.5 596.81 316.5ZM601.327 323.625C602.484 323.625 602.874 322.906 603.077 322.578H603.187V323.5H604.077V317.5H603.155V318.453H603.077C602.874 318.141 602.515 317.422 601.343 317.422C599.827 317.422 598.78 318.625 598.78 320.516C598.78 322.422 599.827 323.625 601.327 323.625ZM601.452 322.797C600.296 322.797 599.702 321.781 599.702 320.5C599.702 319.234 600.28 318.25 601.452 318.25C602.577 318.25 603.171 319.156 603.171 320.5C603.171 321.859 602.562 322.797 601.452 322.797ZM609.332 323.5H614.223V322.641H610.301V319.922H613.911V319.062H610.301V316.359H614.161V315.5H609.332V323.5ZM616.017 323.5H620.704V322.641H616.985V315.5H616.017V323.5Z" fill="#4E647F"/>
<rect x="670.75" y="260.5" width="25" height="2" fill="#394D66"/>
<rect x="695.75" y="205.5" width="25" height="2" fill="#394D66"/>
<rect x="693.75" y="262.5" width="57" height="2" transform="rotate(-90 693.75 262.5)" fill="#394D66"/>
<rect x="720.75" y="49" width="130" height="315" rx="3" fill="white"/>
<path d="M750.23 131H752.205V126.398H754.89C757.926 126.398 759.428 124.563 759.428 122.147C759.428 119.737 757.939 117.909 754.897 117.909H750.23V131ZM752.205 124.723V119.603H754.686C756.642 119.603 757.441 120.664 757.441 122.147C757.441 123.63 756.642 124.723 754.711 124.723H752.205ZM764.891 131.192C766.681 131.192 767.384 130.099 767.729 129.472H767.889V131H769.755V121.182H767.844V122.773H767.729C767.384 122.166 766.732 121.054 764.904 121.054C762.532 121.054 760.787 122.927 760.787 126.11C760.787 129.287 762.507 131.192 764.891 131.192ZM765.313 129.562C763.606 129.562 762.718 128.06 762.718 126.091C762.718 124.141 763.587 122.678 765.313 122.678C766.981 122.678 767.876 124.039 767.876 126.091C767.876 128.156 766.962 129.562 765.313 129.562ZM776.367 131.198C778.687 131.198 780.189 129.805 780.4 127.893H778.54C778.297 128.955 777.473 129.581 776.38 129.581C774.762 129.581 773.72 128.232 773.72 126.091C773.72 123.988 774.782 122.665 776.38 122.665C777.594 122.665 778.336 123.432 778.54 124.352H780.4C780.196 122.371 778.578 121.054 776.348 121.054C773.58 121.054 771.79 123.138 771.79 126.136C771.79 129.095 773.516 131.198 776.367 131.198ZM782.192 131H784.103V127.516L785.056 126.564L788.392 131H790.738L786.494 125.394L790.47 121.182H788.181L784.269 125.337H784.103V117.909H782.192V131ZM795.231 131.192C797.02 131.192 797.724 130.099 798.069 129.472H798.229V131H800.095V121.182H798.184V122.773H798.069C797.724 122.166 797.072 121.054 795.243 121.054C792.872 121.054 791.127 122.927 791.127 126.11C791.127 129.287 792.846 131.192 795.231 131.192ZM795.653 129.562C793.946 129.562 793.057 128.06 793.057 126.091C793.057 124.141 793.927 122.678 795.653 122.678C797.321 122.678 798.216 124.039 798.216 126.091C798.216 128.156 797.302 129.562 795.653 129.562ZM806.687 134.886C809.187 134.886 811.117 133.742 811.117 131.217V121.182H809.244V122.773H809.104C808.765 122.166 808.087 121.054 806.259 121.054C803.888 121.054 802.143 122.927 802.143 126.053C802.143 129.185 803.926 130.853 806.246 130.853C808.049 130.853 808.746 129.837 809.091 129.21H809.212V131.141C809.212 132.681 808.157 133.346 806.706 133.346C805.115 133.346 804.495 132.547 804.156 131.984L802.513 132.662C803.031 133.864 804.341 134.886 806.687 134.886ZM806.668 129.268C804.961 129.268 804.073 127.957 804.073 126.027C804.073 124.141 804.942 122.678 806.668 122.678C808.336 122.678 809.231 124.039 809.231 126.027C809.231 128.053 808.317 129.268 806.668 129.268ZM817.66 131.198C819.801 131.198 821.316 130.143 821.751 128.545L819.942 128.219C819.597 129.146 818.766 129.619 817.679 129.619C816.043 129.619 814.943 128.558 814.892 126.666H821.872V125.989C821.872 122.441 819.75 121.054 817.526 121.054C814.79 121.054 812.987 123.138 812.987 126.155C812.987 129.204 814.764 131.198 817.66 131.198ZM814.898 125.234C814.975 123.841 815.985 122.633 817.538 122.633C819.021 122.633 819.993 123.732 819.999 125.234H814.898ZM748.599 153H750.574V148.046H753.258C753.303 148.046 753.341 148.046 753.386 148.046L756.045 153H758.295L755.393 147.701C756.998 147.107 757.797 145.771 757.797 144.013C757.797 141.603 756.301 139.909 753.265 139.909H748.599V153ZM750.574 146.346V141.603H753.054C755.003 141.603 755.809 142.53 755.809 144.013C755.809 145.489 755.003 146.346 753.079 146.346H750.574ZM763.903 153.198C766.045 153.198 767.559 152.143 767.994 150.545L766.185 150.219C765.84 151.146 765.009 151.619 763.922 151.619C762.286 151.619 761.187 150.558 761.135 148.666H768.116V147.989C768.116 144.441 765.993 143.054 763.769 143.054C761.033 143.054 759.231 145.138 759.231 148.155C759.231 151.204 761.008 153.198 763.903 153.198ZM761.142 147.234C761.219 145.841 762.228 144.633 763.782 144.633C765.265 144.633 766.236 145.732 766.243 147.234H761.142ZM774.567 143.182H772.554V140.83H770.642V143.182H769.204V144.716H770.642V150.513C770.636 152.297 771.998 153.16 773.506 153.128C774.113 153.121 774.522 153.006 774.746 152.923L774.401 151.344C774.273 151.37 774.037 151.428 773.73 151.428C773.11 151.428 772.554 151.223 772.554 150.117V144.716H774.567V143.182ZM782.649 148.928C782.655 150.597 781.415 151.389 780.341 151.389C779.159 151.389 778.341 150.533 778.341 149.197V143.182H776.429V149.427C776.429 151.862 777.765 153.128 779.651 153.128C781.128 153.128 782.131 152.348 782.585 151.3H782.687V153H784.566V143.182H782.649V148.928ZM786.882 153H788.794V147.004C788.794 145.719 789.784 144.793 791.14 144.793C791.536 144.793 791.983 144.863 792.137 144.908V143.08C791.945 143.054 791.568 143.035 791.325 143.035C790.174 143.035 789.19 143.687 788.832 144.741H788.73V143.182H786.882V153ZM795.45 147.17C795.45 145.604 796.409 144.71 797.738 144.71C799.036 144.71 799.822 145.56 799.822 146.985V153H801.733V146.755C801.733 144.326 800.397 143.054 798.39 143.054C796.914 143.054 795.948 143.738 795.495 144.78H795.373V143.182H793.539V153H795.45V147.17ZM808.276 153.198C810.417 153.198 811.932 152.143 812.367 150.545L810.558 150.219C810.213 151.146 809.382 151.619 808.295 151.619C806.659 151.619 805.559 150.558 805.508 148.666H812.488V147.989C812.488 144.441 810.366 143.054 808.142 143.054C805.406 143.054 803.603 145.138 803.603 148.155C803.603 151.204 805.38 153.198 808.276 153.198ZM805.515 147.234C805.591 145.841 806.601 144.633 808.155 144.633C809.637 144.633 810.609 145.732 810.615 147.234H805.515ZM818.032 153.192C819.822 153.192 820.525 152.099 820.87 151.472H821.03V153H822.897V139.909H820.985V144.773H820.87C820.525 144.166 819.873 143.054 818.045 143.054C815.674 143.054 813.929 144.927 813.929 148.11C813.929 151.287 815.648 153.192 818.032 153.192ZM818.454 151.562C816.748 151.562 815.859 150.06 815.859 148.091C815.859 146.141 816.728 144.678 818.454 144.678C820.123 144.678 821.017 146.039 821.017 148.091C821.017 150.156 820.103 151.562 818.454 151.562Z" fill="#4E647F"/>
<rect x="730.75" y="185" width="110" height="115" rx="3" fill="#F1F4F8"/>
<path d="M761.611 243.199C761.365 241.422 759.997 240.391 758.224 240.391C756.134 240.391 754.56 241.914 754.56 244.5C754.56 247.082 756.115 248.609 758.224 248.609C760.126 248.609 761.388 247.379 761.611 245.852L760.15 245.844C759.966 246.781 759.201 247.309 758.244 247.309C756.947 247.309 756.017 246.336 756.017 244.5C756.017 242.695 756.939 241.691 758.247 241.691C759.22 241.691 759.982 242.242 760.15 243.199H761.611ZM768.256 240.5V245.605C768.256 246.609 767.557 247.328 766.459 247.328C765.357 247.328 764.662 246.609 764.662 245.605V240.5H763.213V245.727C763.213 247.445 764.502 248.621 766.459 248.621C768.408 248.621 769.705 247.445 769.705 245.727V240.5H768.256ZM775.903 242.699H777.297C777.27 241.348 776.118 240.391 774.415 240.391C772.735 240.391 771.473 241.336 771.477 242.75C771.477 243.898 772.294 244.559 773.61 244.898L774.52 245.133C775.383 245.352 775.954 245.621 775.958 246.242C775.954 246.926 775.305 247.383 774.36 247.383C773.454 247.383 772.751 246.977 772.692 246.137H771.266C771.325 247.727 772.508 248.621 774.372 248.621C776.29 248.621 777.403 247.664 777.407 246.254C777.403 244.867 776.258 244.234 775.055 243.949L774.305 243.762C773.649 243.605 772.938 243.328 772.946 242.66C772.95 242.059 773.489 241.617 774.395 241.617C775.258 241.617 775.829 242.02 775.903 242.699ZM778.622 241.715H781.095V248.5H782.532V241.715H785.005V240.5H778.622V241.715ZM793.315 244.5C793.315 241.914 791.737 240.391 789.639 240.391C787.538 240.391 785.964 241.914 785.964 244.5C785.964 247.082 787.538 248.609 789.639 248.609C791.737 248.609 793.315 247.086 793.315 244.5ZM791.858 244.5C791.858 246.32 790.944 247.309 789.639 247.309C788.339 247.309 787.421 246.32 787.421 244.5C787.421 242.68 788.339 241.691 789.639 241.691C790.944 241.691 791.858 242.68 791.858 244.5ZM794.96 240.5V248.5H796.351V242.992H796.425L798.636 248.477H799.675L801.886 243.004H801.96V248.5H803.351V240.5H801.578L799.203 246.297H799.109L796.734 240.5H794.96ZM805.204 248.5H810.438V247.285H806.653V245.102H810.138V243.887H806.653V241.715H810.407V240.5H805.204V248.5ZM812.161 248.5H813.61V245.57H815.087L816.657 248.5H818.274L816.544 245.328C817.485 244.949 817.981 244.145 817.981 243.059C817.981 241.531 816.997 240.5 815.161 240.5H812.161V248.5ZM813.61 244.367V241.711H814.938C816.02 241.711 816.504 242.207 816.504 243.059C816.504 243.91 816.02 244.367 814.946 244.367H813.61ZM766.198 258.699H767.593C767.566 257.348 766.413 256.391 764.71 256.391C763.03 256.391 761.769 257.336 761.773 258.75C761.773 259.898 762.589 260.559 763.905 260.898L764.816 261.133C765.679 261.352 766.249 261.621 766.253 262.242C766.249 262.926 765.601 263.383 764.655 263.383C763.749 263.383 763.046 262.977 762.987 262.137H761.562C761.62 263.727 762.804 264.621 764.667 264.621C766.585 264.621 767.698 263.664 767.702 262.254C767.698 260.867 766.554 260.234 765.351 259.949L764.601 259.762C763.945 259.605 763.234 259.328 763.241 258.66C763.245 258.059 763.784 257.617 764.691 257.617C765.554 257.617 766.124 258.02 766.198 258.699ZM769.269 264.5H774.504V263.285H770.719V261.102H774.203V259.887H770.719V257.715H774.472V256.5H769.269V264.5ZM776.226 264.5H777.675V261.57H779.152L780.722 264.5H782.339L780.609 261.328C781.55 260.949 782.046 260.145 782.046 259.059C782.046 257.531 781.062 256.5 779.226 256.5H776.226V264.5ZM777.675 260.367V257.711H779.003C780.085 257.711 780.57 258.207 780.57 259.059C780.57 259.91 780.085 260.367 779.011 260.367H777.675ZM784.511 256.5H782.921L785.737 264.5H787.526L790.347 256.5H788.753L786.675 262.797H786.593L784.511 256.5ZM791.324 257.715H792.734V263.285H791.324V264.5H795.593V263.285H794.183V257.715H795.593V256.5H791.324V257.715ZM803.944 259.199C803.697 257.422 802.33 256.391 800.557 256.391C798.467 256.391 796.893 257.914 796.893 260.5C796.893 263.082 798.447 264.609 800.557 264.609C802.459 264.609 803.721 263.379 803.944 261.852L802.483 261.844C802.299 262.781 801.533 263.309 800.576 263.309C799.279 263.309 798.35 262.336 798.35 260.5C798.35 258.695 799.272 257.691 800.58 257.691C801.553 257.691 802.315 258.242 802.483 259.199H803.944ZM805.546 264.5H810.78V263.285H806.995V261.102H810.479V259.887H806.995V257.715H810.749V256.5H805.546V264.5Z" fill="#4E647F"/>
<path d="M774.365 278.5H773.365L771.709 283.281H771.646L769.99 278.5H768.99L771.209 284.5H772.146L774.365 278.5ZM775.692 284.5H776.614V278.5H775.692V284.5ZM776.161 277.5C776.52 277.5 776.817 277.219 776.817 276.875C776.817 276.531 776.52 276.25 776.161 276.25C775.801 276.25 775.504 276.531 775.504 276.875C775.504 277.219 775.801 277.5 776.161 277.5ZM780.678 284.625C781.834 284.625 782.225 283.906 782.428 283.578H782.537V284.5H783.428V278.5H782.506V279.453H782.428C782.225 279.141 781.865 278.422 780.694 278.422C779.178 278.422 778.131 279.625 778.131 281.516C778.131 283.422 779.178 284.625 780.678 284.625ZM780.803 283.797C779.647 283.797 779.053 282.781 779.053 281.5C779.053 280.234 779.631 279.25 780.803 279.25C781.928 279.25 782.522 280.156 782.522 281.5C782.522 282.859 781.912 283.797 780.803 283.797ZM791.152 284.5C793.589 284.5 794.964 282.984 794.964 280.484C794.964 278 793.589 276.5 791.261 276.5H788.683V284.5H791.152ZM789.652 283.641V277.359H791.199C793.074 277.359 794.027 278.547 794.027 280.484C794.027 282.438 793.074 283.641 791.089 283.641H789.652ZM796.699 284.5H799.59C801.481 284.5 802.262 283.578 802.262 282.375C802.262 281.109 801.387 280.422 800.652 280.375V280.297C801.34 280.109 801.949 279.656 801.949 278.625C801.949 277.453 801.168 276.5 799.496 276.5H796.699V284.5ZM797.668 283.641V280.859H799.637C800.684 280.859 801.34 281.562 801.34 282.375C801.34 283.078 800.856 283.641 799.59 283.641H797.668ZM797.668 280.016V277.359H799.496C800.559 277.359 801.027 277.922 801.027 278.625C801.027 279.469 800.34 280.016 799.465 280.016H797.668Z" fill="#4E647F"/>
<path d="M794.75 206.5H794.69C794.436 204.307 793.384 202.284 791.736 200.816C790.088 199.348 787.957 198.537 785.75 198.537C783.543 198.537 781.412 199.348 779.764 200.816C778.116 202.284 777.064 204.307 776.81 206.5H776.75C775.424 206.5 774.152 207.026 773.214 207.964C772.277 208.902 771.75 210.174 771.75 211.5C771.75 212.826 772.277 214.097 773.214 215.035C774.152 215.973 775.424 216.5 776.75 216.5H778.75V207.5C778.75 205.643 779.487 203.863 780.8 202.55C782.113 201.237 783.893 200.5 785.75 200.5C787.607 200.5 789.387 201.237 790.7 202.55C792.013 203.863 792.75 205.643 792.75 207.5V217.5C792.749 218.416 792.434 219.304 791.857 220.016C791.28 220.727 790.476 221.219 789.58 221.41C789.313 220.473 788.714 219.667 787.895 219.141C787.075 218.615 786.093 218.405 785.13 218.552C784.168 218.699 783.292 219.192 782.667 219.938C782.042 220.684 781.71 221.633 781.735 222.606C781.759 223.58 782.137 224.511 782.799 225.225C783.461 225.939 784.36 226.387 785.328 226.486C786.297 226.584 787.268 226.326 788.06 225.76C788.852 225.194 789.41 224.358 789.63 223.41C791.049 223.199 792.346 222.487 793.285 221.403C794.224 220.319 794.744 218.934 794.75 217.5V216.5C796.076 216.5 797.348 215.973 798.286 215.035C799.223 214.097 799.75 212.826 799.75 211.5C799.75 210.174 799.223 208.902 798.286 207.964C797.348 207.026 796.076 206.5 794.75 206.5ZM773.75 211.5C773.75 210.704 774.066 209.941 774.629 209.378C775.191 208.816 775.954 208.5 776.75 208.5V214.5C775.954 214.5 775.191 214.184 774.629 213.621C774.066 213.058 773.75 212.295 773.75 211.5ZM785.75 224.5C785.354 224.5 784.968 224.382 784.639 224.163C784.31 223.943 784.054 223.63 783.902 223.265C783.751 222.9 783.711 222.497 783.788 222.109C783.866 221.721 784.056 221.365 784.336 221.085C784.615 220.806 784.972 220.615 785.36 220.538C785.748 220.461 786.15 220.5 786.515 220.652C786.881 220.803 787.193 221.06 787.413 221.388C787.633 221.717 787.75 222.104 787.75 222.5C787.75 223.03 787.539 223.539 787.164 223.914C786.789 224.289 786.28 224.5 785.75 224.5ZM794.75 214.5V208.5C795.546 208.5 796.309 208.816 796.871 209.378C797.434 209.941 797.75 210.704 797.75 211.5C797.75 212.295 797.434 213.058 796.871 213.621C796.309 214.184 795.546 214.5 794.75 214.5Z" fill="#001531"/>
<defs>
<clipPath id="clip0_300:567">
<rect width="13" height="18" fill="white" transform="translate(38 3.06348)"/>
</clipPath>
<clipPath id="clip1_300:567">
<rect width="13" height="18" fill="white" transform="translate(218 3.06348)"/>
</clipPath>
<clipPath id="clip2_300:567">
<rect width="13" height="18" fill="white" transform="translate(404.25 3.06348)"/>
</clipPath>
<clipPath id="clip3_300:567">
<rect width="13" height="18" fill="white" transform="translate(584.25 3.06348)"/>
</clipPath>
<clipPath id="clip4_300:567">
<rect width="13" height="18" fill="white" transform="translate(764.25 3.06348)"/>
</clipPath>
</defs>
</svg>
