<svg width="65" height="65" viewBox="0 0 65 65" fill="none" xmlns="http://www.w3.org/2000/svg">
<path d="M32.5 4.0625C24.9861 4.15341 17.8057 7.17868 12.4922 12.4922C7.17868 17.8057 4.15341 24.9861 4.0625 32.5C4.15341 40.0139 7.17868 47.1943 12.4922 52.5078C17.8057 57.8213 24.9861 60.8466 32.5 60.9375C40.0139 60.8466 47.1943 57.8213 52.5078 52.5078C57.8213 47.1943 60.8466 40.0139 60.9375 32.5C60.8466 24.9861 57.8213 17.8057 52.5078 12.4922C47.1943 7.17868 40.0139 4.15341 32.5 4.0625V4.0625ZM48.75 34.5312H34.5312V48.75H30.4688V34.5312H16.25V30.4688H30.4688V16.25H34.5312V30.4688H48.75V34.5312Z" fill="#f25c2b"/>
</svg>
