<svg width="65" height="65" viewBox="0 0 65 65" fill="none" xmlns="http://www.w3.org/2000/svg">
<path d="M32.5 8.125C45.9062 8.125 56.875 19.0938 56.875 32.5C56.875 45.9062 45.9062 56.875 32.5 56.875C19.0938 56.875 8.125 45.9062 8.125 32.5C8.125 19.0938 19.0938 8.125 32.5 8.125ZM32.5 4.0625C16.8594 4.0625 4.0625 16.8594 4.0625 32.5C4.0625 48.1406 16.8594 60.9375 32.5 60.9375C48.1406 60.9375 60.9375 48.1406 60.9375 32.5C60.9375 16.8594 48.1406 4.0625 32.5 4.0625Z" fill="#8799af"/>
<path d="M48.75 30.4688H16.25V34.5312H48.75V30.4688Z" fill="#8799af"/>
</svg>
