<svg version="1.1" id="Layer_1" xmlns="http://www.w3.org/2000/svg" xmlns:xlink="http://www.w3.org/1999/xlink" x="0" y="0" viewBox="0 0 181 41" xml:space="preserve"><style>.st1{fill:#003272}.st2{fill:#003173}</style><g id="Group_104" transform="translate(1659 968)"><g id="Group_107"><linearGradient id="Path_2141_1_" gradientUnits="userSpaceOnUse" x1="-4105.211" y1="23.102" x2="-4105.211" y2="24.102" gradientTransform="matrix(28.844 0 0 40.4296 116781.258 -1901.744)"><stop offset="0" stop-color="#003173"/><stop offset=".652" stop-color="#306bb4"/></linearGradient><path id="Path_2141" d="M-1615-941.8c0 8.6-6.1 14.5-14.2 14.5-4.5.2-8.7-2.1-11-5.9v3.8c0 1-.8 1.9-1.9 1.9-1 0-1.8-.8-1.8-1.8v-36.4c0-1.1.9-1.9 1.9-1.9 1.1 0 1.9.9 1.9 1.9v15.2c2.4-3.6 6.5-5.8 10.8-5.6 8.2-.2 14.3 5.7 14.3 14.3m-3.9 0c0-6.7-4.6-11.1-10.6-11.1-6.1 0-10.6 4.4-10.6 11.1 0 6.7 4.5 11.1 10.6 11.1 6 0 10.6-4.5 10.6-11.1" fill="url(#Path_2141_1_)"/><path id="Path_2142" class="st1" d="M-1611.1-935.7v-30.5c0-1 .8-1.8 1.8-1.8h.3c1 0 1.8.8 1.8 1.8v30.1c0 3.4 1.6 5.2 4.8 5.2.3 0 .7 0 1-.1.8-.1 1.6.5 1.7 1.3v.1c.1.8-.5 1.6-1.3 1.8-.7.1-1.3.2-2 .2-5.3.1-8.1-3-8.1-8.1"/><path id="Path_2143" class="st2" d="M-1478.2-930.8c.4.8.1 1.7-.6 2.1-1.5.8-3.1 1.1-4.8 1.1-5.4 0-8.3-3-8.3-8.3v-22.9h-5.1v-3.2h5.1v-4.1c0-1.1.9-1.9 1.9-1.9 1.1 0 1.9.9 1.9 1.9v4.1h7.1c.9 0 1.6.7 1.6 1.6 0 .9-.8 1.7-1.7 1.7h-7v22.7c0 3.4 1.7 5.2 4.9 5.2 1 0 2.1-.2 3-.7.8-.3 1.7 0 2 .7"/><path id="Path_2144" d="M-1554.6-930.7c.3.7.1 1.5-.6 1.9-1.5.8-3.2 1.2-4.9 1.2-5.4 0-8.3-3-8.3-8.3v-22.9h-3.7c-.8 0-1.4-.6-1.4-1.4 0-1 .8-1.8 1.8-1.8h3.2v-4.2c0-1 .8-1.8 1.8-1.8h.1c1.1 0 1.9.9 1.9 1.9v4.1h83.4c.9 0 1.6.7 1.6 1.6 0 .9-.7 1.7-1.7 1.7h-83.4v22.7c0 3.4 1.7 5.2 4.9 5.2 1 0 2-.2 2.9-.6 1.1-.4 2-.1 2.4.7" fill="#003472"/><path id="Path_2145" class="st2" d="M-1496.6-954.2v24.6c0 1-.8 1.8-1.8 1.8s-1.9-.8-1.9-1.9v-3.2c-2 3.4-5.7 5.4-10.2 5.4-7.3 0-12-4.1-12-12.2v-14.6c0-1.1.9-1.9 1.9-1.9 1 0 1.9.9 1.9 1.9v14.2c0 6.1 3.1 9.1 8.5 9.1 6 0 9.7-3.8 9.7-10.3v-13.1c0-1 .8-1.8 1.8-1.8 1.2-.1 2.1.8 2.1 2"/><path id="Path_2178" d="M-1528.6-941.3c0 6.9-5.6 12.5-12.5 12.5s-12.5-5.6-12.5-12.5 5.6-12.5 12.5-12.5h0c6.9 0 12.5 5.6 12.5 12.5h0z" fill="none" stroke="#002f75" stroke-width="3.5" stroke-miterlimit="10"/><g transform="translate(7.49 11.019)" id="Group_104-2"><defs><path id="SVGID_1_" d="M-1659-966.1v25.5c0 1 .9 1.9 1.9 1.8 1 0 1.8-.8 1.8-1.8v-25.5c0-1-.9-1.9-1.9-1.8-1 0-1.8.8-1.8 1.8"/></defs><clipPath id="SVGID_2_"><use xlink:href="#SVGID_1_" overflow="visible"/></clipPath><g id="Group_80" clip-path="url(#SVGID_2_)"><linearGradient id="Rectangle_707_1_" gradientUnits="userSpaceOnUse" x1="-3935.145" y1="32.43" x2="-3934.98" y2="32.43" gradientTransform="matrix(3.781 0 0 29.252 13212.293 -1902.002)"><stop offset="0" stop-color="#003173"/><stop offset=".652" stop-color="#306bb4"/></linearGradient><path id="Rectangle_707" fill="url(#Rectangle_707_1_)" d="M-1659-968h3.8v29.3h-3.8z"/></g></g><g transform="translate(0 20.39)" id="Group_105"><defs><path id="SVGID_3_" d="M-1659-966.1v16.3c0 1 .9 1.9 1.9 1.8 1 0 1.8-.8 1.8-1.8v-16.3c0-1-.8-1.9-1.8-1.9-1-.1-1.9.8-1.9 1.9 0-.1 0 0 0 0"/></defs><clipPath id="SVGID_4_"><use xlink:href="#SVGID_3_" overflow="visible"/></clipPath><g id="Group_82" clip-path="url(#SVGID_4_)"><linearGradient id="Rectangle_708_1_" gradientUnits="userSpaceOnUse" x1="-3917.682" y1="47.858" x2="-3917.682" y2="46.222" gradientTransform="matrix(3.781 0 0 20.077 13155.653 -1902.002)"><stop offset="0" stop-color="#003272"/><stop offset=".652" stop-color="#2f6bb3"/><stop offset="1" stop-color="#2f6bb3"/></linearGradient><path id="Rectangle_708" fill="url(#Rectangle_708_1_)" d="M-1659-968h3.8v20.1h-3.8z"/></g></g><path id="Path_2179" class="st1" d="M-1655.2-945.8c0 1-.8 1.9-1.9 1.9-1 0-1.9-.8-1.9-1.9 0-1 .8-1.9 1.9-1.9s1.9.9 1.9 1.9"/><path id="Path_2180" class="st1" d="M-1647.7-955.1c0 1-.8 1.9-1.9 1.9s-1.9-.8-1.9-1.9.8-1.9 1.9-1.9 1.9.8 1.9 1.9"/><path id="Path_2181" class="st1" d="M-1647.7-929.6c0 1-.8 1.9-1.9 1.9s-1.9-.8-1.9-1.9.8-1.9 1.9-1.9 1.9.9 1.9 1.9"/><path id="Path_2182" class="st1" d="M-1655.2-929.4c0 1-.8 1.9-1.9 1.9s-1.9-.8-1.9-1.9c0-1 .8-1.9 1.9-1.9 1 0 1.9.9 1.9 1.9"/><g><linearGradient id="Subtraction_3-2_1_" gradientUnits="userSpaceOnUse" x1="-4104.387" y1="33.406" x2="-4104.395" y2="34.322" gradientTransform="matrix(28.0307 0 0 28.0313 113461.46 -1889.325)"><stop offset="0" stop-color="#e05b17"/><stop offset="1" stop-color="#ffc845"/></linearGradient><path id="Subtraction_3-2" d="M-1587.5-927.3c-7.8 0-14-6.3-14-14 0-3.7 1.5-7.3 4.1-9.9 5.5-5.5 14.4-5.4 19.9.1 5.4 5.5 5.4 14.3 0 19.8-2.7 2.6-6.3 4-10 4zm1.4-26.4c-6.9 0-12.5 5.6-12.5 12.5s5.6 12.5 12.5 12.5 12.5-5.6 12.5-12.5c-.1-6.9-5.7-12.5-12.5-12.5z" fill="url(#Subtraction_3-2_1_)"/></g></g></g></svg>
