<svg version="1.1" id="Layer_1" xmlns="http://www.w3.org/2000/svg" xmlns:xlink="http://www.w3.org/1999/xlink" x="0" y="0" viewBox="0 0 181 41" xml:space="preserve"><style>.st0{fill:#fff}</style><path id="Path_2141" class="st0" d="M44 26.2c0 8.6-6.1 14.5-14.2 14.5-4.5.2-8.7-2.1-11-5.9v3.8c0 1-.8 1.9-1.9 1.9-1 0-1.8-.8-1.8-1.8V2.3c0-1.1.9-1.9 1.9-1.9 1.1 0 1.9.9 1.9 1.9v15.2c2.4-3.6 6.5-5.8 10.8-5.6 8.2-.2 14.3 5.7 14.3 14.3m-3.9 0c0-6.7-4.6-11.1-10.6-11.1-6.1 0-10.6 4.4-10.6 11.1 0 6.7 4.5 11.1 10.6 11.1 6 0 10.6-4.5 10.6-11.1"/><path id="Path_2142" class="st0" d="M47.9 32.3V1.8c0-1 .8-1.8 1.8-1.8h.3c1 0 1.8.8 1.8 1.8v30.1c0 3.4 1.6 5.2 4.8 5.2.3 0 .7 0 1-.1.8-.1 1.6.5 1.7 1.3v.1c.1.8-.5 1.6-1.3 1.8-.7.1-1.3.2-2 .2-5.3.1-8.1-3-8.1-8.1"/><path class="st0" d="M180.8 37.2c-.3-.7-1.2-1-2-.7-.9.5-2 .7-3 .7-3.2 0-4.9-1.8-4.9-5.2V9.3h7c.9 0 1.7-.8 1.7-1.7 0-.9-.7-1.6-1.6-1.6h-7.1V1.9c0-1-.8-1.9-1.9-1.9-1 0-1.9.8-1.9 1.9V6H94.3V1.9c0-1-.8-1.9-1.9-1.9h-.1c-1 0-1.8.8-1.8 1.8V6h-3.2c-1 0-1.8.8-1.8 1.8 0 .8.6 1.4 1.4 1.4h3.7v22.9c0 5.3 2.9 8.3 8.3 8.3 1.7 0 3.4-.4 4.9-1.2.7-.4.9-1.2.6-1.9-.4-.8-1.3-1.1-2.4-.7-.9.4-1.9.6-2.9.6-3.2 0-4.9-1.8-4.9-5.2V9.3h72.9v22.8c0 5.3 2.9 8.3 8.3 8.3 1.7 0 3.3-.3 4.8-1.1.7-.4 1-1.3.6-2.1z"/><path id="Path_2145" class="st0" d="M162.4 13.8v24.6c0 1-.8 1.8-1.8 1.8s-1.9-.8-1.9-1.9v-3.2c-2 3.4-5.7 5.4-10.2 5.4-7.3 0-12-4.1-12-12.2V13.7c0-1.1.9-1.9 1.9-1.9 1 0 1.9.9 1.9 1.9v14.2c0 6.1 3.1 9.1 8.5 9.1 6 0 9.7-3.8 9.7-10.3V13.6c0-1 .8-1.8 1.8-1.8 1.2-.1 2.1.8 2.1 2"/><path class="st0" d="M117.9 41c-7.9 0-14.2-6.4-14.2-14.2s6.4-14.2 14.2-14.2 14.2 6.4 14.2 14.2S125.8 41 117.9 41zm0-25c-5.9 0-10.8 4.8-10.8 10.8s4.8 10.8 10.8 10.8 10.8-4.8 10.8-10.8S123.8 16 117.9 16z"/><g transform="translate(7.49 11.019)" id="Group_104-2"><defs><path id="SVGID_1_" d="M0 1.9v25.5c0 1 .9 1.9 1.9 1.8 1 0 1.8-.8 1.8-1.8V1.9C3.7.9 2.8 0 1.8.1.8.1 0 .9 0 1.9"/></defs><use xlink:href="#SVGID_1_" overflow="visible" fill="#fff"/><clipPath id="SVGID_2_"><use xlink:href="#SVGID_1_" overflow="visible"/></clipPath><g id="Group_80" clip-path="url(#SVGID_2_)"><path id="Rectangle_707" class="st0" d="M0 0h3.8v29.3H0z"/></g></g><g transform="translate(0 20.39)" id="Group_105"><defs><path id="SVGID_3_" d="M0 1.9v16.3c0 1 .9 1.9 1.9 1.8 1 0 1.8-.8 1.8-1.8V1.9C3.7.9 2.9 0 1.9 0 .9-.1 0 .8 0 1.9c0-.1 0 0 0 0"/></defs><use xlink:href="#SVGID_3_" overflow="visible" fill="#fff"/><clipPath id="SVGID_4_"><use xlink:href="#SVGID_3_" overflow="visible"/></clipPath><g id="Group_82" clip-path="url(#SVGID_4_)"><path id="Rectangle_708" class="st0" d="M0 0h3.8v20.1H0z"/></g></g><g><linearGradient id="Subtraction_3-2_1_" gradientUnits="userSpaceOnUse" x1="-4498.795" y1="470.506" x2="-4498.803" y2="469.59" gradientTransform="matrix(28.0307 0 0 -28.0313 126176.016 13203.982)"><stop offset="0" stop-color="#e05b17"/><stop offset="1" stop-color="#ffc845"/></linearGradient><path id="Subtraction_3-2" d="M71.5 40.7c-7.8 0-14-6.3-14-14 0-3.7 1.5-7.3 4.1-9.9 5.5-5.5 14.4-5.4 19.9.1 5.4 5.5 5.4 14.3 0 19.8-2.7 2.6-6.3 4-10 4zm1.4-26.4c-6.9 0-12.5 5.6-12.5 12.5S66 39.3 72.9 39.3s12.5-5.6 12.5-12.5c-.1-6.9-5.7-12.5-12.5-12.5z" fill="url(#Subtraction_3-2_1_)"/></g></svg>
