<svg width="470" height="150" viewBox="0 0 470 150" fill="none" xmlns="http://www.w3.org/2000/svg">
<mask id="mask0_406:4087" style="mask-type:alpha" maskUnits="userSpaceOnUse" x="11" y="5" width="133" height="131">
<path d="M27.0691 45.2171C28.5666 43.4375 28.3373 40.7799 26.5572 39.2818C24.7771 37.7838 22.1194 38.0149 20.6214 39.7945C19.1249 41.5743 19.3534 44.2314 21.1338 45.7284C22.9139 47.2273 25.5718 46.9969 27.0691 45.2171ZM33.8659 28.8762C35.6462 30.3735 38.3036 30.1444 39.8014 28.3638C41.2987 26.5826 41.0691 23.9258 39.2892 22.4285C37.5089 20.9305 34.8515 21.1601 33.3537 22.9402C31.8567 24.7205 32.0855 27.3771 33.8659 28.8762ZM118.488 116.612C116.708 115.115 114.05 115.345 112.552 117.125C111.055 118.905 111.284 121.562 113.065 123.059C114.845 124.557 117.503 124.328 119 122.548C120.498 120.768 120.269 118.11 118.488 116.612ZM101.13 127.801C99.3492 126.304 96.6924 126.533 95.1949 128.313C93.6968 130.093 93.9272 132.751 95.7065 134.249C97.4869 135.747 100.144 135.517 101.642 133.737C103.14 131.956 102.91 129.298 101.13 127.801ZM52.9307 17.3742C54.7113 18.873 57.369 18.6424 58.8667 16.8628C60.3635 15.083 60.1352 12.4254 58.3546 10.9273C56.5742 9.42981 53.9166 9.65964 52.4191 11.4395C50.9221 13.2196 51.1503 15.8769 52.9307 17.3742ZM19.0184 64.2352C20.5161 62.4545 20.2868 59.7972 18.506 58.3002C16.7258 56.8011 14.0688 57.0317 12.571 58.8113C11.0734 60.5911 11.3025 63.2482 13.0829 64.7465C14.863 66.2443 17.5206 66.0147 19.0184 64.2352ZM126.977 101.695C125.479 103.475 125.709 106.133 127.489 107.63C129.269 109.128 131.927 108.898 133.424 107.118C134.921 105.338 134.693 102.681 132.912 101.183C131.132 99.6855 128.475 99.9148 126.977 101.695ZM134.245 59.5629C132.748 61.3425 132.977 63.9996 134.757 65.4968C136.538 66.9949 139.195 66.7653 140.693 64.9855C142.19 63.2056 141.961 60.548 140.181 59.0502C138.401 57.5524 135.743 57.7823 134.245 59.5629ZM74.1316 14.499C75.9114 15.9971 78.5693 15.768 80.0663 13.9877C81.5639 12.2078 81.3351 9.55021 79.5544 8.05347C77.7738 6.55464 75.117 6.7842 73.62 8.56483C72.1214 10.3447 72.3507 13.002 74.1316 14.499ZM135.044 80.9414C133.545 82.7212 133.775 85.3796 135.555 86.8777C137.335 88.3744 139.993 88.1451 141.491 86.365C142.988 84.5849 142.76 81.927 140.978 80.43C139.198 78.9333 136.54 79.1618 135.044 80.9414ZM95.0703 17.9469C96.8504 19.4437 99.508 19.2154 101.006 17.4351C102.503 15.6544 102.274 12.996 100.494 11.4993C98.7128 10.0023 96.0554 10.2311 94.5582 12.0117C93.0611 13.7921 93.2902 16.4499 95.0703 17.9469ZM127.264 39.5226C125.766 41.3027 125.995 43.9601 127.776 45.4589C129.557 46.9557 132.214 46.7261 133.711 44.9468C135.208 43.1659 134.979 40.5088 133.199 39.0115C131.419 37.5132 128.76 37.743 127.264 39.5226ZM119.632 28.4876C121.035 26.8198 120.922 24.3795 119.436 22.8464C119.336 22.744 119.23 22.6461 119.12 22.5534C119.009 22.4583 118.894 22.3727 118.776 22.292C117.012 21.0896 114.588 21.3946 113.185 23.0647C111.78 24.7325 111.894 27.1729 113.381 28.7051C113.48 28.8073 113.585 28.906 113.696 28.9987C113.808 29.0938 113.922 29.1797 114.04 29.2593C115.805 30.4625 118.228 30.1567 119.632 28.4876ZM92.2821 10.0971C93.3544 8.82312 94.7747 8.01717 96.286 7.69724C91.2427 6.29426 86.0755 5.51337 80.9026 5.3457C81.0964 5.47942 81.286 5.62176 81.4693 5.7761C84.5069 8.33135 84.8979 12.8644 82.3427 15.902C80.7532 17.7923 78.3964 18.6573 76.1112 18.4249L53.539 80.2107C54.7275 80.5938 55.9012 81.0419 57.0543 81.5585L92.7707 19.8715C90.0914 17.269 89.841 13.0002 92.2821 10.0971ZM72.2167 16.7754C69.1804 14.2198 68.7889 9.68732 71.3437 6.65049C71.6662 6.26631 72.0222 5.92758 72.4014 5.62855C68.0812 6.05163 63.8022 6.90225 59.633 8.17622C59.8506 8.32299 60.0639 8.47917 60.2695 8.65258C63.3066 11.2055 63.6975 15.7406 61.1425 18.7775C59.8863 20.2705 58.1511 21.123 56.3515 21.3016L46.1605 78.6925C47.3721 78.8066 48.5794 78.9829 49.7784 79.225L72.5092 17.0088C72.4105 16.9336 72.3131 16.8563 72.2167 16.7754ZM110.909 21.1494C112.862 18.8284 115.97 18.0585 118.683 18.9642C113.863 15.2277 108.672 12.2689 103.262 10.0759C105.492 12.7006 105.573 16.6265 103.282 19.3489C101.486 21.4839 98.7128 22.3095 96.1685 21.7258L60.493 83.3441C61.5789 83.9868 62.6398 84.6933 63.6691 85.4661L110.473 29.8263C108.699 27.2303 108.785 23.6735 110.909 21.1494ZM73.7318 128.964C72.6304 131.112 71.2836 133.174 69.6941 135.116C77.1468 136.155 84.7208 135.901 92.0622 134.377C91.6822 133.656 91.4304 132.88 91.3121 132.086L73.7318 128.964ZM13.5809 68.359C13.3359 75.8536 14.3827 83.359 16.6828 90.5223C18.3239 88.6249 20.1254 86.9448 22.0526 85.4914L15.9669 68.705C15.1638 68.7254 14.3563 68.6097 13.5809 68.359ZM31.9515 31.1525C30.8082 30.1909 30.0409 28.9491 29.6629 27.6127C29.3921 27.9222 29.1221 28.2316 28.8557 28.5477C27.0236 30.7266 25.3595 32.9888 23.8598 35.3199C25.4898 35.3239 27.1276 35.8749 28.4718 37.0058C31.5089 39.56 31.8998 44.0941 29.3451 47.1317C28.5 48.1372 27.4383 48.8488 26.2861 49.2636L31.7329 80.3781C32.7745 80.0234 33.8309 79.7215 34.8962 79.4708L34.9544 32.6524C33.8818 32.4048 32.8513 31.9086 31.9515 31.1525ZM51.0166 19.6503C48.9247 17.8911 48.0879 15.1927 48.6053 12.6902C45.2417 14.4413 42.0077 16.5037 38.945 18.8683C39.7473 19.1483 40.5144 19.5732 41.2036 20.1522C44.2407 22.7075 44.6322 27.2416 42.0775 30.2784C41.1853 31.3393 40.0503 32.0763 38.8244 32.4785L38.7677 78.7857C39.9254 78.6476 41.0897 78.5664 42.2561 78.5442L52.54 20.6349C52.0038 20.3787 51.4917 20.0501 51.0166 19.6503ZM124.988 37.6083C127.279 34.8848 131.16 34.2912 134.128 36.0397C131.04 31.0854 127.236 26.4764 122.73 22.3674C124.086 24.8859 123.861 28.0802 121.907 30.4011C119.784 32.9264 116.295 33.6203 113.433 32.3163L66.6304 87.9579C67.5685 88.8393 68.4468 89.7633 69.2658 90.7231L123.864 45.0225C122.853 42.6172 123.192 39.743 124.988 37.6083ZM109.084 122.461L76.2802 122.42C76.0102 123.395 75.697 124.363 75.339 125.319L91.7906 128.24C92.0648 127.589 92.4396 126.968 92.9191 126.4C95.4741 123.361 100.007 122.97 103.044 125.525C104.455 126.712 105.293 128.322 105.532 130.015C107.954 128.926 110.321 127.684 112.616 126.292C112.101 126.039 111.608 125.721 111.15 125.335C110.199 124.536 109.508 123.541 109.084 122.461ZM125.574 109.906C124.674 109.149 124.008 108.219 123.582 107.206L77.4651 115.279C77.3998 116.372 77.2828 117.464 77.1131 118.551L108.7 118.59C108.911 117.383 109.432 116.216 110.277 115.209C112.831 112.172 117.366 111.782 120.402 114.336C121.747 115.468 122.571 116.988 122.852 118.593C124.894 116.715 126.838 114.687 128.67 112.51C128.936 112.195 129.195 111.874 129.454 111.555C128.072 111.411 126.718 110.868 125.574 109.906ZM19.2192 48.0048C18.7614 47.6195 18.3641 47.1886 18.0278 46.7253C17.0471 49.2249 16.2291 51.7689 15.572 54.3414C17.2793 54.2879 19.011 54.8371 20.4208 56.0236C23.4579 58.5786 23.8489 63.1119 21.2944 66.1498C20.816 66.7175 20.2675 67.1929 19.6731 67.5749L25.3691 83.2838C26.2498 82.7688 27.1484 82.2934 28.0641 81.8612L22.4067 49.5485C21.2691 49.3158 20.1709 48.8052 19.2192 48.0048ZM132.767 79.0271C135.322 75.9889 139.855 75.5987 142.893 78.1535C143.098 78.3256 143.289 78.5089 143.47 78.699C144.012 74.3731 144.117 70.0111 143.794 65.6818C143.565 66.1072 143.291 66.5159 142.968 66.8998C140.413 69.9377 135.88 70.3279 132.843 67.7732C132.747 67.6922 132.654 67.6094 132.563 67.5256L75.1585 100.575C75.6022 101.714 75.9825 102.875 76.3029 104.048L131.101 84.1793C130.969 82.3752 131.511 80.5209 132.767 79.0271ZM124.701 99.7801C127.255 96.7435 131.79 96.3515 134.827 98.9078C135.516 99.487 136.064 100.169 136.478 100.912C138.284 97.4891 139.761 93.9501 140.911 90.3368C138.535 91.2739 135.732 90.913 133.64 89.1527C133.165 88.7529 132.754 88.3037 132.41 87.8205L77.117 107.87C77.2951 109.023 77.4152 110.183 77.4769 111.347L123.09 103.362C123.276 102.084 123.808 100.842 124.701 99.7801ZM130.55 64.2195L73.5442 97.0391C72.9626 95.932 72.3196 94.8529 71.6127 93.8049L126.273 48.0531C129.296 50.2466 133.545 49.7629 135.987 46.8611C137.058 45.5864 137.609 44.0494 137.666 42.5059C139.912 47.2351 141.566 52.191 142.616 57.2586C142.452 57.0912 142.278 56.9285 142.095 56.7742C139.058 54.2197 134.524 54.6102 131.969 57.647C130.379 59.5384 129.931 62.0072 130.55 64.2195Z" fill="white"/>
</mask>
<g mask="url(#mask0_406:4087)">
<path fill-rule="evenodd" clip-rule="evenodd" d="M27.0691 45.2171C28.5666 43.4375 28.3373 40.7799 26.5572 39.2818C24.7771 37.7838 22.1194 38.0149 20.6214 39.7945C19.1249 41.5743 19.3534 44.2314 21.1338 45.7284C22.9139 47.2273 25.5718 46.9969 27.0691 45.2171ZM33.8659 28.8762C35.6462 30.3735 38.3036 30.1444 39.8014 28.3638C41.2987 26.5826 41.0691 23.9258 39.2892 22.4285C37.5089 20.9305 34.8515 21.1601 33.3537 22.9402C31.8567 24.7205 32.0855 27.3771 33.8659 28.8762ZM118.488 116.612C116.708 115.115 114.05 115.345 112.552 117.125C111.055 118.905 111.284 121.562 113.065 123.059C114.845 124.557 117.503 124.328 119 122.548C120.498 120.768 120.269 118.11 118.488 116.612ZM101.13 127.801C99.3492 126.304 96.6924 126.533 95.1949 128.313C93.6968 130.093 93.9272 132.751 95.7065 134.249C97.4869 135.747 100.144 135.517 101.642 133.737C103.14 131.956 102.91 129.298 101.13 127.801ZM52.9307 17.3742C54.7113 18.873 57.369 18.6424 58.8667 16.8628C60.3635 15.083 60.1352 12.4254 58.3546 10.9273C56.5742 9.42981 53.9166 9.65964 52.4191 11.4395C50.9221 13.2196 51.1503 15.8769 52.9307 17.3742ZM19.0184 64.2352C20.5161 62.4545 20.2868 59.7972 18.506 58.3002C16.7258 56.8011 14.0688 57.0317 12.571 58.8113C11.0734 60.5911 11.3025 63.2482 13.0829 64.7465C14.863 66.2443 17.5206 66.0147 19.0184 64.2352ZM126.977 101.695C125.479 103.475 125.709 106.133 127.489 107.63C129.269 109.128 131.927 108.898 133.424 107.118C134.921 105.338 134.693 102.681 132.912 101.183C131.132 99.6855 128.475 99.9148 126.977 101.695ZM134.245 59.5629C132.748 61.3425 132.977 63.9996 134.757 65.4968C136.538 66.9949 139.195 66.7653 140.693 64.9855C142.19 63.2056 141.961 60.548 140.181 59.0502C138.401 57.5524 135.743 57.7823 134.245 59.5629ZM74.1316 14.499C75.9114 15.9971 78.5693 15.768 80.0663 13.9877C81.5639 12.2078 81.3351 9.55021 79.5544 8.05347C77.7738 6.55464 75.117 6.7842 73.62 8.56483C72.1214 10.3447 72.3507 13.002 74.1316 14.499ZM135.044 80.9414C133.545 82.7212 133.775 85.3796 135.555 86.8777C137.335 88.3744 139.993 88.1451 141.491 86.365C142.988 84.5849 142.76 81.927 140.978 80.43C139.198 78.9333 136.54 79.1618 135.044 80.9414ZM95.0703 17.9469C96.8504 19.4437 99.508 19.2154 101.006 17.4351C102.503 15.6544 102.274 12.996 100.494 11.4993C98.7128 10.0023 96.0554 10.2311 94.5582 12.0117C93.0611 13.7921 93.2902 16.4499 95.0703 17.9469ZM127.264 39.5226C125.766 41.3027 125.995 43.9601 127.776 45.4589C129.557 46.9557 132.214 46.7261 133.711 44.9468C135.208 43.1659 134.979 40.5088 133.199 39.0115C131.419 37.5132 128.76 37.743 127.264 39.5226ZM119.632 28.4876C121.035 26.8198 120.922 24.3795 119.436 22.8464C119.336 22.744 119.23 22.6461 119.12 22.5534C119.009 22.4583 118.894 22.3727 118.776 22.292C117.012 21.0896 114.588 21.3946 113.185 23.0647C111.78 24.7325 111.894 27.1729 113.381 28.7051C113.48 28.8073 113.585 28.906 113.696 28.9987C113.808 29.0938 113.922 29.1797 114.04 29.2593C115.805 30.4625 118.228 30.1567 119.632 28.4876ZM92.2821 10.0971C93.3544 8.82312 94.7747 8.01717 96.286 7.69724C91.2427 6.29426 86.0755 5.51337 80.9026 5.3457C81.0964 5.47942 81.286 5.62176 81.4693 5.7761C84.5069 8.33135 84.8979 12.8644 82.3427 15.902C80.7532 17.7923 78.3964 18.6573 76.1112 18.4249L53.539 80.2107C54.7275 80.5938 55.9012 81.0419 57.0543 81.5585L92.7707 19.8715C90.0914 17.269 89.841 13.0002 92.2821 10.0971ZM72.2167 16.7754C69.1804 14.2198 68.7889 9.68732 71.3437 6.65049C71.6662 6.26631 72.0222 5.92758 72.4014 5.62855C68.0812 6.05163 63.8022 6.90225 59.633 8.17622C59.8506 8.32299 60.0639 8.47917 60.2695 8.65258C63.3066 11.2055 63.6975 15.7406 61.1425 18.7775C59.8863 20.2705 58.1511 21.123 56.3515 21.3016L46.1605 78.6925C47.3721 78.8066 48.5794 78.9829 49.7784 79.225L72.5092 17.0088C72.4105 16.9336 72.3131 16.8563 72.2167 16.7754ZM110.909 21.1494C112.862 18.8284 115.97 18.0585 118.683 18.9642C113.863 15.2277 108.672 12.2689 103.262 10.0759C105.492 12.7006 105.573 16.6265 103.282 19.3489C101.486 21.4839 98.7128 22.3095 96.1685 21.7258L60.493 83.3441C61.5789 83.9868 62.6398 84.6933 63.6691 85.4661L110.473 29.8263C108.699 27.2303 108.785 23.6735 110.909 21.1494ZM73.7318 128.964C72.6304 131.112 71.2836 133.174 69.6941 135.116C77.1468 136.155 84.7208 135.901 92.0622 134.377C91.6822 133.656 91.4304 132.88 91.3121 132.086L73.7318 128.964ZM13.5809 68.359C13.3359 75.8536 14.3827 83.359 16.6828 90.5223C18.3239 88.6249 20.1254 86.9448 22.0526 85.4914L15.9669 68.705C15.1638 68.7254 14.3563 68.6097 13.5809 68.359ZM31.9515 31.1525C30.8082 30.1909 30.0409 28.9491 29.6629 27.6127C29.3921 27.9222 29.1221 28.2316 28.8557 28.5477C27.0236 30.7266 25.3595 32.9888 23.8598 35.3199C25.4898 35.3239 27.1276 35.8749 28.4718 37.0058C31.5089 39.56 31.8998 44.0941 29.3451 47.1317C28.5 48.1372 27.4383 48.8488 26.2861 49.2636L31.7329 80.3781C32.7745 80.0234 33.8309 79.7215 34.8962 79.4708L34.9544 32.6524C33.8818 32.4048 32.8513 31.9086 31.9515 31.1525ZM51.0166 19.6503C48.9247 17.8911 48.0879 15.1927 48.6053 12.6902C45.2417 14.4413 42.0077 16.5037 38.945 18.8683C39.7473 19.1483 40.5144 19.5732 41.2036 20.1522C44.2407 22.7075 44.6322 27.2416 42.0775 30.2784C41.1853 31.3393 40.0503 32.0763 38.8244 32.4785L38.7677 78.7857C39.9254 78.6476 41.0897 78.5664 42.2561 78.5442L52.54 20.6349C52.0038 20.3787 51.4917 20.0501 51.0166 19.6503ZM124.988 37.6083C127.279 34.8848 131.16 34.2912 134.128 36.0397C131.04 31.0854 127.236 26.4764 122.73 22.3674C124.086 24.8859 123.861 28.0802 121.907 30.4011C119.784 32.9264 116.295 33.6203 113.433 32.3163L66.6304 87.9579C67.5685 88.8393 68.4468 89.7633 69.2658 90.7231L123.864 45.0225C122.853 42.6172 123.192 39.743 124.988 37.6083ZM109.084 122.461L76.2802 122.42C76.0102 123.395 75.697 124.363 75.339 125.319L91.7906 128.24C92.0648 127.589 92.4396 126.968 92.9191 126.4C95.4741 123.361 100.007 122.97 103.044 125.525C104.455 126.712 105.293 128.322 105.532 130.015C107.954 128.926 110.321 127.684 112.616 126.292C112.101 126.039 111.608 125.721 111.15 125.335C110.199 124.536 109.508 123.541 109.084 122.461ZM125.574 109.906C124.674 109.149 124.008 108.219 123.582 107.206L77.4651 115.279C77.3998 116.372 77.2828 117.464 77.1131 118.551L108.7 118.59C108.911 117.383 109.432 116.216 110.277 115.209C112.831 112.172 117.366 111.782 120.402 114.336C121.747 115.468 122.571 116.988 122.852 118.593C124.894 116.715 126.838 114.687 128.67 112.51C128.936 112.195 129.195 111.874 129.454 111.555C128.072 111.411 126.718 110.868 125.574 109.906ZM19.2192 48.0048C18.7614 47.6195 18.3641 47.1886 18.0278 46.7253C17.0471 49.2249 16.2291 51.7689 15.572 54.3414C17.2793 54.2879 19.011 54.8371 20.4208 56.0236C23.4579 58.5786 23.8489 63.1119 21.2944 66.1498C20.816 66.7175 20.2675 67.1929 19.6731 67.5749L25.3691 83.2838C26.2498 82.7688 27.1484 82.2934 28.0641 81.8612L22.4067 49.5485C21.2691 49.3158 20.1709 48.8052 19.2192 48.0048ZM132.767 79.0271C135.322 75.9889 139.855 75.5987 142.893 78.1535C143.098 78.3256 143.289 78.5089 143.47 78.699C144.012 74.3731 144.117 70.0111 143.794 65.6818C143.565 66.1072 143.291 66.5159 142.968 66.8998C140.413 69.9377 135.88 70.3279 132.843 67.7732C132.747 67.6922 132.654 67.6094 132.563 67.5256L75.1585 100.575C75.6022 101.714 75.9825 102.875 76.3029 104.048L131.101 84.1793C130.969 82.3752 131.511 80.5209 132.767 79.0271ZM124.701 99.7801C127.255 96.7435 131.79 96.3515 134.827 98.9078C135.516 99.487 136.064 100.169 136.478 100.912C138.284 97.4891 139.761 93.9501 140.911 90.3368C138.535 91.2739 135.732 90.913 133.64 89.1527C133.165 88.7529 132.754 88.3037 132.41 87.8205L77.117 107.87C77.2951 109.023 77.4152 110.183 77.4769 111.347L123.09 103.362C123.276 102.084 123.808 100.842 124.701 99.7801ZM130.55 64.2195L73.5442 97.0391C72.9626 95.932 72.3196 94.8529 71.6127 93.8049L126.273 48.0531C129.296 50.2466 133.545 49.7629 135.987 46.8611C137.058 45.5864 137.609 44.0494 137.666 42.5059C139.912 47.2351 141.566 52.191 142.616 57.2586C142.452 57.0912 142.278 56.9285 142.095 56.7742C139.058 54.2197 134.524 54.6102 131.969 57.647C130.379 59.5384 129.931 62.0072 130.55 64.2195Z" fill="#FFDFBF"/>
</g>
<path fill-rule="evenodd" clip-rule="evenodd" d="M145.588 49.6257C153.038 72.392 148.902 98.3741 132.348 118.053C106.892 148.314 61.7259 152.211 31.4644 126.754C1.20234 101.299 -2.69398 56.1326 22.7618 25.8703C39.3153 6.19309 64.2041 -2.33161 87.9093 1.10872C62.4692 -3.31098 35.4271 5.5347 17.6069 26.7202C-9.05676 58.4163 -4.97527 105.727 26.7229 132.392C58.4209 159.056 105.731 154.977 132.396 123.278C150.216 102.093 154.3 73.9337 145.588 49.6257Z" fill="#FFDFBF"/>
<path fill-rule="evenodd" clip-rule="evenodd" d="M224.376 91.3423L218.754 104.159H216.94L211.3 91.3423H213.278L217.893 101.871L222.544 91.3423H224.376Z" fill="#FFDFBF"/>
<path fill-rule="evenodd" clip-rule="evenodd" d="M237.14 102.567V104.159H227.836V91.3423H236.884V92.9336H229.666V96.8709H236.095V98.4282H229.666V102.567H237.14Z" fill="#FFDFBF"/>
<path fill-rule="evenodd" clip-rule="evenodd" d="M252.961 91.3423V104.159H251.459L243.765 94.6006V104.159H241.935V91.3423H243.436L251.128 100.901V91.3423H252.961Z" fill="#FFDFBF"/>
<path fill-rule="evenodd" clip-rule="evenodd" d="M261.181 92.9336H256.785V91.3423H267.391V92.9336H262.993V104.159H261.181V92.9336Z" fill="#FFDFBF"/>
<path fill-rule="evenodd" clip-rule="evenodd" d="M270.867 98.6291V91.3423H272.698V98.5557C272.698 101.395 273.999 102.677 276.307 102.677C278.616 102.677 279.935 101.395 279.935 98.5557V91.3423H281.708V98.6291C281.708 102.348 279.676 104.307 276.286 104.307C272.92 104.307 270.867 102.348 270.867 98.6291Z" fill="#FFDFBF"/>
<path fill-rule="evenodd" clip-rule="evenodd" d="M295.809 95.8093C295.809 93.9772 294.581 92.9336 292.239 92.9336H289.126V98.7027H292.239C294.581 98.7027 295.809 97.6406 295.809 95.8093ZM295.864 104.159L293.101 100.222C292.842 100.241 292.568 100.26 292.291 100.26H289.126V104.159H287.295V91.3423H292.291C295.626 91.3423 297.642 93.0258 297.642 95.8093C297.642 97.7876 296.616 99.2151 294.822 99.8568L297.859 104.159H295.864Z" fill="#FFDFBF"/>
<path fill-rule="evenodd" clip-rule="evenodd" d="M311.74 102.567V104.159H302.438V91.3423H311.484V92.9336H304.268V96.8709H310.696V98.4282H304.268V102.567H311.74Z" fill="#FFDFBF"/>
<path fill-rule="evenodd" clip-rule="evenodd" d="M331.807 95.8093C331.807 93.9772 330.582 92.9336 328.237 92.9336H325.124V98.6842H328.237C330.582 98.6842 331.807 97.6406 331.807 95.8093ZM333.64 95.8093C333.64 98.5933 331.627 100.278 328.292 100.278H325.124V104.159H323.293V91.3423H328.292C331.627 91.3423 333.64 93.0258 333.64 95.8093Z" fill="#FFDFBF"/>
<path fill-rule="evenodd" clip-rule="evenodd" d="M345.048 99.4896L342.282 93.2096L339.517 99.4896H345.048ZM345.688 100.955H338.874L337.464 104.159H335.578L341.384 91.3423H343.196L349.023 104.159H347.098L345.688 100.955Z" fill="#FFDFBF"/>
<path fill-rule="evenodd" clip-rule="evenodd" d="M361.271 95.8093C361.271 93.9772 360.043 92.9336 357.698 92.9336H354.587V98.7027H357.698C360.043 98.7027 361.271 97.6406 361.271 95.8093ZM361.325 104.159L358.56 100.222C358.304 100.241 358.027 100.26 357.755 100.26H354.587V104.159H352.754V91.3423H357.755C361.085 91.3423 363.101 93.0258 363.101 95.8093C363.101 97.7876 362.078 99.2151 360.281 99.8568L363.321 104.159H361.325Z" fill="#FFDFBF"/>
<path fill-rule="evenodd" clip-rule="evenodd" d="M370.262 92.9336H365.866V91.3423H376.47V92.9336H372.074V104.159H370.262V92.9336Z" fill="#FFDFBF"/>
<path fill-rule="evenodd" clip-rule="evenodd" d="M391.321 91.3423V104.159H389.82L382.128 94.6006V104.159H380.295V91.3423H381.797L389.488 100.901V91.3423H391.321Z" fill="#FFDFBF"/>
<path fill-rule="evenodd" clip-rule="evenodd" d="M406.301 102.567V104.159H396.998V91.3423H406.045V92.9336H398.829V96.8709H405.256V98.4282H398.829V102.567H406.301Z" fill="#FFDFBF"/>
<path fill-rule="evenodd" clip-rule="evenodd" d="M419.61 95.8093C419.61 93.9772 418.382 92.9336 416.04 92.9336H412.926V98.7027H416.04C418.382 98.7027 419.61 97.6406 419.61 95.8093ZM419.665 104.159L416.899 100.222C416.643 100.241 416.369 100.26 416.094 100.26H412.926V104.159H411.096V91.3423H416.094C419.427 91.3423 421.44 93.0258 421.44 95.8093C421.44 97.7876 420.417 99.2151 418.62 99.8568L421.66 104.159H419.665Z" fill="#FFDFBF"/>
<path fill-rule="evenodd" clip-rule="evenodd" d="M425.067 102.694L425.746 101.267C426.697 102.127 428.327 102.749 429.977 102.749C432.192 102.749 433.145 101.889 433.145 100.773C433.145 97.6406 425.378 99.6177 425.378 94.8569C425.378 92.8804 426.916 91.1948 430.285 91.1948C431.79 91.1948 433.344 91.597 434.407 92.3299L433.803 93.7955C432.686 93.0812 431.422 92.7511 430.285 92.7511C428.107 92.7511 427.172 93.6665 427.172 94.784C427.172 97.9162 434.939 95.9559 434.939 100.663C434.939 102.621 433.362 104.307 429.977 104.307C428.016 104.307 426.094 103.647 425.067 102.694Z" fill="#FFDFBF"/>
<path fill-rule="evenodd" clip-rule="evenodd" d="M180.952 49.9375V60.8399H196.635V64.6832H180.952V77.3288H176.483V46.0498H198.557V49.9375H180.952Z" fill="#FFDFBF"/>
<path fill-rule="evenodd" clip-rule="evenodd" d="M209.326 77.3288H213.794V46.0498H209.326V77.3288Z" fill="#FFDFBF"/>
<path fill-rule="evenodd" clip-rule="evenodd" d="M248.428 56.9524C248.428 52.4833 245.433 49.9375 239.713 49.9375H232.117V64.0138H239.713C245.433 64.0138 248.428 61.421 248.428 56.9524ZM248.562 77.3288L241.813 67.7218C241.189 67.7665 240.518 67.8112 239.849 67.8112H232.117V77.3288H227.648V46.0498H239.849C247.979 46.0498 252.894 50.1608 252.894 56.9524C252.894 61.7788 250.392 65.263 246.015 66.8284L253.432 77.3288H248.562Z" fill="#FFDFBF"/>
<path fill-rule="evenodd" clip-rule="evenodd" d="M261.745 73.7547L263.396 70.2699C265.72 72.3692 269.698 73.8886 273.72 73.8886C279.126 73.8886 281.45 71.7891 281.45 69.0628C281.45 61.4211 262.503 66.2472 262.503 54.63C262.503 49.8037 266.258 45.6919 274.48 45.6919C278.144 45.6919 281.941 46.6749 284.534 48.4631L283.059 52.0374C280.332 50.2949 277.251 49.4913 274.48 49.4913C269.162 49.4913 266.882 51.7248 266.882 54.4511C266.882 62.092 285.83 57.3114 285.83 68.7949C285.83 73.5755 281.985 77.6857 273.72 77.6857C268.938 77.6857 264.247 76.0772 261.745 73.7547Z" fill="#FFDFBF"/>
<path fill-rule="evenodd" clip-rule="evenodd" d="M302.586 49.9375H291.862V46.0498H317.733V49.9375H307.01V77.3288H302.586V49.9375Z" fill="#FFDFBF"/>
<path fill-rule="evenodd" clip-rule="evenodd" d="M364.342 56.9524C364.342 52.4833 361.349 49.9375 355.629 49.9375H348.032V64.0138H355.629C361.349 64.0138 364.342 61.421 364.342 56.9524ZM364.478 77.3288L357.729 67.7218C357.105 67.7665 356.434 67.8112 355.762 67.8112H348.032V77.3288H343.563V46.0498H355.762C363.898 46.0498 368.813 50.1608 368.813 56.9524C368.813 61.7788 366.308 65.263 361.931 66.8284L369.348 77.3288H364.478Z" fill="#FFDFBF"/>
<path fill-rule="evenodd" clip-rule="evenodd" d="M398.881 65.9347L392.135 50.6082L385.387 65.9347H398.881ZM400.448 69.5087H383.825L380.383 77.3288H375.781L389.947 46.0498H394.371L408.581 77.3288H403.888L400.448 69.5087Z" fill="#FFDFBF"/>
<path fill-rule="evenodd" clip-rule="evenodd" d="M427.799 66.5147V77.3288H423.375V66.4265L410.951 46.0498H415.733L425.741 62.539L435.796 46.0498H440.22L427.799 66.5147Z" fill="#FFDFBF"/>
<path fill-rule="evenodd" clip-rule="evenodd" d="M445.674 73.7547L447.327 70.2699C449.651 72.3692 453.626 73.8886 457.648 73.8886C463.054 73.8886 465.379 71.7891 465.379 69.0628C465.379 61.4211 446.434 66.2472 446.434 54.63C446.434 49.8037 450.187 45.6919 458.408 45.6919C462.072 45.6919 465.87 46.6749 468.463 48.4631L466.988 52.0374C464.264 50.2949 461.179 49.4913 458.408 49.4913C453.091 49.4913 450.811 51.7248 450.811 54.4511C450.811 62.092 469.758 57.3114 469.758 68.7949C469.758 73.5755 465.917 77.6857 457.648 77.6857C452.866 77.6857 448.176 76.0772 445.674 73.7547Z" fill="#FFDFBF"/>
</svg>
