<svg width="364" height="75" viewBox="0 0 364 75" fill="none" xmlns="http://www.w3.org/2000/svg">
<g clip-path="url(#clip0_296:589)">
<path d="M75.2831 0H0.0390625V75H75.2831V0Z" fill="#FFDFBF"/>
<path d="M35.1526 42.5L22.1104 18.25H28.1299L35.6543 33.5C35.6543 33.75 35.9051 34 36.1559 34.25C36.4067 34.5 36.4067 34.75 36.6575 35.25L36.9083 35.5V35.75C37.1591 36.25 37.1591 36.5 37.41 37C37.6608 37.25 37.6608 37.75 37.9116 38C38.1624 37.25 38.664 36.75 38.9148 35.75C39.1657 35 39.6673 34.25 40.1689 33.5L47.6933 18.25H53.2112L40.1689 42.75V58.25H35.1526V42.5Z" fill="#F25C2B"/>
<path d="M109.644 14.4995C113.406 14.4995 116.667 15.4995 119.175 17.4995L116.667 20.4995C114.41 18.9995 112.152 17.9995 109.393 17.9995C105.13 17.9995 101.869 20.2495 100.113 24.4995C99.11 26.9995 98.6084 30.2495 98.6084 34.4995C98.6084 37.7495 99.11 40.4995 99.8625 42.4995C101.869 47.2495 105.13 49.4995 110.146 49.4995C112.905 49.4995 115.413 48.7495 117.67 46.9995L120.178 50.2495C116.918 52.2495 113.406 53.2495 109.644 53.2495C105.13 53.2495 101.367 51.4995 98.3576 47.7495C95.3478 44.2495 94.0938 39.4995 94.0938 33.7495C94.0938 27.9995 95.5986 23.4995 98.6084 19.7495C101.367 16.4995 105.13 14.4995 109.644 14.4995Z" fill="#FFDFBF"/>
<path d="M123.94 39.2505C123.94 34.7505 124.944 31.2505 127.201 28.7505C129.458 26.2505 132.217 24.7505 135.729 24.7505C139.742 24.7505 143.002 26.2505 145.26 29.5005C147.015 32.0005 147.768 35.5005 147.768 39.7505C147.768 44.7505 146.263 48.7505 143.504 51.2505C141.497 53.0005 138.989 54.0005 135.979 54.0005C132.217 54.0005 129.458 52.7505 127.201 50.0005C124.944 47.5005 123.94 43.7505 123.94 39.2505ZM141.497 32.0005C140.243 29.7505 138.488 28.5005 135.729 28.5005C132.97 28.5005 131.214 29.5005 129.96 31.5005C128.957 33.0005 128.706 35.5005 128.706 38.7505C128.706 43.0005 129.208 46.0005 130.462 47.7505C131.716 49.5005 133.471 50.5005 135.979 50.5005C138.989 50.5005 140.996 49.0005 141.999 46.2505C142.501 44.7505 142.751 42.7505 142.751 40.2505C143.002 36.5005 142.501 33.7505 141.497 32.0005Z" fill="#FFDFBF"/>
<path d="M155.794 32.5005C155.794 29.7505 155.543 27.5005 154.791 25.7505L159.055 24.7505C159.807 26.0005 160.058 27.5005 160.058 28.7505V29.0005C161.061 28.0005 162.065 27.0005 163.569 26.2505C165.325 25.2505 166.83 24.7505 168.335 24.7505C170.592 24.7505 172.599 25.7505 173.853 27.5005C174.104 28.0005 174.605 28.7505 174.856 29.2505C177.866 26.2505 180.625 24.7505 183.635 24.7505C185.641 24.7505 187.397 25.5005 188.651 26.7505C189.905 28.2505 190.657 30.0005 190.657 32.0005V52.7505H186.143V32.2505C186.143 29.5005 184.889 28.2505 182.631 28.2505C181.377 28.2505 179.872 28.7505 178.618 29.7505C178.117 30.2505 177.113 31.0005 175.859 32.0005L175.358 32.5005V52.7505H170.592V33.2505C170.592 31.5005 170.341 30.2505 169.84 29.7505C169.087 29.0005 168.335 28.7505 167.081 28.7505C165.074 28.7505 162.817 30.0005 160.058 32.5005V53.0005H155.794V32.5005V32.5005Z" fill="#FFDFBF"/>
<path d="M198.433 13.5L202.947 12.5C203.449 14.5 203.7 16.75 203.7 19.5V25.75C203.7 27.25 203.7 28.25 203.7 28.75C206.208 26.25 208.967 25 211.726 25C214.986 25 217.745 26.25 219.501 28.75C221.507 31.25 222.511 34.75 222.511 39C222.511 43.5 221.507 47 219.501 49.75C217.494 52.5 214.735 53.75 211.475 53.75C209.97 53.75 208.716 53.5 207.211 52.75C205.706 52 204.703 51.25 203.951 50.25C203.7 51.5 203.449 52.5 203.198 53.25H198.934C199.436 52 199.687 49.75 199.687 46.25V20C199.436 17 199.185 14.75 198.433 13.5ZM205.706 30.5C204.954 31 204.201 31.75 203.7 32.5V46.75C205.455 49 207.713 50 210.472 50C212.729 50 214.485 49.25 215.488 47.5C216.742 45.5 217.494 42.75 217.494 38.75C217.494 35.25 216.993 32.75 215.739 31.25C214.735 29.75 212.98 29 210.472 29C208.967 28.75 207.211 29.25 205.706 30.5Z" fill="#FFDFBF"/>
<path d="M229.031 17.0005C229.031 16.0005 229.282 15.2505 230.034 14.5005C230.787 13.7505 231.539 13.5005 232.543 13.5005C233.546 13.5005 234.298 13.7505 235.051 14.5005C235.803 15.2505 236.054 16.0005 236.054 17.0005C236.054 18.0005 235.803 18.7505 235.051 19.5005C234.298 20.2505 233.546 20.5005 232.543 20.5005C231.539 20.5005 230.787 20.2505 230.034 19.5005C229.282 18.7505 229.031 18.0005 229.031 17.0005ZM230.034 53.0005V25.5005L234.549 24.7505V53.0005H230.034Z" fill="#FFDFBF"/>
<path d="M244.331 32.5005C244.331 30.5005 244.331 29.2505 244.08 28.7505C244.08 28.0005 243.579 27.2505 243.077 26.0005L247.341 24.7505C248.093 26.2505 248.344 27.5005 248.344 29.0005C251.103 26.2505 254.113 24.7505 257.123 24.7505C258.628 24.7505 259.882 25.0005 261.136 25.7505C262.39 26.5005 263.393 27.5005 263.895 28.7505C264.396 29.7505 264.647 30.7505 264.647 32.0005V53.0005H260.383V34.2505C260.383 32.0005 260.132 30.5005 259.38 29.7505C258.628 29.0005 257.624 28.5005 256.37 28.5005C255.367 28.5005 253.862 29.0005 252.357 29.7505C250.852 30.5005 249.598 31.5005 248.595 32.5005V53.0005H244.331V32.5005V32.5005Z" fill="#FFDFBF"/>
<path d="M274.679 31.5005L272.422 28.5005C276.184 26.0005 279.946 24.7505 283.959 24.7505C287.972 24.7505 290.481 26.2505 291.735 29.0005C292.236 30.0005 292.236 31.5005 292.236 33.7505V35.2505L291.985 44.2505C291.985 44.5005 291.985 45.0005 291.985 45.5005C291.985 47.0005 291.985 48.0005 292.236 48.7505C292.487 49.7505 293.24 50.5005 294.243 51.0005L291.985 54.0005C289.979 53.2505 288.725 52.0005 288.223 50.0005C285.715 52.5005 282.956 53.7505 280.197 53.7505C277.438 53.7505 275.181 53.0005 273.425 51.5005C271.92 50.2505 271.168 48.2505 271.168 45.7505C271.168 42.5005 272.422 40.2505 274.93 38.5005C277.438 36.7505 281.201 36.0005 285.715 36.0005C286.468 36.0005 286.969 36.0005 287.722 36.0005V34.0005C287.722 31.7505 287.471 30.2505 286.718 29.7505C285.715 28.7505 284.712 28.2505 282.956 28.2505C281.451 28.2505 279.696 28.7505 277.689 29.5005C276.937 30.0005 275.933 30.7505 274.679 31.5005ZM287.972 46.2505L288.223 39.0005C286.969 39.0005 286.217 39.0005 285.966 39.0005C281.953 39.0005 279.445 39.7505 277.94 41.2505C276.937 42.2505 276.435 43.7505 276.435 45.7505C276.435 49.0005 277.94 50.7505 281.2 50.7505C284.21 50.5005 286.468 49.0005 287.972 46.2505Z" fill="#FFDFBF"/>
<path d="M306.533 25.5H313.556L312.302 29H306.533V46.75C306.533 48.25 306.784 49.25 307.285 50C307.787 50.5 308.79 51 310.044 51C311.048 51 312.051 50.75 312.803 50.5L313.305 53.25C311.8 54 310.295 54.25 308.539 54.25C304.276 54.25 302.269 52.25 302.269 48V29H298.507V25.5H302.018V25C302.018 24.5 302.269 22.5 302.52 19.25V18.5L307.035 17.5C306.533 20.5 306.533 23.25 306.533 25.5Z" fill="#FFDFBF"/>
<path d="M318.07 39.2505C318.07 34.7505 319.074 31.2505 321.331 28.7505C323.337 26.2505 326.347 24.7505 329.859 24.7505C333.872 24.7505 337.132 26.2505 339.389 29.5005C341.145 32.0005 341.898 35.5005 341.898 39.7505C341.898 44.7505 340.393 48.7505 337.634 51.2505C335.627 53.0005 333.119 54.0005 330.109 54.0005C326.347 54.0005 323.588 52.7505 321.331 50.0005C319.324 47.5005 318.07 43.7505 318.07 39.2505ZM335.878 32.0005C334.624 29.7505 332.868 28.5005 330.109 28.5005C327.35 28.5005 325.595 29.5005 324.341 31.5005C323.337 33.0005 323.087 35.5005 323.087 38.7505C323.087 43.0005 323.588 46.0005 324.842 47.7505C326.096 49.5005 327.852 50.5005 330.36 50.5005C333.37 50.5005 335.376 49.0005 336.38 46.2505C336.881 44.7505 337.132 42.7505 337.132 40.2505C337.132 36.5005 336.63 33.7505 335.878 32.0005Z" fill="#FFDFBF"/>
<path d="M350.175 32.0005C350.175 29.5005 349.924 27.5005 349.172 26.0005L353.436 24.7505C354.188 26.2505 354.439 27.5005 354.439 29.0005V29.5005C356.696 26.5005 359.204 25.0005 362.214 25.0005C362.716 25.0005 363.217 25.0005 363.719 25.2505L361.963 30.0005C361.462 29.7505 360.96 29.7505 360.709 29.7505C359.706 29.7505 358.452 30.0005 357.449 30.7505C356.445 31.5005 355.442 32.2505 354.941 33.2505C354.69 34.0005 354.439 35.0005 354.439 36.2505V53.5005H350.175V32.0005Z" fill="#FFDFBF"/>
</g>
<defs>
<clipPath id="clip0_296:589">
<rect width="363.679" height="75" fill="white" transform="translate(0.0390625)"/>
</clipPath>
</defs>
</svg>
