<svg width="364" height="76" viewBox="0 0 364 76" fill="none" xmlns="http://www.w3.org/2000/svg">
<g clip-path="url(#clip0_296:589)">
<path d="M75.5643 0.5H0.320312V75.5H75.5643V0.5Z" fill="#FFDFBF"/>
<path d="M35.4339 43L22.3916 18.75H28.4111L35.9355 34C35.9355 34.25 36.1863 34.5 36.4371 34.75C36.688 35 36.688 35.25 36.9388 35.75L37.1896 36V36.25C37.4404 36.75 37.4404 37 37.6912 37.5C37.942 37.75 37.942 38.25 38.1928 38.5C38.4437 37.75 38.9453 37.25 39.1961 36.25C39.4469 35.5 39.9485 34.75 40.4502 34L47.9746 18.75H53.4925L40.4502 43.25V58.75H35.4339V43Z" fill="#F25C2B"/>
<path d="M109.925 14.9995C113.688 14.9995 116.948 15.9995 119.456 17.9995L116.948 20.9995C114.691 19.4995 112.434 18.4995 109.675 18.4995C105.411 18.4995 102.15 20.7495 100.395 24.9995C99.3913 27.4995 98.8896 30.7495 98.8896 34.9995C98.8896 38.2495 99.3913 40.9995 100.144 42.9995C102.15 47.7495 105.411 49.9995 110.427 49.9995C113.186 49.9995 115.694 49.2495 117.951 47.4995L120.46 50.7495C117.199 52.7495 113.688 53.7495 109.925 53.7495C105.411 53.7495 101.649 51.9995 98.6388 48.2495C95.6291 44.7495 94.375 39.9995 94.375 34.2495C94.375 28.4995 95.8799 23.9995 98.8896 20.2495C101.649 16.9995 105.411 14.9995 109.925 14.9995Z" fill="#FFDFBF"/>
<path d="M124.222 39.7505C124.222 35.2505 125.225 31.7505 127.482 29.2505C129.74 26.7505 132.499 25.2505 136.01 25.2505C140.023 25.2505 143.284 26.7505 145.541 30.0005C147.297 32.5005 148.049 36.0005 148.049 40.2505C148.049 45.2505 146.544 49.2505 143.785 51.7505C141.779 53.5005 139.27 54.5005 136.261 54.5005C132.499 54.5005 129.74 53.2505 127.482 50.5005C125.225 48.0005 124.222 44.2505 124.222 39.7505ZM141.779 32.5005C140.525 30.2505 138.769 29.0005 136.01 29.0005C133.251 29.0005 131.495 30.0005 130.241 32.0005C129.238 33.5005 128.987 36.0005 128.987 39.2505C128.987 43.5005 129.489 46.5005 130.743 48.2505C131.997 50.0005 133.753 51.0005 136.261 51.0005C139.27 51.0005 141.277 49.5005 142.28 46.7505C142.782 45.2505 143.033 43.2505 143.033 40.7505C143.284 37.0005 142.782 34.2505 141.779 32.5005Z" fill="#FFDFBF"/>
<path d="M156.076 33.0005C156.076 30.2505 155.825 28.0005 155.072 26.2505L159.336 25.2505C160.089 26.5005 160.339 28.0005 160.339 29.2505V29.5005C161.343 28.5005 162.346 27.5005 163.851 26.7505C165.606 25.7505 167.111 25.2505 168.616 25.2505C170.873 25.2505 172.88 26.2505 174.134 28.0005C174.385 28.5005 174.887 29.2505 175.137 29.7505C178.147 26.7505 180.906 25.2505 183.916 25.2505C185.922 25.2505 187.678 26.0005 188.932 27.2505C190.186 28.7505 190.939 30.5005 190.939 32.5005V53.2505H186.424V32.7505C186.424 30.0005 185.17 28.7505 182.913 28.7505C181.658 28.7505 180.154 29.2505 178.9 30.2505C178.398 30.7505 177.395 31.5005 176.141 32.5005L175.639 33.0005V53.2505H170.874V33.7505C170.874 32.0005 170.623 30.7505 170.121 30.2505C169.369 29.5005 168.616 29.2505 167.362 29.2505C165.356 29.2505 163.098 30.5005 160.339 33.0005V53.5005H156.076V33.0005Z" fill="#FFDFBF"/>
<path d="M198.714 14L203.229 13C203.73 15 203.981 17.25 203.981 20V26.25C203.981 27.75 203.981 28.75 203.981 29.25C206.489 26.75 209.248 25.5 212.007 25.5C215.268 25.5 218.026 26.75 219.782 29.25C221.789 31.75 222.792 35.25 222.792 39.5C222.792 44 221.789 47.5 219.782 50.25C217.776 53 215.017 54.25 211.756 54.25C210.251 54.25 208.997 54 207.492 53.25C205.987 52.5 204.984 51.75 204.232 50.75C203.981 52 203.73 53 203.479 53.75H199.216C199.717 52.5 199.968 50.25 199.968 46.75V20.5C199.717 17.5 199.466 15.25 198.714 14ZM205.987 31C205.235 31.5 204.483 32.25 203.981 33V47.25C205.737 49.5 207.994 50.5 210.753 50.5C213.01 50.5 214.766 49.75 215.769 48C217.023 46 217.776 43.25 217.776 39.25C217.776 35.75 217.274 33.25 216.02 31.75C215.017 30.25 213.261 29.5 210.753 29.5C209.248 29.25 207.492 29.75 205.987 31Z" fill="#FFDFBF"/>
<path d="M229.312 17.5005C229.312 16.5005 229.563 15.7505 230.316 15.0005C231.068 14.2505 231.821 14.0005 232.824 14.0005C233.827 14.0005 234.58 14.2505 235.332 15.0005C236.084 15.7505 236.335 16.5005 236.335 17.5005C236.335 18.5005 236.084 19.2505 235.332 20.0005C234.58 20.7505 233.827 21.0005 232.824 21.0005C231.821 21.0005 231.068 20.7505 230.316 20.0005C229.563 19.2505 229.312 18.5005 229.312 17.5005ZM230.316 53.5005V26.0005L234.83 25.2505V53.5005H230.316Z" fill="#FFDFBF"/>
<path d="M244.612 33.0005C244.612 31.0005 244.612 29.7505 244.362 29.2505C244.362 28.5005 243.86 27.7505 243.358 26.5005L247.622 25.2505C248.375 26.7505 248.625 28.0005 248.625 29.5005C251.384 26.7505 254.394 25.2505 257.404 25.2505C258.909 25.2505 260.163 25.5005 261.417 26.2505C262.671 27.0005 263.674 28.0005 264.176 29.2505C264.677 30.2505 264.928 31.2505 264.928 32.5005V53.5005H260.664V34.7505C260.664 32.5005 260.414 31.0005 259.661 30.2505C258.909 29.5005 257.906 29.0005 256.651 29.0005C255.648 29.0005 254.143 29.5005 252.638 30.2505C251.134 31.0005 249.88 32.0005 248.876 33.0005V53.5005H244.612V33.0005Z" fill="#FFDFBF"/>
<path d="M274.961 32.0005L272.703 29.0005C276.465 26.5005 280.228 25.2505 284.241 25.2505C288.254 25.2505 290.762 26.7505 292.016 29.5005C292.518 30.5005 292.518 32.0005 292.518 34.2505V35.7505L292.267 44.7505C292.267 45.0005 292.267 45.5005 292.267 46.0005C292.267 47.5005 292.267 48.5005 292.518 49.2505C292.768 50.2505 293.521 51.0005 294.524 51.5005L292.267 54.5005C290.26 53.7505 289.006 52.5005 288.505 50.5005C285.996 53.0005 283.237 54.2505 280.478 54.2505C277.72 54.2505 275.462 53.5005 273.707 52.0005C272.202 50.7505 271.449 48.7505 271.449 46.2505C271.449 43.0005 272.703 40.7505 275.211 39.0005C277.72 37.2505 281.482 36.5005 285.996 36.5005C286.749 36.5005 287.25 36.5005 288.003 36.5005V34.5005C288.003 32.2505 287.752 30.7505 287 30.2505C285.996 29.2505 284.993 28.7505 283.237 28.7505C281.733 28.7505 279.977 29.2505 277.97 30.0005C277.218 30.5005 276.215 31.2505 274.961 32.0005ZM288.254 46.7505L288.505 39.5005C287.25 39.5005 286.498 39.5005 286.247 39.5005C282.234 39.5005 279.726 40.2505 278.221 41.7505C277.218 42.7505 276.716 44.2505 276.716 46.2505C276.716 49.5005 278.221 51.2505 281.482 51.2505C284.492 51.0005 286.749 49.5005 288.254 46.7505Z" fill="#FFDFBF"/>
<path d="M306.814 26H313.837L312.583 29.5H306.814V47.25C306.814 48.75 307.065 49.75 307.567 50.5C308.068 51 309.071 51.5 310.326 51.5C311.329 51.5 312.332 51.25 313.084 51L313.586 53.75C312.081 54.5 310.576 54.75 308.821 54.75C304.557 54.75 302.55 52.75 302.55 48.5V29.5H298.788V26H302.299V25.5C302.299 25 302.55 23 302.801 19.75V19L307.316 18C306.814 21 306.814 23.75 306.814 26Z" fill="#FFDFBF"/>
<path d="M318.352 39.7505C318.352 35.2505 319.355 31.7505 321.612 29.2505C323.619 26.7505 326.628 25.2505 330.14 25.2505C334.153 25.2505 337.413 26.7505 339.671 30.0005C341.426 32.5005 342.179 36.0005 342.179 40.2505C342.179 45.2505 340.674 49.2505 337.915 51.7505C335.908 53.5005 333.4 54.5005 330.391 54.5005C326.628 54.5005 323.869 53.2505 321.612 50.5005C319.606 48.0005 318.352 44.2505 318.352 39.7505ZM336.159 32.5005C334.905 30.2505 333.15 29.0005 330.391 29.0005C327.632 29.0005 325.876 30.0005 324.622 32.0005C323.619 33.5005 323.368 36.0005 323.368 39.2505C323.368 43.5005 323.869 46.5005 325.124 48.2505C326.378 50.0005 328.133 51.0005 330.641 51.0005C333.651 51.0005 335.658 49.5005 336.661 46.7505C337.163 45.2505 337.413 43.2505 337.413 40.7505C337.413 37.0005 336.912 34.2505 336.159 32.5005Z" fill="#FFDFBF"/>
<path d="M350.455 32.5005C350.455 30.0005 350.205 28.0005 349.452 26.5005L353.716 25.2505C354.468 26.7505 354.719 28.0005 354.719 29.5005V30.0005C356.977 27.0005 359.485 25.5005 362.494 25.5005C362.996 25.5005 363.498 25.5005 363.999 25.7505L362.244 30.5005C361.742 30.2505 361.24 30.2505 360.99 30.2505C359.986 30.2505 358.732 30.5005 357.729 31.2505C356.726 32.0005 355.722 32.7505 355.221 33.7505C354.97 34.5005 354.719 35.5005 354.719 36.7505V54.0005H350.455V32.5005Z" fill="#FFDFBF"/>
</g>
<defs>
<clipPath id="clip0_296:589">
<rect width="363.679" height="75" fill="white" transform="translate(0.320312 0.5)"/>
</clipPath>
</defs>
</svg>
