<svg width="667" height="672" viewBox="0 0 667 672" fill="none" xmlns="http://www.w3.org/2000/svg">
<ellipse cx="341.074" cy="339.012" rx="294.926" ry="295.012" stroke="#2B65CF" stroke-width="2"/>
<rect width="97" height="97" transform="translate(0 277)" fill="white"/>
<rect x="16" y="293" width="65" height="65" rx="5" fill="#FFF3E6"/>
<g clip-path="url(#clip0_929_2319)">
<path d="M65.3999 340.562L55.5822 330.744C57.9413 327.912 59.1177 324.279 58.8667 320.601C58.6156 316.924 56.9565 313.485 54.2343 310.999C51.5122 308.514 47.9366 307.174 44.2515 307.258C40.5664 307.341 37.0555 308.843 34.449 311.449C31.8426 314.055 30.3413 317.566 30.2576 321.252C30.1739 324.937 31.5141 328.512 33.9994 331.234C36.4848 333.956 39.9239 335.616 43.6014 335.867C47.2789 336.118 50.9116 334.941 53.7439 332.582L63.5616 342.4L65.3999 340.562ZM32.8999 321.6C32.8999 319.286 33.5861 317.024 34.8717 315.1C36.1573 313.176 37.9846 311.676 40.1225 310.791C42.2604 309.905 44.6129 309.673 46.8825 310.125C49.1521 310.576 51.2368 311.69 52.8731 313.327C54.5093 314.963 55.6237 317.048 56.0751 319.317C56.5266 321.587 56.2949 323.939 55.4093 326.077C54.5238 328.215 53.0241 330.043 51.1001 331.328C49.176 332.614 46.914 333.3 44.5999 333.3C41.4979 333.296 38.524 332.063 36.3306 329.869C34.1371 327.676 32.9034 324.702 32.8999 321.6V321.6Z" fill="#F25C2B"/>
</g>
<rect width="97" height="97" transform="translate(67 101)" fill="white"/>
<rect x="83" y="117" width="65" height="65" rx="5" fill="#FFF3E6"/>
<g clip-path="url(#clip1_929_2319)">
<path d="M107.698 167.7C109.134 167.7 110.298 166.536 110.298 165.1C110.298 163.664 109.134 162.5 107.698 162.5C106.262 162.5 105.098 163.664 105.098 165.1C105.098 166.536 106.262 167.7 107.698 167.7Z" fill="#F25C2B"/>
<path d="M125.901 167.7C127.337 167.7 128.501 166.536 128.501 165.1C128.501 163.664 127.337 162.5 125.901 162.5C124.465 162.5 123.301 163.664 123.301 165.1C123.301 166.536 124.465 167.7 125.901 167.7Z" fill="#F25C2B"/>
<path d="M101.174 132.344C101.115 132.049 100.956 131.784 100.723 131.593C100.491 131.403 100.2 131.299 99.8992 131.299H94.6992V133.899H98.8332L103.824 158.854C103.883 159.148 104.043 159.414 104.275 159.604C104.507 159.795 104.799 159.899 105.099 159.899H128.499V157.299H106.165L105.125 152.099H128.499C128.795 152.099 129.082 151.998 129.313 151.813C129.543 151.628 129.704 151.37 129.768 151.081L132.717 137.799H130.055L127.457 149.499H104.605L101.174 132.344Z" fill="#F25C2B"/>
<path d="M118.101 136.499V131.299H115.501V136.499H110.301V139.099H115.501V144.299H118.101V139.099H123.301V136.499H118.101Z" fill="#F25C2B"/>
</g>
<rect width="97" height="97" transform="translate(249)" fill="white"/>
<rect x="265" y="16" width="65" height="65" rx="5" fill="#FFF3E6"/>
<g clip-path="url(#clip2_929_2319)">
<path d="M301.401 58.9H281.901L281.896 39.2781L296.761 49.569C296.978 49.7194 297.236 49.8 297.501 49.8C297.765 49.8 298.023 49.7194 298.241 49.569L313.101 39.2813V51.1H315.701V38.1C315.7 37.4107 315.426 36.7499 314.938 36.2625C314.451 35.7752 313.79 35.5009 313.101 35.5H281.901C281.211 35.5008 280.551 35.775 280.063 36.2624C279.576 36.7498 279.302 37.4107 279.301 38.1V58.9C279.302 59.5893 279.576 60.2501 280.063 60.7375C280.551 61.2249 281.212 61.4991 281.901 61.5H301.401V58.9ZM310.239 38.1L297.501 46.9188L284.763 38.1H310.239Z" fill="#F25C2B"/>
<path d="M310.501 64.0992C313.373 64.0992 315.701 61.7711 315.701 58.8992C315.701 56.0273 313.373 53.6992 310.501 53.6992C307.629 53.6992 305.301 56.0273 305.301 58.8992C305.301 61.7711 307.629 64.0992 310.501 64.0992Z" fill="#F25C2B"/>
</g>
<rect width="97" height="97" transform="translate(440 35)" fill="white"/>
<rect x="456" y="51" width="65" height="65" rx="5" fill="#FFF3E6"/>
<g clip-path="url(#clip3_929_2319)">
<path d="M497.6 83.5H495V86.1H497.6V83.5Z" fill="#F25C2B"/>
<path d="M489.798 83.5H479.398V86.1H489.798V83.5Z" fill="#F25C2B"/>
<path d="M497.6 78.2988H495V80.8988H497.6V78.2988Z" fill="#F25C2B"/>
<path d="M489.798 78.2988H479.398V80.8988H489.798V78.2988Z" fill="#F25C2B"/>
<path d="M497.598 73.0996H479.398V75.6996H497.598V73.0996Z" fill="#F25C2B"/>
<path d="M500.199 65.2988H476.799C476.11 65.2995 475.449 65.5737 474.962 66.0611C474.474 66.5486 474.2 67.2095 474.199 67.8988V100.399C474.199 100.744 474.336 101.074 474.58 101.318C474.824 101.562 475.154 101.699 475.499 101.699H476.799C477.001 101.699 477.2 101.652 477.381 101.562C477.561 101.471 477.718 101.34 477.839 101.179L480.699 97.3659L483.559 101.179C483.685 101.333 483.844 101.456 484.024 101.541C484.204 101.626 484.4 101.67 484.599 101.67C484.798 101.67 484.995 101.626 485.174 101.541C485.354 101.456 485.513 101.333 485.639 101.179L488.499 97.3659L491.359 101.179C491.485 101.333 491.644 101.456 491.824 101.541C492.004 101.626 492.2 101.67 492.399 101.67C492.598 101.67 492.795 101.626 492.974 101.541C493.154 101.456 493.313 101.333 493.439 101.179L496.299 97.3659L499.159 101.179C499.28 101.34 499.437 101.471 499.618 101.562C499.798 101.652 499.997 101.699 500.199 101.699H501.499C501.844 101.699 502.175 101.562 502.418 101.318C502.662 101.074 502.799 100.744 502.799 100.399V67.8988C502.798 67.2095 502.524 66.5486 502.037 66.0612C501.549 65.5738 500.889 65.2996 500.199 65.2988V65.2988ZM500.199 98.2317L497.339 94.4188C497.213 94.2651 497.054 94.1413 496.874 94.0563C496.695 93.9713 496.498 93.9272 496.299 93.9272C496.1 93.9272 495.904 93.9713 495.724 94.0563C495.544 94.1413 495.385 94.2651 495.259 94.4188L492.399 98.2317L489.539 94.4188C489.413 94.2651 489.254 94.1413 489.074 94.0563C488.895 93.9713 488.698 93.9272 488.499 93.9272C488.3 93.9272 488.104 93.9713 487.924 94.0563C487.744 94.1413 487.585 94.2651 487.459 94.4188L484.599 98.2317L481.739 94.4188C481.613 94.2651 481.454 94.1413 481.274 94.0563C481.095 93.9713 480.898 93.9272 480.699 93.9272C480.5 93.9272 480.304 93.9713 480.124 94.0563C479.944 94.1413 479.785 94.2651 479.659 94.4188L476.799 98.2317V67.8988H500.199V98.2317Z" fill="#F25C2B"/>
</g>
<rect width="97" height="97" transform="translate(570 189)" fill="white"/>
<rect x="586" y="205" width="65" height="65" rx="5" fill="#FFF3E6"/>
<g clip-path="url(#clip4_929_2319)">
<path d="M618.502 237.5H634.102V240.1H618.502V237.5Z" fill="#F25C2B"/>
<path d="M623.699 231H636.699V233.6H623.699V231Z" fill="#F25C2B"/>
<path d="M600.406 238.288L604.306 229.188C604.406 228.954 604.573 228.755 604.785 228.615C604.997 228.474 605.246 228.4 605.501 228.4H609.401V225.8C609.401 225.455 609.538 225.125 609.781 224.881C610.025 224.637 610.356 224.5 610.701 224.5H631.501V227.1H612.001V243.423C612.593 243.767 613.111 244.225 613.526 244.77C613.94 245.315 614.243 245.937 614.416 246.6H622.585C622.902 245.375 623.654 244.307 624.702 243.596C625.749 242.886 627.02 242.582 628.276 242.741C629.531 242.901 630.685 243.513 631.522 244.463C632.359 245.412 632.82 246.634 632.82 247.9C632.82 249.166 632.359 250.388 631.522 251.338C630.685 252.287 629.531 252.899 628.276 253.059C627.02 253.218 625.749 252.914 624.702 252.204C623.654 251.493 622.902 250.425 622.585 249.2H614.416C614.133 250.315 613.486 251.304 612.577 252.01C611.669 252.716 610.551 253.1 609.401 253.1C608.25 253.1 607.132 252.716 606.224 252.01C605.316 251.304 604.669 250.315 604.385 249.2H601.601C601.256 249.2 600.925 249.063 600.681 248.819C600.438 248.575 600.301 248.245 600.301 247.9V238.8C600.301 238.624 600.337 238.45 600.406 238.288ZM627.601 250.5C628.115 250.5 628.618 250.348 629.045 250.062C629.473 249.776 629.806 249.37 630.003 248.895C630.2 248.42 630.251 247.897 630.151 247.393C630.05 246.888 629.803 246.425 629.439 246.062C629.076 245.698 628.612 245.45 628.108 245.35C627.604 245.25 627.081 245.301 626.606 245.498C626.131 245.695 625.725 246.028 625.439 246.456C625.153 246.883 625.001 247.386 625.001 247.9C625.001 248.589 625.276 249.25 625.763 249.738C626.251 250.225 626.911 250.499 627.601 250.5ZM609.401 231H606.358L603.572 237.5H609.401V231ZM609.401 250.5C609.915 250.5 610.418 250.348 610.845 250.062C611.273 249.776 611.606 249.37 611.803 248.895C612 248.42 612.051 247.897 611.951 247.393C611.85 246.888 611.603 246.425 611.239 246.062C610.876 245.698 610.412 245.45 609.908 245.35C609.404 245.25 608.881 245.301 608.406 245.498C607.931 245.695 607.525 246.028 607.239 246.456C606.953 246.883 606.801 247.386 606.801 247.9C606.801 248.589 607.076 249.25 607.563 249.738C608.051 250.225 608.711 250.499 609.401 250.5V250.5ZM602.901 246.6H604.385C604.672 245.487 605.32 244.5 606.227 243.794C607.135 243.088 608.251 242.703 609.401 242.7V240.1H602.901V246.6Z" fill="#F25C2B"/>
</g>
<rect width="97" height="97" transform="translate(570 377)" fill="white"/>
<rect x="586" y="393" width="65" height="65" rx="5" fill="#FFF3E6"/>
<g clip-path="url(#clip5_929_2319)">
<path d="M636.701 433.299H600.301V435.899H636.701V433.299Z" fill="#F25C2B"/>
<path d="M636.701 438.5H600.301V441.1H636.701V438.5Z" fill="#F25C2B"/>
<path d="M628.901 417.699C628.387 417.699 627.884 417.852 627.456 418.137C627.029 418.423 626.695 418.829 626.499 419.304C626.302 419.779 626.25 420.302 626.351 420.806C626.451 421.311 626.699 421.774 627.062 422.138C627.426 422.501 627.889 422.749 628.394 422.849C628.898 422.95 629.421 422.898 629.896 422.701C630.371 422.505 630.777 422.171 631.063 421.744C631.348 421.316 631.501 420.813 631.501 420.299C631.501 419.61 631.227 418.948 630.739 418.461C630.252 417.973 629.59 417.699 628.901 417.699Z" fill="#F25C2B"/>
<path d="M618.501 425.5C617.472 425.5 616.467 425.195 615.612 424.623C614.757 424.052 614.09 423.24 613.697 422.29C613.303 421.339 613.2 420.294 613.401 419.285C613.601 418.276 614.097 417.35 614.824 416.623C615.551 415.895 616.478 415.4 617.486 415.2C618.495 414.999 619.541 415.102 620.491 415.495C621.441 415.889 622.253 416.556 622.824 417.411C623.396 418.266 623.701 419.271 623.701 420.3C623.699 421.678 623.151 423 622.176 423.975C621.201 424.95 619.879 425.498 618.501 425.5ZM618.501 417.7C617.987 417.7 617.484 417.852 617.056 418.138C616.629 418.423 616.295 418.83 616.099 419.305C615.902 419.78 615.85 420.302 615.951 420.807C616.051 421.311 616.299 421.774 616.662 422.138C617.026 422.502 617.489 422.749 617.994 422.85C618.498 422.95 619.021 422.898 619.496 422.702C619.971 422.505 620.377 422.172 620.663 421.744C620.948 421.317 621.101 420.814 621.101 420.3C621.1 419.61 620.826 418.949 620.339 418.462C619.851 417.974 619.19 417.7 618.501 417.7Z" fill="#F25C2B"/>
<path d="M608.1 417.699C607.586 417.699 607.083 417.852 606.656 418.137C606.228 418.423 605.895 418.829 605.698 419.304C605.501 419.779 605.45 420.302 605.55 420.806C605.65 421.311 605.898 421.774 606.262 422.138C606.625 422.501 607.088 422.749 607.593 422.849C608.097 422.95 608.62 422.898 609.095 422.701C609.57 422.505 609.976 422.171 610.262 421.744C610.548 421.316 610.7 420.813 610.7 420.299C610.7 419.61 610.426 418.948 609.938 418.461C609.451 417.973 608.79 417.699 608.1 417.699Z" fill="#F25C2B"/>
<path d="M634.101 430.698H602.901C602.212 430.697 601.551 430.422 601.064 429.935C600.577 429.448 600.303 428.787 600.301 428.098V412.498C600.303 411.809 600.577 411.149 601.064 410.662C601.551 410.175 602.212 409.9 602.901 409.898H634.101C634.79 409.9 635.45 410.175 635.937 410.662C636.425 411.149 636.699 411.809 636.701 412.498V428.098C636.7 428.788 636.426 429.448 635.938 429.936C635.451 430.423 634.79 430.698 634.101 430.698V430.698ZM634.101 412.498H602.901V428.098H634.101V412.498Z" fill="#F25C2B"/>
</g>
<rect width="97" height="97" transform="translate(447 536)" fill="white"/>
<rect x="463" y="552" width="65" height="65" rx="5" fill="#FFF3E6"/>
<g clip-path="url(#clip6_929_2319)">
<path d="M507.634 579.234L509.201 577.666C509.412 577.457 509.679 577.315 509.97 577.255C510.26 577.195 510.562 577.222 510.838 577.33L512.748 578.093C513.027 578.206 513.267 578.4 513.436 578.649C513.605 578.898 513.697 579.191 513.7 579.492V582.992C513.698 583.191 513.657 583.389 513.58 583.572C513.502 583.756 513.389 583.922 513.247 584.062C513.105 584.202 512.936 584.313 512.752 584.388C512.567 584.463 512.369 584.5 512.17 584.499L512.105 584.497C498.721 583.664 496.02 572.325 495.509 567.986C495.465 567.586 495.581 567.184 495.833 566.87C496.084 566.555 496.45 566.353 496.85 566.309C496.909 566.302 496.968 566.299 497.027 566.299H500.407C500.708 566.3 501.003 566.391 501.252 566.561C501.501 566.73 501.694 566.971 501.806 567.251L502.569 569.162C502.681 569.437 502.709 569.739 502.651 570.03C502.592 570.322 502.449 570.589 502.24 570.8L500.673 572.367C500.673 572.367 501.575 578.477 507.634 579.234Z" fill="#F25C2B"/>
<path d="M495.501 602.699H492.901V596.199C492.9 595.165 492.488 594.174 491.757 593.443C491.026 592.712 490.035 592.3 489.001 592.299H483.801C482.767 592.3 481.775 592.712 481.044 593.443C480.313 594.174 479.902 595.165 479.901 596.199V602.699H477.301V596.199C477.303 594.476 477.988 592.824 479.207 591.605C480.425 590.387 482.077 589.701 483.801 589.699H489.001C490.724 589.701 492.376 590.387 493.595 591.605C494.813 592.824 495.499 594.476 495.501 596.199V602.699Z" fill="#F25C2B"/>
<path d="M486.398 576.7C487.17 576.7 487.924 576.928 488.565 577.357C489.207 577.785 489.706 578.395 490.002 579.107C490.297 579.82 490.374 580.604 490.223 581.36C490.073 582.117 489.702 582.812 489.156 583.357C488.611 583.903 487.916 584.274 487.159 584.425C486.403 584.575 485.619 584.498 484.906 584.203C484.193 583.908 483.584 583.408 483.156 582.766C482.727 582.125 482.498 581.371 482.498 580.6C482.498 579.565 482.909 578.573 483.641 577.842C484.372 577.111 485.364 576.7 486.398 576.7V576.7ZM486.398 574.1C485.113 574.1 483.856 574.481 482.787 575.195C481.718 575.909 480.885 576.924 480.393 578.112C479.901 579.3 479.773 580.607 480.023 581.868C480.274 583.129 480.893 584.287 481.802 585.196C482.711 586.105 483.869 586.724 485.13 586.975C486.391 587.226 487.698 587.097 488.886 586.605C490.074 586.113 491.089 585.28 491.803 584.211C492.517 583.142 492.898 581.885 492.898 580.6C492.898 579.746 492.73 578.901 492.404 578.112C492.077 577.324 491.598 576.607 490.995 576.003C490.391 575.4 489.674 574.921 488.886 574.594C488.097 574.268 487.252 574.1 486.398 574.1V574.1Z" fill="#F25C2B"/>
</g>
<rect width="97" height="97" transform="translate(236 575)" fill="white"/>
<rect x="252" y="591" width="65" height="65" rx="5" fill="#FFF3E6"/>
<g clip-path="url(#clip7_929_2319)">
<path d="M302.027 613.911L289.027 606.761C288.836 606.655 288.62 606.6 288.401 606.6C288.182 606.6 287.966 606.655 287.775 606.761L274.775 613.911C274.571 614.023 274.401 614.188 274.282 614.388C274.164 614.588 274.102 614.817 274.102 615.049C274.102 615.282 274.164 615.51 274.282 615.711C274.401 615.911 274.571 616.076 274.775 616.188L287.101 622.968V636.9L283.154 634.73L281.901 637.008L287.775 640.238C287.966 640.344 288.182 640.399 288.401 640.399C288.62 640.399 288.836 640.344 289.027 640.238L302.027 633.088C302.231 632.976 302.401 632.811 302.52 632.611C302.638 632.41 302.701 632.182 302.701 631.949V615.049C302.701 614.817 302.638 614.588 302.52 614.388C302.401 614.188 302.231 614.023 302.027 613.911ZM288.401 609.383L298.703 615.049L288.401 620.715L278.099 615.049L288.401 609.383ZM300.101 631.181L289.701 636.901V622.968L300.101 617.248V631.181Z" fill="#F25C2B"/>
<path d="M266.299 623.5H276.699V620.9H266.299V623.5Z" fill="#F25C2B"/>
<path d="M268.901 633.898H279.301V631.298H268.901V633.898Z" fill="#F25C2B"/>
<path d="M271.498 628.699H281.898V626.099H271.498V628.699Z" fill="#F25C2B"/>
</g>
<rect width="97" height="97" transform="translate(59 461)" fill="white"/>
<rect x="75" y="477" width="65" height="65" rx="5" fill="#FFF3E6"/>
<g clip-path="url(#clip8_929_2319)">
<path d="M123.101 491.299H107.501C106.811 491.3 106.151 491.574 105.663 492.061C105.176 492.549 104.901 493.209 104.901 493.899V506.899H91.9008C91.2114 506.9 90.5505 507.174 90.0631 507.661C89.5756 508.149 89.3015 508.809 89.3008 509.499V527.699H125.701V493.899C125.7 493.21 125.426 492.549 124.938 492.061C124.451 491.574 123.79 491.3 123.101 491.299V491.299ZM98.4008 525.099V515.999H103.601V525.099H98.4008ZM123.101 525.099H106.201V514.699C106.201 514.354 106.064 514.023 105.82 513.78C105.576 513.536 105.246 513.399 104.901 513.399H97.1008C96.756 513.399 96.4253 513.536 96.1815 513.78C95.9377 514.023 95.8008 514.354 95.8008 514.699V525.099H91.9008V509.499H107.501V493.899H123.101V525.099Z" fill="#F25C2B"/>
<path d="M112.698 499.1H110.098V501.7H112.698V499.1Z" fill="#F25C2B"/>
<path d="M120.498 499.1H117.898V501.7H120.498V499.1Z" fill="#F25C2B"/>
<path d="M112.698 506.898H110.098V509.498H112.698V506.898Z" fill="#F25C2B"/>
<path d="M120.498 506.898H117.898V509.498H120.498V506.898Z" fill="#F25C2B"/>
<path d="M112.698 514.699H110.098V517.299H112.698V514.699Z" fill="#F25C2B"/>
<path d="M120.498 514.699H117.898V517.299H120.498V514.699Z" fill="#F25C2B"/>
</g>
<path d="M270.537 301.545H273.179V313.026C273.179 314.247 272.892 315.33 272.319 316.273C271.745 317.21 270.938 317.949 269.898 318.489C268.858 319.023 267.64 319.29 266.242 319.29C264.85 319.29 263.634 319.023 262.594 318.489C261.554 317.949 260.748 317.21 260.174 316.273C259.6 315.33 259.313 314.247 259.313 313.026V301.545H261.946V312.812C261.946 313.602 262.12 314.304 262.466 314.918C262.819 315.531 263.316 316.014 263.958 316.366C264.6 316.713 265.361 316.886 266.242 316.886C267.128 316.886 267.892 316.713 268.534 316.366C269.182 316.014 269.676 315.531 270.017 314.918C270.364 314.304 270.537 313.602 270.537 312.812V301.545ZM286.469 309.105L284.16 309.514C284.063 309.219 283.91 308.937 283.699 308.67C283.495 308.403 283.216 308.185 282.864 308.014C282.512 307.844 282.072 307.759 281.543 307.759C280.822 307.759 280.219 307.92 279.736 308.244C279.253 308.562 279.012 308.974 279.012 309.48C279.012 309.918 279.174 310.27 279.498 310.537C279.822 310.804 280.344 311.023 281.066 311.193L283.145 311.67C284.35 311.949 285.248 312.378 285.839 312.957C286.43 313.537 286.725 314.29 286.725 315.216C286.725 316 286.498 316.699 286.043 317.312C285.594 317.92 284.966 318.398 284.16 318.744C283.358 319.091 282.43 319.264 281.373 319.264C279.907 319.264 278.711 318.952 277.785 318.327C276.858 317.696 276.29 316.801 276.08 315.642L278.543 315.267C278.697 315.909 279.012 316.395 279.489 316.724C279.966 317.048 280.589 317.21 281.356 317.21C282.191 317.21 282.858 317.037 283.358 316.69C283.858 316.338 284.108 315.909 284.108 315.403C284.108 314.994 283.955 314.651 283.648 314.372C283.347 314.094 282.884 313.884 282.259 313.741L280.043 313.256C278.822 312.977 277.918 312.534 277.333 311.926C276.753 311.318 276.464 310.548 276.464 309.616C276.464 308.844 276.68 308.168 277.111 307.588C277.543 307.009 278.14 306.557 278.901 306.233C279.662 305.903 280.535 305.739 281.518 305.739C282.932 305.739 284.046 306.045 284.858 306.659C285.671 307.267 286.208 308.082 286.469 309.105ZM295.025 319.264C293.735 319.264 292.624 318.989 291.692 318.438C290.766 317.881 290.05 317.099 289.545 316.094C289.045 315.082 288.795 313.898 288.795 312.54C288.795 311.199 289.045 310.017 289.545 308.994C290.05 307.972 290.755 307.173 291.658 306.599C292.567 306.026 293.63 305.739 294.846 305.739C295.585 305.739 296.3 305.861 296.994 306.105C297.687 306.349 298.309 306.733 298.86 307.256C299.411 307.778 299.846 308.457 300.164 309.293C300.482 310.122 300.641 311.131 300.641 312.318V313.222H290.235V311.312H298.144C298.144 310.642 298.008 310.048 297.735 309.531C297.462 309.009 297.079 308.597 296.585 308.295C296.096 307.994 295.522 307.844 294.863 307.844C294.147 307.844 293.522 308.02 292.988 308.372C292.46 308.719 292.05 309.173 291.761 309.736C291.477 310.293 291.335 310.898 291.335 311.551V313.043C291.335 313.918 291.488 314.662 291.795 315.276C292.107 315.889 292.542 316.358 293.099 316.682C293.656 317 294.306 317.159 295.05 317.159C295.533 317.159 295.974 317.091 296.371 316.955C296.769 316.812 297.113 316.602 297.403 316.324C297.692 316.045 297.914 315.702 298.067 315.293L300.479 315.727C300.286 316.437 299.94 317.06 299.44 317.594C298.945 318.122 298.323 318.534 297.573 318.83C296.829 319.119 295.979 319.264 295.025 319.264ZM303.325 319V305.909H305.788V307.989H305.924C306.163 307.284 306.583 306.73 307.186 306.327C307.794 305.918 308.481 305.713 309.248 305.713C309.407 305.713 309.595 305.719 309.811 305.73C310.032 305.741 310.205 305.756 310.33 305.773V308.21C310.228 308.182 310.046 308.151 309.785 308.116C309.524 308.077 309.262 308.057 309.001 308.057C308.399 308.057 307.862 308.185 307.39 308.44C306.924 308.69 306.555 309.04 306.282 309.489C306.009 309.932 305.873 310.437 305.873 311.006V319H303.325ZM328.409 309.105L326.099 309.514C326.003 309.219 325.849 308.937 325.639 308.67C325.434 308.403 325.156 308.185 324.804 308.014C324.452 307.844 324.011 307.759 323.483 307.759C322.761 307.759 322.159 307.92 321.676 308.244C321.193 308.562 320.952 308.974 320.952 309.48C320.952 309.918 321.113 310.27 321.437 310.537C321.761 310.804 322.284 311.023 323.006 311.193L325.085 311.67C326.29 311.949 327.187 312.378 327.778 312.957C328.369 313.537 328.665 314.29 328.665 315.216C328.665 316 328.437 316.699 327.983 317.312C327.534 317.92 326.906 318.398 326.099 318.744C325.298 319.091 324.369 319.264 323.312 319.264C321.846 319.264 320.65 318.952 319.724 318.327C318.798 317.696 318.23 316.801 318.02 315.642L320.483 315.267C320.636 315.909 320.952 316.395 321.429 316.724C321.906 317.048 322.528 317.21 323.295 317.21C324.131 317.21 324.798 317.037 325.298 316.69C325.798 316.338 326.048 315.909 326.048 315.403C326.048 314.994 325.895 314.651 325.588 314.372C325.287 314.094 324.824 313.884 324.199 313.741L321.983 313.256C320.761 312.977 319.858 312.534 319.273 311.926C318.693 311.318 318.403 310.548 318.403 309.616C318.403 308.844 318.619 308.168 319.051 307.588C319.483 307.009 320.079 306.557 320.841 306.233C321.602 305.903 322.474 305.739 323.457 305.739C324.872 305.739 325.986 306.045 326.798 306.659C327.611 307.267 328.148 308.082 328.409 309.105ZM336.964 319.264C335.675 319.264 334.564 318.989 333.632 318.438C332.706 317.881 331.99 317.099 331.484 316.094C330.984 315.082 330.734 313.898 330.734 312.54C330.734 311.199 330.984 310.017 331.484 308.994C331.99 307.972 332.695 307.173 333.598 306.599C334.507 306.026 335.57 305.739 336.786 305.739C337.524 305.739 338.24 305.861 338.933 306.105C339.626 306.349 340.249 306.733 340.8 307.256C341.351 307.778 341.786 308.457 342.104 309.293C342.422 310.122 342.581 311.131 342.581 312.318V313.222H332.175V311.312H340.084C340.084 310.642 339.947 310.048 339.675 309.531C339.402 309.009 339.018 308.597 338.524 308.295C338.036 307.994 337.462 307.844 336.803 307.844C336.087 307.844 335.462 308.02 334.928 308.372C334.399 308.719 333.99 309.173 333.7 309.736C333.416 310.293 333.274 310.898 333.274 311.551V313.043C333.274 313.918 333.428 314.662 333.734 315.276C334.047 315.889 334.482 316.358 335.038 316.682C335.595 317 336.246 317.159 336.99 317.159C337.473 317.159 337.913 317.091 338.311 316.955C338.709 316.812 339.053 316.602 339.342 316.324C339.632 316.045 339.854 315.702 340.007 315.293L342.419 315.727C342.226 316.437 341.879 317.06 341.379 317.594C340.885 318.122 340.263 318.534 339.513 318.83C338.768 319.119 337.919 319.264 336.964 319.264ZM350.165 319.256C349.108 319.256 348.165 318.986 347.335 318.446C346.512 317.901 345.864 317.125 345.392 316.119C344.926 315.108 344.693 313.895 344.693 312.48C344.693 311.065 344.929 309.855 345.401 308.849C345.878 307.844 346.531 307.074 347.361 306.54C348.191 306.006 349.131 305.739 350.182 305.739C350.994 305.739 351.648 305.875 352.142 306.148C352.642 306.415 353.029 306.727 353.301 307.085C353.58 307.443 353.796 307.759 353.949 308.031H354.102V305.909H356.651V319H354.162V316.963H353.949C353.796 317.241 353.574 317.56 353.284 317.918C353 318.276 352.608 318.588 352.108 318.855C351.608 319.122 350.96 319.256 350.165 319.256ZM350.727 317.082C351.46 317.082 352.08 316.889 352.585 316.503C353.097 316.111 353.483 315.568 353.744 314.875C354.012 314.182 354.145 313.375 354.145 312.455C354.145 311.545 354.014 310.75 353.753 310.068C353.492 309.386 353.108 308.855 352.602 308.474C352.097 308.094 351.472 307.903 350.727 307.903C349.96 307.903 349.321 308.102 348.81 308.5C348.298 308.898 347.912 309.44 347.651 310.128C347.395 310.815 347.267 311.591 347.267 312.455C347.267 313.33 347.398 314.116 347.659 314.815C347.921 315.514 348.307 316.068 348.818 316.477C349.335 316.881 349.972 317.082 350.727 317.082ZM360.144 319V305.909H362.607V307.989H362.743C362.982 307.284 363.402 306.73 364.005 306.327C364.613 305.918 365.3 305.713 366.067 305.713C366.226 305.713 366.414 305.719 366.63 305.73C366.851 305.741 367.024 305.756 367.149 305.773V308.21C367.047 308.182 366.865 308.151 366.604 308.116C366.343 308.077 366.081 308.057 365.82 308.057C365.218 308.057 364.681 308.185 364.209 308.44C363.743 308.69 363.374 309.04 363.101 309.489C362.828 309.932 362.692 310.437 362.692 311.006V319H360.144ZM374.256 319.264C372.989 319.264 371.898 318.977 370.983 318.403C370.074 317.824 369.376 317.026 368.887 316.009C368.398 314.991 368.154 313.827 368.154 312.514C368.154 311.185 368.404 310.011 368.904 308.994C369.404 307.972 370.108 307.173 371.018 306.599C371.927 306.026 372.998 305.739 374.231 305.739C375.225 305.739 376.111 305.923 376.89 306.293C377.668 306.656 378.296 307.168 378.773 307.827C379.256 308.486 379.543 309.256 379.634 310.136H377.154C377.018 309.523 376.705 308.994 376.216 308.551C375.733 308.108 375.086 307.886 374.273 307.886C373.563 307.886 372.941 308.074 372.407 308.449C371.878 308.818 371.466 309.347 371.171 310.034C370.876 310.716 370.728 311.523 370.728 312.455C370.728 313.409 370.873 314.233 371.162 314.926C371.452 315.619 371.861 316.156 372.39 316.537C372.924 316.918 373.552 317.108 374.273 317.108C374.756 317.108 375.194 317.02 375.586 316.844C375.983 316.662 376.316 316.403 376.583 316.068C376.856 315.733 377.046 315.33 377.154 314.858H379.634C379.543 315.705 379.268 316.46 378.807 317.125C378.347 317.79 377.731 318.312 376.958 318.693C376.191 319.074 375.29 319.264 374.256 319.264ZM384.763 311.227V319H382.215V301.545H384.729V308.04H384.891C385.198 307.335 385.667 306.776 386.298 306.361C386.928 305.946 387.752 305.739 388.769 305.739C389.667 305.739 390.451 305.923 391.121 306.293C391.798 306.662 392.32 307.213 392.69 307.946C393.065 308.673 393.252 309.582 393.252 310.673V319H390.704V310.98C390.704 310.02 390.457 309.276 389.962 308.747C389.468 308.213 388.781 307.946 387.9 307.946C387.298 307.946 386.758 308.074 386.281 308.33C385.809 308.585 385.437 308.96 385.164 309.455C384.897 309.943 384.763 310.534 384.763 311.227ZM402.151 319.264C400.861 319.264 399.75 318.989 398.818 318.438C397.892 317.881 397.176 317.099 396.671 316.094C396.171 315.082 395.921 313.898 395.921 312.54C395.921 311.199 396.171 310.017 396.671 308.994C397.176 307.972 397.881 307.173 398.784 306.599C399.693 306.026 400.756 305.739 401.972 305.739C402.71 305.739 403.426 305.861 404.119 306.105C404.813 306.349 405.435 306.733 405.986 307.256C406.537 307.778 406.972 308.457 407.29 309.293C407.608 310.122 407.767 311.131 407.767 312.318V313.222H397.361V311.312H405.27C405.27 310.642 405.134 310.048 404.861 309.531C404.588 309.009 404.205 308.597 403.71 308.295C403.222 307.994 402.648 307.844 401.989 307.844C401.273 307.844 400.648 308.02 400.114 308.372C399.585 308.719 399.176 309.173 398.887 309.736C398.602 310.293 398.46 310.898 398.46 311.551V313.043C398.46 313.918 398.614 314.662 398.921 315.276C399.233 315.889 399.668 316.358 400.225 316.682C400.781 317 401.432 317.159 402.176 317.159C402.659 317.159 403.1 317.091 403.497 316.955C403.895 316.812 404.239 316.602 404.529 316.324C404.818 316.045 405.04 315.702 405.193 315.293L407.605 315.727C407.412 316.437 407.066 317.06 406.566 317.594C406.071 318.122 405.449 318.534 404.699 318.83C403.955 319.119 403.105 319.264 402.151 319.264ZM420.26 309.105L417.951 309.514C417.854 309.219 417.701 308.937 417.49 308.67C417.286 308.403 417.007 308.185 416.655 308.014C416.303 307.844 415.863 307.759 415.334 307.759C414.613 307.759 414.01 307.92 413.527 308.244C413.044 308.562 412.803 308.974 412.803 309.48C412.803 309.918 412.965 310.27 413.289 310.537C413.613 310.804 414.135 311.023 414.857 311.193L416.936 311.67C418.141 311.949 419.039 312.378 419.63 312.957C420.221 313.537 420.516 314.29 420.516 315.216C420.516 316 420.289 316.699 419.834 317.312C419.385 317.92 418.757 318.398 417.951 318.744C417.149 319.091 416.221 319.264 415.164 319.264C413.698 319.264 412.502 318.952 411.576 318.327C410.649 317.696 410.081 316.801 409.871 315.642L412.334 315.267C412.488 315.909 412.803 316.395 413.28 316.724C413.757 317.048 414.38 317.21 415.147 317.21C415.982 317.21 416.649 317.037 417.149 316.69C417.649 316.338 417.899 315.909 417.899 315.403C417.899 314.994 417.746 314.651 417.439 314.372C417.138 314.094 416.675 313.884 416.05 313.741L413.834 313.256C412.613 312.977 411.709 312.534 411.124 311.926C410.544 311.318 410.255 310.548 410.255 309.616C410.255 308.844 410.471 308.168 410.902 307.588C411.334 307.009 411.931 306.557 412.692 306.233C413.453 305.903 414.326 305.739 415.309 305.739C416.723 305.739 417.837 306.045 418.649 306.659C419.462 307.267 419.999 308.082 420.26 309.105ZM273.506 337.909V339.955H266.109V337.909H273.506ZM268.137 351V336.392C268.137 335.574 268.316 334.895 268.674 334.355C269.032 333.81 269.506 333.403 270.097 333.136C270.688 332.864 271.33 332.727 272.023 332.727C272.535 332.727 272.972 332.77 273.336 332.855C273.7 332.935 273.969 333.009 274.146 333.077L273.549 335.139C273.43 335.105 273.276 335.065 273.089 335.02C272.901 334.969 272.674 334.943 272.407 334.943C271.788 334.943 271.344 335.097 271.077 335.403C270.816 335.71 270.685 336.153 270.685 336.733V351H268.137ZM280.99 351.264C279.763 351.264 278.692 350.983 277.777 350.42C276.862 349.858 276.152 349.071 275.646 348.06C275.141 347.048 274.888 345.866 274.888 344.514C274.888 343.156 275.141 341.969 275.646 340.952C276.152 339.935 276.862 339.145 277.777 338.582C278.692 338.02 279.763 337.739 280.99 337.739C282.218 337.739 283.289 338.02 284.203 338.582C285.118 339.145 285.828 339.935 286.334 340.952C286.84 341.969 287.093 343.156 287.093 344.514C287.093 345.866 286.84 347.048 286.334 348.06C285.828 349.071 285.118 349.858 284.203 350.42C283.289 350.983 282.218 351.264 280.99 351.264ZM280.999 349.125C281.794 349.125 282.453 348.915 282.976 348.494C283.499 348.074 283.885 347.514 284.135 346.815C284.391 346.116 284.519 345.347 284.519 344.506C284.519 343.67 284.391 342.903 284.135 342.205C283.885 341.5 283.499 340.935 282.976 340.509C282.453 340.082 281.794 339.869 280.999 339.869C280.198 339.869 279.533 340.082 279.004 340.509C278.482 340.935 278.093 341.5 277.837 342.205C277.587 342.903 277.462 343.67 277.462 344.506C277.462 345.347 277.587 346.116 277.837 346.815C278.093 347.514 278.482 348.074 279.004 348.494C279.533 348.915 280.198 349.125 280.999 349.125ZM289.793 351V337.909H292.256V339.989H292.392C292.631 339.284 293.051 338.73 293.654 338.327C294.262 337.918 294.949 337.713 295.716 337.713C295.875 337.713 296.063 337.719 296.279 337.73C296.5 337.741 296.674 337.756 296.799 337.773V340.21C296.696 340.182 296.515 340.151 296.253 340.116C295.992 340.077 295.73 340.057 295.469 340.057C294.867 340.057 294.33 340.185 293.858 340.44C293.392 340.69 293.023 341.04 292.75 341.489C292.478 341.932 292.341 342.437 292.341 343.006V351H289.793ZM309.968 351.256C308.911 351.256 307.968 350.986 307.138 350.446C306.315 349.901 305.667 349.125 305.195 348.119C304.729 347.108 304.496 345.895 304.496 344.48C304.496 343.065 304.732 341.855 305.204 340.849C305.681 339.844 306.335 339.074 307.164 338.54C307.994 338.006 308.934 337.739 309.985 337.739C310.798 337.739 311.451 337.875 311.945 338.148C312.445 338.415 312.832 338.727 313.104 339.085C313.383 339.443 313.599 339.759 313.752 340.031H313.906V337.909H316.454V351H313.965V348.963H313.752C313.599 349.241 313.377 349.56 313.087 349.918C312.803 350.276 312.411 350.588 311.911 350.855C311.411 351.122 310.763 351.256 309.968 351.256ZM310.531 349.082C311.263 349.082 311.883 348.889 312.388 348.503C312.9 348.111 313.286 347.568 313.548 346.875C313.815 346.182 313.948 345.375 313.948 344.455C313.948 343.545 313.817 342.75 313.556 342.068C313.295 341.386 312.911 340.855 312.406 340.474C311.9 340.094 311.275 339.903 310.531 339.903C309.763 339.903 309.124 340.102 308.613 340.5C308.102 340.898 307.715 341.44 307.454 342.128C307.198 342.815 307.07 343.591 307.07 344.455C307.07 345.33 307.201 346.116 307.462 346.815C307.724 347.514 308.11 348.068 308.621 348.477C309.138 348.881 309.775 349.082 310.531 349.082ZM326.154 355.909V337.909H328.643V340.031H328.856C329.004 339.759 329.217 339.443 329.495 339.085C329.774 338.727 330.16 338.415 330.654 338.148C331.149 337.875 331.802 337.739 332.615 337.739C333.672 337.739 334.615 338.006 335.444 338.54C336.274 339.074 336.924 339.844 337.396 340.849C337.873 341.855 338.112 343.065 338.112 344.48C338.112 345.895 337.876 347.108 337.404 348.119C336.933 349.125 336.285 349.901 335.461 350.446C334.637 350.986 333.697 351.256 332.64 351.256C331.845 351.256 331.194 351.122 330.689 350.855C330.189 350.588 329.797 350.276 329.512 349.918C329.228 349.56 329.01 349.241 328.856 348.963H328.703V355.909H326.154ZM328.652 344.455C328.652 345.375 328.785 346.182 329.052 346.875C329.319 347.568 329.706 348.111 330.211 348.503C330.717 348.889 331.336 349.082 332.069 349.082C332.831 349.082 333.467 348.881 333.978 348.477C334.49 348.068 334.876 347.514 335.137 346.815C335.404 346.116 335.538 345.33 335.538 344.455C335.538 343.591 335.407 342.815 335.146 342.128C334.89 341.44 334.504 340.898 333.987 340.5C333.475 340.102 332.836 339.903 332.069 339.903C331.331 339.903 330.706 340.094 330.194 340.474C329.689 340.855 329.305 341.386 329.044 342.068C328.782 342.75 328.652 343.545 328.652 344.455ZM340.823 351V337.909H343.286V339.989H343.422C343.661 339.284 344.081 338.73 344.684 338.327C345.292 337.918 345.979 337.713 346.746 337.713C346.905 337.713 347.093 337.719 347.309 337.73C347.53 337.741 347.704 337.756 347.829 337.773V340.21C347.726 340.182 347.545 340.151 347.283 340.116C347.022 340.077 346.76 340.057 346.499 340.057C345.897 340.057 345.36 340.185 344.888 340.44C344.422 340.69 344.053 341.04 343.78 341.489C343.508 341.932 343.371 342.437 343.371 343.006V351H340.823ZM354.935 351.264C353.708 351.264 352.637 350.983 351.722 350.42C350.808 349.858 350.097 349.071 349.592 348.06C349.086 347.048 348.833 345.866 348.833 344.514C348.833 343.156 349.086 341.969 349.592 340.952C350.097 339.935 350.808 339.145 351.722 338.582C352.637 338.02 353.708 337.739 354.935 337.739C356.163 337.739 357.234 338.02 358.148 338.582C359.063 339.145 359.773 339.935 360.279 340.952C360.785 341.969 361.038 343.156 361.038 344.514C361.038 345.866 360.785 347.048 360.279 348.06C359.773 349.071 359.063 349.858 358.148 350.42C357.234 350.983 356.163 351.264 354.935 351.264ZM354.944 349.125C355.739 349.125 356.398 348.915 356.921 348.494C357.444 348.074 357.83 347.514 358.08 346.815C358.336 346.116 358.464 345.347 358.464 344.506C358.464 343.67 358.336 342.903 358.08 342.205C357.83 341.5 357.444 340.935 356.921 340.509C356.398 340.082 355.739 339.869 354.944 339.869C354.143 339.869 353.478 340.082 352.95 340.509C352.427 340.935 352.038 341.5 351.782 342.205C351.532 342.903 351.407 343.67 351.407 344.506C351.407 345.347 351.532 346.116 351.782 346.815C352.038 347.514 352.427 348.074 352.95 348.494C353.478 348.915 354.143 349.125 354.944 349.125ZM368.639 351.256C367.582 351.256 366.639 350.986 365.809 350.446C364.985 349.901 364.338 349.125 363.866 348.119C363.4 347.108 363.167 345.895 363.167 344.48C363.167 343.065 363.403 341.855 363.874 340.849C364.352 339.844 365.005 339.074 365.835 338.54C366.664 338.006 367.605 337.739 368.656 337.739C369.468 337.739 370.122 337.875 370.616 338.148C371.116 338.415 371.502 338.727 371.775 339.085C372.053 339.443 372.269 339.759 372.423 340.031H372.576V333.545H375.124V351H372.636V348.963H372.423C372.269 349.241 372.048 349.56 371.758 349.918C371.474 350.276 371.082 350.588 370.582 350.855C370.082 351.122 369.434 351.256 368.639 351.256ZM369.201 349.082C369.934 349.082 370.553 348.889 371.059 348.503C371.57 348.111 371.957 347.568 372.218 346.875C372.485 346.182 372.619 345.375 372.619 344.455C372.619 343.545 372.488 342.75 372.227 342.068C371.965 341.386 371.582 340.855 371.076 340.474C370.57 340.094 369.945 339.903 369.201 339.903C368.434 339.903 367.795 340.102 367.284 340.5C366.772 340.898 366.386 341.44 366.124 342.128C365.869 342.815 365.741 343.591 365.741 344.455C365.741 345.33 365.872 346.116 366.133 346.815C366.394 347.514 366.781 348.068 367.292 348.477C367.809 348.881 368.445 349.082 369.201 349.082ZM386.91 345.571V337.909H389.467V351H386.961V348.733H386.825C386.524 349.432 386.041 350.014 385.376 350.48C384.717 350.94 383.896 351.17 382.913 351.17C382.072 351.17 381.328 350.986 380.68 350.616C380.038 350.241 379.532 349.688 379.163 348.955C378.799 348.222 378.618 347.315 378.618 346.236V337.909H381.166V345.929C381.166 346.821 381.413 347.531 381.907 348.06C382.402 348.588 383.044 348.852 383.833 348.852C384.311 348.852 384.785 348.733 385.257 348.494C385.734 348.256 386.129 347.895 386.441 347.412C386.76 346.929 386.916 346.315 386.91 345.571ZM398.261 351.264C396.994 351.264 395.903 350.977 394.988 350.403C394.079 349.824 393.38 349.026 392.892 348.009C392.403 346.991 392.159 345.827 392.159 344.514C392.159 343.185 392.409 342.011 392.909 340.994C393.409 339.972 394.113 339.173 395.023 338.599C395.932 338.026 397.003 337.739 398.236 337.739C399.23 337.739 400.116 337.923 400.895 338.293C401.673 338.656 402.301 339.168 402.778 339.827C403.261 340.486 403.548 341.256 403.639 342.136H401.159C401.023 341.523 400.71 340.994 400.221 340.551C399.738 340.108 399.091 339.886 398.278 339.886C397.568 339.886 396.946 340.074 396.412 340.449C395.883 340.818 395.471 341.347 395.176 342.034C394.88 342.716 394.733 343.523 394.733 344.455C394.733 345.409 394.878 346.233 395.167 346.926C395.457 347.619 395.866 348.156 396.395 348.537C396.929 348.918 397.557 349.108 398.278 349.108C398.761 349.108 399.199 349.02 399.591 348.844C399.988 348.662 400.321 348.403 400.588 348.068C400.861 347.733 401.051 347.33 401.159 346.858H403.639C403.548 347.705 403.273 348.46 402.812 349.125C402.352 349.79 401.736 350.312 400.963 350.693C400.196 351.074 399.295 351.264 398.261 351.264ZM412.331 337.909V339.955H405.18V337.909H412.331ZM407.098 334.773H409.646V347.156C409.646 347.651 409.72 348.023 409.868 348.273C410.016 348.517 410.206 348.685 410.439 348.776C410.678 348.861 410.936 348.903 411.214 348.903C411.419 348.903 411.598 348.889 411.751 348.861C411.905 348.832 412.024 348.81 412.109 348.793L412.57 350.898C412.422 350.955 412.212 351.011 411.939 351.068C411.666 351.131 411.325 351.165 410.916 351.17C410.246 351.182 409.621 351.062 409.041 350.812C408.462 350.562 407.993 350.176 407.635 349.653C407.277 349.131 407.098 348.474 407.098 347.685V334.773Z" fill="#172A41"/>
<defs>
<clipPath id="clip0_929_2319">
<rect width="41.6" height="41.6" fill="white" transform="translate(27.6992 304.699)"/>
</clipPath>
<clipPath id="clip1_929_2319">
<rect width="41.6" height="41.6" fill="white" transform="translate(94.6992 128.699)"/>
</clipPath>
<clipPath id="clip2_929_2319">
<rect width="41.6" height="41.6" fill="white" transform="translate(276.699 27.6992)"/>
</clipPath>
<clipPath id="clip3_929_2319">
<rect width="41.6" height="41.6" fill="white" transform="translate(467.699 62.6992)"/>
</clipPath>
<clipPath id="clip4_929_2319">
<rect width="41.6" height="41.6" fill="white" transform="matrix(-1 0 0 1 639.301 216.699)"/>
</clipPath>
<clipPath id="clip5_929_2319">
<rect width="41.6" height="41.6" fill="white" transform="translate(597.699 404.699)"/>
</clipPath>
<clipPath id="clip6_929_2319">
<rect width="41.6" height="41.6" fill="white" transform="translate(474.699 563.699)"/>
</clipPath>
<clipPath id="clip7_929_2319">
<rect width="41.6" height="41.6" fill="white" transform="translate(263.699 602.699)"/>
</clipPath>
<clipPath id="clip8_929_2319">
<rect width="41.6" height="41.6" fill="white" transform="translate(86.6992 488.699)"/>
</clipPath>
</defs>
</svg>
