<svg width="635" height="640" viewBox="0 0 635 640" fill="none" xmlns="http://www.w3.org/2000/svg">
<ellipse cx="325.074" cy="323.012" rx="294.926" ry="295.012" stroke="#2B65CF" stroke-width="2"/>
<rect y="277" width="65" height="65" rx="5" fill="#F25C2B"/>
<g clip-path="url(#clip0_929_2319)">
<path d="M49.3999 324.562L39.5822 314.744C41.9413 311.912 43.1177 308.279 42.8667 304.601C42.6156 300.924 40.9565 297.485 38.2343 294.999C35.5122 292.514 31.9366 291.174 28.2515 291.258C24.5664 291.341 21.0555 292.843 18.449 295.449C15.8426 298.055 14.3413 301.566 14.2576 305.252C14.1739 308.937 15.5141 312.512 17.9994 315.234C20.4848 317.956 23.9239 319.616 27.6014 319.867C31.2789 320.118 34.9116 318.941 37.7439 316.582L47.5616 326.4L49.3999 324.562ZM16.8999 305.6C16.8999 303.286 17.5861 301.024 18.8717 299.1C20.1573 297.176 21.9846 295.676 24.1225 294.791C26.2604 293.905 28.6129 293.673 30.8825 294.125C33.1521 294.576 35.2368 295.69 36.8731 297.327C38.5093 298.963 39.6237 301.048 40.0751 303.317C40.5266 305.587 40.2949 307.939 39.4093 310.077C38.5238 312.215 37.0241 314.043 35.1001 315.328C33.176 316.614 30.914 317.3 28.5999 317.3C25.4979 317.296 22.524 316.063 20.3306 313.869C18.1371 311.676 16.9034 308.702 16.8999 305.6V305.6Z" fill="white"/>
</g>
<rect x="67" y="101" width="65" height="65" rx="5" fill="#FFF3E6"/>
<g clip-path="url(#clip1_929_2319)">
<path d="M91.6977 151.7C93.1336 151.7 94.2977 150.536 94.2977 149.1C94.2977 147.664 93.1336 146.5 91.6977 146.5C90.2617 146.5 89.0977 147.664 89.0977 149.1C89.0977 150.536 90.2617 151.7 91.6977 151.7Z" fill="#F25C2B"/>
<path d="M109.901 151.7C111.337 151.7 112.501 150.536 112.501 149.1C112.501 147.664 111.337 146.5 109.901 146.5C108.465 146.5 107.301 147.664 107.301 149.1C107.301 150.536 108.465 151.7 109.901 151.7Z" fill="#F25C2B"/>
<path d="M85.174 116.344C85.1151 116.049 84.9558 115.784 84.7234 115.593C84.491 115.403 84.1998 115.299 83.8992 115.299H78.6992V117.899H82.8332L87.8244 142.854C87.8834 143.148 88.0426 143.414 88.275 143.604C88.5074 143.795 88.7987 143.899 89.0992 143.899H112.499V141.299H90.1652L89.1252 136.099H112.499C112.795 136.099 113.082 135.998 113.313 135.813C113.543 135.628 113.704 135.37 113.768 135.081L116.717 121.799H114.055L111.457 133.499H88.6052L85.174 116.344Z" fill="#F25C2B"/>
<path d="M102.101 120.499V115.299H99.5008V120.499H94.3008V123.099H99.5008V128.299H102.101V123.099H107.301V120.499H102.101Z" fill="#F25C2B"/>
</g>
<rect x="249" width="65" height="65" rx="5" fill="#FFF3E6"/>
<g clip-path="url(#clip2_929_2319)">
<path d="M285.401 42.9H265.901L265.896 23.2781L280.761 33.569C280.978 33.7194 281.236 33.8 281.501 33.8C281.765 33.8 282.023 33.7194 282.241 33.569L297.101 23.2813V35.1H299.701V22.1C299.7 21.4107 299.426 20.7499 298.938 20.2625C298.451 19.7752 297.79 19.5009 297.101 19.5H265.901C265.211 19.5008 264.551 19.775 264.063 20.2624C263.576 20.7498 263.302 21.4107 263.301 22.1V42.9C263.302 43.5893 263.576 44.2501 264.063 44.7375C264.551 45.2249 265.212 45.4991 265.901 45.5H285.401V42.9ZM294.239 22.1L281.501 30.9188L268.763 22.1H294.239Z" fill="#F25C2B"/>
<path d="M294.501 48.0992C297.373 48.0992 299.701 45.7711 299.701 42.8992C299.701 40.0273 297.373 37.6992 294.501 37.6992C291.629 37.6992 289.301 40.0273 289.301 42.8992C289.301 45.7711 291.629 48.0992 294.501 48.0992Z" fill="#F25C2B"/>
</g>
<rect x="440" y="35" width="65" height="65" rx="5" fill="#FFF3E6"/>
<g clip-path="url(#clip3_929_2319)">
<path d="M481.6 67.5H479V70.1H481.6V67.5Z" fill="#F25C2B"/>
<path d="M473.798 67.5H463.398V70.1H473.798V67.5Z" fill="#F25C2B"/>
<path d="M481.6 62.2988H479V64.8988H481.6V62.2988Z" fill="#F25C2B"/>
<path d="M473.798 62.2988H463.398V64.8988H473.798V62.2988Z" fill="#F25C2B"/>
<path d="M481.598 57.0996H463.398V59.6996H481.598V57.0996Z" fill="#F25C2B"/>
<path d="M484.199 49.2988H460.799C460.11 49.2995 459.449 49.5737 458.962 50.0611C458.474 50.5486 458.2 51.2095 458.199 51.8988V84.3988C458.199 84.7436 458.336 85.0743 458.58 85.3181C458.824 85.5619 459.154 85.6988 459.499 85.6988H460.799C461.001 85.699 461.2 85.652 461.381 85.5618C461.561 85.4715 461.718 85.3404 461.839 85.1788L464.699 81.3659L467.559 85.1788C467.685 85.3325 467.844 85.4563 468.024 85.5413C468.204 85.6263 468.4 85.6704 468.599 85.6704C468.798 85.6704 468.995 85.6263 469.174 85.5413C469.354 85.4563 469.513 85.3325 469.639 85.1788L472.499 81.3659L475.359 85.1788C475.485 85.3325 475.644 85.4563 475.824 85.5413C476.004 85.6263 476.2 85.6704 476.399 85.6704C476.598 85.6704 476.795 85.6263 476.974 85.5413C477.154 85.4563 477.313 85.3325 477.439 85.1788L480.299 81.3659L483.159 85.1788C483.28 85.3403 483.437 85.4714 483.618 85.5617C483.798 85.6519 483.997 85.6989 484.199 85.6988H485.499C485.844 85.6988 486.175 85.5619 486.418 85.3181C486.662 85.0743 486.799 84.7436 486.799 84.3988V51.8988C486.798 51.2095 486.524 50.5486 486.037 50.0612C485.549 49.5738 484.889 49.2996 484.199 49.2988V49.2988ZM484.199 82.2317L481.339 78.4188C481.213 78.2651 481.054 78.1413 480.874 78.0563C480.695 77.9713 480.498 77.9272 480.299 77.9272C480.1 77.9272 479.904 77.9713 479.724 78.0563C479.544 78.1413 479.385 78.2651 479.259 78.4188L476.399 82.2317L473.539 78.4188C473.413 78.2651 473.254 78.1413 473.074 78.0563C472.895 77.9713 472.698 77.9272 472.499 77.9272C472.3 77.9272 472.104 77.9713 471.924 78.0563C471.744 78.1413 471.585 78.2651 471.459 78.4188L468.599 82.2317L465.739 78.4188C465.613 78.2651 465.454 78.1413 465.274 78.0563C465.095 77.9713 464.898 77.9272 464.699 77.9272C464.5 77.9272 464.304 77.9713 464.124 78.0563C463.944 78.1413 463.785 78.2651 463.659 78.4188L460.799 82.2317V51.8988H484.199V82.2317Z" fill="#F25C2B"/>
</g>
<rect x="570" y="189" width="65" height="65" rx="5" fill="#FFF3E6"/>
<g clip-path="url(#clip4_929_2319)">
<path d="M602.502 221.5H618.102V224.1H602.502V221.5Z" fill="#F25C2B"/>
<path d="M607.699 215H620.699V217.6H607.699V215Z" fill="#F25C2B"/>
<path d="M584.406 222.288L588.306 213.188C588.406 212.954 588.573 212.755 588.785 212.615C588.997 212.474 589.246 212.4 589.501 212.4H593.401V209.8C593.401 209.455 593.538 209.125 593.781 208.881C594.025 208.637 594.356 208.5 594.701 208.5H615.501V211.1H596.001V227.423C596.593 227.767 597.111 228.225 597.526 228.77C597.94 229.315 598.243 229.937 598.416 230.6H606.585C606.902 229.375 607.654 228.307 608.702 227.596C609.749 226.886 611.02 226.582 612.276 226.741C613.531 226.901 614.685 227.513 615.522 228.463C616.359 229.412 616.82 230.634 616.82 231.9C616.82 233.166 616.359 234.388 615.522 235.338C614.685 236.287 613.531 236.899 612.276 237.059C611.02 237.218 609.749 236.914 608.702 236.204C607.654 235.493 606.902 234.425 606.585 233.2H598.416C598.133 234.315 597.486 235.304 596.577 236.01C595.669 236.716 594.551 237.1 593.401 237.1C592.25 237.1 591.132 236.716 590.224 236.01C589.316 235.304 588.669 234.315 588.385 233.2H585.601C585.256 233.2 584.925 233.063 584.681 232.819C584.438 232.575 584.301 232.245 584.301 231.9V222.8C584.301 222.624 584.337 222.45 584.406 222.288ZM611.601 234.5C612.115 234.5 612.618 234.348 613.045 234.062C613.473 233.776 613.806 233.37 614.003 232.895C614.2 232.42 614.251 231.897 614.151 231.393C614.05 230.888 613.803 230.425 613.439 230.062C613.076 229.698 612.612 229.45 612.108 229.35C611.604 229.25 611.081 229.301 610.606 229.498C610.131 229.695 609.725 230.028 609.439 230.456C609.153 230.883 609.001 231.386 609.001 231.9C609.001 232.589 609.276 233.25 609.763 233.738C610.251 234.225 610.911 234.499 611.601 234.5ZM593.401 215H590.358L587.572 221.5H593.401V215ZM593.401 234.5C593.915 234.5 594.418 234.348 594.845 234.062C595.273 233.776 595.606 233.37 595.803 232.895C596 232.42 596.051 231.897 595.951 231.393C595.85 230.888 595.603 230.425 595.239 230.062C594.876 229.698 594.412 229.45 593.908 229.35C593.404 229.25 592.881 229.301 592.406 229.498C591.931 229.695 591.525 230.028 591.239 230.456C590.953 230.883 590.801 231.386 590.801 231.9C590.801 232.589 591.076 233.25 591.563 233.738C592.051 234.225 592.711 234.499 593.401 234.5V234.5ZM586.901 230.6H588.385C588.672 229.487 589.32 228.5 590.227 227.794C591.135 227.088 592.251 226.703 593.401 226.7V224.1H586.901V230.6Z" fill="#F25C2B"/>
</g>
<rect x="570" y="377" width="65" height="65" rx="5" fill="#FFF3E6"/>
<g clip-path="url(#clip5_929_2319)">
<path d="M620.701 417.299H584.301V419.899H620.701V417.299Z" fill="#F25C2B"/>
<path d="M620.701 422.5H584.301V425.1H620.701V422.5Z" fill="#F25C2B"/>
<path d="M612.901 401.699C612.387 401.699 611.884 401.852 611.456 402.137C611.029 402.423 610.695 402.829 610.499 403.304C610.302 403.779 610.25 404.302 610.351 404.806C610.451 405.311 610.699 405.774 611.062 406.138C611.426 406.501 611.889 406.749 612.394 406.849C612.898 406.95 613.421 406.898 613.896 406.701C614.371 406.505 614.777 406.171 615.063 405.744C615.348 405.316 615.501 404.813 615.501 404.299C615.501 403.61 615.227 402.948 614.739 402.461C614.252 401.973 613.59 401.699 612.901 401.699Z" fill="#F25C2B"/>
<path d="M602.501 409.5C601.472 409.5 600.467 409.195 599.612 408.623C598.757 408.052 598.09 407.24 597.697 406.29C597.303 405.339 597.2 404.294 597.401 403.285C597.601 402.276 598.097 401.35 598.824 400.623C599.551 399.895 600.478 399.4 601.486 399.2C602.495 398.999 603.541 399.102 604.491 399.495C605.441 399.889 606.253 400.556 606.824 401.411C607.396 402.266 607.701 403.271 607.701 404.3C607.699 405.678 607.151 407 606.176 407.975C605.201 408.95 603.879 409.498 602.501 409.5ZM602.501 401.7C601.987 401.7 601.484 401.852 601.056 402.138C600.629 402.423 600.295 402.83 600.099 403.305C599.902 403.78 599.85 404.302 599.951 404.807C600.051 405.311 600.299 405.774 600.662 406.138C601.026 406.502 601.489 406.749 601.994 406.85C602.498 406.95 603.021 406.898 603.496 406.702C603.971 406.505 604.377 406.172 604.663 405.744C604.948 405.317 605.101 404.814 605.101 404.3C605.1 403.61 604.826 402.949 604.339 402.462C603.851 401.974 603.19 401.7 602.501 401.7Z" fill="#F25C2B"/>
<path d="M592.1 401.699C591.586 401.699 591.083 401.852 590.656 402.137C590.228 402.423 589.895 402.829 589.698 403.304C589.501 403.779 589.45 404.302 589.55 404.806C589.65 405.311 589.898 405.774 590.262 406.138C590.625 406.501 591.088 406.749 591.593 406.849C592.097 406.95 592.62 406.898 593.095 406.701C593.57 406.505 593.976 406.171 594.262 405.744C594.548 405.316 594.7 404.813 594.7 404.299C594.7 403.61 594.426 402.948 593.938 402.461C593.451 401.973 592.79 401.699 592.1 401.699Z" fill="#F25C2B"/>
<path d="M618.101 414.698H586.901C586.212 414.697 585.551 414.422 585.064 413.935C584.577 413.448 584.303 412.787 584.301 412.098V396.498C584.303 395.809 584.577 395.149 585.064 394.662C585.551 394.175 586.212 393.9 586.901 393.898H618.101C618.79 393.9 619.45 394.175 619.937 394.662C620.425 395.149 620.699 395.809 620.701 396.498V412.098C620.7 412.788 620.426 413.448 619.938 413.936C619.451 414.423 618.79 414.698 618.101 414.698V414.698ZM618.101 396.498H586.901V412.098H618.101V396.498Z" fill="#F25C2B"/>
</g>
<rect x="447" y="536" width="65" height="65" rx="5" fill="#FFF3E6"/>
<g clip-path="url(#clip6_929_2319)">
<path d="M491.634 563.234L493.201 561.666C493.412 561.457 493.679 561.315 493.97 561.255C494.26 561.195 494.562 561.222 494.838 561.33L496.748 562.093C497.027 562.206 497.267 562.4 497.436 562.649C497.605 562.898 497.697 563.191 497.7 563.492V566.992C497.698 567.191 497.657 567.389 497.58 567.572C497.502 567.756 497.389 567.922 497.247 568.062C497.105 568.202 496.936 568.313 496.752 568.388C496.567 568.463 496.369 568.5 496.17 568.499L496.105 568.497C482.721 567.664 480.02 556.325 479.509 551.986C479.465 551.586 479.581 551.184 479.833 550.87C480.084 550.555 480.45 550.353 480.85 550.309C480.909 550.302 480.968 550.299 481.027 550.299H484.407C484.708 550.3 485.003 550.391 485.252 550.561C485.501 550.73 485.694 550.971 485.806 551.251L486.569 553.162C486.681 553.437 486.709 553.739 486.651 554.03C486.592 554.322 486.449 554.589 486.24 554.8L484.673 556.367C484.673 556.367 485.575 562.477 491.634 563.234Z" fill="#F25C2B"/>
<path d="M479.501 586.699H476.901V580.199C476.9 579.165 476.488 578.174 475.757 577.443C475.026 576.712 474.035 576.3 473.001 576.299H467.801C466.767 576.3 465.775 576.712 465.044 577.443C464.313 578.174 463.902 579.165 463.901 580.199V586.699H461.301V580.199C461.303 578.476 461.988 576.824 463.207 575.605C464.425 574.387 466.077 573.701 467.801 573.699H473.001C474.724 573.701 476.376 574.387 477.595 575.605C478.813 576.824 479.499 578.476 479.501 580.199V586.699Z" fill="#F25C2B"/>
<path d="M470.398 560.7C471.17 560.7 471.924 560.928 472.565 561.357C473.207 561.785 473.706 562.395 474.002 563.107C474.297 563.82 474.374 564.604 474.223 565.36C474.073 566.117 473.702 566.812 473.156 567.357C472.611 567.903 471.916 568.274 471.159 568.425C470.403 568.575 469.619 568.498 468.906 568.203C468.193 567.908 467.584 567.408 467.156 566.766C466.727 566.125 466.498 565.371 466.498 564.6C466.498 563.565 466.909 562.573 467.641 561.842C468.372 561.111 469.364 560.7 470.398 560.7V560.7ZM470.398 558.1C469.113 558.1 467.856 558.481 466.787 559.195C465.718 559.909 464.885 560.924 464.393 562.112C463.901 563.3 463.773 564.607 464.023 565.868C464.274 567.129 464.893 568.287 465.802 569.196C466.711 570.105 467.869 570.724 469.13 570.975C470.391 571.226 471.698 571.097 472.886 570.605C474.074 570.113 475.089 569.28 475.803 568.211C476.517 567.142 476.898 565.885 476.898 564.6C476.898 563.746 476.73 562.901 476.404 562.112C476.077 561.324 475.598 560.607 474.995 560.003C474.391 559.4 473.674 558.921 472.886 558.594C472.097 558.268 471.252 558.1 470.398 558.1V558.1Z" fill="#F25C2B"/>
</g>
<rect x="236" y="575" width="65" height="65" rx="5" fill="#FFF3E6"/>
<g clip-path="url(#clip7_929_2319)">
<path d="M286.027 597.911L273.027 590.761C272.836 590.655 272.62 590.6 272.401 590.6C272.182 590.6 271.966 590.655 271.775 590.761L258.775 597.911C258.571 598.023 258.401 598.188 258.282 598.388C258.164 598.588 258.102 598.817 258.102 599.049C258.102 599.282 258.164 599.51 258.282 599.711C258.401 599.911 258.571 600.076 258.775 600.188L271.101 606.968V620.9L267.154 618.73L265.901 621.008L271.775 624.238C271.966 624.344 272.182 624.399 272.401 624.399C272.62 624.399 272.836 624.344 273.027 624.238L286.027 617.088C286.231 616.976 286.401 616.811 286.52 616.611C286.638 616.41 286.701 616.182 286.701 615.949V599.049C286.701 598.817 286.638 598.588 286.52 598.388C286.401 598.188 286.231 598.023 286.027 597.911ZM272.401 593.383L282.703 599.049L272.401 604.715L262.099 599.049L272.401 593.383ZM284.101 615.181L273.701 620.901V606.968L284.101 601.248V615.181Z" fill="#F25C2B"/>
<path d="M250.299 607.5H260.699V604.9H250.299V607.5Z" fill="#F25C2B"/>
<path d="M252.901 617.898H263.301V615.298H252.901V617.898Z" fill="#F25C2B"/>
<path d="M255.498 612.699H265.898V610.099H255.498V612.699Z" fill="#F25C2B"/>
</g>
<rect x="59" y="461" width="65" height="65" rx="5" fill="#FFF3E6"/>
<g clip-path="url(#clip8_929_2319)">
<path d="M107.101 475.299H91.5008C90.8114 475.3 90.1505 475.574 89.6631 476.061C89.1756 476.549 88.9015 477.209 88.9008 477.899V490.899H75.9008C75.2114 490.9 74.5505 491.174 74.0631 491.661C73.5756 492.149 73.3015 492.809 73.3008 493.499V511.699H109.701V477.899C109.7 477.21 109.426 476.549 108.938 476.061C108.451 475.574 107.79 475.3 107.101 475.299V475.299ZM82.4008 509.099V499.999H87.6008V509.099H82.4008ZM107.101 509.099H90.2008V498.699C90.2008 498.354 90.0638 498.023 89.82 497.78C89.5762 497.536 89.2456 497.399 88.9008 497.399H81.1008C80.756 497.399 80.4253 497.536 80.1815 497.78C79.9377 498.023 79.8008 498.354 79.8008 498.699V509.099H75.9008V493.499H91.5008V477.899H107.101V509.099Z" fill="#F25C2B"/>
<path d="M96.6977 483.1H94.0977V485.7H96.6977V483.1Z" fill="#F25C2B"/>
<path d="M104.498 483.1H101.898V485.7H104.498V483.1Z" fill="#F25C2B"/>
<path d="M96.6977 490.898H94.0977V493.498H96.6977V490.898Z" fill="#F25C2B"/>
<path d="M104.498 490.898H101.898V493.498H104.498V490.898Z" fill="#F25C2B"/>
<path d="M96.6977 498.699H94.0977V501.299H96.6977V498.699Z" fill="#F25C2B"/>
<path d="M104.498 498.699H101.898V501.299H104.498V498.699Z" fill="#F25C2B"/>
</g>
<path d="M255.537 285.545H258.179V297.026C258.179 298.247 257.892 299.33 257.319 300.273C256.745 301.21 255.938 301.949 254.898 302.489C253.858 303.023 252.64 303.29 251.242 303.29C249.85 303.29 248.634 303.023 247.594 302.489C246.554 301.949 245.748 301.21 245.174 300.273C244.6 299.33 244.313 298.247 244.313 297.026V285.545H246.946V296.812C246.946 297.602 247.12 298.304 247.466 298.918C247.819 299.531 248.316 300.014 248.958 300.366C249.6 300.713 250.361 300.886 251.242 300.886C252.128 300.886 252.892 300.713 253.534 300.366C254.182 300.014 254.676 299.531 255.017 298.918C255.364 298.304 255.537 297.602 255.537 296.812V285.545ZM271.469 293.105L269.16 293.514C269.063 293.219 268.91 292.937 268.699 292.67C268.495 292.403 268.216 292.185 267.864 292.014C267.512 291.844 267.072 291.759 266.543 291.759C265.822 291.759 265.219 291.92 264.736 292.244C264.253 292.562 264.012 292.974 264.012 293.48C264.012 293.918 264.174 294.27 264.498 294.537C264.822 294.804 265.344 295.023 266.066 295.193L268.145 295.67C269.35 295.949 270.248 296.378 270.839 296.957C271.43 297.537 271.725 298.29 271.725 299.216C271.725 300 271.498 300.699 271.043 301.312C270.594 301.92 269.966 302.398 269.16 302.744C268.358 303.091 267.43 303.264 266.373 303.264C264.907 303.264 263.711 302.952 262.785 302.327C261.858 301.696 261.29 300.801 261.08 299.642L263.543 299.267C263.697 299.909 264.012 300.395 264.489 300.724C264.966 301.048 265.589 301.21 266.356 301.21C267.191 301.21 267.858 301.037 268.358 300.69C268.858 300.338 269.108 299.909 269.108 299.403C269.108 298.994 268.955 298.651 268.648 298.372C268.347 298.094 267.884 297.884 267.259 297.741L265.043 297.256C263.822 296.977 262.918 296.534 262.333 295.926C261.753 295.318 261.464 294.548 261.464 293.616C261.464 292.844 261.68 292.168 262.111 291.588C262.543 291.009 263.14 290.557 263.901 290.233C264.662 289.903 265.535 289.739 266.518 289.739C267.932 289.739 269.046 290.045 269.858 290.659C270.671 291.267 271.208 292.082 271.469 293.105ZM280.025 303.264C278.735 303.264 277.624 302.989 276.692 302.438C275.766 301.881 275.05 301.099 274.545 300.094C274.045 299.082 273.795 297.898 273.795 296.54C273.795 295.199 274.045 294.017 274.545 292.994C275.05 291.972 275.755 291.173 276.658 290.599C277.567 290.026 278.63 289.739 279.846 289.739C280.585 289.739 281.3 289.861 281.994 290.105C282.687 290.349 283.309 290.733 283.86 291.256C284.411 291.778 284.846 292.457 285.164 293.293C285.482 294.122 285.641 295.131 285.641 296.318V297.222H275.235V295.312H283.144C283.144 294.642 283.008 294.048 282.735 293.531C282.462 293.009 282.079 292.597 281.585 292.295C281.096 291.994 280.522 291.844 279.863 291.844C279.147 291.844 278.522 292.02 277.988 292.372C277.46 292.719 277.05 293.173 276.761 293.736C276.477 294.293 276.335 294.898 276.335 295.551V297.043C276.335 297.918 276.488 298.662 276.795 299.276C277.107 299.889 277.542 300.358 278.099 300.682C278.656 301 279.306 301.159 280.05 301.159C280.533 301.159 280.974 301.091 281.371 300.955C281.769 300.812 282.113 300.602 282.403 300.324C282.692 300.045 282.914 299.702 283.067 299.293L285.479 299.727C285.286 300.437 284.94 301.06 284.44 301.594C283.945 302.122 283.323 302.534 282.573 302.83C281.829 303.119 280.979 303.264 280.025 303.264ZM288.325 303V289.909H290.788V291.989H290.924C291.163 291.284 291.583 290.73 292.186 290.327C292.794 289.918 293.481 289.713 294.248 289.713C294.407 289.713 294.595 289.719 294.811 289.73C295.032 289.741 295.205 289.756 295.33 289.773V292.21C295.228 292.182 295.046 292.151 294.785 292.116C294.524 292.077 294.262 292.057 294.001 292.057C293.399 292.057 292.862 292.185 292.39 292.44C291.924 292.69 291.555 293.04 291.282 293.489C291.009 293.932 290.873 294.437 290.873 295.006V303H288.325ZM313.409 293.105L311.099 293.514C311.003 293.219 310.849 292.937 310.639 292.67C310.434 292.403 310.156 292.185 309.804 292.014C309.452 291.844 309.011 291.759 308.483 291.759C307.761 291.759 307.159 291.92 306.676 292.244C306.193 292.562 305.952 292.974 305.952 293.48C305.952 293.918 306.113 294.27 306.437 294.537C306.761 294.804 307.284 295.023 308.006 295.193L310.085 295.67C311.29 295.949 312.187 296.378 312.778 296.957C313.369 297.537 313.665 298.29 313.665 299.216C313.665 300 313.437 300.699 312.983 301.312C312.534 301.92 311.906 302.398 311.099 302.744C310.298 303.091 309.369 303.264 308.312 303.264C306.846 303.264 305.65 302.952 304.724 302.327C303.798 301.696 303.23 300.801 303.02 299.642L305.483 299.267C305.636 299.909 305.952 300.395 306.429 300.724C306.906 301.048 307.528 301.21 308.295 301.21C309.131 301.21 309.798 301.037 310.298 300.69C310.798 300.338 311.048 299.909 311.048 299.403C311.048 298.994 310.895 298.651 310.588 298.372C310.287 298.094 309.824 297.884 309.199 297.741L306.983 297.256C305.761 296.977 304.858 296.534 304.273 295.926C303.693 295.318 303.403 294.548 303.403 293.616C303.403 292.844 303.619 292.168 304.051 291.588C304.483 291.009 305.079 290.557 305.841 290.233C306.602 289.903 307.474 289.739 308.457 289.739C309.872 289.739 310.986 290.045 311.798 290.659C312.611 291.267 313.148 292.082 313.409 293.105ZM321.964 303.264C320.675 303.264 319.564 302.989 318.632 302.438C317.706 301.881 316.99 301.099 316.484 300.094C315.984 299.082 315.734 297.898 315.734 296.54C315.734 295.199 315.984 294.017 316.484 292.994C316.99 291.972 317.695 291.173 318.598 290.599C319.507 290.026 320.57 289.739 321.786 289.739C322.524 289.739 323.24 289.861 323.933 290.105C324.626 290.349 325.249 290.733 325.8 291.256C326.351 291.778 326.786 292.457 327.104 293.293C327.422 294.122 327.581 295.131 327.581 296.318V297.222H317.175V295.312H325.084C325.084 294.642 324.947 294.048 324.675 293.531C324.402 293.009 324.018 292.597 323.524 292.295C323.036 291.994 322.462 291.844 321.803 291.844C321.087 291.844 320.462 292.02 319.928 292.372C319.399 292.719 318.99 293.173 318.7 293.736C318.416 294.293 318.274 294.898 318.274 295.551V297.043C318.274 297.918 318.428 298.662 318.734 299.276C319.047 299.889 319.482 300.358 320.038 300.682C320.595 301 321.246 301.159 321.99 301.159C322.473 301.159 322.913 301.091 323.311 300.955C323.709 300.812 324.053 300.602 324.342 300.324C324.632 300.045 324.854 299.702 325.007 299.293L327.419 299.727C327.226 300.437 326.879 301.06 326.379 301.594C325.885 302.122 325.263 302.534 324.513 302.83C323.768 303.119 322.919 303.264 321.964 303.264ZM335.165 303.256C334.108 303.256 333.165 302.986 332.335 302.446C331.512 301.901 330.864 301.125 330.392 300.119C329.926 299.108 329.693 297.895 329.693 296.48C329.693 295.065 329.929 293.855 330.401 292.849C330.878 291.844 331.531 291.074 332.361 290.54C333.191 290.006 334.131 289.739 335.182 289.739C335.994 289.739 336.648 289.875 337.142 290.148C337.642 290.415 338.029 290.727 338.301 291.085C338.58 291.443 338.796 291.759 338.949 292.031H339.102V289.909H341.651V303H339.162V300.963H338.949C338.796 301.241 338.574 301.56 338.284 301.918C338 302.276 337.608 302.588 337.108 302.855C336.608 303.122 335.96 303.256 335.165 303.256ZM335.727 301.082C336.46 301.082 337.08 300.889 337.585 300.503C338.097 300.111 338.483 299.568 338.744 298.875C339.012 298.182 339.145 297.375 339.145 296.455C339.145 295.545 339.014 294.75 338.753 294.068C338.492 293.386 338.108 292.855 337.602 292.474C337.097 292.094 336.472 291.903 335.727 291.903C334.96 291.903 334.321 292.102 333.81 292.5C333.298 292.898 332.912 293.44 332.651 294.128C332.395 294.815 332.267 295.591 332.267 296.455C332.267 297.33 332.398 298.116 332.659 298.815C332.921 299.514 333.307 300.068 333.818 300.477C334.335 300.881 334.972 301.082 335.727 301.082ZM345.144 303V289.909H347.607V291.989H347.743C347.982 291.284 348.402 290.73 349.005 290.327C349.613 289.918 350.3 289.713 351.067 289.713C351.226 289.713 351.414 289.719 351.63 289.73C351.851 289.741 352.024 289.756 352.149 289.773V292.21C352.047 292.182 351.865 292.151 351.604 292.116C351.343 292.077 351.081 292.057 350.82 292.057C350.218 292.057 349.681 292.185 349.209 292.44C348.743 292.69 348.374 293.04 348.101 293.489C347.828 293.932 347.692 294.437 347.692 295.006V303H345.144ZM359.256 303.264C357.989 303.264 356.898 302.977 355.983 302.403C355.074 301.824 354.376 301.026 353.887 300.009C353.398 298.991 353.154 297.827 353.154 296.514C353.154 295.185 353.404 294.011 353.904 292.994C354.404 291.972 355.108 291.173 356.018 290.599C356.927 290.026 357.998 289.739 359.231 289.739C360.225 289.739 361.111 289.923 361.89 290.293C362.668 290.656 363.296 291.168 363.773 291.827C364.256 292.486 364.543 293.256 364.634 294.136H362.154C362.018 293.523 361.705 292.994 361.216 292.551C360.733 292.108 360.086 291.886 359.273 291.886C358.563 291.886 357.941 292.074 357.407 292.449C356.878 292.818 356.466 293.347 356.171 294.034C355.876 294.716 355.728 295.523 355.728 296.455C355.728 297.409 355.873 298.233 356.162 298.926C356.452 299.619 356.861 300.156 357.39 300.537C357.924 300.918 358.552 301.108 359.273 301.108C359.756 301.108 360.194 301.02 360.586 300.844C360.983 300.662 361.316 300.403 361.583 300.068C361.856 299.733 362.046 299.33 362.154 298.858H364.634C364.543 299.705 364.268 300.46 363.807 301.125C363.347 301.79 362.731 302.312 361.958 302.693C361.191 303.074 360.29 303.264 359.256 303.264ZM369.763 295.227V303H367.215V285.545H369.729V292.04H369.891C370.198 291.335 370.667 290.776 371.298 290.361C371.928 289.946 372.752 289.739 373.769 289.739C374.667 289.739 375.451 289.923 376.121 290.293C376.798 290.662 377.32 291.213 377.69 291.946C378.065 292.673 378.252 293.582 378.252 294.673V303H375.704V294.98C375.704 294.02 375.457 293.276 374.962 292.747C374.468 292.213 373.781 291.946 372.9 291.946C372.298 291.946 371.758 292.074 371.281 292.33C370.809 292.585 370.437 292.96 370.164 293.455C369.897 293.943 369.763 294.534 369.763 295.227ZM387.151 303.264C385.861 303.264 384.75 302.989 383.818 302.438C382.892 301.881 382.176 301.099 381.671 300.094C381.171 299.082 380.921 297.898 380.921 296.54C380.921 295.199 381.171 294.017 381.671 292.994C382.176 291.972 382.881 291.173 383.784 290.599C384.693 290.026 385.756 289.739 386.972 289.739C387.71 289.739 388.426 289.861 389.119 290.105C389.813 290.349 390.435 290.733 390.986 291.256C391.537 291.778 391.972 292.457 392.29 293.293C392.608 294.122 392.767 295.131 392.767 296.318V297.222H382.361V295.312H390.27C390.27 294.642 390.134 294.048 389.861 293.531C389.588 293.009 389.205 292.597 388.71 292.295C388.222 291.994 387.648 291.844 386.989 291.844C386.273 291.844 385.648 292.02 385.114 292.372C384.585 292.719 384.176 293.173 383.887 293.736C383.602 294.293 383.46 294.898 383.46 295.551V297.043C383.46 297.918 383.614 298.662 383.921 299.276C384.233 299.889 384.668 300.358 385.225 300.682C385.781 301 386.432 301.159 387.176 301.159C387.659 301.159 388.1 301.091 388.497 300.955C388.895 300.812 389.239 300.602 389.529 300.324C389.818 300.045 390.04 299.702 390.193 299.293L392.605 299.727C392.412 300.437 392.066 301.06 391.566 301.594C391.071 302.122 390.449 302.534 389.699 302.83C388.955 303.119 388.105 303.264 387.151 303.264ZM405.26 293.105L402.951 293.514C402.854 293.219 402.701 292.937 402.49 292.67C402.286 292.403 402.007 292.185 401.655 292.014C401.303 291.844 400.863 291.759 400.334 291.759C399.613 291.759 399.01 291.92 398.527 292.244C398.044 292.562 397.803 292.974 397.803 293.48C397.803 293.918 397.965 294.27 398.289 294.537C398.613 294.804 399.135 295.023 399.857 295.193L401.936 295.67C403.141 295.949 404.039 296.378 404.63 296.957C405.221 297.537 405.516 298.29 405.516 299.216C405.516 300 405.289 300.699 404.834 301.312C404.385 301.92 403.757 302.398 402.951 302.744C402.149 303.091 401.221 303.264 400.164 303.264C398.698 303.264 397.502 302.952 396.576 302.327C395.649 301.696 395.081 300.801 394.871 299.642L397.334 299.267C397.488 299.909 397.803 300.395 398.28 300.724C398.757 301.048 399.38 301.21 400.147 301.21C400.982 301.21 401.649 301.037 402.149 300.69C402.649 300.338 402.899 299.909 402.899 299.403C402.899 298.994 402.746 298.651 402.439 298.372C402.138 298.094 401.675 297.884 401.05 297.741L398.834 297.256C397.613 296.977 396.709 296.534 396.124 295.926C395.544 295.318 395.255 294.548 395.255 293.616C395.255 292.844 395.471 292.168 395.902 291.588C396.334 291.009 396.931 290.557 397.692 290.233C398.453 289.903 399.326 289.739 400.309 289.739C401.723 289.739 402.837 290.045 403.649 290.659C404.462 291.267 404.999 292.082 405.26 293.105ZM258.506 321.909V323.955H251.109V321.909H258.506ZM253.137 335V320.392C253.137 319.574 253.316 318.895 253.674 318.355C254.032 317.81 254.506 317.403 255.097 317.136C255.688 316.864 256.33 316.727 257.023 316.727C257.535 316.727 257.972 316.77 258.336 316.855C258.7 316.935 258.969 317.009 259.146 317.077L258.549 319.139C258.43 319.105 258.276 319.065 258.089 319.02C257.901 318.969 257.674 318.943 257.407 318.943C256.788 318.943 256.344 319.097 256.077 319.403C255.816 319.71 255.685 320.153 255.685 320.733V335H253.137ZM265.99 335.264C264.763 335.264 263.692 334.983 262.777 334.42C261.862 333.858 261.152 333.071 260.646 332.06C260.141 331.048 259.888 329.866 259.888 328.514C259.888 327.156 260.141 325.969 260.646 324.952C261.152 323.935 261.862 323.145 262.777 322.582C263.692 322.02 264.763 321.739 265.99 321.739C267.218 321.739 268.289 322.02 269.203 322.582C270.118 323.145 270.828 323.935 271.334 324.952C271.84 325.969 272.093 327.156 272.093 328.514C272.093 329.866 271.84 331.048 271.334 332.06C270.828 333.071 270.118 333.858 269.203 334.42C268.289 334.983 267.218 335.264 265.99 335.264ZM265.999 333.125C266.794 333.125 267.453 332.915 267.976 332.494C268.499 332.074 268.885 331.514 269.135 330.815C269.391 330.116 269.519 329.347 269.519 328.506C269.519 327.67 269.391 326.903 269.135 326.205C268.885 325.5 268.499 324.935 267.976 324.509C267.453 324.082 266.794 323.869 265.999 323.869C265.198 323.869 264.533 324.082 264.004 324.509C263.482 324.935 263.093 325.5 262.837 326.205C262.587 326.903 262.462 327.67 262.462 328.506C262.462 329.347 262.587 330.116 262.837 330.815C263.093 331.514 263.482 332.074 264.004 332.494C264.533 332.915 265.198 333.125 265.999 333.125ZM274.793 335V321.909H277.256V323.989H277.392C277.631 323.284 278.051 322.73 278.654 322.327C279.262 321.918 279.949 321.713 280.716 321.713C280.875 321.713 281.063 321.719 281.279 321.73C281.5 321.741 281.674 321.756 281.799 321.773V324.21C281.696 324.182 281.515 324.151 281.253 324.116C280.992 324.077 280.73 324.057 280.469 324.057C279.867 324.057 279.33 324.185 278.858 324.44C278.392 324.69 278.023 325.04 277.75 325.489C277.478 325.932 277.341 326.437 277.341 327.006V335H274.793ZM294.968 335.256C293.911 335.256 292.968 334.986 292.138 334.446C291.315 333.901 290.667 333.125 290.195 332.119C289.729 331.108 289.496 329.895 289.496 328.48C289.496 327.065 289.732 325.855 290.204 324.849C290.681 323.844 291.335 323.074 292.164 322.54C292.994 322.006 293.934 321.739 294.985 321.739C295.798 321.739 296.451 321.875 296.945 322.148C297.445 322.415 297.832 322.727 298.104 323.085C298.383 323.443 298.599 323.759 298.752 324.031H298.906V321.909H301.454V335H298.965V332.963H298.752C298.599 333.241 298.377 333.56 298.087 333.918C297.803 334.276 297.411 334.588 296.911 334.855C296.411 335.122 295.763 335.256 294.968 335.256ZM295.531 333.082C296.263 333.082 296.883 332.889 297.388 332.503C297.9 332.111 298.286 331.568 298.548 330.875C298.815 330.182 298.948 329.375 298.948 328.455C298.948 327.545 298.817 326.75 298.556 326.068C298.295 325.386 297.911 324.855 297.406 324.474C296.9 324.094 296.275 323.903 295.531 323.903C294.763 323.903 294.124 324.102 293.613 324.5C293.102 324.898 292.715 325.44 292.454 326.128C292.198 326.815 292.07 327.591 292.07 328.455C292.07 329.33 292.201 330.116 292.462 330.815C292.724 331.514 293.11 332.068 293.621 332.477C294.138 332.881 294.775 333.082 295.531 333.082ZM311.154 339.909V321.909H313.643V324.031H313.856C314.004 323.759 314.217 323.443 314.495 323.085C314.774 322.727 315.16 322.415 315.654 322.148C316.149 321.875 316.802 321.739 317.615 321.739C318.672 321.739 319.615 322.006 320.444 322.54C321.274 323.074 321.924 323.844 322.396 324.849C322.873 325.855 323.112 327.065 323.112 328.48C323.112 329.895 322.876 331.108 322.404 332.119C321.933 333.125 321.285 333.901 320.461 334.446C319.637 334.986 318.697 335.256 317.64 335.256C316.845 335.256 316.194 335.122 315.689 334.855C315.189 334.588 314.797 334.276 314.512 333.918C314.228 333.56 314.01 333.241 313.856 332.963H313.703V339.909H311.154ZM313.652 328.455C313.652 329.375 313.785 330.182 314.052 330.875C314.319 331.568 314.706 332.111 315.211 332.503C315.717 332.889 316.336 333.082 317.069 333.082C317.831 333.082 318.467 332.881 318.978 332.477C319.49 332.068 319.876 331.514 320.137 330.815C320.404 330.116 320.538 329.33 320.538 328.455C320.538 327.591 320.407 326.815 320.146 326.128C319.89 325.44 319.504 324.898 318.987 324.5C318.475 324.102 317.836 323.903 317.069 323.903C316.331 323.903 315.706 324.094 315.194 324.474C314.689 324.855 314.305 325.386 314.044 326.068C313.782 326.75 313.652 327.545 313.652 328.455ZM325.823 335V321.909H328.286V323.989H328.422C328.661 323.284 329.081 322.73 329.684 322.327C330.292 321.918 330.979 321.713 331.746 321.713C331.905 321.713 332.093 321.719 332.309 321.73C332.53 321.741 332.704 321.756 332.829 321.773V324.21C332.726 324.182 332.545 324.151 332.283 324.116C332.022 324.077 331.76 324.057 331.499 324.057C330.897 324.057 330.36 324.185 329.888 324.44C329.422 324.69 329.053 325.04 328.78 325.489C328.508 325.932 328.371 326.437 328.371 327.006V335H325.823ZM339.935 335.264C338.708 335.264 337.637 334.983 336.722 334.42C335.808 333.858 335.097 333.071 334.592 332.06C334.086 331.048 333.833 329.866 333.833 328.514C333.833 327.156 334.086 325.969 334.592 324.952C335.097 323.935 335.808 323.145 336.722 322.582C337.637 322.02 338.708 321.739 339.935 321.739C341.163 321.739 342.234 322.02 343.148 322.582C344.063 323.145 344.773 323.935 345.279 324.952C345.785 325.969 346.038 327.156 346.038 328.514C346.038 329.866 345.785 331.048 345.279 332.06C344.773 333.071 344.063 333.858 343.148 334.42C342.234 334.983 341.163 335.264 339.935 335.264ZM339.944 333.125C340.739 333.125 341.398 332.915 341.921 332.494C342.444 332.074 342.83 331.514 343.08 330.815C343.336 330.116 343.464 329.347 343.464 328.506C343.464 327.67 343.336 326.903 343.08 326.205C342.83 325.5 342.444 324.935 341.921 324.509C341.398 324.082 340.739 323.869 339.944 323.869C339.143 323.869 338.478 324.082 337.95 324.509C337.427 324.935 337.038 325.5 336.782 326.205C336.532 326.903 336.407 327.67 336.407 328.506C336.407 329.347 336.532 330.116 336.782 330.815C337.038 331.514 337.427 332.074 337.95 332.494C338.478 332.915 339.143 333.125 339.944 333.125ZM353.639 335.256C352.582 335.256 351.639 334.986 350.809 334.446C349.985 333.901 349.338 333.125 348.866 332.119C348.4 331.108 348.167 329.895 348.167 328.48C348.167 327.065 348.403 325.855 348.874 324.849C349.352 323.844 350.005 323.074 350.835 322.54C351.664 322.006 352.605 321.739 353.656 321.739C354.468 321.739 355.122 321.875 355.616 322.148C356.116 322.415 356.502 322.727 356.775 323.085C357.053 323.443 357.269 323.759 357.423 324.031H357.576V317.545H360.124V335H357.636V332.963H357.423C357.269 333.241 357.048 333.56 356.758 333.918C356.474 334.276 356.082 334.588 355.582 334.855C355.082 335.122 354.434 335.256 353.639 335.256ZM354.201 333.082C354.934 333.082 355.553 332.889 356.059 332.503C356.57 332.111 356.957 331.568 357.218 330.875C357.485 330.182 357.619 329.375 357.619 328.455C357.619 327.545 357.488 326.75 357.227 326.068C356.965 325.386 356.582 324.855 356.076 324.474C355.57 324.094 354.945 323.903 354.201 323.903C353.434 323.903 352.795 324.102 352.284 324.5C351.772 324.898 351.386 325.44 351.124 326.128C350.869 326.815 350.741 327.591 350.741 328.455C350.741 329.33 350.872 330.116 351.133 330.815C351.394 331.514 351.781 332.068 352.292 332.477C352.809 332.881 353.445 333.082 354.201 333.082ZM371.91 329.571V321.909H374.467V335H371.961V332.733H371.825C371.524 333.432 371.041 334.014 370.376 334.48C369.717 334.94 368.896 335.17 367.913 335.17C367.072 335.17 366.328 334.986 365.68 334.616C365.038 334.241 364.532 333.688 364.163 332.955C363.799 332.222 363.618 331.315 363.618 330.236V321.909H366.166V329.929C366.166 330.821 366.413 331.531 366.907 332.06C367.402 332.588 368.044 332.852 368.833 332.852C369.311 332.852 369.785 332.733 370.257 332.494C370.734 332.256 371.129 331.895 371.441 331.412C371.76 330.929 371.916 330.315 371.91 329.571ZM383.261 335.264C381.994 335.264 380.903 334.977 379.988 334.403C379.079 333.824 378.38 333.026 377.892 332.009C377.403 330.991 377.159 329.827 377.159 328.514C377.159 327.185 377.409 326.011 377.909 324.994C378.409 323.972 379.113 323.173 380.023 322.599C380.932 322.026 382.003 321.739 383.236 321.739C384.23 321.739 385.116 321.923 385.895 322.293C386.673 322.656 387.301 323.168 387.778 323.827C388.261 324.486 388.548 325.256 388.639 326.136H386.159C386.023 325.523 385.71 324.994 385.221 324.551C384.738 324.108 384.091 323.886 383.278 323.886C382.568 323.886 381.946 324.074 381.412 324.449C380.883 324.818 380.471 325.347 380.176 326.034C379.88 326.716 379.733 327.523 379.733 328.455C379.733 329.409 379.878 330.233 380.167 330.926C380.457 331.619 380.866 332.156 381.395 332.537C381.929 332.918 382.557 333.108 383.278 333.108C383.761 333.108 384.199 333.02 384.591 332.844C384.988 332.662 385.321 332.403 385.588 332.068C385.861 331.733 386.051 331.33 386.159 330.858H388.639C388.548 331.705 388.273 332.46 387.812 333.125C387.352 333.79 386.736 334.312 385.963 334.693C385.196 335.074 384.295 335.264 383.261 335.264ZM397.331 321.909V323.955H390.18V321.909H397.331ZM392.098 318.773H394.646V331.156C394.646 331.651 394.72 332.023 394.868 332.273C395.016 332.517 395.206 332.685 395.439 332.776C395.678 332.861 395.936 332.903 396.214 332.903C396.419 332.903 396.598 332.889 396.751 332.861C396.905 332.832 397.024 332.81 397.109 332.793L397.57 334.898C397.422 334.955 397.212 335.011 396.939 335.068C396.666 335.131 396.325 335.165 395.916 335.17C395.246 335.182 394.621 335.062 394.041 334.812C393.462 334.562 392.993 334.176 392.635 333.653C392.277 333.131 392.098 332.474 392.098 331.685V318.773Z" fill="#172A41"/>
<defs>
<clipPath id="clip0_929_2319">
<rect width="41.6" height="41.6" fill="white" transform="translate(11.6992 288.699)"/>
</clipPath>
<clipPath id="clip1_929_2319">
<rect width="41.6" height="41.6" fill="white" transform="translate(78.6992 112.699)"/>
</clipPath>
<clipPath id="clip2_929_2319">
<rect width="41.6" height="41.6" fill="white" transform="translate(260.699 11.6992)"/>
</clipPath>
<clipPath id="clip3_929_2319">
<rect width="41.6" height="41.6" fill="white" transform="translate(451.699 46.6992)"/>
</clipPath>
<clipPath id="clip4_929_2319">
<rect width="41.6" height="41.6" fill="white" transform="matrix(-1 0 0 1 623.301 200.699)"/>
</clipPath>
<clipPath id="clip5_929_2319">
<rect width="41.6" height="41.6" fill="white" transform="translate(581.699 388.699)"/>
</clipPath>
<clipPath id="clip6_929_2319">
<rect width="41.6" height="41.6" fill="white" transform="translate(458.699 547.699)"/>
</clipPath>
<clipPath id="clip7_929_2319">
<rect width="41.6" height="41.6" fill="white" transform="translate(247.699 586.699)"/>
</clipPath>
<clipPath id="clip8_929_2319">
<rect width="41.6" height="41.6" fill="white" transform="translate(70.6992 472.699)"/>
</clipPath>
</defs>
</svg>
