<svg width="988" height="139" viewBox="0 0 988 139" fill="none" xmlns="http://www.w3.org/2000/svg">
<g clip-path="url(#clip0_1606_3304)">
<path d="M418.373 68.7352C418.373 62.7802 418.172 53.5678 408.403 49.9602C406.219 49.0405 403.868 48.5859 401.499 48.6254C396.893 48.5939 392.382 49.9235 388.529 52.4476C384.921 54.822 381.956 58.0527 379.898 61.8516C378.928 58.0155 376.824 48.8213 364.391 48.8213C352.345 48.8213 346.597 56.6712 342.389 62.5751V50.3382H317.695V54.3563H326.704V133.065H310.035V50.3382H285.528V54.3563H294.523V102.996C294.355 110.266 293.781 120.441 288.22 127.506C287.332 128.893 286.114 130.038 284.676 130.838C283.237 131.637 281.622 132.068 279.976 132.089C272.899 132.089 272.899 125.401 272.899 120.618V50.3382H248.215V54.3563H257.219V116.231C257.219 124.44 257.396 138.408 273.492 138.408C277.903 138.496 282.243 137.292 285.98 134.944C289.716 132.597 292.685 129.209 294.523 125.196V137.073H350.609V133.065H342.389V85.5642C342.548 77.9013 342.781 68.9125 347.754 61.8516C348.786 60.0749 350.228 58.5717 351.96 57.4681C353.693 56.3644 355.664 55.6926 357.71 55.509C364.596 55.509 364.596 63.345 364.783 69.3049V133.065H356.749V137.073H388.697V133.065H380.286V80.3839C380.286 74.2564 380.453 66.4251 385.646 60.1341C386.69 58.5956 388.082 57.3249 389.709 56.4248C391.336 55.5248 393.151 55.0208 395.009 54.9537C396.273 54.8943 397.526 55.2043 398.617 55.8458C399.707 56.4873 400.587 57.4325 401.149 58.5661C402.473 61.9146 402.994 65.527 402.67 69.1132V133.065H394.627V137.073H427.363V133.065H418.373L418.373 68.7352Z" fill="#A3B2C6"/>
<path d="M474.585 106.233C473.069 113.724 469.057 133.227 455.859 133.227C453.609 133.175 451.425 132.458 449.582 131.167C447.739 129.875 446.319 128.067 445.502 125.97C442.451 119.463 442.633 107.591 442.815 89.782H480.156C480.371 79.2487 480.371 64.7021 470.751 55.1208C468.851 53.2075 466.586 51.6966 464.09 50.6783C461.594 49.6599 458.918 49.1549 456.223 49.1935C438.62 49.1935 425.791 68.1506 425.791 94.9438C425.791 119.081 437.081 138.052 454.702 138.052C472.117 138.052 476.503 118.516 479.181 107.204L474.585 106.233ZM447.247 57.6084C448.15 56.2013 449.393 55.0439 450.86 54.2423C452.327 53.4407 453.972 53.0206 455.644 53.0206C464.098 53.0206 464.466 62.0141 464.625 65.6542C465.059 72.566 464.868 79.062 464.868 85.5633H443.011C443.402 68.9115 443.575 62.4059 447.247 57.6084Z" fill="#A3B2C6"/>
<path d="M232.879 84.9901C229.46 83.0814 226.213 80.9762 222.76 79.0628C217.223 75.5999 211.852 72.366 211.852 65.4542C211.993 62.2365 213.399 59.2049 215.765 57.0202C218.131 54.8355 221.264 53.6751 224.482 53.7917C226.762 53.822 228.997 54.4358 230.973 55.5746C232.949 56.7133 234.601 58.3392 235.772 60.2973C239.006 65.8169 240.721 72.0955 240.74 78.4936H245.555V50.3379H241.902L238.804 56.2791C237.246 53.9725 235.132 52.0959 232.657 50.8227C230.183 49.5494 227.427 48.9205 224.645 48.9941C210.882 48.9941 201.901 61.0814 201.901 73.7146C201.826 77.697 202.793 81.6298 204.709 85.1219C206.624 88.6139 209.42 91.5434 212.818 93.6189C215.697 95.7288 229.068 103.574 231.746 105.282C236.733 108.754 240.358 112.557 240.358 119.464C240.358 126.713 235.772 133.988 227.341 133.988C224.009 133.847 220.771 132.838 217.949 131.06C215.127 129.282 212.818 126.797 211.251 123.852C207.666 117.622 205.772 110.562 205.76 103.373H201.127V137.073H205.139L209.749 129.989C213.551 134.221 217.759 138.819 226.964 138.819C241.702 138.819 249.549 123.852 249.549 110.084C249.549 94.9633 239.966 89.2042 232.879 84.9901Z" fill="#A3B2C6"/>
<path d="M38.8437 134.413C24.3112 134.413 21.8108 116.384 21.0502 92.466C20.8543 85.7831 20.6723 78.8574 20.6723 71.9877C20.6723 57.4363 21.2461 41.3303 22.0018 33.3079C22.9535 23.1621 25.0717 13.9355 30.4228 8.61506C33.1442 5.97073 36.772 4.46513 40.5655 4.4056C43.0274 4.49451 45.43 5.18546 47.5632 6.41803C49.6965 7.6506 51.4953 9.38724 52.8025 11.4761C58.9418 19.5219 60.8642 31.7723 62.413 41.9089H66.3972L66.0284 1.69415H62.413L57.7991 9.9359C56.0181 6.94152 53.4978 4.45516 50.48 2.7153C47.4622 0.975437 44.0482 0.040443 40.5653 0C17.6211 0 0 31.7724 0 70.4335C0 83.4543 2.09008 101.445 8.03396 114.494C12.634 124.44 22.7714 139 37.9245 139C41.7324 138.977 45.4707 137.977 48.7826 136.097C52.0945 134.217 54.8695 131.52 56.8426 128.262L61.8206 137.073H65.8187L66.9896 91.8968H62.7956C59.3383 108.936 54.5237 134.413 38.8437 134.413Z" fill="#A3B2C6"/>
<path d="M190.214 69.8741C190.214 63.163 190.004 54.5432 181.593 50.5437C179.169 49.5065 176.559 48.9791 173.923 48.9945C162.274 48.9945 156.922 57.7916 154.03 62.4209V50.3382H129.154V54.3798H138.345V133.065H129.154V137.073H162.273V133.065H154.03V84.9994C154.24 77.528 154.412 67.9744 159.974 60.6894C160.82 59.2213 162.013 57.9821 163.447 57.0794C164.881 56.1766 166.513 55.6376 168.203 55.509C174.333 55.509 174.501 62.4208 174.501 69.1133V133.065H166.482V137.073H199.218V133.065H190.214V69.8741Z" fill="#A3B2C6"/>
<path d="M520.893 48.8209C510.918 48.8209 506.136 58.2063 503.86 62.7798V50.3378H479.143V54.3559H488.147V133.064H479.143V137.073H513.993V133.064H503.86V84.794C503.86 76.5709 503.86 67.1903 510.54 58.7803C511.898 57.0442 513.993 54.7526 515.891 54.7526C516.084 54.7526 516.275 54.7935 516.451 54.8726C516.627 54.9516 516.784 55.067 516.912 55.2111C517.041 55.3553 517.137 55.525 517.195 55.709C517.253 55.8931 517.272 56.0873 517.249 56.279C516.845 57.9131 516.329 59.5176 515.705 61.0813C515.555 61.6342 515.493 62.2075 515.523 62.7797C515.484 63.8635 515.672 64.9435 516.075 65.9502C516.478 66.9568 517.088 67.8678 517.864 68.6245C518.641 69.3812 519.567 69.9667 520.584 70.3434C521.601 70.7201 522.685 70.8797 523.767 70.8117C525.008 70.7459 526.222 70.4273 527.335 69.8754C528.448 69.3234 529.437 68.5498 530.241 67.602C531.045 66.6542 531.646 65.5521 532.009 64.3633C532.372 63.1746 532.488 61.9243 532.351 60.689C532.438 59.142 532.204 57.5938 531.664 56.1415C531.125 54.6892 530.291 53.3642 529.215 52.2497C528.139 51.1352 526.844 50.2553 525.412 49.6652C523.98 49.0752 522.441 48.7877 520.893 48.8209V48.8209Z" fill="#A3B2C6"/>
<path d="M102.386 48.6387C87.1209 48.6387 72.7422 66.6113 72.7422 94.356C72.7422 103.755 74.8509 121.933 86.7009 132.294C88.459 134.04 90.5518 135.412 92.8535 136.329C95.1552 137.246 97.6184 137.688 100.095 137.628C105.465 137.628 111.787 136.499 118.864 127.921C123.069 122.798 126.012 116.758 127.457 110.289C128.984 104.213 129.757 97.9711 129.757 91.7057C129.757 63.1623 115.785 48.6387 102.386 48.6387ZM107.956 129.788C107.182 130.89 106.148 131.783 104.944 132.388C103.741 132.992 102.406 133.288 101.061 133.25C90.7363 133.25 89.7613 120.412 89.7613 100.321C89.4263 88.6859 89.8081 77.0416 90.9045 65.4539C92.0658 58.9435 95.1125 53.021 101.807 53.021C108.894 53.021 110.657 59.9094 110.998 61.851C112.351 67.0032 112.351 73.1121 112.351 88.0511C112.351 115.647 112.351 124.061 107.956 129.788Z" fill="#A3B2C6"/>
<path d="M910.531 120.234C909.608 125.769 908.651 131.136 905.577 131.136C903.1 131.136 902.908 127.921 902.908 126.539C902.703 124.043 902.703 121.779 902.703 119.245V68.9117C902.703 62.2241 902.507 54.5424 893.139 50.7063C889.189 49.4128 885.053 48.7757 880.897 48.8206C863.841 48.8206 854.86 58.5653 854.86 67.003C854.86 73.3223 858.695 76.9485 863.449 76.9485C864.636 76.9431 865.81 76.6996 866.901 76.2326C867.993 75.7656 868.979 75.0846 869.803 74.2296C870.627 73.3747 871.271 72.3633 871.697 71.2551C872.124 70.1469 872.324 68.9645 872.285 67.7777C872.3 65.619 871.56 63.5228 870.195 61.8509C869.215 60.6886 867.881 59.536 867.881 58.206C867.881 56.4932 871.861 53.0208 878.406 53.0208C887.401 53.0208 887.401 60.8846 887.401 67.9598V84.6205C876.493 87.0803 865.395 89.5954 857.533 98.393C853.092 103.164 850.689 109.483 850.839 116.001C850.839 126.955 857.347 137.661 869.575 137.661C878.21 137.661 882.805 133.064 887.401 124.999C887.487 128.155 888.614 131.194 890.606 133.642C891.932 134.917 893.501 135.911 895.219 136.567C896.938 137.222 898.771 137.524 900.608 137.455C911.894 137.455 913.223 128.677 914.581 120.78L910.531 120.234ZM887.401 98.7897C887.009 111.404 886.43 118.134 882.805 124.617C881.826 126.171 878.975 131.309 874.375 131.309C869.575 131.309 868.264 124.999 868.264 116.585C868.264 96.1106 873.232 92.438 887.401 88.4428V98.7897Z" fill="#A3B2C6"/>
<path d="M984.072 55.4719C984.072 53.2832 982.766 52.9238 980.811 52.9238H976.742V61.32H978.599V57.773H979.942L981.804 61.32H983.801L981.804 57.773C983.265 57.6468 984.072 57.0447 984.072 55.4719ZM980.848 56.5266H978.599V54.3896H980.4C981.226 54.3896 982.308 54.3896 982.308 55.2293C982.308 56.3168 981.804 56.5266 980.848 56.5266Z" fill="#A3B2C6"/>
<path d="M953.962 48.8211C944.015 48.8211 939.234 58.2064 936.906 62.7799V50.3379H912.24V54.3561H921.221V133.064H912.24V137.073H947.067V133.064H936.906V84.7941C936.906 76.571 936.906 67.1904 943.61 58.7804C944.953 57.0443 947.067 54.7527 948.975 54.7527C949.168 54.7528 949.358 54.7936 949.534 54.8727C949.71 54.9517 949.868 55.0671 949.996 55.2113C950.124 55.3554 950.221 55.5251 950.279 55.7091C950.337 55.8932 950.355 56.0874 950.333 56.2791C949.931 57.9169 949.407 59.5222 948.765 61.0814C948.645 61.6391 948.596 62.2099 948.62 62.7799C948.579 63.8609 948.765 64.9386 949.165 65.9437C949.565 66.9487 950.171 67.8588 950.944 68.6153C951.717 69.3719 952.64 69.9582 953.653 70.3365C954.666 70.7148 955.747 70.8767 956.827 70.8119C958.07 70.7493 959.287 70.4331 960.403 69.8827C961.52 69.3322 962.512 68.5591 963.318 67.611C964.125 66.6629 964.729 65.5597 965.094 64.3693C965.458 63.179 965.576 61.9265 965.439 60.6891C965.524 59.141 965.289 57.5919 964.747 56.1391C964.206 54.6863 963.37 53.3611 962.293 52.2467C961.215 51.1324 959.919 50.2528 958.485 49.6633C957.052 49.0738 955.512 48.7871 953.962 48.8211V48.8211Z" fill="#A3B2C6"/>
<path d="M979.967 49.129C978.369 49.1208 976.804 49.5872 975.47 50.4692C974.137 51.3512 973.096 52.6092 972.478 54.0838C971.86 55.5584 971.693 57.1833 971.999 58.7527C972.305 60.3221 973.069 61.7655 974.195 62.9C975.322 64.0345 976.759 64.8092 978.326 65.1258C979.893 65.4425 981.518 65.2869 982.996 64.6788C984.475 64.0708 985.739 63.0375 986.63 61.7099C987.521 60.3824 987.998 58.8202 988.001 57.2212C988.007 56.1615 987.804 55.1109 987.403 54.1299C987.002 53.1489 986.412 52.2568 985.665 51.5049C984.919 50.7529 984.031 50.1559 983.053 49.7482C982.075 49.3405 981.026 49.13 979.967 49.129V49.129ZM979.967 63.3631C978.747 63.3691 977.554 63.0126 976.537 62.3389C975.52 61.6651 974.727 60.7045 974.256 59.5788C973.786 58.4531 973.661 57.2131 973.897 56.0161C974.132 54.8191 974.718 53.719 975.579 52.8554C976.44 51.9918 977.539 51.4036 978.735 51.1653C979.931 50.9271 981.171 51.0496 982.297 51.5173C983.423 51.985 984.385 52.7769 985.061 53.7924C985.737 54.8079 986.096 56.0013 986.093 57.2212C986.117 58.0331 985.975 58.8414 985.676 59.5965C985.376 60.3515 984.926 61.0376 984.353 61.6126C983.779 62.1876 983.095 62.6394 982.34 62.9404C981.586 63.2414 980.779 63.3853 979.967 63.3631V63.3631Z" fill="#A3B2C6"/>
<path d="M738.382 1.69531H713.674V5.7349H722.671V133.065H713.674V137.074H747.368V133.065H738.382V1.69531Z" fill="#A3B2C6"/>
<path d="M704.377 1.69531H679.662V5.7349H688.645V133.065H679.662V137.074H713.347V133.065H704.377V1.69531Z" fill="#A3B2C6"/>
<path d="M675.494 106.233C673.963 113.724 669.947 133.226 656.735 133.226C654.488 133.173 652.308 132.455 650.469 131.164C648.63 129.872 647.214 128.065 646.401 125.969C643.34 119.463 643.56 107.591 643.732 89.7819H681.045C681.227 79.2486 681.227 64.7019 671.687 55.1206C669.773 53.2078 667.495 51.6978 664.987 50.6798C662.48 49.6618 659.795 49.1564 657.089 49.1933C639.51 49.1933 626.699 68.1504 626.699 94.9436C626.699 119.081 637.97 138.052 655.591 138.052C673.012 138.052 677.406 118.516 680.098 107.203L675.494 106.233ZM648.122 57.6082C649.037 56.1987 650.289 55.0406 651.766 54.2393C653.243 53.438 654.896 53.0189 656.576 53.0204C664.964 53.0204 665.309 62.0139 665.543 65.654C665.925 72.5658 665.743 79.0619 665.743 85.5632H643.9C644.297 68.9114 644.493 62.4058 648.122 57.6082Z" fill="#A3B2C6"/>
<path d="M840.561 133.063V1.69336H815.849V5.73492H824.872V133.063H808.197V50.3368H783.691V54.355H792.686V102.994C792.513 110.265 791.949 120.439 786.401 127.505C785.505 128.887 784.283 130.027 782.843 130.826C781.404 131.625 779.79 132.058 778.143 132.088C771.053 132.088 771.052 125.4 771.052 120.617V50.3368H746.35V54.355H755.358V116.229C755.358 124.439 755.568 138.407 771.664 138.407C776.073 138.493 780.412 137.288 784.147 134.941C787.882 132.594 790.849 129.206 792.686 125.195V137.072H849.565V133.063H840.561Z" fill="#A3B2C6"/>
<path d="M594.33 134.413C579.802 134.413 577.292 116.384 576.532 92.466C576.34 85.7831 576.149 78.8574 576.149 71.9877C576.149 57.4363 576.728 41.3303 577.488 33.3079C578.426 23.1621 580.553 13.9355 585.918 8.61506C588.637 5.97251 592.261 4.467 596.051 4.4056C598.516 4.49528 600.921 5.1864 603.057 6.41875C605.193 7.6511 606.996 9.3873 608.307 11.4761C614.414 19.5219 616.346 31.7723 617.885 41.9089H621.883L621.496 1.69415H617.885L613.304 9.9359C611.516 6.94345 608.992 4.45909 605.972 2.71973C602.951 0.980377 599.536 0.0440342 596.051 0C573.089 0 555.463 31.7724 555.463 70.4335C555.463 83.4543 557.586 101.445 563.511 114.494C568.116 124.44 578.249 139 593.383 139C597.196 138.979 600.939 137.981 604.257 136.102C607.575 134.222 610.355 131.522 612.333 128.262L617.302 137.073H621.328L622.494 91.8968H618.263C614.82 108.936 610.015 134.413 594.33 134.413Z" fill="#A3B2C6"/>
</g>
<defs>
<clipPath id="clip0_1606_3304">
<rect width="988" height="139" fill="white"/>
</clipPath>
</defs>
</svg>
