<svg width="495" height="92" viewBox="0 0 495 92" fill="none" xmlns="http://www.w3.org/2000/svg">
<g clip-path="url(#clip0_1605_3202)">
<path d="M93.9958 1.44976V16.334H123.745V90.7646H138.616V16.334H168.362V1.44976H93.9958ZM0 1.44976V90.7646H65.8566V75.8773H14.8714V53.5493H59.171V38.6651H14.8714V16.334H65.8566V1.44976H0ZM257.601 1.44976V38.6651H212.984V1.44976H198.109V90.7646H212.984V53.5493H257.601V90.7646H272.472V1.44976H257.601V1.44976ZM386.285 9.87155C383.268 6.8518 379.686 4.4564 375.744 2.82212C371.802 1.18783 367.577 0.34668 363.31 0.34668C359.043 0.34668 354.818 1.18783 350.876 2.82212C346.934 4.4564 343.353 6.8518 340.335 9.87155C338.502 11.7095 334.683 16.0063 333.378 18.1226C339.582 14.2898 346.895 12.6597 354.138 13.4951C361.381 14.3305 368.132 17.5827 373.303 22.7274C378.474 27.8722 381.763 34.6097 382.64 41.854C383.517 49.0982 381.932 56.4271 378.139 62.6592L378.64 62.1577C380.816 60.8365 384.406 57.7416 386.285 55.8608C389.302 52.8412 391.695 49.2563 393.328 45.3108C394.961 41.3654 395.802 37.1367 395.802 32.8662C395.802 28.5957 394.961 24.367 393.328 20.4215C391.695 16.4761 389.302 12.8912 386.285 9.87155" fill="#A3B2C6"/>
<path d="M331.201 65.0051C318.435 52.2279 310.616 28.7256 325.023 3.88074L318.288 10.621C309.371 19.5466 304.361 31.6522 304.361 44.2746C304.362 56.897 309.372 69.0023 318.29 77.9275C327.208 86.8527 339.303 91.8667 351.914 91.8664C364.526 91.8661 376.621 86.8516 385.538 77.926L392.273 71.1857C368.632 84.9415 345.107 78.923 331.201 65.0051ZM459.439 92.1084C481.042 92.1084 495 81.3956 495 64.814C495 49.2681 484.083 43.6451 466.464 39.6205L455.672 37.2504C445.955 35.1004 440.687 32.6019 440.687 25.5558C440.687 18.372 447.376 13.7307 457.728 13.7307C467.387 13.7307 475.888 17.321 481.125 23.5995L492.333 14.5829C486.163 7.90585 475.28 0.107422 458.123 0.107422C438.738 0.107422 424.667 11.1414 424.667 26.3468C424.667 43.6991 438.86 48.9959 451.226 51.6718L463.204 54.308C472.673 56.3662 478.98 59.1889 478.98 66.2625C478.98 73.8652 472.145 78.2201 460.231 78.2201C447.236 78.2201 437.412 71.8315 433.296 65.3909L420.997 74.2536C427.332 82.942 440.675 92.1074 459.439 92.1074" fill="#A3B2C6"/>
</g>
<defs>
<clipPath id="clip0_1605_3202">
<rect width="495" height="92" fill="white"/>
</clipPath>
</defs>
</svg>
