<svg width="405" height="135" viewBox="0 0 405 135" fill="none" xmlns="http://www.w3.org/2000/svg">
<path fill-rule="evenodd" clip-rule="evenodd" d="M0.61686 55.7645L5.55127 32.17L19.3259 32.4725C23.5059 6.79415 40.8441 -3.05369 70.4153 0.81112L65.8924 24.305L54.7906 24.1035C49.2959 24.31 46.3576 27.2556 45.5388 32.4725L59.9302 32.3716L55.4071 55.6636L40.7073 55.8654L25.802 130.279L0 130.38L14.6998 55.6636L0.61686 55.7645ZM68.3807 31.3605H95.5188L85.1364 83.7929C83.0805 94.8845 80.9217 107.186 94.3882 109.505C98.1252 110.033 101.967 109.51 105.603 107.84C116.564 102.802 119.232 92.142 121.449 81.4434L131.806 31.4612L157.813 31.3605L137.871 129.672L114.022 129.974L115.05 125.134C99.1885 135.392 79.9002 134.019 68.3914 126.565C57.2138 118.835 54.6658 105.296 57.4683 88.1556L68.3807 31.3605ZM146.692 129.987L172.186 0.922367L197.782 1.02309L190.895 35.7092C203.873 27.8121 222.66 28.3026 236.021 35.0375C242.192 38.1478 248.219 43.3995 251.944 49.162C257.361 57.54 258.542 67.9034 258.74 82.2935C259.592 96.7114 268.973 110.576 286.534 107.911C296.508 106.398 304.399 101.437 308.725 92.2705C314.304 80.4482 312.23 65.4276 304.793 59.0014C296.124 51.4728 277.586 49.994 267.992 62.4297C266.149 53.8845 263.529 45.8007 257.712 38.734C280.818 21.3373 318.213 27.3333 331.965 51.882C340.273 66.7122 339.717 86.4395 331.801 102.42C325.146 115.857 313.082 126.216 298.407 130.401C285.91 133.965 272.409 133.067 261.357 128.396C252.175 124.516 243.54 116.923 239.165 107.981C231.813 92.9568 240.264 79.0012 229.752 62.2279C223.507 54.1114 210.786 51.4399 200.176 55.6156C191.209 59.1448 185.071 67.2628 183.09 76.4316C180.897 86.5827 183.082 98.2959 191.512 104.174C200.489 110.963 217.896 109.586 226.771 98.2249C227.883 107.014 230.796 115.215 237.667 122.122C225.194 133.046 189.387 138.524 173.728 121.92L172.186 129.886L146.692 129.987Z" fill="#A3B2C6"/>
<path fill-rule="evenodd" clip-rule="evenodd" d="M333.653 0L376.93 0.10063L379.398 26.9219L393.995 0.10063H404.685L381.145 39.425L372.099 39.5257L367.591 8.16719L352.979 8.2681L345.064 39.425L335.092 39.5257L342.7 8.36901L331.289 8.57055L333.653 0Z" fill="#A3B2C6"/>
</svg>
