<svg width="104" height="33" viewBox="0 0 104 33" fill="none" xmlns="http://www.w3.org/2000/svg">
<path d="M81.4569 14.5098C81.4552 14.5184 81.4901 14.5098 81.4541 14.5098V22.638H84.2779V14.5098C84.2087 14.5098 84.2779 14.5098 84.2696 14.5098C83.7453 14.5098 83.3733 14.5098 82.8386 14.5098C82.3254 14.5098 81.9379 14.5098 81.4569 14.5098Z" fill="#A3B2C6"/>
<path d="M84.3806 11.9443C84.3806 12.7926 83.6953 13.4803 82.85 13.4803C82.0047 13.4803 81.3193 12.7926 81.3193 11.9443C81.3193 11.0959 82.0047 10.4082 82.85 10.4082C83.6953 10.4082 84.3806 11.0959 84.3806 11.9443Z" fill="#A3B2C6"/>
<path fill-rule="evenodd" clip-rule="evenodd" d="M89.2418 20.178C89.2418 20.2179 89.2744 20.2503 89.3143 20.2503C89.9 20.2503 91.1815 20.1953 92.0971 19.4256C92.7564 18.8757 93.5474 17.831 93.5474 16.4747C93.5474 15.1552 92.7564 14.3122 92.2803 13.8356C91.3647 12.9191 90.1745 12.7909 89.3143 12.7909C89.2744 12.7909 89.2418 12.8233 89.2418 12.8632V20.178ZM89.6071 10.4082C91.218 10.4082 92.9214 10.6465 94.4227 12.0944C95.5032 13.1391 96.1802 14.5687 96.1802 16.4747C96.1802 18.3992 95.5209 19.7921 94.514 20.8002C92.8295 22.5046 90.7242 22.6328 89.6985 22.6328H86.4219V10.4082H89.6071Z" fill="#A3B2C6"/>
<path fill-rule="evenodd" clip-rule="evenodd" d="M89.3514 1.05128C87.0574 0.865643 84.7501 1.18545 82.5945 1.98789L82.2967 2.09882L83.2626 4.66017C83.5378 5.38953 84.3399 5.73063 85.059 5.53557C86.3433 5.18737 87.6818 5.06301 89.0137 5.17081C90.6982 5.3071 92.3318 5.81111 93.7971 6.64682C95.263 7.48249 96.5245 8.62927 97.4922 10.0052C98.2063 11.0201 98.7471 12.1412 99.0964 13.3236C99.3478 14.173 100.181 14.7929 101.103 14.6358L103.549 14.2186L103.495 13.9065C103.105 11.6525 102.219 9.51171 100.901 7.6371C99.5825 5.76246 97.8631 4.20021 95.8669 3.06181C93.8702 1.92341 91.6459 1.23691 89.3514 1.05128ZM80.0403 6.23213L78.4637 4.33857L78.2191 4.53926C76.4454 5.99693 75.0178 7.8257 74.0374 9.89501C73.057 11.9643 72.5488 14.2232 72.5488 16.5102C72.5488 18.7973 73.057 21.0561 74.0374 23.1254C75.0178 25.1947 76.4454 27.0235 78.2191 28.4812L78.4637 28.6818L80.0403 26.7883C80.6387 26.07 80.5136 25.0373 79.8964 24.3969C79.0389 23.5077 78.3303 22.4842 77.8 21.3649C77.0804 19.8462 76.7078 18.1886 76.7078 16.5102C76.7078 14.8319 77.0804 13.1741 77.8 11.6555C78.3303 10.5362 79.0389 9.51276 79.8964 8.62351C80.5136 7.98308 80.6387 6.95039 80.0403 6.23213ZM101.103 18.3641C100.181 18.207 99.3478 18.827 99.097 19.6764C98.7471 20.8588 98.2063 21.9799 97.4922 22.9948C96.5245 24.3707 95.263 25.5175 93.7971 26.3532C92.3318 27.1889 90.6982 27.6929 89.0142 27.8292C87.7698 27.9299 86.521 27.8281 85.3153 27.5306C84.4528 27.3179 83.4957 27.7225 83.1674 28.5932L82.2967 30.9012L82.5945 31.0121C84.7501 31.8145 87.0574 32.1343 89.3514 31.9487C91.6459 31.7631 93.8707 31.0766 95.8669 29.9382C97.8636 28.7998 99.5825 27.2375 100.901 25.3629C102.22 23.4883 103.105 21.3475 103.495 19.0935L103.549 18.7814L101.103 18.3641Z" fill="#A3B2C6"/>
<path fill-rule="evenodd" clip-rule="evenodd" d="M6.28958 15.9645H12.1734V16.0868C12.1734 17.5021 11.6577 19.6513 10.3422 20.9965C9.02699 22.3419 7.51596 22.5868 6.11161 22.5868C4.68969 22.5868 3.1609 22.3594 1.77433 20.9616C1.08125 20.2627 0.0322266 18.8475 0.0322266 16.5236C0.0322266 14.6192 0.743494 13.0989 1.73898 12.1031C3.19625 10.6179 4.99189 10.4082 6.39603 10.4082C7.37375 10.4082 8.61812 10.5655 9.72007 11.2818C10.5202 11.806 11.2135 12.6273 11.6399 13.3612L9.16937 14.6714C8.93809 14.2172 8.58275 13.7456 8.12035 13.4134C7.58726 13.0292 6.98287 12.8543 6.30735 12.8543C5.22299 12.8543 4.42304 13.2039 3.85399 13.7978C3.19625 14.4794 2.84093 15.4752 2.84093 16.5585C2.84093 17.8865 3.33887 18.7427 3.83621 19.2319C4.5297 19.9309 5.32965 20.1405 6.23627 20.1405C7.40929 20.1405 8.0315 19.7387 8.29816 19.5115C8.38701 19.4416 8.92032 18.9873 9.15144 18.1311H6.28958V15.9645Z" fill="#A3B2C6"/>
<path fill-rule="evenodd" clip-rule="evenodd" d="M17.2577 10.4082V20.2133H21.0667V22.5868H14.4238V10.4082H17.2577Z" fill="#A3B2C6"/>
<path fill-rule="evenodd" clip-rule="evenodd" d="M26.3604 13.9193C25.8449 14.4086 25.3116 15.2648 25.3116 16.5577C25.3116 17.6236 25.667 18.4796 26.396 19.1785C27.1604 19.8949 28.0137 20.1396 28.9379 20.1396C30.1466 20.1396 31.0001 19.7027 31.5688 19.1437C32.0309 18.7068 32.5998 17.8857 32.5998 16.5403C32.5998 15.3346 32.1021 14.4435 31.5688 13.9193C30.9824 13.3601 30.0402 12.9233 28.9558 12.9233C27.9246 12.9233 27.0004 13.2903 26.3604 13.9193ZM33.5597 12.1371C34.6797 13.2029 35.4083 14.7405 35.4083 16.5403C35.4083 18.0954 34.8397 19.6855 33.5597 20.9084C32.4576 21.9568 30.9644 22.6207 28.9736 22.6207C26.7515 22.6207 25.2405 21.7471 24.3517 20.9084C23.2142 19.86 22.5029 18.2876 22.5029 16.5752C22.5029 14.8978 23.2673 13.2029 24.3339 12.1545C25.1341 11.3682 26.6091 10.4424 28.9736 10.4424C30.8222 10.4424 32.3687 11.0015 33.5597 12.1371Z" fill="#A3B2C6"/>
<path fill-rule="evenodd" clip-rule="evenodd" d="M40.4974 20.3957H41.1847C41.9092 20.3957 42.7821 20.3774 43.3024 19.9027C43.5624 19.6653 43.7111 19.3184 43.7111 18.8802C43.7111 18.3872 43.5068 18.0585 43.321 17.8942C42.8194 17.4377 41.8535 17.4377 41.2776 17.4377H40.4974V20.3957ZM40.4974 15.3562H40.9618C41.3519 15.3562 42.002 15.3016 42.4105 15.0095C42.6708 14.8269 42.9123 14.4617 42.9123 13.9322C42.9123 13.4027 42.6522 13.074 42.4291 12.9097C42.0206 12.5993 41.4634 12.5993 40.9432 12.5993H40.4974V15.3562ZM41.4634 10.4082C42.1319 10.4082 43.6553 10.4449 44.6213 11.3394C45.4198 12.088 45.5127 13.1105 45.5127 13.6401C45.5127 14.1148 45.4384 14.6626 45.1041 15.1919C44.7883 15.7033 44.3613 15.959 44.064 16.0866C44.6585 16.1779 45.3272 16.4702 45.7728 16.9082C46.1815 17.3099 46.5716 18.0038 46.5716 19.0811C46.5716 20.3044 46.0886 21.0713 45.6056 21.546C44.584 22.5138 43.0978 22.5868 42.3365 22.5868H37.6738V10.4082H41.4634Z" fill="#A3B2C6"/>
<path fill-rule="evenodd" clip-rule="evenodd" d="M55.6683 18.1714L54.1372 14.0605L52.5874 18.1714H55.6683ZM56.4527 20.3368H51.7474L50.7949 22.6494H47.8076L52.8302 10.4082H55.4629L60.3736 22.6494H57.3866L56.4527 20.3368Z" fill="#A3B2C6"/>
<path fill-rule="evenodd" clip-rule="evenodd" d="M65.1023 10.4082V20.2133H69.2287V22.5868H62.0322V10.4082H65.1023Z" fill="#A3B2C6"/>
</svg>
