<svg width="387" height="116" viewBox="0 0 387 116" fill="none" xmlns="http://www.w3.org/2000/svg">
<path d="M304.407 50.5527C304.401 50.585 304.531 50.5527 304.396 50.5527V80.9681H314.953V50.5527C314.695 50.5527 314.953 50.5527 314.922 50.5527C312.962 50.5527 311.572 50.5527 309.572 50.5527C307.654 50.5527 306.205 50.5527 304.407 50.5527Z" fill="#A3B2C6"/>
<path d="M315.339 40.9529C315.339 44.1273 312.777 46.7007 309.617 46.7007C306.457 46.7007 303.895 44.1273 303.895 40.9529C303.895 37.7784 306.457 35.2051 309.617 35.2051C312.777 35.2051 315.339 37.7784 315.339 40.9529Z" fill="#A3B2C6"/>
<path fill-rule="evenodd" clip-rule="evenodd" d="M333.513 71.7629C333.513 71.9125 333.635 72.0336 333.784 72.0336C335.974 72.0336 340.765 71.8279 344.188 68.9474C346.653 66.8899 349.61 62.9807 349.61 57.9055C349.61 52.9682 346.653 49.8134 344.873 48.0301C341.45 44.6009 337 44.1209 333.784 44.1209C333.635 44.1209 333.513 44.2421 333.513 44.3917V71.7629ZM334.879 35.2051C340.901 35.2051 347.269 36.0966 352.882 41.5149C356.922 45.4241 359.453 50.7735 359.453 57.9055C359.453 65.1068 356.988 70.3191 353.223 74.0914C346.926 80.4689 339.055 80.9489 335.22 80.9489H322.971V35.2051H334.879Z" fill="#A3B2C6"/>
<path fill-rule="evenodd" clip-rule="evenodd" d="M333.922 0.191868C325.346 -0.502756 316.72 0.693937 308.662 3.69661L307.548 4.1117L311.16 13.6961C312.188 16.4253 315.187 17.7017 317.875 16.9718C322.677 15.6689 327.681 15.2035 332.66 15.6069C338.958 16.1169 345.065 18.0028 350.543 21.13C356.023 24.257 360.74 28.5482 364.357 33.6968C367.027 37.4945 369.049 41.6898 370.355 46.1139C371.294 49.2925 374.411 51.6123 377.855 51.0245L387 49.463L386.797 48.2954C385.342 39.8609 382.029 31.8503 377.102 24.8356C372.172 17.8208 365.744 11.975 358.281 7.71516C350.816 3.45533 342.501 0.886492 333.922 0.191868ZM299.113 19.5783L293.219 12.4927L292.304 13.2437C285.673 18.6982 280.336 25.5413 276.67 33.2845C273.005 41.0277 271.105 49.4802 271.105 58.0381C271.105 66.5962 273.005 75.0487 276.67 82.7919C280.336 90.5351 285.673 97.3783 292.304 102.833L293.219 103.584L299.113 96.4981C301.35 93.8104 300.882 89.9462 298.575 87.5497C295.369 84.2222 292.72 80.3925 290.737 76.2043C288.047 70.5214 286.654 64.3185 286.654 58.0381C286.654 51.758 288.047 45.5549 290.737 39.8721C292.72 35.6839 295.369 31.8542 298.575 28.5267C300.882 26.1302 301.35 22.266 299.113 19.5783ZM377.855 64.9755C374.411 64.3877 371.294 66.7074 370.357 69.8861C369.049 74.3102 367.027 78.5055 364.357 82.3032C360.74 87.4518 356.023 91.7429 350.543 94.87C345.065 97.9972 338.958 99.883 332.662 100.393C328.01 100.77 323.341 100.389 318.833 99.2759C315.609 98.4798 312.031 99.9941 310.804 103.252L307.548 111.888L308.662 112.303C316.72 115.306 325.346 116.503 333.922 115.808C342.501 115.113 350.818 112.545 358.281 108.285C365.746 104.025 372.172 98.1791 377.102 91.1644C382.031 84.1497 385.342 76.1391 386.799 67.7046L387 66.537L377.855 64.9755Z" fill="#A3B2C6"/>
<path fill-rule="evenodd" clip-rule="evenodd" d="M23.3934 55.9962H45.3904V56.454C45.3904 61.75 43.4624 69.7921 38.5443 74.8259C33.6273 79.8603 27.9782 80.7765 22.728 80.7765C17.4121 80.7765 11.6967 79.9258 6.51294 74.6952C3.9218 72.0798 0 66.7844 0 58.0886C0 50.9624 2.6591 45.2735 6.38077 41.5472C11.8288 35.9897 18.5419 35.2051 23.7913 35.2051C27.4466 35.2051 32.0987 35.7936 36.2184 38.4742C39.2097 40.4356 41.8016 43.5088 43.3958 46.2549L34.1596 51.1578C33.2949 49.458 31.9665 47.6933 30.2378 46.4502C28.2448 45.0127 25.9853 44.3581 23.4598 44.3581C19.4059 44.3581 16.4152 45.6664 14.2878 47.8886C11.8288 50.4394 10.5004 54.1655 10.5004 58.2193C10.5004 63.1884 12.362 66.3921 14.2213 68.2228C16.814 70.8382 19.8046 71.6229 23.1941 71.6229C27.5794 71.6229 29.9056 70.119 30.9025 69.2691C31.2347 69.0075 33.2285 67.3075 34.0925 64.1038H23.3934V55.9962Z" fill="#A3B2C6"/>
<path fill-rule="evenodd" clip-rule="evenodd" d="M64.3974 35.2051V71.8951H78.6373V80.7765H53.8027V35.2051H64.3974Z" fill="#A3B2C6"/>
<path fill-rule="evenodd" clip-rule="evenodd" d="M98.4292 48.3444C96.5019 50.1751 94.5083 53.379 94.5083 58.2173C94.5083 62.2056 95.8367 65.4086 98.5621 68.024C101.42 70.7049 104.61 71.6202 108.065 71.6202C112.584 71.6202 115.775 69.9855 117.901 67.8939C119.629 66.2588 121.755 63.1864 121.755 58.152C121.755 53.6404 119.895 50.3059 117.901 48.3444C115.709 46.2521 112.186 44.6175 108.132 44.6175C104.277 44.6175 100.822 45.9907 98.4292 48.3444ZM125.344 41.6755C129.531 45.6638 132.255 51.4174 132.255 58.152C132.255 63.9711 130.129 69.921 125.344 74.497C121.224 78.4201 115.641 80.9046 108.199 80.9046C99.8914 80.9046 94.2423 77.6354 90.9195 74.497C86.667 70.5739 84.0078 64.6903 84.0078 58.2827C84.0078 52.0059 86.8654 45.6638 90.853 41.7407C93.8444 38.7985 99.3589 35.334 108.199 35.334C115.11 35.334 120.891 37.4261 125.344 41.6755Z" fill="#A3B2C6"/>
<path fill-rule="evenodd" clip-rule="evenodd" d="M151.281 72.5776H153.85C156.559 72.5776 159.822 72.5092 161.767 70.7328C162.739 69.8446 163.295 68.5464 163.295 66.9066C163.295 65.062 162.531 63.832 161.837 63.2172C159.961 61.5091 156.35 61.5091 154.197 61.5091H151.281V72.5776ZM151.281 53.7201H153.017C154.475 53.7201 156.906 53.5159 158.433 52.4228C159.406 51.7396 160.309 50.3731 160.309 48.3916C160.309 46.4103 159.336 45.1805 158.502 44.5655C156.975 43.404 154.892 43.404 152.947 43.404H151.281V53.7201ZM154.892 35.2051C157.391 35.2051 163.087 35.3424 166.698 38.6896C169.683 41.4908 170.031 45.317 170.031 47.2985C170.031 49.075 169.753 51.1246 168.503 53.1053C167.322 55.0191 165.726 55.9757 164.615 56.4532C166.837 56.7948 169.337 57.8887 171.003 59.5278C172.531 61.0308 173.989 63.6272 173.989 67.6584C173.989 72.236 172.184 75.1056 170.378 76.882C166.558 80.5033 161.002 80.7765 158.156 80.7765H140.725V35.2051H154.892Z" fill="#A3B2C6"/>
<path fill-rule="evenodd" clip-rule="evenodd" d="M207.997 64.2544L202.273 48.8717L196.479 64.2544H207.997ZM210.929 72.3574H193.339L189.777 81.0108H178.609L197.386 35.2051H207.229L225.588 81.0108H214.421L210.929 72.3574Z" fill="#A3B2C6"/>
<path fill-rule="evenodd" clip-rule="evenodd" d="M243.267 35.2051V71.8951H258.693V80.7765H231.789V35.2051H243.267Z" fill="#A3B2C6"/>
</svg>
