<svg width="490" height="105" viewBox="0 0 490 105" fill="none" xmlns="http://www.w3.org/2000/svg">
<g clip-path="url(#clip0_1605_3280)">
<path d="M385.09 57.7391V50.2818L392.588 49.4223C393.474 49.2541 394.305 48.87 395.009 48.3039C395.712 47.7378 396.265 47.0071 396.62 46.1763L415.384 15.6183C415.72 15.2137 415.94 14.7251 416.021 14.2048C416.102 13.6845 416.04 13.152 415.842 12.6642C415.644 12.1763 415.318 11.7515 414.898 11.4351C414.477 11.1186 413.979 10.9224 413.456 10.8675L403.582 9.72707V2.16406H446.308C447.316 2.23178 448.293 2.54807 449.15 3.08477C450.007 3.62148 450.718 4.36198 451.22 5.24044L476.168 43.4364C478.135 46.51 479.642 48.8994 482.142 49.2276L489.995 50.101V57.7335H441.979V50.1983L448.088 49.4473C451.012 49.1135 453.406 47.7784 451.012 44.2125L448.702 40.7161H414.62L412.007 44.9635C410.377 47.5614 412.007 49.1135 414.506 49.4445L420.615 50.1955V57.7224H385.09M420.727 30.889H442.279L431.398 13.7603L420.724 30.8973" fill="#A3B2C6"/>
<path d="M353.257 2.16406H298.321V9.72707L305.227 10.4197C305.777 10.493 306.306 10.6749 306.785 10.9549C307.264 11.2348 307.682 11.6072 308.016 12.0504C308.35 12.4937 308.593 12.999 308.731 13.5369C308.868 14.0749 308.898 14.6349 308.818 15.1844V45.097C308.954 46.0891 308.705 47.0957 308.12 47.9079C307.535 48.7201 306.66 49.2754 305.677 49.4584L298.293 50.407V57.7085L353.257 57.7418C378.561 57.7418 389.433 45.4252 389.433 29.1561C389.433 14.5391 378.561 2.17522 353.257 2.17522M344.79 47.0691H330.628V12.7923H344.79C358.295 12.7923 363.979 15.9382 363.979 29.9043C363.979 43.9872 358.295 47.0691 344.79 47.0691" fill="#A3B2C6"/>
<path d="M0 57.7396H44.4536V50.3268L36.8419 49.4618C35.1035 49.2309 33.3568 48.1405 33.3568 44.4299V35.4845H67.5717V43.9877C67.5717 46.5133 67.1469 48.9026 64.1811 49.2309L56.4445 50.1043V57.7368H100.898V50.1043L93.0559 49.2309C91.5369 49.0111 89.7846 47.7956 89.7846 44.6525V15.7245C89.7846 12.7817 90.8565 10.7901 93.1586 10.5926L100.895 9.71922V2.15625H56.4473V9.61629L64.1839 10.5926C66.8025 10.9236 67.5745 12.9903 67.5745 15.7245V24.3473H33.3596V15.6022C33.3596 12.32 34.6676 10.7845 36.9474 10.5954L44.4452 9.72202V2.15901H0.0999792V9.72202L7.52278 10.5954C10.4719 10.9264 11.23 13.0988 11.1328 15.9304V44.1017C11.1328 47.2449 10.2636 49.1085 7.43115 49.4534L0.0111017 50.3185V57.7312" fill="#A3B2C6"/>
<path d="M103.086 29.677C103.086 12.234 117.14 -0.00195312 148.514 -0.00195312C179.691 -0.00195312 193.759 12.2368 193.759 29.677C193.759 47.5761 179.691 59.6925 148.514 59.6925C117.135 59.6925 103.086 47.5761 103.086 29.677ZM148.403 10.7069C135.776 10.7069 128.59 15.4105 128.59 29.8021C128.59 44.4302 135.774 49.1282 148.403 49.1282C161.033 49.1282 168.242 44.4302 168.242 29.8021C168.242 15.4105 161.041 10.7069 148.403 10.7069Z" fill="#A3B2C6"/>
<path d="M196.214 57.7405H231.734V50.3277L224.103 49.4626C223.038 49.3052 222.077 48.737 221.425 47.8795C220.773 47.022 220.481 45.9431 220.612 44.8731V16.6016L250.153 55.5653C250.714 56.2396 251.415 56.7832 252.206 57.1584C252.998 57.5336 253.862 57.7313 254.738 57.7377H282.608V15.6197C282.608 13.6337 283.119 10.9412 285.982 10.613L293.724 9.73959V2.17663H258.207V9.63667L265.96 10.613C268.678 10.944 269.331 13.2304 269.331 15.8367V43.3544L240.009 4.61047C239.505 3.8619 238.825 3.24845 238.029 2.82371C237.233 2.39897 236.346 2.17585 235.444 2.17383H196.214V9.73679L203.623 10.6102C206.23 10.9996 207.213 12.3236 207.213 15.9452V44.1165C207.213 47.4544 206.305 49.0426 203.506 49.4682L196.211 50.3332V57.746" fill="#A3B2C6"/>
<path d="M17.9863 81.4308H29.2497V104.545H33.3262V81.4308H44.4507V78.3711H17.9863V81.4308Z" fill="#A3B2C6"/>
<path d="M60.8519 84.0442C59.2423 83.9684 57.6394 84.2983 56.1902 85.004C54.741 85.7096 53.4918 86.7683 52.5571 88.083V78.3477H48.6055V104.55H52.5487V95.226C52.4091 94.1435 52.5067 93.0435 52.8348 92.0027C53.1629 90.9619 53.7135 90.0051 54.4484 89.1992C55.1832 88.3932 56.0846 87.7574 57.0898 87.336C58.095 86.9146 59.1798 86.7176 60.2687 86.759C64.212 86.759 66.2975 89.0565 66.2975 93.3929V104.561H70.2241V93.2065C70.2269 87.3013 66.8973 84.0442 60.8519 84.0442V84.0442Z" fill="#A3B2C6"/>
<path d="M156.846 86.0886C154.246 84.0251 150.972 83.0065 147.663 83.232C144.371 83.0509 141.132 84.1208 138.593 86.2277C136.575 88.3842 135.451 91.2295 135.451 94.1856C135.451 97.1417 136.575 99.987 138.593 102.144C141.156 104.194 144.39 105.213 147.663 105.003C155.577 105.003 159.934 101.137 159.934 94.1217C160.027 92.639 159.799 91.1536 159.266 89.7671C158.733 88.3807 157.908 87.1259 156.846 86.0886V86.0886ZM155.785 94.105C155.858 95.1877 155.697 96.2735 155.313 97.2883C154.929 98.3032 154.332 99.2232 153.561 99.9858C152.79 100.748 151.864 101.336 150.846 101.708C149.829 102.079 148.743 102.227 147.663 102.141C146.556 102.194 145.45 102.016 144.415 101.618C143.381 101.22 142.44 100.611 141.653 99.8294C140.259 98.2562 139.527 96.2039 139.609 94.1022C139.649 91.9796 140.518 89.9573 142.031 88.4701C143.543 86.9829 145.578 86.1497 147.697 86.1497C149.817 86.1497 151.852 86.9829 153.364 88.4701C154.877 89.9573 155.746 91.9796 155.785 94.1022V94.105Z" fill="#A3B2C6"/>
<path d="M274.038 86.0886C271.439 84.0251 268.164 83.0065 264.855 83.232C261.556 83.0528 258.31 84.1221 255.76 86.2277C254.703 87.239 253.873 88.4649 253.326 89.8233C252.779 91.1818 252.528 92.6415 252.589 94.105C252.589 101.123 256.943 104.986 264.855 104.986C268.136 105.2 271.38 104.187 273.958 102.144C275.974 99.9622 277.101 97.1035 277.116 94.1309C277.132 91.1584 276.035 88.288 274.041 86.0858L274.038 86.0886ZM258.821 88.3138C259.623 87.5521 260.572 86.962 261.609 86.5794C262.647 86.1969 263.751 86.0299 264.855 86.0886C265.944 85.9656 267.047 86.0875 268.083 86.4457C269.118 86.8039 270.061 87.3893 270.843 88.1591C271.624 88.9288 272.224 89.8636 272.598 90.8951C272.973 91.9267 273.113 93.029 273.008 94.1217C273.071 95.2048 272.903 96.2888 272.513 97.3012C272.124 98.3137 271.523 99.2311 270.751 99.992C269.979 100.753 269.054 101.34 268.037 101.713C267.02 102.087 265.935 102.238 264.855 102.157C263.776 102.239 262.693 102.088 261.677 101.715C260.662 101.341 259.738 100.754 258.969 99.9919C258.199 99.2302 257.602 98.312 257.217 97.2993C256.832 96.2866 256.669 95.2031 256.738 94.1217C256.64 91.9863 257.388 89.8985 258.821 88.3138V88.3138Z" fill="#A3B2C6"/>
<path d="M353.354 83.493C351.775 83.6342 350.261 84.1924 348.967 85.1105C347.674 86.0286 346.646 87.2739 345.99 88.7195V83.671H342.463V104.566H346.462V93.5733C346.479 92.6411 346.689 91.7227 347.08 90.8765C347.47 90.0303 348.032 89.2749 348.731 88.6583C350.212 87.3877 352.115 86.7189 354.065 86.7835L356.009 86.7474V83.4958H355.959C355.091 83.4477 354.222 83.4467 353.354 83.493V83.493Z" fill="#A3B2C6"/>
<path d="M121.765 78.339L109.871 78.3751V104.555H113.931V94.4913H122.315C125.216 94.6811 128.093 93.8476 130.446 92.1353C131.304 91.3946 131.985 90.47 132.438 89.43C132.891 88.39 133.105 87.2613 133.064 86.1273C133.103 85.205 132.956 84.2843 132.63 83.4209C132.304 82.5575 131.806 81.7693 131.168 81.1038C128.51 78.9963 125.138 78.0049 121.765 78.339V78.339ZM128.732 86.1578C128.732 89.8628 126.641 91.5151 121.968 91.5151H113.931V81.3263H121.687C126.491 81.3263 128.732 82.8645 128.732 86.1578Z" fill="#A3B2C6"/>
<path d="M333.166 81.7571C329.822 79.2384 325.675 78.0279 321.503 78.3525H309.84V104.58H321.653C325.681 104.827 329.666 103.626 332.889 101.192C335.384 98.59 336.8 95.1366 336.852 91.5292C336.904 87.9219 335.586 84.4293 333.166 81.7571V81.7571ZM313.98 81.3594H320.567C325.31 81.3594 328.384 82.1939 330.231 83.9212C331.136 84.9417 331.816 86.1415 332.227 87.4427C332.638 88.7438 332.77 90.1171 332.616 91.4731C332.616 98.2822 328.87 101.587 321.164 101.587H313.983L313.98 81.3594Z" fill="#A3B2C6"/>
<path d="M405.224 100.121V91.4561C405.377 90.3894 405.258 89.3013 404.879 88.2927C404.5 87.2842 403.873 86.388 403.055 85.6873C400.746 84.0147 397.944 83.1647 395.097 83.2729C391.953 83.2729 386.552 84.1797 385.538 88.5049H389.843C390.415 87.6596 391.207 86.9864 392.132 86.5576C393.058 86.1288 394.083 85.9606 395.097 86.0711C398.82 86.0711 401.384 87.7261 401.384 90.9304V91.6314H399.268H398.06C394.416 91.6314 388.912 91.776 386.269 94.4824C385.774 94.9923 385.386 95.5965 385.129 96.2592C384.872 96.922 384.751 97.6297 384.772 98.3404C384.772 102.235 388.124 104.985 393.103 104.985C394.692 105.207 396.311 104.998 397.793 104.381C399.274 103.763 400.563 102.758 401.525 101.472C401.541 102.51 401.61 103.546 401.731 104.577H405.51C405.335 103.098 405.239 101.61 405.224 100.121V100.121ZM401.384 95.2807C401.384 99.8841 399.004 102.207 394.091 102.207C390.759 102.207 388.929 100.78 388.929 98.3376C388.918 97.943 388.988 97.5505 389.134 97.1837C389.279 96.817 389.498 96.4837 389.776 96.2042C392.069 94.728 394.798 94.0867 397.507 94.3879H398.673H399.448H401.392L401.384 95.2807Z" fill="#A3B2C6"/>
<path d="M436.595 83.2778C434.972 83.25 433.379 83.7154 432.025 84.6126C430.671 85.5099 429.621 86.7969 429.012 88.304C428.497 86.848 427.549 85.5852 426.295 84.6863C425.041 83.7874 423.542 83.2958 422 83.2778C420.496 83.2351 419.012 83.6241 417.723 84.3989C416.433 85.1737 415.392 86.3019 414.721 87.6503C414.721 87.6503 414.702 85.7283 414.552 83.67H410.842C410.958 85.2304 410.975 87.1302 410.975 88.7713V104.57H414.899V94.5235C414.899 88.7964 418.043 86.1929 421.15 86.1929C424.396 86.1929 425.912 88.6545 425.912 93.9366V104.57H429.828V94.5235C429.727 93.29 429.887 92.0491 430.297 90.8817C430.707 89.7142 431.358 88.6464 432.208 87.7477C433.229 86.7874 434.565 86.2344 435.965 86.1929C436.734 86.1159 437.509 86.2613 438.198 86.6118C438.887 86.9623 439.461 87.5032 439.853 88.1705C440.691 90.0374 441.047 92.0851 440.889 94.1258V104.57H444.815V92.582C444.911 91.3038 444.753 90.0191 444.349 88.8026C443.946 87.586 443.306 86.4617 442.466 85.4947C441.685 84.7505 440.763 84.1709 439.755 83.7901C438.747 83.4093 437.672 83.2351 436.595 83.2778V83.2778Z" fill="#A3B2C6"/>
<path d="M465.141 93.2001L458.598 91.8482C455.499 91.2224 454.13 90.388 454.13 88.9805C454.13 87.0752 456.582 86.0821 460.153 86.0821C463.086 86.0821 465.182 86.8665 465.849 88.4993H470.12C469.984 87.6169 469.627 86.7835 469.081 86.0775C468.536 85.3715 467.82 84.816 467.001 84.4633C464.866 83.5952 462.574 83.1804 460.27 83.245C457.912 83.1527 455.57 83.6639 453.464 84.7303C452.53 85.1675 451.733 85.8525 451.159 86.711C450.586 87.5696 450.258 88.569 450.212 89.6008C450.212 92.3684 452.239 94.029 455.907 94.8245L462.1 96.1513C464.233 96.5991 466.429 97.2083 466.429 99.0135C466.429 101.183 464.158 102.234 460.042 102.234C456.638 102.234 454.577 101.255 453.891 99.2109H449.59C450.423 103.981 455.399 105.002 459.57 105.002C466.987 105.002 470.595 102.869 470.595 98.4767C470.595 95.5366 469.015 94.004 465.141 93.2001Z" fill="#A3B2C6"/>
<path d="M291.214 77.9519C289.236 77.7665 287.257 78.3039 285.643 79.4651C284.833 80.1575 284.235 81.0661 283.919 82.0853C283.536 83.4708 283.367 84.907 283.419 86.3438H279.143V89.181H283.419V104.571H287.421V89.181H294.641V86.3438H287.421C287.421 83.4315 287.557 82.4997 288.409 81.6847C288.875 81.3165 289.41 81.0456 289.983 80.8879C290.555 80.7303 291.153 80.6891 291.742 80.7668C292.793 80.7481 293.842 80.8659 294.863 81.1173V78.2384C293.657 78.0415 292.436 77.9456 291.214 77.9519V77.9519Z" fill="#A3B2C6"/>
<path d="M191.564 92.9395C190.783 95.4652 189.939 98.2857 188.906 101.815H188.887C188.054 98.9977 187.148 96.0743 186.229 93.1315L183.466 84.6533V84.6172H177.398L174.621 93.1315C173.688 95.9686 172.794 98.892 171.964 101.815H171.944C170.911 98.2773 170.067 95.4568 169.29 92.9395L166.718 84.6561V84.62H162.375L168.823 104.536V104.569H174.896L177.765 95.9464C177.994 95.2046 178.224 94.4713 178.454 93.7462C179.106 91.674 179.781 89.5266 180.417 87.3848H180.439C181.103 89.61 181.808 91.8603 182.494 94.0299L183.097 95.9492L185.951 104.544V104.577H192.025L198.467 84.6951L198.487 84.6283H194.141L191.564 92.9395Z" fill="#A3B2C6"/>
<path d="M239.023 83.4932C237.444 83.6344 235.93 84.1925 234.637 85.1107C233.343 86.0288 232.315 87.2741 231.659 88.7197V83.6712H228.135V104.566H232.134V93.5734C232.151 92.6411 232.362 91.7226 232.753 90.8764C233.144 90.0302 233.707 89.2749 234.405 88.6584C235.887 87.3874 237.79 86.7185 239.74 86.7837L241.684 86.7475V83.496H241.634C240.764 83.4476 239.893 83.4467 239.023 83.4932V83.4932Z" fill="#A3B2C6"/>
<path d="M220.053 86.1343C218.991 85.1467 217.742 84.382 216.38 83.8851C215.019 83.3883 213.572 83.1695 212.124 83.2415C210.608 83.0853 209.076 83.2691 207.639 83.7794C206.203 84.2897 204.897 85.1138 203.818 86.192C202.739 87.2702 201.913 88.5754 201.399 90.013C200.886 91.4507 200.698 92.9847 200.85 94.5039C200.786 95.8977 201.014 97.2894 201.518 98.5899C202.023 99.8904 202.793 101.071 203.78 102.056C206.078 104.057 209.051 105.107 212.094 104.993C214.443 105.022 216.761 104.447 218.825 103.324C220.513 102.467 221.806 100.992 222.435 99.2047H218.081C217.411 100.22 216.48 101.035 215.386 101.564C214.292 102.093 213.076 102.317 211.866 102.212C210.581 102.28 209.304 101.968 208.194 101.315C207.084 100.662 206.19 99.6972 205.623 98.5399C205.115 97.503 204.807 96.3789 204.715 95.2271H222.816V94.0171C222.909 92.5845 222.712 91.1479 222.237 89.7934C221.762 88.4388 221.019 87.1942 220.053 86.1343V86.1343ZM204.804 92.4178C204.995 90.6439 205.842 89.0059 207.179 87.826C208.515 86.6462 210.243 86.01 212.024 86.0425C212.892 85.9739 213.763 86.0894 214.583 86.3815C215.402 86.6735 216.151 87.1354 216.78 87.7372C217.409 88.3389 217.904 89.0669 218.233 89.8734C218.562 90.68 218.718 91.547 218.689 92.4178H204.804Z" fill="#A3B2C6"/>
<path d="M377.258 86.1343C376.196 85.1467 374.947 84.382 373.586 83.8851C372.224 83.3883 370.777 83.1695 369.329 83.2415C367.813 83.0853 366.281 83.2691 364.844 83.7794C363.408 84.2897 362.102 85.1138 361.023 86.192C359.944 87.2702 359.118 88.5754 358.604 90.013C358.091 91.4507 357.903 92.9847 358.055 94.5039C357.991 95.8977 358.219 97.2894 358.723 98.5899C359.228 99.8904 359.998 101.071 360.985 102.056C363.283 104.057 366.256 105.107 369.299 104.993C371.649 105.022 373.967 104.447 376.033 103.324C377.72 102.467 379.013 100.992 379.643 99.2047H375.289C374.619 100.22 373.687 101.036 372.593 101.565C371.499 102.094 370.282 102.318 369.071 102.212C367.786 102.28 366.509 101.968 365.399 101.316C364.289 100.663 363.395 99.6975 362.829 98.5399C362.319 97.5031 362.011 96.379 361.921 95.2271H380.021C380.06 94.3548 380.033 93.4808 379.94 92.6125C379.842 90.2026 378.891 87.9063 377.258 86.1343V86.1343ZM362.009 92.4178C362.2 90.6436 363.047 89.0052 364.383 87.8253C365.719 86.6453 367.448 86.0093 369.229 86.0425C370.097 85.9735 370.969 86.0887 371.788 86.3805C372.608 86.6724 373.357 87.1343 373.986 87.7362C374.615 88.338 375.11 89.0661 375.439 89.8729C375.768 90.6796 375.923 91.5469 375.894 92.4178H362.009Z" fill="#A3B2C6"/>
<path d="M94.1893 86.1343C93.1274 85.1466 91.8788 84.3817 90.5172 83.8849C89.1555 83.3881 87.7084 83.1693 86.2611 83.2415C84.7447 83.0853 83.2127 83.2691 81.7761 83.7794C80.3394 84.2897 79.0341 85.1138 77.9548 86.192C76.8755 87.2702 76.0492 88.5754 75.5358 90.013C75.0224 91.4507 74.8348 92.9847 74.9866 94.5039C74.9227 95.8977 75.1504 97.2894 75.6549 98.5899C76.1594 99.8904 76.9296 101.071 77.9163 102.056C80.2147 104.057 83.1873 105.107 86.2305 104.993C88.5807 105.022 90.8992 104.448 92.9646 103.324C94.6523 102.467 95.9453 100.992 96.5747 99.2047H92.2204C91.5504 100.221 90.6185 101.037 89.5236 101.566C88.4286 102.095 87.2111 102.318 86 102.212C84.7148 102.28 83.4379 101.968 82.3281 101.315C81.2182 100.662 80.3243 99.6972 79.7574 98.5399C79.2485 97.503 78.9404 96.3789 78.8493 95.2271H96.9496V94.0171C97.043 92.5847 96.8466 91.1482 96.3723 89.7936C95.898 88.4391 95.1555 87.1944 94.1893 86.1343V86.1343ZM78.941 92.4178C78.9809 92.0253 79.0552 91.6372 79.1631 91.2579C79.497 89.6833 80.3928 88.2847 81.6827 87.3245C82.9726 86.3644 84.5679 85.9085 86.1694 86.0425C87.0365 85.9739 87.9083 86.0894 88.7278 86.3815C89.5474 86.6735 90.2961 87.1354 90.9252 87.7372C91.5542 88.3389 92.0494 89.0669 92.3784 89.8734C92.7073 90.68 92.8626 91.547 92.8341 92.4178H78.941Z" fill="#A3B2C6"/>
</g>
<defs>
<clipPath id="clip0_1605_3280">
<rect width="490" height="105" fill="white"/>
</clipPath>
</defs>
</svg>
