<svg xmlns="http://www.w3.org/2000/svg" viewBox="0 0 1299.27 1301.63"><defs><style>.cls-1{fill:#A3B2C6;}</style></defs><g id="Layer_2" data-name="Layer 2"><g id="Layer_1-2" data-name="Layer 1"><path class="cls-1" d="M614.43.92c569.81-29.28,899.93,645.42,525.43,1076.1-147.69,173.92-388.44,256.62-612.09,213.22C-224,1126.64-152.61,63.2,614.43.92ZM845.55,281.74c-233.78,10.89-200.6,365,32.33,331.91C1084.38,585.78,1053.45,269.06,845.55,281.74ZM485.86,1065.65c243.41-4.74,208.42-373-32.51-331.24C256.84,769.54,284.62,1068.73,485.86,1065.65ZM768.45,898.5q0,77.75,0,155.48c-.07,3.32,1.49,4.91,4.84,4.86,17.66.05,35.33-.11,53,.07,4.54.06,6.5-1.67,6.13-6.18q-.06-48.22,0-96.48c0-7.28.28-7.52,7.66-7.53,53.31,1.35,116.88,1.58,149.59-48.38,47-79-10.58-164.13-100-161.93-37.65-.67-75.32-.27-113-.3-8.24,0-8.26,0-8.26,8.42ZM401,420.1q0-62.73,0-125.47c0-6.2-.3-6.51-6.52-6.52q-25.25,0-50.49,0c-7.33,0-7.59.25-7.59,7.61q0,152.71,0,305.43c0,7.37.33,7.7,7.56,7.7q47.75,0,95.48,0H583.91c9.19,0,9.19,0,9.19-9.41q0-19.74,0-39.49c0-7.72,0-7.74-7.76-7.74H409.88c-8.85,0-8.86,0-8.87-8.64Z"/><path class="cls-1" d="M862.19,558.5c-143.49,6.57-149-214.5-13.34-220C984.32,333.63,985.35,550.9,862.19,558.5Z"/><path class="cls-1" d="M469.21,1008.7C348,995.35,359.05,773.67,496,789,628.67,802.89,615.26,1021.48,469.21,1008.7Z"/><path class="cls-1" d="M832.43,843.24c0-14.83,0-29.66,0-44.48,0-6.87.31-7.25,7-7.12,24.88.68,51.73-3.47,74.62,8.63,52.08,30.92,21.51,96.88-34.6,94.87C815.47,894.43,835.73,906.39,832.43,843.24Z"/></g></g></svg>
