<svg width="178" height="37" viewBox="0 0 178 37" fill="none" xmlns="http://www.w3.org/2000/svg">
<path d="M29.2321 8.65784H22.1611V1.5918H8.06104V8.65784H0.996094V22.7578H8.06213V8.65784H22.1621V22.7578H8.06213V36.8578H15.1281V29.8228H22.1631V22.7578H29.228L29.2321 8.65784Z" fill="#BFCCDA"/>
<path d="M133.283 23.0881C133.283 25.8511 131.298 28.0311 127.523 28.0311C124.448 28.0311 121.451 26.4311 121.451 21.4531V11.5962H118.26V8.65613H121.451V2.53516H125.227V8.65613H131.416V11.5962H125.227V21.7241C125.227 23.8651 126.278 24.7241 127.563 24.7241C127.862 24.753 128.164 24.7193 128.45 24.625C128.735 24.5307 128.998 24.378 129.221 24.1766C129.445 23.9752 129.624 23.7296 129.747 23.4552C129.87 23.1809 129.935 22.8838 129.937 22.5831L133.283 23.0881Z" fill="#A3B2C6"/>
<path d="M53.5319 28.5689C52.154 28.6207 50.7854 28.3231 49.5535 27.7038C48.3215 27.0845 47.2662 26.1637 46.4858 25.0269V36.8599H42.7109V8.67889H46.4858V11.7929C47.2663 10.6563 48.3217 9.73563 49.5536 9.11652C50.7855 8.4974 52.1541 8.19997 53.5319 8.25189C59.3699 8.25189 63.1849 12.8449 63.1849 18.4109C63.1849 23.9769 59.3699 28.5689 53.5319 28.5689ZM53.0649 25.2219C57.1129 25.2219 59.4089 22.1079 59.4089 18.4099C59.4089 14.7119 57.1089 11.598 53.0649 11.598C51.2904 11.646 49.6046 12.3848 48.3665 13.6569C47.1283 14.9291 46.4354 16.6341 46.4354 18.4094C46.4354 20.1846 47.1283 21.8898 48.3665 23.1619C49.6046 24.4341 51.2904 25.1728 53.0649 25.2209V25.2219Z" fill="#A3B2C6"/>
<path d="M70.0729 8.67969H66.2969V28.1417H70.0729V8.67969Z" fill="#A3B2C6"/>
<path d="M83.6227 20.3958L77.2007 28.1417H72.7227L81.0917 18.0607L73.2687 8.67969H77.5116L83.6227 15.8798L89.7336 8.67969H93.9757L86.1527 18.0607L94.5206 28.1417H90.0447L83.6227 20.3958Z" fill="#A3B2C6"/>
<path d="M104.479 8.25189C105.857 8.19997 107.225 8.4974 108.457 9.11652C109.689 9.73563 110.745 10.6563 111.525 11.7929V8.67889H115.3V28.1409H111.525V25.0269C110.745 26.1637 109.69 27.0845 108.458 27.7038C107.226 28.3231 105.857 28.6207 104.479 28.5689C98.6411 28.5689 94.8262 23.9759 94.8262 18.4099C94.8262 12.8439 98.6391 8.25189 104.479 8.25189ZM104.946 11.5989C100.898 11.5989 98.6012 14.7128 98.6012 18.4108C98.6012 22.1088 100.901 25.2228 104.946 25.2228C106.721 25.1748 108.406 24.436 109.645 23.1639C110.883 21.8917 111.576 20.1867 111.576 18.4114C111.576 16.6362 110.883 14.931 109.645 13.6589C108.406 12.3867 106.721 11.648 104.946 11.5999V11.5989Z" fill="#A3B2C6"/>
<path d="M154.07 24.9511C153 26.1409 151.682 27.0817 150.209 27.7071C148.737 28.3326 147.145 28.6275 145.546 28.5711C138.773 28.5711 134.569 24.0171 134.569 18.4901C134.561 17.1237 134.828 15.7699 135.354 14.509C135.881 13.2481 136.656 12.1061 137.633 11.151C138.61 10.1958 139.769 9.44723 141.042 8.94954C142.314 8.45185 143.674 8.2153 145.039 8.25411C150.177 8.25411 154.965 11.5621 154.965 18.7631H138.346C138.23 22.5391 141.264 25.2252 145.585 25.2252C147.944 25.2313 150.221 24.3569 151.969 22.7731L154.07 24.9511ZM138.695 15.8421H151.072C150.74 14.5426 149.962 13.4012 148.873 12.6184C147.784 11.8355 146.454 11.4612 145.116 11.5611C143.728 11.489 142.353 11.8666 141.196 12.6378C140.039 13.409 139.162 14.5327 138.695 15.8421V15.8421Z" fill="#A3B2C6"/>
<path d="M166.678 8.25195C168.056 8.20014 169.425 8.49777 170.657 9.11707C171.889 9.73636 172.944 10.6572 173.724 11.7939V0H177.499V28.142H173.724V25.028C172.944 26.1647 171.889 27.0857 170.657 27.705C169.425 28.3243 168.056 28.6218 166.678 28.5699C160.84 28.5699 157.025 23.977 157.025 18.411C157.025 12.845 160.84 8.25195 166.678 8.25195ZM167.146 11.599C163.097 11.599 160.801 14.713 160.801 18.411C160.801 22.109 163.101 25.223 167.146 25.223C168.928 25.1856 170.624 24.4516 171.871 23.1782C173.118 21.9049 173.817 20.1937 173.817 18.4115C173.817 16.6293 173.118 14.9181 171.871 13.6448C170.624 12.3714 168.928 11.6374 167.146 11.6V11.599Z" fill="#A3B2C6"/>
<path d="M70.0768 1.5918H66.3008V5.3678H70.0768V1.5918Z" fill="#BFCCDA"/>
</svg>
