<svg width="134" height="33" viewBox="0 0 134 33" fill="none" xmlns="http://www.w3.org/2000/svg">
<path fill-rule="evenodd" clip-rule="evenodd" d="M90.4597 22.0425H83.1599L90.4639 9.3916H80.4517V10.9552H87.7554L80.4512 23.6061H89.5569L90.4597 22.0425Z" fill="#A3B2C6"/>
<path fill-rule="evenodd" clip-rule="evenodd" d="M110.302 9.3916H100.352V10.9554H109.399L110.302 9.3916Z" fill="#A3B2C6"/>
<path fill-rule="evenodd" clip-rule="evenodd" d="M110.302 15.7158H100.352V17.2794H109.399L110.302 15.7158Z" fill="#A3B2C6"/>
<path fill-rule="evenodd" clip-rule="evenodd" d="M110.302 22.0439H100.352V23.6075H109.399L110.302 22.0439Z" fill="#A3B2C6"/>
<path fill-rule="evenodd" clip-rule="evenodd" d="M130.203 13.7779V12.8943C130.203 10.9597 128.635 9.3916 126.701 9.3916H120.252V23.6063H121.816V17.2806H124.746L128.398 23.6063H130.203L126.551 17.2806H126.701C128.635 17.2806 130.203 15.7126 130.203 13.7779ZM121.816 10.9554H126.701C127.77 10.9554 128.64 11.8248 128.64 12.8943V13.7779C128.64 14.8467 127.77 15.7168 126.701 15.7168H121.816V10.9554Z" fill="#A3B2C6"/>
<path fill-rule="evenodd" clip-rule="evenodd" d="M50.6038 13.7779V12.8943C50.6038 10.9597 49.0352 9.3916 47.101 9.3916H40.6523V23.6063H42.2159V17.2806H45.1461L48.7985 23.6063H50.6038L46.9521 17.2806H47.101C49.0352 17.2806 50.6038 15.7126 50.6038 13.7779ZM42.2159 10.9554H47.101C48.1701 10.9554 49.0402 11.8248 49.0402 12.8943V13.7779C49.0402 14.8467 48.1701 15.7168 47.101 15.7168H42.2159V10.9554Z" fill="#A3B2C6"/>
<path fill-rule="evenodd" clip-rule="evenodd" d="M61.4483 23.6061L65.5054 13.5654L69.5618 23.6061H71.2481L65.5054 9.3916L59.7617 23.6061H61.4483Z" fill="#A3B2C6"/>
<path fill-rule="evenodd" clip-rule="evenodd" d="M130.975 9.57129H131.971V9.76855H131.586V10.9511H131.363V9.76855H130.975V9.57129Z" fill="#A3B2C6"/>
<path fill-rule="evenodd" clip-rule="evenodd" d="M133.345 9.5752L133.041 10.6545L132.736 9.5752H132.352V10.9533H132.573V9.81958H132.602L132.925 10.8971H133.156L133.479 9.81958H133.508V10.9533H133.731V9.5752H133.345Z" fill="#A3B2C6"/>
<path fill-rule="evenodd" clip-rule="evenodd" d="M23.5801 30.4854V30.5492H23.706V30.932H23.7783V30.5492H23.9025V30.4854H23.5801Z" fill="#A3B2C6"/>
<path fill-rule="evenodd" clip-rule="evenodd" d="M24.3471 30.4854L24.2486 30.8352L24.1501 30.4854H24.0254V30.9312H24.0972V30.5644H24.1069L24.2117 30.9135H24.2857L24.3905 30.5644H24.4002V30.9312H24.4725V30.4854H24.3471Z" fill="#A3B2C6"/>
<path fill-rule="evenodd" clip-rule="evenodd" d="M16.6038 14.9248C16.2674 14.9261 15.7916 15.0921 15.3741 15.4827C14.8362 15.9834 14.3599 16.75 14.2188 17.5665C14.8332 17.3116 16.2155 16.9193 16.8582 16.3498C17.6866 15.6153 17.2208 14.9231 16.6038 14.9248ZM16.5522 15.9744C16.2083 16.2889 15.3674 16.6071 15.0073 16.7622C15.1886 16.4094 15.418 16.0991 15.7025 15.8338C16.0397 15.5193 16.3587 15.3909 16.5337 15.3724C16.7868 15.3458 16.9432 15.6161 16.5522 15.9744Z" fill="#A3B2C6"/>
<path fill-rule="evenodd" clip-rule="evenodd" d="M30.3406 2.24582C30.304 2.18248 30.2529 2.12712 30.191 2.08572C30.2175 1.96776 30.1982 1.84432 30.1379 1.74033C30.107 1.68597 30.0643 1.63734 30.012 1.59769C29.8174 1.45006 29.5429 1.472 29.3738 1.64831L29.105 1.92961L28.5997 2.1321C28.4441 2.07549 28.2658 2.06751 28.0808 2.11315C27.983 2.13809 27.9536 2.1326 27.8661 2.11564C27.6768 2.07923 27.4795 2.05604 27.1616 2.16003C27.0509 2.15405 26.9207 2.17101 26.7187 2.23859C26.4648 2.32188 26.3147 2.51664 26.2045 2.65829C26.191 2.67599 26.174 2.69794 26.1588 2.71664C25.4666 2.8937 25.1658 3.27649 25.0351 3.57275C24.9955 3.66278 24.9663 3.75655 24.9474 3.85256C24.8117 3.75405 24.6743 3.66951 24.5404 3.60866C23.7361 3.23934 22.6995 3.39221 21.9613 3.98896C21.1758 4.62413 20.8631 5.60293 21.1022 6.67526C21.1977 7.10294 21.3718 7.53187 21.6346 7.98698C22.1803 8.93187 23.006 9.80544 23.805 10.6501C24.51 11.3955 25.1755 12.0992 25.5566 12.7581C25.5803 12.799 25.6027 12.8404 25.6234 12.8798C26.1182 13.8204 26.0269 14.5117 25.3514 14.9351C25.1052 15.0902 24.8556 15.1591 24.6389 15.184C24.8775 14.488 24.982 13.5114 24.4576 12.6037C24.3543 12.4246 24.2289 12.2538 24.0848 12.0962C23.0972 11.0139 22.0496 11.2548 21.6334 11.5334C21.4478 11.6568 21.3718 11.8917 21.4496 12.1012C21.4593 12.1266 21.4708 12.1511 21.4838 12.174C21.5793 12.3391 21.7653 12.4346 21.9588 12.4107C22.3975 12.3571 22.8813 12.6493 23.1628 13.1366C23.2798 13.3386 23.5798 13.9852 23.1508 14.6917C22.88 14.4775 22.6561 14.2379 22.4798 14.0486C22.4498 14.0169 22.4219 13.9872 22.3957 13.9593C22.383 13.9458 22.3666 13.9276 22.3466 13.9049C21.5269 13.0064 20.7244 12.5002 19.9523 12.3937C19.9468 11.8017 19.7758 11.1847 19.4449 10.5805C19.0513 9.86329 18.4496 9.20693 17.7511 8.73287C17.6299 8.65082 17.5234 8.58748 17.4194 8.53312C17.1516 6.50219 15.8132 5.45031 14.6104 5.14258C13.172 4.77326 11.7184 5.33186 10.9082 6.56503C10.8388 6.67027 10.77 6.78174 10.7042 6.89546C10.0959 7.94932 9.74606 9.17701 9.40766 10.3645C9.11988 11.3748 8.84806 12.3281 8.44282 13.0945C8.41888 13.1391 8.39469 13.1835 8.36975 13.2254C8.10018 13.6932 7.86227 13.9508 7.6104 14.0321C7.48995 14.071 7.3306 14.0815 7.14257 13.9538C6.8882 13.7803 6.9503 13.4244 7.17474 12.7424C7.23982 12.5438 7.30142 12.3566 7.3311 12.1832C7.40965 11.7331 7.32012 11.3124 7.07873 11.0005C6.8498 10.7037 6.50067 10.5209 6.09493 10.487C5.7079 10.4541 5.1488 10.5837 4.68446 11.3875C4.64381 11.4573 4.61089 11.5202 4.5847 11.5713C4.51288 11.3947 4.41313 11.1581 4.18869 11.0005C4.01413 10.877 3.89343 10.8229 3.7847 10.7967C3.51014 10.6057 3.31487 10.5695 3.12335 10.5488C3.03632 10.5399 3.00041 10.5356 2.90914 10.4832C2.73507 10.3835 2.54704 10.3441 2.37123 10.3633L1.9655 10.0441L1.78594 9.69895C1.67223 9.47925 1.41063 9.38199 1.1807 9.47327C1.07671 9.51466 0.994419 9.58898 0.94205 9.6795C0.905641 9.74334 0.883198 9.81466 0.87821 9.88873C0.763247 9.92539 0.66599 10.0037 0.60564 10.1079C0.574468 10.162 0.55327 10.2229 0.544791 10.2887C0.514367 10.5306 0.670727 10.7576 0.908134 10.8162L1.28569 10.9084L1.71362 11.2438C1.7428 11.4069 1.82484 11.5658 1.95701 11.7024C2.02809 11.775 2.03781 11.8034 2.06699 11.8875C2.12983 12.07 2.20814 12.2526 2.45702 12.476C2.50764 12.575 2.58719 12.679 2.74729 12.8202C2.9463 12.998 3.18969 13.0314 3.36724 13.0551C3.38919 13.0581 3.41712 13.0618 3.44081 13.066C3.94031 13.5765 4.42236 13.6458 4.74406 13.6104C4.84156 13.6002 4.93757 13.5783 5.03059 13.5466C5.01239 13.7134 5.00889 13.8745 5.02211 14.0212C5.10416 14.9027 5.75528 15.7237 6.64182 16.0651C7.58422 16.4276 8.5887 16.2092 9.39744 15.4655C9.71988 15.1693 10.0047 14.8042 10.2668 14.3491C10.8127 13.4037 11.1563 12.2521 11.488 11.1379C11.7805 10.1548 12.0573 9.22563 12.4383 8.56678C12.462 8.52588 12.4857 8.48598 12.5102 8.44758C13.0772 7.54957 13.7214 7.28299 14.4259 7.65581C14.6832 7.79147 14.8678 7.97301 14.998 8.14858C14.275 8.28997 13.3777 8.68798 12.8538 9.59546C12.7506 9.77451 12.6653 9.96853 12.6007 10.1723C12.1573 11.568 12.8897 12.3553 13.3393 12.5768C13.5388 12.6755 13.7805 12.6236 13.9221 12.4521C13.9398 12.4309 13.9551 12.4089 13.9685 12.3857C14.064 12.2209 14.0536 12.0117 13.9361 11.8558C13.6703 11.5029 13.6812 10.9379 13.963 10.4503C14.0792 10.2483 14.4892 9.66504 15.3154 9.68324C15.2655 10.0251 15.17 10.3384 15.094 10.586C15.0812 10.6274 15.0698 10.6665 15.0588 10.7037C15.0533 10.7211 15.0461 10.7448 15.0369 10.7728C14.6675 11.9319 14.6304 12.8805 14.9244 13.602C14.4149 13.9027 13.966 14.3596 13.6082 14.9486C13.1835 15.6476 12.9159 16.497 12.8551 17.3396C12.8441 17.485 12.8428 17.6092 12.8478 17.7259C11.2226 18.9733 10.9817 20.6586 11.3156 21.8541C11.7154 23.2845 12.9256 24.2641 14.3984 24.3491C14.5251 24.3566 14.6553 24.3608 14.7867 24.3608C16.0042 24.3608 17.2423 24.0494 18.4396 23.7489C19.4583 23.4932 20.4194 23.2516 21.2868 23.2194C21.3371 23.2177 21.387 23.2169 21.4364 23.2169C21.976 23.2169 22.3179 23.2942 22.5144 23.4718C22.608 23.5566 22.6975 23.689 22.6805 23.9159C22.6573 24.2227 22.3184 24.3469 21.6152 24.494C21.4107 24.5366 21.2179 24.5768 21.0528 24.6376C20.6239 24.7945 20.3047 25.0823 20.1543 25.4474C20.0119 25.7943 20.0291 26.1878 20.2017 26.5566C20.3673 26.9082 20.7586 27.3282 21.6868 27.3282C21.7678 27.3282 21.8391 27.3249 21.8962 27.3219C21.7788 27.4728 21.6244 27.6773 21.5992 27.9506C21.5798 28.1641 21.5932 28.295 21.6254 28.4025C21.597 28.7354 21.6638 28.9227 21.7416 29.0985C21.777 29.1788 21.7915 29.2125 21.7922 29.3177C21.7922 29.5177 21.8518 29.7002 21.9566 29.8434L21.8835 30.3544L21.6735 30.6823C21.5409 30.8903 21.5873 31.1661 21.7813 31.3187C21.8693 31.388 21.9748 31.4229 22.0793 31.4229C22.1523 31.4229 22.2254 31.4057 22.2922 31.3728C22.381 31.4549 22.498 31.5 22.6184 31.5C22.6805 31.5 22.7444 31.4878 22.8052 31.4623C23.0304 31.3673 23.1484 31.1185 23.0803 30.8838L22.9713 30.51L23.0486 29.9723C23.175 29.8658 23.2708 29.715 23.3234 29.5319C23.3508 29.4344 23.371 29.412 23.4294 29.3444C23.5553 29.199 23.6745 29.0396 23.7434 28.7122C23.8037 28.6192 23.8541 28.4982 23.8967 28.2895C23.9509 28.0277 23.8578 27.8007 23.7898 27.6347C23.7818 27.614 23.7708 27.588 23.7623 27.5653C23.9551 26.8778 23.7738 26.4257 23.5828 26.1641C23.5249 26.085 23.4581 26.0132 23.3838 25.9481C23.5371 25.8805 23.6795 25.8035 23.7995 25.7182C24.5217 25.2065 24.9075 24.2319 24.7593 23.2942C24.6017 22.2965 23.9107 21.5359 22.8623 21.2075C22.4451 21.0758 21.9863 21.0119 21.4606 21.0119C20.369 21.0119 19.1997 21.2912 18.0693 21.5608C17.0715 21.7987 16.1284 22.0232 15.3673 22.0232C15.3204 22.0232 15.2735 22.0219 15.2286 22.0207C14.1668 21.9788 13.6137 21.5536 13.5845 20.7571C13.5735 20.4663 13.6388 20.2162 13.7256 20.0154C14.2087 20.5703 15.0022 21.1489 16.0503 21.1489C16.2573 21.1489 16.4678 21.1259 16.6765 21.0795C18.1074 20.7656 18.4227 19.7374 18.3897 19.2379C18.3753 19.0159 18.2099 18.8326 17.9902 18.795C17.9628 18.7907 17.9359 18.7882 17.9092 18.7882C17.7194 18.7882 17.5428 18.9015 17.467 19.0815C17.294 19.488 16.7995 19.7611 16.2361 19.7611C16.0029 19.7611 15.293 19.6977 14.8957 18.9733C15.2164 18.8456 15.5356 18.7718 15.7882 18.7134C15.8304 18.7037 15.8703 18.6945 15.9074 18.6853C15.9256 18.6813 15.9496 18.6758 15.9788 18.6695C17.1675 18.4097 18.0067 17.9676 18.4847 17.3523C19.0002 17.6431 19.6202 17.8037 20.3089 17.8189C21.1264 17.8366 21.996 17.6444 22.7566 17.2763C22.888 17.2124 22.9957 17.1516 23.0947 17.089C24.9875 17.8725 26.5676 17.2386 27.4359 16.3516C28.4746 15.2905 28.7179 13.7523 28.0554 12.4339C27.9987 12.3207 27.9366 12.2057 27.8708 12.0925C27.2626 11.0381 26.3736 10.1214 25.5144 9.23486C24.7838 8.48099 24.0937 7.76852 23.6334 7.03411C23.6065 6.99097 23.5803 6.94832 23.5561 6.90568C23.286 6.43785 23.1818 6.10318 23.2371 5.84458C23.2641 5.72064 23.3339 5.5775 23.5389 5.47825C23.8164 5.34508 24.0932 5.5765 24.572 6.11191C24.7114 6.26752 24.8429 6.41466 24.9778 6.52737C25.3284 6.81989 25.7371 6.95256 26.1284 6.90019C26.5002 6.85032 26.8329 6.6386 27.0653 6.30468C27.2875 5.98573 27.4548 5.43685 26.9905 4.63261C26.9504 4.56278 26.9122 4.50293 26.881 4.45505C27.0703 4.48049 27.3244 4.51291 27.5733 4.3972C27.7681 4.30792 27.8746 4.23061 27.9519 4.14906C28.2549 4.00717 28.3833 3.8558 28.497 3.69994C28.5489 3.62936 28.5701 3.60019 28.6613 3.54732C28.8347 3.44682 28.9631 3.30318 29.0342 3.14133L29.5137 2.94981L29.9017 2.96677C30.1489 2.97849 30.3643 2.80018 30.4002 2.55554C30.416 2.44482 30.393 2.33634 30.3406 2.24582ZM29.4317 2.46427L28.6125 2.7922C28.6357 2.91141 28.5726 3.04208 28.4197 3.13111C28.0254 3.35979 28.1721 3.5346 27.6903 3.73884C27.5923 3.78024 27.6758 3.82039 27.3721 3.96054C27.1608 4.05829 26.8439 3.93061 26.6815 3.96403C26.505 4.00044 26.1461 4.1952 26.4272 4.63934C26.5531 4.83884 27.0361 5.50443 26.6706 6.02962C26.3511 6.48847 25.795 6.58274 25.2865 6.15805C24.8277 5.77475 24.184 4.6346 23.3301 5.04533C22.4451 5.47101 22.703 6.45805 23.2257 7.28972C24.3269 9.04484 26.6035 10.6164 27.6252 12.6498C28.8785 15.1439 26.2434 18.0623 23.0436 16.5394C22.8783 16.6613 22.7419 16.7488 22.5466 16.8431C21.1723 17.5082 19.392 17.5563 18.3346 16.6661C17.8411 17.8416 16.0955 18.1464 15.7967 18.2169C15.4341 18.3035 14.8311 18.4219 14.2792 18.7354C14.8877 20.7499 17.364 20.5533 17.9097 19.2695C17.9097 19.2695 17.978 20.3015 16.5733 20.6099C15.0897 20.9359 14.0408 19.8067 13.7184 19.1643C13.3867 19.508 13.0777 20.0788 13.1034 20.7748C13.1349 21.6369 13.6763 22.4406 15.2089 22.5015C17.288 22.5835 20.5177 20.9755 22.7189 21.6661C24.7 22.288 24.6651 24.5142 23.5207 25.3257C23.1434 25.5935 22.4439 25.782 21.988 25.8065C21.7576 25.8184 21.7446 25.9252 21.7636 25.9865C21.7892 26.0693 21.9132 26.0711 22.1134 26.0521C22.8429 25.9815 23.6267 26.407 23.278 27.5062C23.2232 27.6778 23.4728 27.9638 23.4252 28.1908C23.3588 28.5194 23.3012 28.4476 23.284 28.5529C23.1957 29.0688 22.984 28.9628 22.8606 29.4017C22.8089 29.5805 22.7037 29.6491 22.6062 29.6638L22.4803 30.5449L22.6184 31.0187L22.3922 30.618L22.0793 30.9414L22.3446 30.5259L22.4705 29.6529C22.3551 29.6132 22.2735 29.4935 22.2735 29.3165C22.2723 28.8601 22.0476 28.9002 22.1117 28.3805C22.1244 28.2748 22.0483 28.3272 22.0788 27.9943C22.0995 27.7626 22.3683 27.5526 22.4207 27.395C22.4773 27.2234 22.4882 26.8152 21.9631 26.8364C21.7272 26.8461 20.9094 26.9314 20.6374 26.3521C20.4 25.8466 20.596 25.3172 21.2184 25.0898C21.7795 24.8833 23.0895 24.8962 23.1606 23.9521C23.2341 22.9718 22.2503 22.7022 21.269 22.7386C19.198 22.8147 16.6985 24.0005 14.4266 23.8691C11.6406 23.7075 10.4304 19.9663 13.3491 17.9566C13.3259 17.7521 13.3186 17.5902 13.3344 17.3743C13.4458 15.8508 14.2945 14.2852 15.5947 13.8144C14.8234 12.7995 15.4316 11.1361 15.5199 10.8411C15.6264 10.4845 15.8254 9.90294 15.8296 9.26828C13.7805 8.78823 12.7134 11.0309 13.5516 12.1448C13.5516 12.1448 12.6239 11.6885 13.0595 10.3177C13.5189 8.86977 15.0211 8.52588 15.7389 8.56803C15.6064 8.10917 15.2668 7.55606 14.6511 7.23012C13.8887 6.82663 12.9221 6.89346 12.1029 8.19072C10.9927 9.94983 10.77 13.5503 9.072 15.1114C7.54282 16.5164 5.63184 15.3738 5.50166 13.9768C5.45852 13.5157 5.64456 12.8154 5.85129 12.4089C5.95603 12.2032 5.87025 12.1389 5.80765 12.1241C5.72311 12.1054 5.65902 12.2117 5.57648 12.3942C5.27299 13.0618 4.51238 13.5271 3.73482 12.676C3.61313 12.5429 3.24081 12.6159 3.06799 12.4613C2.81662 12.2391 2.90789 12.2251 2.8251 12.1576C2.42235 11.8236 2.62011 11.6927 2.30191 11.3668C2.17298 11.2329 2.16624 11.1069 2.20141 11.0157L1.5019 10.4655L1.02235 10.3481L1.4822 10.3531L1.35876 9.9204L1.58594 10.3578L2.27871 10.9029C2.37048 10.8234 2.51562 10.8124 2.66949 10.9007C3.065 11.1276 3.14206 10.9134 3.56001 11.2286C3.6453 11.2925 3.63807 11.2007 3.91113 11.3935C4.10166 11.5274 4.14904 11.8655 4.25977 11.989C4.37972 12.1241 4.72785 12.3376 4.97174 11.8718C5.08121 11.663 5.41638 10.9122 6.05403 10.9663C6.61064 11.0132 6.971 11.4481 6.85728 12.1005C6.75504 12.6895 6.0887 13.8174 6.87125 14.3511C7.68347 14.9047 8.40791 14.188 8.86801 13.3197C9.83709 11.4885 10.0598 8.73087 11.3097 6.82912C12.8428 4.49695 16.6882 5.31964 16.9693 8.85207C17.1571 8.93411 17.3015 9.00918 17.4803 9.13062C18.7441 9.98848 19.6755 11.5067 19.4334 12.867C20.6982 12.7069 21.8346 14.0658 22.0459 14.2895C22.3015 14.5603 22.706 15.0234 23.2531 15.3446C24.6932 13.8102 23.2853 11.764 21.9005 11.9331C21.9005 11.9331 22.7601 11.3583 23.7294 12.4204C24.7533 13.5424 24.3 15.0154 23.9052 15.6159C24.3688 15.7309 25.0174 15.7127 25.607 15.3429C26.3376 14.8848 26.7636 14.0139 26.0499 12.6561C25.0813 10.8149 22.0745 8.82164 21.572 6.57052C21.1194 4.54383 23.0643 3.46029 24.3396 4.04557C24.7606 4.23909 25.2735 4.75056 25.5224 5.13286C25.6484 5.32637 25.7469 5.28423 25.7908 5.23735C25.8496 5.17351 25.789 5.06528 25.6721 4.90144C25.2469 4.30542 25.2237 3.4139 26.3499 3.16577C26.5252 3.12737 26.6486 2.76851 26.8688 2.69594C27.1865 2.58896 27.1529 2.6755 27.2529 2.63759C27.7439 2.45579 27.7578 2.69245 28.1995 2.57973C28.3803 2.53485 28.4923 2.59195 28.5544 2.66876L29.3805 2.33759L29.7212 1.98123L29.4875 2.37724L29.9237 2.48622L29.4317 2.46427Z" fill="#A3B2C6"/>
<path fill-rule="evenodd" clip-rule="evenodd" d="M18.7871 15.2374C18.9561 15.5282 19.3382 15.8576 19.8846 16.0237C20.5873 16.2389 21.4896 16.2681 22.2674 15.9823C21.7397 15.5771 20.7085 14.5768 19.8938 14.3048C18.8432 13.9544 18.4773 14.7045 18.7871 15.2374ZM20.0252 15.5629C19.5841 15.4292 19.3132 15.2167 19.21 15.0743C19.0604 14.8681 19.216 14.598 19.7222 14.7574C20.1664 14.8973 20.8624 15.4669 21.1768 15.701C20.7803 15.7205 20.397 15.6773 20.0252 15.5629Z" fill="#A3B2C6"/>
<path fill-rule="evenodd" clip-rule="evenodd" d="M16.8754 9.7998C16.7888 10.4594 16.4372 11.8527 16.6093 12.6941C16.8315 13.7789 17.6636 13.721 17.9704 13.1863C18.1385 12.8943 18.232 12.3991 18.1025 11.8425C17.9375 11.1262 17.5123 10.3305 16.8754 9.7998ZM17.6183 12.9016C17.514 13.1345 17.2025 13.1345 17.0876 12.6168C16.9866 12.1619 17.132 11.2741 17.1771 10.8853C17.3923 11.2188 17.5464 11.5721 17.634 11.9512C17.738 12.4003 17.6893 12.741 17.6183 12.9016Z" fill="#A3B2C6"/>
</svg>
