<svg width="3082" height="1175" viewBox="0 0 3082 1175" fill="none" xmlns="http://www.w3.org/2000/svg">
<path fill-rule="evenodd" clip-rule="evenodd" d="M1108.15 508.378C1131.02 508.378 1144.73 497.119 1144.73 479.171V478.465C1144.73 458.765 1130.31 448.922 1107.8 448.922H1062.77V508.378H1108.15ZM994.525 390.176H1110.96C1148.59 390.176 1174.63 400.016 1191.16 416.55C1205.58 430.975 1212.98 449.613 1212.98 473.898V474.605C1212.98 512.589 1192.93 537.566 1162.33 550.577L1221.07 636.422H1142.63L1093.02 561.832H1062.77V636.422H994.525V390.176Z" fill="#A3B2C6"/>
<path fill-rule="evenodd" clip-rule="evenodd" d="M1268.6 390.176H1466.66V447.861H1336.14V485.509H1454.34V539.318H1336.14V578.382H1468.41V636.422H1268.6V390.176Z" fill="#A3B2C6"/>
<path fill-rule="evenodd" clip-rule="evenodd" d="M1593 450.323V575.92H1620.79C1661.95 575.92 1689.04 553.406 1689.04 513.651V512.944C1689.04 473.544 1661.95 450.323 1620.79 450.323H1593ZM1524.75 390.176H1620.08C1707.67 390.176 1758.68 440.832 1758.68 511.883V512.589C1758.68 583.658 1706.98 636.422 1618.68 636.422H1524.75V390.176Z" fill="#A3B2C6"/>
<path fill-rule="evenodd" clip-rule="evenodd" d="M2002.19 450.323V575.92H2029.98C2071.14 575.92 2098.23 553.406 2098.23 513.651V512.944C2098.23 473.544 2071.14 450.323 2029.98 450.323H2002.19ZM1933.94 390.176H2029.27C2116.86 390.176 2167.87 440.832 2167.87 511.883V512.589C2167.87 583.658 2116.17 636.422 2027.87 636.422H1933.94V390.176Z" fill="#A3B2C6"/>
<path fill-rule="evenodd" clip-rule="evenodd" d="M2411.72 514.006V513.299C2411.72 477.404 2386.39 446.8 2348.75 446.8C2311.1 446.8 2286.13 477.067 2286.13 512.589V513.299C2286.13 548.824 2311.81 579.78 2349.45 579.78C2386.75 579.78 2411.72 549.531 2411.72 514.006ZM2216.48 514.006V513.299C2216.48 442.585 2273.47 385.237 2349.45 385.237C2425.43 385.237 2481.72 441.878 2481.72 512.589V513.299C2481.72 584.01 2424.73 641.343 2348.75 641.343C2272.76 641.343 2216.48 584.701 2216.48 514.006Z" fill="#A3B2C6"/>
<path fill-rule="evenodd" clip-rule="evenodd" d="M2725.21 514.006V513.299C2725.21 477.404 2699.89 446.8 2662.24 446.8C2624.61 446.8 2599.62 477.067 2599.62 512.589V513.299C2599.62 548.824 2625.3 579.78 2662.95 579.78C2700.24 579.78 2725.21 549.531 2725.21 514.006ZM2529.98 514.006V513.299C2529.98 442.585 2586.97 385.237 2662.95 385.237C2738.93 385.237 2795.22 441.878 2795.22 512.589V513.299C2795.22 584.01 2738.22 641.343 2662.24 641.343C2586.26 641.343 2529.98 584.701 2529.98 514.006Z" fill="#A3B2C6"/>
<path fill-rule="evenodd" clip-rule="evenodd" d="M2965.17 508.378C2988.02 508.378 3001.75 497.119 3001.75 479.171V478.465C3001.75 458.765 2987.32 448.922 2964.81 448.922H2919.79V508.378H2965.17ZM2851.53 390.176H2967.99C3005.64 390.176 3031.63 400.016 3048.18 416.55C3062.61 430.975 3069.98 449.613 3069.98 473.898V474.605C3069.98 512.589 3049.95 537.566 3019.34 550.577L3078.09 636.422H2999.64L2950.04 561.832H2919.79V636.422H2851.53V390.176Z" fill="#A3B2C6"/>
<path fill-rule="evenodd" clip-rule="evenodd" d="M994.525 778.147C994.525 775.795 996.409 773.687 999.002 773.687H1096.51C1099.1 773.687 1100.99 775.795 1100.99 778.147V803.839C1100.99 806.191 1099.1 808.298 1096.51 808.298H1031.26V837.52H1084.98C1087.33 837.52 1089.46 839.627 1089.46 841.998V867.674C1089.46 870.268 1087.33 872.152 1084.98 872.152H1031.26V903.946H1096.51C1099.1 903.946 1100.99 906.075 1100.99 908.424V934.1C1100.99 936.449 1099.1 938.578 1096.51 938.578H999.002C996.409 938.578 994.525 936.449 994.525 934.1V778.147Z" fill="#A3B2C6"/>
<path fill-rule="evenodd" clip-rule="evenodd" d="M1170.3 916.205L1181.36 896.651C1183.25 893.59 1187.72 894.058 1189.37 895.232C1190.32 895.7 1207.28 908.182 1222.82 908.182C1232.24 908.182 1239.07 902.303 1239.07 894.057C1239.07 884.166 1230.82 876.63 1214.81 870.268C1194.55 862.242 1169.12 846.475 1169.12 818.208C1169.12 794.883 1187.26 771.317 1223.53 771.317C1248.02 771.317 1266.87 783.799 1273.94 788.986C1276.76 790.629 1276.29 794.883 1275.36 796.526L1263.34 814.663C1261.68 817.257 1257.45 819.382 1255.32 817.722C1253.21 816.547 1236.01 803.597 1221.64 803.597C1213.16 803.597 1206.81 809.252 1206.81 815.614C1206.81 824.328 1213.86 830.913 1232.48 838.453C1250.84 845.766 1280.06 860.135 1280.06 892.173C1280.06 916.428 1259.09 940.927 1224.46 940.927C1193.84 940.927 1176.88 928.222 1171.47 922.793C1169.12 920.441 1168.41 919.489 1170.3 916.205Z" fill="#A3B2C6"/>
<path fill-rule="evenodd" clip-rule="evenodd" d="M1428.95 771.317C1452.51 771.317 1469.94 778.633 1485.97 793.223C1488.08 795.107 1488.08 797.945 1486.19 799.829L1467.83 818.918C1466.17 820.56 1463.58 820.56 1461.94 818.918C1453.22 811.137 1441.67 806.9 1430.14 806.9C1403.52 806.9 1383.96 829.029 1383.96 855.412C1383.96 881.572 1403.76 903.236 1430.36 903.236C1441.45 903.236 1453.46 899.245 1461.94 891.929C1463.58 890.531 1466.64 890.531 1468.06 892.173L1486.43 911.727C1488.08 913.369 1487.85 916.428 1486.19 918.089C1470.18 933.632 1449.92 940.927 1428.95 940.927C1381.86 940.927 1343.92 903.481 1343.92 856.367C1343.92 809.252 1381.86 771.317 1428.95 771.317Z" fill="#A3B2C6"/>
<path fill-rule="evenodd" clip-rule="evenodd" d="M1637.22 882.04L1619.33 843.172H1619.09L1601.42 882.04H1637.22ZM1540.41 932.458L1614.14 773.911C1614.85 772.492 1616.49 771.317 1618.16 771.317H1620.5C1622.15 771.317 1623.81 772.492 1624.52 773.911L1698.23 932.458C1699.65 935.516 1697.77 938.578 1694.24 938.578H1668.08C1663.85 938.578 1661.96 937.159 1659.83 932.681L1651.37 914.079H1587.29L1578.81 932.923C1577.63 935.761 1575.04 938.578 1570.34 938.578H1544.42C1540.89 938.578 1539.01 935.516 1540.41 932.458Z" fill="#A3B2C6"/>
<path fill-rule="evenodd" clip-rule="evenodd" d="M1823.83 844.35C1833.97 844.35 1842.44 836.345 1842.44 825.747C1842.44 815.838 1833.97 808.298 1823.83 808.298H1801.45V844.35H1823.83ZM1764.71 778.147C1764.71 775.795 1766.59 773.687 1769.19 773.687H1825.94C1854.92 773.687 1878.71 797.235 1878.71 825.747C1878.71 854.948 1854.92 878.737 1826.19 878.737H1801.45V934.1C1801.45 936.449 1799.34 938.578 1796.97 938.578H1769.19C1766.59 938.578 1764.71 936.449 1764.71 934.1V778.147Z" fill="#A3B2C6"/>
<path fill-rule="evenodd" clip-rule="evenodd" d="M1949.91 778.147C1949.91 775.795 1951.79 773.687 1954.38 773.687H2051.89C2054.48 773.687 2056.37 775.795 2056.37 778.147V803.839C2056.37 806.191 2054.48 808.298 2051.89 808.298H1986.64V837.52H2040.36C2042.71 837.52 2044.84 839.627 2044.84 841.998V867.674C2044.84 870.268 2042.71 872.152 2040.36 872.152H1986.64V903.946H2051.89C2054.48 903.946 2056.37 906.075 2056.37 908.424V934.1C2056.37 936.449 2054.48 938.578 2051.89 938.578H1954.38C1951.79 938.578 1949.91 936.449 1949.91 934.1V778.147Z" fill="#A3B2C6"/>
<path fill-rule="evenodd" clip-rule="evenodd" d="M2306.1 844.105C2315.76 844.105 2324.01 835.168 2324.01 825.261C2324.01 815.373 2315.76 807.365 2306.1 807.365H2271.24V844.105H2306.1ZM2234.27 778.147C2234.27 775.795 2236.15 773.687 2238.74 773.687H2309.18C2337.42 773.687 2360.52 796.526 2360.52 824.551C2360.52 846.234 2346.16 863.661 2325.65 871.907L2357.93 931.748C2359.57 934.807 2357.93 938.578 2353.92 938.578H2322.59C2320.71 938.578 2319.29 937.4 2318.82 936.449L2287.5 874.036H2271.24V934.1C2271.24 936.449 2269.12 938.578 2266.77 938.578H2238.74C2236.15 938.578 2234.27 936.449 2234.27 934.1V778.147Z" fill="#A3B2C6"/>
<path fill-rule="evenodd" clip-rule="evenodd" d="M2511.8 903.236C2537.71 903.236 2558.91 882.04 2558.91 856.367C2558.91 830.448 2537.71 809.008 2511.8 809.008C2486.13 809.008 2464.93 830.448 2464.93 856.367C2464.93 882.04 2486.13 903.236 2511.8 903.236ZM2511.8 771.317C2558.91 771.317 2596.6 809.252 2596.6 856.367C2596.6 903.481 2558.91 940.927 2511.8 940.927C2464.69 940.927 2427.24 903.481 2427.24 856.367C2427.24 809.252 2464.69 771.317 2511.8 771.317Z" fill="#A3B2C6"/>
<path fill-rule="evenodd" clip-rule="evenodd" d="M2744.79 903.236C2770.69 903.236 2791.89 882.04 2791.89 856.367C2791.89 830.448 2770.69 809.008 2744.79 809.008C2719.12 809.008 2697.92 830.448 2697.92 856.367C2697.92 882.04 2719.12 903.236 2744.79 903.236ZM2744.79 771.317C2791.89 771.317 2829.6 809.252 2829.6 856.367C2829.6 903.481 2791.89 940.927 2744.79 940.927C2697.68 940.927 2660.24 903.481 2660.24 856.367C2660.24 809.252 2697.68 771.317 2744.79 771.317Z" fill="#A3B2C6"/>
<path fill-rule="evenodd" clip-rule="evenodd" d="M2921.53 775.085C2921.75 772.978 2923.86 771.317 2925.75 771.317H2929.51C2930.71 771.317 2932.82 772.268 2933.52 773.687L2988.17 875.452H2988.66L3043.28 773.687C3044.02 772.268 3046.13 771.317 3047.32 771.317H3051.08C3052.95 771.317 3055.06 772.978 3055.3 775.085L3081.94 933.391C3082.4 936.449 3080.29 938.578 3077.45 938.578H3049.65C3047.54 938.578 3045.42 936.694 3045.18 934.807L3034.6 862.019H3034.11L2994.53 938.333C2993.83 939.753 2991.72 940.927 2990.53 940.927H2986.31C2984.87 940.927 2983 939.753 2982.3 938.333L2942.48 862.019H2941.99L2931.65 934.807C2931.41 936.694 2929.51 938.578 2927.16 938.578H2899.36C2896.55 938.578 2894.43 936.449 2894.89 933.391L2921.53 775.085Z" fill="#A3B2C6"/>
<path fill-rule="evenodd" clip-rule="evenodd" d="M765.067 383.047C765.067 171.764 593.8 0.483643 382.534 0.483643C171.264 0.483643 -0.00244141 171.764 -0.00244141 383.047C-0.00244141 514.993 66.7977 631.329 168.414 700.101V1174.52H596.654V700.101C698.27 631.329 765.067 514.993 765.067 383.047Z" fill="#A3B2C6"/>
<path fill-rule="evenodd" clip-rule="evenodd" d="M382.537 247.876C308.005 247.876 247.374 308.512 247.374 383.05C247.374 457.578 308.005 518.217 382.537 518.217C457.062 518.217 517.694 457.578 517.694 383.05C517.694 308.512 457.062 247.876 382.537 247.876ZM382.537 543.833C293.882 543.833 221.757 471.702 221.757 383.05C221.757 294.388 293.882 222.258 382.537 222.258C471.186 222.258 543.307 294.388 543.307 383.05C543.307 471.702 471.186 543.833 382.537 543.833Z" fill="white"/>
<path fill-rule="evenodd" clip-rule="evenodd" d="M63.5986 395.856H234.566V370.24H63.5986V395.856Z" fill="white"/>
<path fill-rule="evenodd" clip-rule="evenodd" d="M382.537 779.413H477.437V753.798H382.537V779.413Z" fill="white"/>
<path fill-rule="evenodd" clip-rule="evenodd" d="M477.437 1054.46H368.738V530.039H394.354V1028.84H477.437V1054.46Z" fill="white"/>
<path fill-rule="evenodd" clip-rule="evenodd" d="M468.577 929.286H494.227V903.634H468.577V929.286Z" fill="white"/>
<path fill-rule="evenodd" clip-rule="evenodd" d="M382.537 134.883C269.785 134.883 174.423 210.504 144.329 313.672H171.136C200.358 224.839 284.052 160.502 382.537 160.502C505.234 160.502 605.061 260.334 605.061 383.05C605.061 479.716 543.359 564.763 451.518 594.682L443.511 597.56L443.587 709.106H469.201V615.978C470.73 615.416 471.342 614.841 472.856 614.25C567.826 577.257 630.675 486.069 630.675 383.05C630.675 246.209 519.358 134.883 382.537 134.883Z" fill="white"/>
<path fill-rule="evenodd" clip-rule="evenodd" d="M310.978 593.177C243.704 569.641 192.896 516.764 171.347 452.424H144.513C166.044 524.989 220.568 585.527 293.943 614.18V1054.17H319.557V596.174L310.978 593.177Z" fill="white"/>
<path fill-rule="evenodd" clip-rule="evenodd" d="M501.05 1097.67H245.258V659.312L211.481 636.462C127.175 579.401 76.8443 484.668 76.8443 383.05C76.8443 224.019 198.908 93.0177 354.253 78.6913V53.0085C184.77 67.4174 51.2307 209.889 51.2307 383.05C51.2307 493.18 105.767 595.844 197.122 657.676L219.641 672.911V1123.29H545.424V1097.67H501.05Z" fill="white"/>
<path fill-rule="evenodd" clip-rule="evenodd" d="M686.915 411.329C678.516 502.043 630.014 584.732 553.59 636.459L519.81 659.312V1053.91H545.424V672.911L567.942 657.676C651.426 601.172 704.136 510.565 712.605 411.329H686.915Z" fill="white"/>
<path fill-rule="evenodd" clip-rule="evenodd" d="M686.899 354.764H712.571C698.955 194.608 570.967 66.6222 410.814 53.0085V78.6913C556.841 92.1582 673.433 208.73 686.899 354.764Z" fill="white"/>
</svg>
