<svg width="81" height="33" viewBox="0 0 81 33" fill="none" xmlns="http://www.w3.org/2000/svg">
<g clip-path="url(#clip0_321:2779)">
<path fill-rule="evenodd" clip-rule="evenodd" d="M76.1398 8.12202V3.70508H73.0892V8.12202H68.5117V11.1726H73.0892V15.7709H76.1398V11.1726H80.7176V8.12202H76.1398Z" fill="#A3B2C6"/>
<path fill-rule="evenodd" clip-rule="evenodd" d="M7.91942 14.2687C5.8947 13.8098 5.08276 13.4515 5.08276 12.3323C5.08276 11.362 6.08498 10.7429 7.50859 10.7429C8.93442 10.7429 10.2808 11.0451 11.925 12.1415L13.523 9.89232C11.908 8.69677 9.97414 8.11621 7.62081 8.11621C4.23387 8.11621 1.95804 9.98927 1.95804 12.7759C1.95804 15.4315 4.49859 16.3895 7.54748 17.1329C9.88942 17.7045 11.0322 18.1712 11.0322 19.209C11.0322 19.5454 10.6839 20.6462 8.30915 20.6462C6.53748 20.6462 4.85804 20.0645 3.31276 18.9176L1.37109 21.2376C3.13832 22.6915 5.54109 23.4895 8.15359 23.4895C11.81 23.4895 14.0833 21.6709 14.0833 18.7404C14.0833 16.0118 11.2347 14.9898 7.91942 14.2687Z" fill="#A3B2C6"/>
<path fill-rule="evenodd" clip-rule="evenodd" d="M57.042 16.9889V23.3719H60.0934V16.9889C60.0934 13.083 62.0534 11.1728 65.4606 11.1728V8.12305C62.7937 8.12305 57.042 8.63194 57.042 16.9889Z" fill="#A3B2C6"/>
<path fill-rule="evenodd" clip-rule="evenodd" d="M47.5225 8.12109C45.5275 8.12109 44.092 8.47109 42.7353 9.00609L43.6831 11.7725C44.7011 11.3853 45.6881 11.0339 46.9892 11.0339C49.4156 11.0339 50.9397 12.3603 50.9397 14.2678C49.4642 13.9978 47.8542 13.7108 46.1445 13.7108C43.4778 13.7108 41.3145 15.8739 41.3145 18.5397C41.3145 21.2086 43.4778 23.3694 46.1445 23.3694C46.2836 23.3694 53.9911 23.3717 53.9911 23.3717V14.3378C53.9911 10.408 51.8708 8.12109 47.5225 8.12109ZM50.9397 20.3253L46.1445 20.32C45.1272 20.1625 44.3047 19.3372 44.3047 18.3211C44.3047 17.3039 45.1272 16.6994 46.1445 16.6994C48.1408 16.6994 50.1131 17.1433 50.9397 17.3333V20.3253Z" fill="#A3B2C6"/>
<path fill-rule="evenodd" clip-rule="evenodd" d="M32.3553 8.12305C30.4383 8.12305 28.8061 8.7136 27.6819 9.74777C26.5586 8.7136 24.9247 8.12305 23.0078 8.12305C20.1919 8.12305 16.8711 9.72833 16.8711 9.72833V23.3564H19.9222V11.8536C19.9222 11.8536 21.5672 11.0686 23.0078 11.0686C24.945 11.0686 26.0505 12.3367 26.1566 14.5458V23.3564H29.2078V14.5458C29.3136 12.3367 30.4178 11.0686 32.3553 11.0686C34.2955 11.0686 35.4416 12.0033 35.4416 14.2689V23.3564H38.4928V13.5739C38.4928 10.263 36.0216 8.12305 32.3553 8.12305Z" fill="#A3B2C6"/>
<path fill-rule="evenodd" clip-rule="evenodd" d="M77.667 23.3738H80.7184V20.3232H77.667V23.3738Z" fill="#A3B2C6"/>
<path fill-rule="evenodd" clip-rule="evenodd" d="M73.0898 11.1726H76.1404V8.12207H73.0898V11.1726Z" fill="#A3B2C6"/>
</g>
<defs>
<clipPath id="clip0_321:2779">
<rect width="80" height="21" fill="white" transform="translate(0.731445 3)"/>
</clipPath>
</defs>
</svg>
