<svg width="65" height="33" viewBox="0 0 65 33" fill="none" xmlns="http://www.w3.org/2000/svg">
<g clip-path="url(#clip0_343:1899)">
<path fill-rule="evenodd" clip-rule="evenodd" d="M40.6227 1.76377L45.1818 6.30708C45.377 6.50139 45.6399 6.61252 45.9153 6.61715C46.1905 6.62178 46.4568 6.51971 46.6584 6.33236C46.6585 6.33221 46.6587 6.33207 46.6588 6.33193L50.8179 2.48005C50.948 2.37272 51.1081 2.30826 51.2761 2.29543L62.5512 2.32524L45.8327 16.2802L40.7979 11.7028C40.6959 11.5946 40.634 11.4546 40.6227 11.3063V1.76377ZM63.6625 2.32842C63.6625 2.32845 63.6615 2.32841 63.6596 2.32822C63.6616 2.32829 63.6625 2.32839 63.6625 2.32842ZM63.4026 1.61424C63.4026 1.61425 63.402 1.61492 63.4005 1.61624C63.4018 1.6149 63.4025 1.61424 63.4026 1.61424ZM40.7869 0.307991C40.6614 0.177623 40.3303 -0.093574 39.9194 0.083741C39.7173 0.170954 39.604 0.33247 39.5471 0.466959C39.4914 0.598935 39.4756 0.733733 39.4756 0.848383V11.3407L39.4765 11.3566C39.5008 11.7927 39.683 12.205 39.9891 12.5166L40.0004 12.5281L45.0862 17.1519L45.0916 17.1565C45.2906 17.3286 45.5432 17.426 45.8062 17.4321C46.0692 17.4382 46.3261 17.3525 46.5328 17.1897L46.5392 17.1847L64.1323 2.49972L64.1327 2.49942C64.2155 2.43013 64.3084 2.33528 64.3746 2.21133C64.4414 2.08612 64.5048 1.88006 64.4223 1.65039C64.3396 1.42015 64.1588 1.30139 64.0264 1.24748C63.896 1.19443 63.7638 1.18112 63.6558 1.18104C63.6555 1.18104 63.6553 1.18104 63.655 1.18104L51.2422 1.14823L51.2249 1.14923C50.7992 1.17386 50.393 1.33632 50.0677 1.61208L50.0582 1.62022L45.9353 5.43853L40.7869 0.307991Z" fill="#8799AF"/>
<path fill-rule="evenodd" clip-rule="evenodd" d="M39.4725 1.77844V4.33138H36.9521L39.4725 1.77844ZM40.5494 0.470302C40.6048 0.602437 40.6196 0.736846 40.6196 0.84909V4.42158C40.6209 4.55778 40.5955 4.69295 40.545 4.81949C40.494 4.9475 40.4181 5.06417 40.3218 5.1628C40.2255 5.26144 40.1107 5.34009 39.984 5.39426C39.8573 5.44843 39.7211 5.47704 39.5833 5.47846L39.5803 5.47849H36.0508C35.8784 5.47849 35.458 5.43417 35.286 5.03191C35.1113 4.62322 35.3787 4.28984 35.5058 4.1636L39.3091 0.311149C39.3093 0.31095 39.3095 0.31075 39.3097 0.31055C39.3884 0.230586 39.4935 0.144944 39.6264 0.0897953C39.764 0.0327286 39.9625 -0.00204613 40.1703 0.0842282C40.3774 0.17022 40.4926 0.334504 40.5494 0.470302Z" fill="#8799AF"/>
<path fill-rule="evenodd" clip-rule="evenodd" d="M40.8965 11.7935L49.9113 3.3407L49.1267 2.50391L40.009 11.0532C39.9067 11.1465 39.8249 11.26 39.7685 11.3865C39.7113 11.5151 39.6816 11.6543 39.6816 11.7952C39.6816 11.936 39.7113 12.0753 39.7685 12.2039C39.8257 12.3321 39.909 12.447 40.0132 12.541C40.0136 12.5413 40.0139 12.5416 40.0142 12.5419L45.0926 17.1485L45.7919 17.7839L50.0484 21.6522C50.1965 21.7896 50.5259 22.008 50.9092 21.8414C51.2961 21.6733 51.3593 21.2775 51.3593 21.0761V12.8989H50.2122V20.2511L46.5634 16.935L45.8636 16.2992L40.8965 11.7935ZM50.8289 20.8116C50.8301 20.8126 50.8301 20.8128 50.8291 20.8118L50.8289 20.8116Z" fill="#8799AF"/>
<path fill-rule="evenodd" clip-rule="evenodd" d="M40.0517 1.19175L36.9667 4.30876L36.1514 3.50183L39.3114 0.309046C39.4082 0.211428 39.5235 0.133947 39.6505 0.0810715C39.7774 0.0281974 39.9136 0.000976562 40.0511 0.000976562C40.1887 0.000976562 40.3248 0.0281974 40.4518 0.0810715C40.5781 0.133687 40.6929 0.210668 40.7895 0.307608L45.5997 5.09659L44.7904 5.90952L40.0517 1.19175Z" fill="#8799AF"/>
<path d="M33.1865 17.3719C33.1906 17.2428 33.2437 17.1201 33.3351 17.0288C33.4264 16.9375 33.5491 16.8844 33.6781 16.8803H33.7929C33.8883 16.8805 33.982 16.9054 34.065 16.9524C34.1479 16.9995 34.2173 17.0672 34.2664 17.149L37.4685 21.9472L40.664 17.1408C40.7124 17.0584 40.7816 16.9901 40.8648 16.943C40.9479 16.8958 41.042 16.8713 41.1376 16.8721H41.2523C41.3814 16.8762 41.5041 16.9293 41.5954 17.0206C41.6867 17.1119 41.7398 17.2346 41.7439 17.3637V25.4033C41.7445 25.5357 41.6934 25.663 41.6017 25.7585C41.5099 25.8539 41.3846 25.9099 41.2523 25.9146C41.1175 25.912 40.9889 25.8574 40.8936 25.762C40.7982 25.6667 40.7436 25.5381 40.741 25.4033V18.7386L37.8766 22.9452C37.8351 23.0211 37.7743 23.0847 37.7003 23.1296C37.6264 23.1745 37.5419 23.199 37.4554 23.2008C37.3672 23.1989 37.281 23.1744 37.205 23.1296C37.1289 23.0849 37.0656 23.0214 37.0211 22.9452L34.1698 18.7517V25.4246C34.1698 25.555 34.118 25.68 34.0258 25.7722C33.9336 25.8644 33.8085 25.9162 33.6781 25.9162C33.5478 25.9162 33.4227 25.8644 33.3305 25.7722C33.2383 25.68 33.1865 25.555 33.1865 25.4246V17.3719Z" fill="#8799AF"/>
<path d="M25.084 17.4029C25.0835 17.2705 25.1345 17.1431 25.2263 17.0477C25.318 16.9523 25.4433 16.8963 25.5756 16.8916H28.9252C30.0247 16.8916 30.9064 17.2193 31.4685 17.7863C31.6938 18.0208 31.8707 18.2973 31.989 18.6001C32.1074 18.903 32.165 19.2262 32.1584 19.5512V19.5758C32.1584 21.0507 31.162 21.9028 29.7691 22.1716L31.9928 25.0344C32.0927 25.1325 32.1513 25.2649 32.1567 25.4048C32.1494 25.5369 32.0929 25.6615 31.9982 25.7541C31.9036 25.8466 31.7777 25.9003 31.6454 25.9046C31.551 25.9007 31.4589 25.8743 31.3768 25.8276C31.2947 25.7808 31.225 25.7151 31.1735 25.6358L28.6548 22.3584H26.0934V25.3884C26.0934 25.5222 26.0403 25.6506 25.9456 25.7453C25.851 25.8399 25.7226 25.8931 25.5887 25.8931C25.4549 25.8931 25.3265 25.8399 25.2318 25.7453C25.1372 25.6506 25.084 25.5222 25.084 25.3884V17.4029ZM28.8416 21.4554C30.1837 21.4554 31.1358 20.7655 31.1358 19.6152V19.5889C31.1358 18.4894 30.2919 17.824 28.8416 17.824H26.0934V21.4554H28.8416Z" fill="#8799AF"/>
<path d="M0.580608 24.6004C0.519425 24.5573 0.469883 24.4997 0.436421 24.4328C0.40296 24.3659 0.386624 24.2917 0.388877 24.2169C0.388877 24.0865 0.440672 23.9615 0.532868 23.8693C0.625065 23.7771 0.750109 23.7253 0.880494 23.7253C0.99349 23.7233 1.10302 23.7643 1.18694 23.84C1.95689 24.5395 2.96546 24.9178 4.00554 24.897C5.20836 24.897 5.99987 24.2579 5.99987 23.3762V23.35C5.99987 22.5192 5.5525 22.039 3.67288 21.6507C1.61628 21.2033 0.669099 20.538 0.669099 19.068V19.0418C0.669099 17.6358 1.90961 16.6001 3.60897 16.6001C4.63157 16.5666 5.63577 16.8777 6.46035 17.4834C6.52682 17.529 6.58173 17.5895 6.6207 17.66C6.65968 17.7306 6.68165 17.8092 6.68486 17.8898C6.68486 18.0202 6.63306 18.1452 6.54086 18.2374C6.44867 18.3296 6.32362 18.3814 6.19324 18.3814C6.08812 18.3851 5.9848 18.3534 5.89991 18.2913C5.23738 17.7801 4.42279 17.5055 3.58603 17.5112C2.42253 17.5112 1.68183 18.1503 1.68183 18.9566V18.9812C1.68183 19.8251 2.14067 20.2922 4.11042 20.7199C6.08017 21.1476 7.02407 21.8834 7.02407 23.2517V23.2763C7.02407 24.8101 5.74587 25.8081 3.96949 25.8081C2.73248 25.8196 1.53155 25.3916 0.580608 24.6004V24.6004Z" fill="#8799AF"/>
<path d="M23.9336 25.1122L20.8774 17.1857C20.7807 16.9038 20.6086 16.7383 20.3497 16.7383H20.3071C20.0383 16.7383 19.8761 16.9022 19.7679 17.1857L16.7117 25.1236C16.6758 25.2087 16.6574 25.3001 16.6576 25.3924C16.6486 25.5048 16.6843 25.6163 16.757 25.7026C16.8298 25.7888 16.9336 25.8429 17.046 25.8529C17.1201 25.8522 17.1925 25.8309 17.2551 25.7912C17.3176 25.7515 17.3678 25.6951 17.4 25.6284L20.2972 17.887L20.7594 19.1226L22.0392 22.5033H22.0245L22.3686 23.4243L23.1535 25.4825C23.1762 25.5802 23.2288 25.6684 23.304 25.7348C23.3792 25.8012 23.4733 25.8425 23.5731 25.8529C23.6322 25.8475 23.6898 25.8305 23.7424 25.8029C23.7951 25.7753 23.8417 25.7376 23.8798 25.692C23.9178 25.6463 23.9465 25.5936 23.9642 25.5368C23.9818 25.4801 23.9881 25.4204 23.9827 25.3612C23.9802 25.2761 23.9636 25.1919 23.9336 25.1122Z" fill="#8799AF"/>
<path d="M23.5781 26.0004C23.334 26.0004 23.1308 25.8365 23.021 25.5333L21.8116 22.3559H21.8263L20.2974 18.3082L17.528 25.7005C17.4832 25.7901 17.4145 25.8655 17.3294 25.9185C17.2444 25.9714 17.1463 25.9997 17.0462 26.0004C16.8953 25.9886 16.7551 25.9179 16.656 25.8034C16.5569 25.689 16.5069 25.5402 16.5169 25.3891C16.5157 25.2765 16.538 25.1649 16.5824 25.0614L19.6304 17.1332C19.7697 16.7678 19.991 16.5908 20.3072 16.5908H20.3498C20.5678 16.5908 20.8611 16.6859 21.0168 17.1382L24.073 25.0614C24.1109 25.1593 24.1319 25.2629 24.1353 25.3678C24.1447 25.5255 24.0915 25.6804 23.9871 25.7989C23.8827 25.9174 23.7357 25.9898 23.5781 26.0004V26.0004ZM22.4769 23.2916L22.5113 23.3719L23.2963 25.4301C23.3356 25.5333 23.4225 25.7054 23.5781 25.7054C23.657 25.694 23.7284 25.6524 23.7773 25.5895C23.8262 25.5265 23.8488 25.4471 23.8403 25.3678C23.8369 25.2976 23.8219 25.2284 23.7961 25.163L20.7399 17.2398C20.6186 16.8858 20.4121 16.8858 20.3498 16.8858H20.3072C20.1761 16.8858 20.0254 16.9284 19.9058 17.2381L16.8446 25.1777C16.8148 25.2453 16.7997 25.3185 16.8004 25.3924C16.7924 25.4656 16.8129 25.539 16.8578 25.5974C16.9027 25.6557 16.9685 25.6944 17.0413 25.7054C17.0874 25.7049 17.1325 25.6914 17.1713 25.6665C17.2101 25.6416 17.2412 25.6062 17.2609 25.5645L20.2925 17.4675L20.8923 19.0718L22.2524 22.6508H22.236L22.4769 23.2916Z" fill="#8799AF"/>
<path d="M16.5943 22.6942L14.9654 18.3417L14.5508 17.1323C14.5207 17.0189 14.4539 16.9186 14.3608 16.8472C14.2677 16.7757 14.1536 16.7371 14.0362 16.7374H13.969C13.8512 16.7351 13.736 16.7729 13.6425 16.8447C13.549 16.9165 13.4827 17.0179 13.4545 17.1323L11.039 24.2297L8.48749 17.1569C8.4525 17.0389 8.3813 16.9349 8.28396 16.8597C8.18662 16.7844 8.06806 16.7416 7.94508 16.7374C7.80689 16.7372 7.67385 16.7899 7.57329 16.8846C7.47272 16.9794 7.41225 17.1091 7.4043 17.247C7.40921 17.3253 7.42693 17.4023 7.45674 17.4748L10.4179 25.3882C10.4477 25.5102 10.5171 25.6189 10.6152 25.6972C10.7134 25.7755 10.8348 25.819 10.9603 25.8209H11.039C11.1638 25.8163 11.2839 25.7718 11.3815 25.6939C11.4791 25.6161 11.5492 25.5089 11.5814 25.3882L13.9723 18.5433L14.7392 20.7277L15.5586 23.0121C15.5938 23.1299 15.6651 23.2338 15.7624 23.309C15.8597 23.3843 15.9781 23.4272 16.101 23.4316C16.2389 23.4319 16.3717 23.3794 16.4723 23.285C16.5728 23.1905 16.6334 23.0613 16.6418 22.9236C16.6384 22.8451 16.6224 22.7676 16.5943 22.6942V22.6942Z" fill="#8799AF"/>
</g>
<defs>
<clipPath id="clip0_343:1899">
<rect width="64.0725" height="26" fill="white" transform="translate(0.388672)"/>
</clipPath>
</defs>
</svg>
