<svg width="101" height="33" viewBox="0 0 101 33" fill="none" xmlns="http://www.w3.org/2000/svg">
<g clip-path="url(#clip0_343:1900)">
<path fill-rule="evenodd" clip-rule="evenodd" d="M22.1904 9.50096V7.0293H34.1586V9.50096H29.5393V24.1317H26.8584V9.50096H22.1904Z" fill="#8799AF"/>
<mask id="mask0_343:1900" style="mask-type:alpha" maskUnits="userSpaceOnUse" x="0" y="3" width="101" height="27">
<path d="M0.547852 3.5H100.388V29.4996H0.547852V3.5Z" fill="white"/>
</mask>
<g mask="url(#mask0_343:1900)">
<path fill-rule="evenodd" clip-rule="evenodd" d="M39.0165 18.5885C37.9153 18.6885 37.3645 19.3124 37.3645 20.4611C37.3645 21.6098 37.8513 22.1835 38.825 22.1835C39.6225 22.1835 40.4683 22.0512 41.3617 21.7849L41.7926 21.6348V18.3137L39.0165 18.5885ZM44.3784 15.4926V21.1853C44.3933 21.5514 44.4856 21.8216 44.6531 21.9966C44.8213 22.1715 45.08 22.2836 45.4313 22.334L45.3597 24.4066C43.9867 24.4066 42.9258 24.0982 42.1756 23.4823C40.8992 24.0982 39.6145 24.4066 38.3218 24.4066C35.9439 24.4066 34.7559 23.0829 34.7559 20.436C34.7559 19.1714 35.0789 18.2558 35.7252 17.6899C36.3712 17.124 37.3645 16.7826 38.7051 16.6663L41.7926 16.3915V15.4926C41.7926 14.8267 41.6528 14.3606 41.3737 14.0941C41.0943 13.8281 40.6834 13.6951 40.1414 13.6951C39.1201 13.6951 37.8434 13.7617 36.3116 13.8944L35.5457 13.9444L35.4502 12.0222C37.1894 11.5891 38.7887 11.373 40.2493 11.373C41.7087 11.373 42.7627 11.7016 43.4083 12.3592C44.0547 13.0171 44.3784 14.0616 44.3784 15.4926Z" fill="#8799AF"/>
<path fill-rule="evenodd" clip-rule="evenodd" d="M52.3492 13.7951C51.5986 13.7951 50.8491 13.9697 50.0992 14.3192L49.7399 14.494V21.8595C50.3779 21.9929 51.0805 22.0596 51.846 22.0596C52.9313 22.0596 53.6812 21.7344 54.0964 21.0852C54.5106 20.436 54.7184 19.3298 54.7184 17.765C54.7184 15.1178 53.9289 13.7951 52.3492 13.7951ZM47.1309 29.4994V11.6477H49.7159V12.422C50.8171 11.7225 51.846 11.373 52.8034 11.373C54.3838 11.373 55.5403 11.8767 56.2749 12.884C57.0084 13.891 57.3754 15.5797 57.3754 17.9522C57.3754 20.3242 56.9569 21.9929 56.1187 22.9581C55.2812 23.9238 53.9126 24.4066 52.0135 24.4066C51.3592 24.4066 50.6013 24.3312 49.7399 24.1815V29.4994H47.1309Z" fill="#8799AF"/>
<path fill-rule="evenodd" clip-rule="evenodd" d="M65.2738 24.4066C62.8802 24.4066 61.2558 23.7161 60.4024 22.3339C59.5486 20.9525 59.1221 18.6804 59.1221 15.5175C59.1221 12.3552 59.553 10.1037 60.4144 8.76402C61.2766 7.42387 62.8959 6.75391 65.2738 6.75391C66.6937 6.75391 68.2577 6.96232 69.965 7.37811L69.8691 9.62503C68.4329 9.359 66.9974 9.22567 65.5605 9.22567C64.125 9.22567 63.1513 9.67131 62.6405 10.5615C62.1296 11.4521 61.875 13.1249 61.875 15.5797C61.875 18.0355 62.1216 19.7087 62.6172 20.5982C63.111 21.4895 64.0766 21.9345 65.5129 21.9345C66.9491 21.9345 68.401 21.8094 69.8691 21.5597L69.941 23.857C68.2974 24.2231 66.7419 24.4066 65.2738 24.4066Z" fill="#8799AF"/>
<path fill-rule="evenodd" clip-rule="evenodd" d="M75.447 18.5885C74.3458 18.6885 73.7949 19.3124 73.7949 20.4611C73.7949 21.6098 74.2818 22.1835 75.2555 22.1835C76.053 22.1835 76.8988 22.0512 77.7923 21.7849L78.2231 21.6348V18.3137L75.447 18.5885ZM80.8082 15.4926V21.1853C80.8238 21.5514 80.916 21.8216 81.0836 21.9966C81.251 22.1715 81.5097 22.2836 81.8611 22.334L81.7895 24.4066C80.4172 24.4066 79.3563 24.0982 78.6061 23.4823C77.3297 24.0982 76.0451 24.4066 74.7523 24.4066C72.3744 24.4066 71.1855 23.0829 71.1855 20.436C71.1855 19.1714 71.5093 18.2558 72.1557 17.6899C72.8016 17.124 73.7949 16.7826 75.1356 16.6663L78.2231 16.3915V15.4926C78.2231 14.8267 78.0833 14.3606 77.8042 14.0941C77.5248 13.8281 77.1139 13.6951 76.5718 13.6951C75.5498 13.6951 74.2738 13.7617 72.742 13.8944L71.9754 13.9444L71.8806 12.0222C73.6192 11.5891 75.2192 11.373 76.6798 11.373C78.1392 11.373 79.1924 11.7016 79.8388 12.3592C80.4851 13.0171 80.8082 14.0616 80.8082 15.4926Z" fill="#8799AF"/>
<path fill-rule="evenodd" clip-rule="evenodd" d="M83.5605 24.1311V11.6478H86.1456V13.1459C87.5018 12.2303 88.8581 11.6395 90.2147 11.373V14.0941C88.8425 14.3776 87.6693 14.7434 86.6956 15.1932L86.1699 15.4175V24.1311H83.5605Z" fill="#8799AF"/>
<path fill-rule="evenodd" clip-rule="evenodd" d="M99.9799 14.2192C98.0972 13.9532 96.7327 13.8198 95.8868 13.8198C95.041 13.8198 94.4549 13.924 94.128 14.1321C93.8007 14.3406 93.6375 14.6691 93.6375 15.1178C93.6375 15.5677 93.8163 15.8841 94.1759 16.0672C94.5345 16.2502 95.3803 16.4624 96.713 16.7035C98.0449 16.9453 98.9907 17.3238 99.5491 17.8397C100.108 18.3555 100.387 19.2714 100.387 20.5862C100.387 21.9012 99.9836 22.8669 99.1781 23.4824C98.3719 24.0982 97.1956 24.4068 95.6477 24.4068C94.6741 24.4068 93.446 24.2646 91.9616 23.9819L91.22 23.8572L91.3148 21.5852C93.2302 21.8516 94.6104 21.9843 95.4563 21.9843C96.3021 21.9843 96.9045 21.8762 97.2635 21.6598C97.6228 21.4435 97.8023 21.0853 97.8023 20.5862C97.8023 20.0867 97.6304 19.7414 97.2871 19.55C96.9445 19.3594 96.1226 19.1506 94.822 18.9263C93.5212 18.7011 92.5683 18.3479 91.9616 17.8647C91.3555 17.3822 91.0518 16.5004 91.0518 15.2178C91.0518 13.9366 91.4711 12.9797 92.3085 12.3467C93.1463 11.7145 94.2196 11.3984 95.5279 11.3984C96.5492 11.3984 97.8023 11.5316 99.2861 11.7972L100.028 11.9472L99.9799 14.2192Z" fill="#8799AF"/>
<path fill-rule="evenodd" clip-rule="evenodd" d="M9.52876 20.2538C5.74151 20.2538 2.67109 17.0503 2.67109 13.0986C2.67109 9.14533 5.74151 5.94254 9.52876 5.94254C13.3175 5.94254 16.3893 9.14533 16.3893 13.0986C16.3893 17.0503 13.3175 20.2538 9.52876 20.2538ZM9.59198 3.5C4.60396 3.5 0.547852 7.73176 0.547852 12.9333C0.547852 16.9119 2.75067 21.0413 4.59923 23.8029C5.52642 25.1896 6.57606 26.5392 7.55593 27.6022C9.02993 29.2027 9.4372 29.2027 9.59198 29.2027C9.7482 29.2027 10.0781 29.2027 11.5376 27.5999C12.5269 26.5123 13.5798 25.1661 14.5019 23.806C16.3872 21.0235 18.6332 16.88 18.6332 12.9333C18.6332 7.73176 14.5771 3.5 9.59198 3.5Z" fill="#8799AF"/>
<path fill-rule="evenodd" clip-rule="evenodd" d="M10.2807 17.6069C10.3156 15.1106 11.9378 13.0985 13.9394 13.0985C13.9394 15.3626 12.3535 17.236 10.2807 17.6069ZM5.14739 13.0985C7.14927 13.0985 8.77078 15.1106 8.80492 17.6069C6.73254 17.236 5.14739 15.3626 5.14739 13.0985ZM9.54283 13.8629C9.13809 13.8629 8.81038 13.5204 8.81038 13.0985C8.81038 12.6756 9.13809 12.3341 9.54283 12.3341C9.9472 12.3341 10.2756 12.6756 10.2756 13.0985C10.2756 13.5204 9.9472 13.8629 9.54283 13.8629ZM9.54283 8.51286C11.451 8.51286 13.0616 9.79498 13.6698 11.5697H5.41624C6.02371 9.79498 7.63684 8.51286 9.54283 8.51286ZM9.54283 6.98438C6.30564 6.98438 3.68066 9.72145 3.68066 13.0985C3.68066 16.4745 6.30564 19.212 9.54283 19.212C12.7807 19.212 15.4035 16.4745 15.4035 13.0985C15.4035 9.72145 12.7807 6.98438 9.54283 6.98438Z" fill="#8799AF"/>
</g>
</g>
<defs>
<clipPath id="clip0_343:1900">
<rect width="99.84" height="26" fill="white" transform="translate(0.547852 3.5)"/>
</clipPath>
</defs>
</svg>
