
<svg width="104" height="33" viewBox="0 0 104 33" fill="none" xmlns="http://www.w3.org/2000/svg">
<g clip-path="url(#clip0_321:2781)">
<path d="M40.8257 21.9486V20.6487C40.3115 21.2196 39.6838 21.6768 38.9828 21.9912C38.2818 22.3055 37.5229 22.4701 36.7546 22.4744C34.2645 22.4744 33.0194 21.1563 33.0194 18.8231V10.8488C33.0193 10.7887 33.0424 10.7308 33.0839 10.6873C33.1254 10.6438 33.182 10.6179 33.2421 10.6151H35.2868C35.3491 10.6151 35.4089 10.6396 35.4533 10.6833C35.4977 10.727 35.5232 10.7865 35.5241 10.8488V17.8811C35.5241 19.6775 36.4333 20.2544 37.8682 20.2544C38.4408 20.2389 39.0026 20.0954 39.5125 19.8344C40.0223 19.5735 40.4673 19.2018 40.8148 18.7464V10.8488C40.8158 10.7865 40.8412 10.727 40.8856 10.6833C40.93 10.6396 40.9898 10.6151 41.0521 10.6151H43.1005C43.1625 10.6151 43.2219 10.6397 43.2657 10.6836C43.3095 10.7274 43.3342 10.7868 43.3342 10.8488V21.9486C43.3342 22.0106 43.3095 22.07 43.2657 22.1138C43.2219 22.1576 43.1625 22.1823 43.1005 22.1823H41.0558C40.9947 22.1804 40.9368 22.1551 40.8939 22.1115C40.8511 22.068 40.8267 22.0097 40.8257 21.9486ZM48.8585 20.5794V26.3556C48.8585 26.4176 48.8339 26.4771 48.7901 26.5209C48.7462 26.5647 48.6868 26.5893 48.6248 26.5893H46.5801C46.5178 26.5893 46.458 26.5648 46.4136 26.5211C46.3692 26.4774 46.3437 26.418 46.3428 26.3556V10.8488C46.3437 10.7865 46.3692 10.727 46.4136 10.6833C46.458 10.6396 46.5178 10.6151 46.5801 10.6151H48.6248C48.6868 10.6151 48.7462 10.6397 48.7901 10.6836C48.8339 10.7274 48.8585 10.7868 48.8585 10.8488V12.1961C49.2905 11.613 49.8538 11.1398 50.5027 10.815C51.1517 10.4902 51.868 10.3229 52.5937 10.3267C55.5877 10.3267 57.7055 12.5795 57.7055 16.3877C57.7055 20.196 55.5731 22.4707 52.5937 22.4707C51.8691 22.467 51.1553 22.2941 50.5094 21.9658C49.8634 21.6374 49.3031 21.1626 48.8731 20.5794H48.8585ZM55.1094 16.3877C55.1094 14.1349 53.8169 12.5539 51.8233 12.5539C51.2439 12.5641 50.6747 12.7077 50.1598 12.9737C49.645 13.2397 49.1984 13.6208 48.8548 14.0874V18.6625C49.1938 19.1375 49.6383 19.5274 50.1533 19.8018C50.6684 20.0761 51.24 20.2273 51.8233 20.2435C53.8315 20.2435 55.124 18.6369 55.124 16.3877H55.1094ZM68.0385 22.1823C67.9765 22.1823 67.9171 22.1576 67.8733 22.1138C67.8294 22.07 67.8048 22.0106 67.8048 21.9486V14.9017C67.8048 13.0761 66.892 12.5539 65.479 12.5539C64.9008 12.5705 64.3339 12.717 63.82 12.9824C63.3062 13.2479 62.8586 13.6256 62.5105 14.0874V21.9486C62.5096 22.0109 62.4841 22.0703 62.4397 22.114C62.3953 22.1578 62.3355 22.1823 62.2732 22.1823H60.2613C60.199 22.1823 60.1392 22.1578 60.0948 22.114C60.0504 22.0703 60.025 22.0109 60.024 21.9486V6.44173C60.023 6.40996 60.0285 6.37831 60.0399 6.34867C60.0514 6.31902 60.0688 6.29199 60.0909 6.26917C60.113 6.24636 60.1395 6.22822 60.1688 6.21584C60.1981 6.20346 60.2296 6.19708 60.2613 6.1971H62.3024C62.3647 6.19709 62.4245 6.22159 62.4689 6.26532C62.5133 6.30904 62.5388 6.36847 62.5397 6.43078V12.1705C63.0505 11.5943 63.6772 11.1322 64.3787 10.8144C65.0802 10.4967 65.8408 10.3305 66.6109 10.3267C69.101 10.3267 70.3461 11.6192 70.3461 13.9779V21.9486C70.3461 22.0106 70.3215 22.07 70.2776 22.1138C70.2338 22.1576 70.1744 22.1823 70.1124 22.1823H68.0385ZM72.6391 16.3877C72.6391 13.0578 74.8919 10.3267 78.5797 10.3267C82.2674 10.3267 84.5202 13.0578 84.5202 16.3877C84.5202 19.7177 82.2674 22.4707 78.5797 22.4707C74.8919 22.4707 72.6537 19.7067 72.6537 16.3877H72.6391ZM81.9096 16.3877C81.9096 14.3503 80.7375 12.5539 78.5797 12.5539C76.4218 12.5539 75.2497 14.3503 75.2497 16.3877C75.2497 18.4251 76.4473 20.2435 78.5797 20.2435C80.712 20.2435 81.9242 18.447 81.9242 16.3877H81.9096ZM86.8424 21.9486V6.44173C86.8434 6.37942 86.8688 6.31999 86.9132 6.27627C86.9576 6.23255 87.0174 6.20805 87.0798 6.20805H89.1208C89.1831 6.20805 89.243 6.23255 89.2874 6.27627C89.3318 6.31999 89.3572 6.37942 89.3581 6.44173V21.9486C89.3572 22.0109 89.3318 22.0703 89.2874 22.114C89.243 22.1578 89.1831 22.1823 89.1208 22.1823H87.0798C87.02 22.1786 86.9639 22.1525 86.9226 22.1091C86.8812 22.0658 86.8578 22.0084 86.857 21.9486H86.8424ZM100.52 21.9486V20.6013C100.088 21.1793 99.5281 21.6491 98.8836 21.9735C98.2392 22.298 97.5282 22.4682 96.8067 22.4707C93.8601 22.4707 91.6949 20.2179 91.6949 16.3877C91.6949 12.6489 93.8492 10.3267 96.8067 10.3267C97.532 10.3206 98.2482 10.4893 98.8945 10.8185C99.5409 11.1477 100.098 11.6277 100.52 12.218V6.44173C100.52 6.41105 100.526 6.38066 100.538 6.35231C100.55 6.32396 100.567 6.29819 100.588 6.2765C100.61 6.2548 100.636 6.23758 100.664 6.22584C100.693 6.2141 100.723 6.20805 100.754 6.20805H102.798C102.829 6.20805 102.859 6.2141 102.888 6.22584C102.916 6.23758 102.942 6.2548 102.964 6.2765C102.985 6.29819 103.003 6.32396 103.014 6.35231C103.026 6.38066 103.032 6.41105 103.032 6.44173V21.9486C103.032 22.0106 103.007 22.07 102.964 22.1138C102.92 22.1576 102.86 22.1823 102.798 22.1823H100.754C100.694 22.1785 100.639 22.1523 100.598 22.1089C100.557 22.0654 100.535 22.0081 100.535 21.9486H100.52ZM100.52 18.688V14.113C100.18 13.6401 99.734 13.253 99.2181 12.9824C98.7022 12.7118 98.1304 12.5651 97.5479 12.5539C95.5361 12.5539 94.2618 14.1605 94.2618 16.3877C94.2618 18.615 95.5324 20.2435 97.5479 20.2435C98.1324 20.2344 98.7068 20.0891 99.2253 19.8191C99.7438 19.5491 100.192 19.1618 100.535 18.688H100.52ZM15.5409 30.5254C14.5542 30.8226 13.5298 30.9763 12.4994 30.9818H12.357C11.3199 30.9774 10.289 30.8211 9.29722 30.5181C9.06481 30.4493 8.8146 30.4757 8.60165 30.5914C8.38869 30.7071 8.23043 30.9027 8.16168 31.1351C8.09292 31.3675 8.11931 31.6177 8.23503 31.8307C8.35075 32.0437 8.54633 32.2019 8.77874 32.2707C9.93956 32.6203 11.1447 32.8011 12.357 32.8074H12.4994C13.7043 32.802 14.9021 32.6225 16.0557 32.2743C16.2763 32.1967 16.4587 32.0373 16.5652 31.8292C16.6718 31.621 16.6944 31.3799 16.6283 31.1555C16.5623 30.9312 16.4127 30.7407 16.2103 30.6235C16.008 30.5062 15.7683 30.4711 15.5409 30.5254ZM23.5115 8.05924V8.02272C23.5106 8.01667 23.5106 8.01052 23.5115 8.00447C22.7446 5.66662 21.2579 3.63123 19.2641 2.18948C17.2704 0.747732 14.8717 -0.0264965 12.4113 -0.0224451C9.95083 -0.0183937 7.55472 0.763731 5.56571 2.21204C3.57671 3.66034 2.09673 5.70062 1.33749 8.04098C1.3392 8.04818 1.3392 8.05568 1.33749 8.06289C0.307841 11.0898 0.680269 15.1427 2.34159 18.918C4.61266 24.0809 8.73492 27.681 12.3825 27.681H12.4884C16.1397 27.681 20.2583 24.0919 22.5293 18.918C24.1761 15.15 24.5485 11.0898 23.5115 8.05924ZM18.1515 3.64122C16.3076 3.56455 14.2958 4.37147 12.419 5.92691C10.5386 4.37147 8.5268 3.57185 6.68292 3.64122C8.3574 2.44917 10.3618 1.80859 12.4172 1.80859C14.4727 1.80859 16.477 2.44917 18.1515 3.64122ZM13.9233 25.5232C13.452 25.7443 12.9378 25.859 12.4172 25.859C11.8966 25.859 11.3824 25.7443 10.9111 25.5232C7.79655 24.0882 7.16489 18.3192 9.53455 12.9373C10.2482 11.2945 11.2263 9.77987 12.43 8.45357C13.6305 9.78015 14.6049 11.2949 15.3145 12.9373C17.6695 18.3192 17.0379 24.0882 13.9233 25.5232ZM3.99195 18.1951C2.50589 14.814 2.16633 11.2577 3.05723 8.63248C3.53189 7.25596 4.33152 6.27743 5.36847 5.79911C6.98598 5.05061 9.07814 5.58004 11.09 7.20484C9.74794 8.68192 8.65753 10.3693 7.86228 12.1998C6.26668 15.851 5.90886 19.5716 6.64641 22.4671C5.56081 21.1781 4.66678 19.7393 3.99195 18.1951ZM20.8425 18.1951C20.1666 19.7399 19.2727 21.1798 18.188 22.4707C18.9183 19.5716 18.5531 15.8327 16.9721 12.1998C16.1768 10.3702 15.0877 8.68303 13.7481 7.20484C15.7563 5.58004 17.8484 5.05061 19.4659 5.79911C20.5029 6.27743 21.2916 7.25961 21.7772 8.63248C22.679 11.2395 22.3285 14.814 20.8279 18.1951H20.8425Z" fill="#A3B2C6"/>
</g>
<defs>
<clipPath id="clip0_321:2781">
<rect width="102.301" height="33" fill="white" transform="translate(0.731445)"/>
</clipPath>
</defs>
</svg>
