<?xml version="1.0" standalone="no"?>
<svg version="1.0" xmlns="http://www.w3.org/2000/svg"
 width="150.000000pt" height="150.000000pt" viewBox="0 0 150.000000 150.000000"
 preserveAspectRatio="xMidYMid meet">
<g transform="translate(0.000000,150.000000) scale(0.100000,-0.100000)"
fill="#A3B2C6" stroke="none">
<path d="M245 1260 c3 -5 34 -10 68 -10 l62 0 158 -278 157 -278 0 -202 0
-202 -74 0 c-41 0 -78 -4 -81 -10 -4 -7 73 -10 224 -10 147 0 231 4 231 10 0
6 -33 10 -80 10 l-80 0 0 220 0 220 -152 270 -151 270 -144 0 c-94 0 -142 -4
-138 -10z"/>
</g>
</svg>
